G04 #@! TF.GenerationSoftware,KiCad,Pcbnew,(5.0.2)*
G04 #@! TF.CreationDate,2020-11-06T15:24:57+00:00*
G04 #@! TF.ProjectId,alto,616c746f-2e6b-4696-9361-645f70636258,rev?*
G04 #@! TF.SameCoordinates,Original*
G04 #@! TF.FileFunction,Soldermask,Bot*
G04 #@! TF.FilePolarity,Negative*
%FSLAX46Y46*%
G04 Gerber Fmt 4.6, Leading zero omitted, Abs format (unit mm)*
G04 Created by KiCad (PCBNEW (5.0.2)) date Fri 06 Nov 2020 15:24:57 GMT*
%MOMM*%
%LPD*%
G01*
G04 APERTURE LIST*
%ADD10C,0.150000*%
%ADD11C,0.100000*%
G04 APERTURE END LIST*
D10*
X157000000Y-80000000D02*
X161500000Y-80000000D01*
X103500000Y-80000000D02*
X157000000Y-80000000D01*
X104875000Y-76500000D02*
G75*
G03X104875000Y-76500000I-1375000J0D01*
G01*
X162875000Y-76500000D02*
G75*
G03X162875000Y-76500000I-1375000J0D01*
G01*
X100000000Y-76500000D02*
X100000000Y-53500000D01*
X165000000Y-53500000D02*
X165000000Y-76500000D01*
X103500000Y-50000000D02*
X161500000Y-50000000D01*
X103500000Y-80000000D02*
G75*
G02X100000000Y-76500000I0J3500000D01*
G01*
X165000000Y-76500000D02*
G75*
G02X161500000Y-80000000I-3500000J0D01*
G01*
X100000000Y-53500000D02*
G75*
G02X103500000Y-50000000I3500000J0D01*
G01*
X161500000Y-50000000D02*
G75*
G02X165000000Y-53500000I0J-3500000D01*
G01*
X162875000Y-53500000D02*
G75*
G03X162875000Y-53500000I-1375000J0D01*
G01*
X104875000Y-53500000D02*
G75*
G03X104875000Y-53500000I-1375000J0D01*
G01*
D11*
G36*
X145310442Y-78005518D02*
X145376627Y-78012037D01*
X145489853Y-78046384D01*
X145546467Y-78063557D01*
X145685087Y-78137652D01*
X145702991Y-78147222D01*
X145738729Y-78176552D01*
X145840186Y-78259814D01*
X145923448Y-78361271D01*
X145952778Y-78397009D01*
X145952779Y-78397011D01*
X146036443Y-78553533D01*
X146036443Y-78553534D01*
X146087963Y-78723373D01*
X146105359Y-78900000D01*
X146087963Y-79076627D01*
X146053616Y-79189853D01*
X146036443Y-79246467D01*
X145962348Y-79385087D01*
X145952778Y-79402991D01*
X145923448Y-79438729D01*
X145840186Y-79540186D01*
X145738729Y-79623448D01*
X145702991Y-79652778D01*
X145702989Y-79652779D01*
X145546467Y-79736443D01*
X145489853Y-79753616D01*
X145376627Y-79787963D01*
X145310442Y-79794482D01*
X145244260Y-79801000D01*
X145155740Y-79801000D01*
X145089558Y-79794482D01*
X145023373Y-79787963D01*
X144910147Y-79753616D01*
X144853533Y-79736443D01*
X144697011Y-79652779D01*
X144697009Y-79652778D01*
X144661271Y-79623448D01*
X144559814Y-79540186D01*
X144476552Y-79438729D01*
X144447222Y-79402991D01*
X144437652Y-79385087D01*
X144363557Y-79246467D01*
X144346384Y-79189853D01*
X144312037Y-79076627D01*
X144294641Y-78900000D01*
X144312037Y-78723373D01*
X144363557Y-78553534D01*
X144363557Y-78553533D01*
X144447221Y-78397011D01*
X144447222Y-78397009D01*
X144476552Y-78361271D01*
X144559814Y-78259814D01*
X144661271Y-78176552D01*
X144697009Y-78147222D01*
X144714913Y-78137652D01*
X144853533Y-78063557D01*
X144910147Y-78046384D01*
X145023373Y-78012037D01*
X145089558Y-78005518D01*
X145155740Y-77999000D01*
X145244260Y-77999000D01*
X145310442Y-78005518D01*
X145310442Y-78005518D01*
G37*
G36*
X143561000Y-79801000D02*
X141759000Y-79801000D01*
X141759000Y-77999000D01*
X143561000Y-77999000D01*
X143561000Y-79801000D01*
X143561000Y-79801000D01*
G37*
G36*
X140230442Y-78005518D02*
X140296627Y-78012037D01*
X140409853Y-78046384D01*
X140466467Y-78063557D01*
X140605087Y-78137652D01*
X140622991Y-78147222D01*
X140658729Y-78176552D01*
X140760186Y-78259814D01*
X140843448Y-78361271D01*
X140872778Y-78397009D01*
X140872779Y-78397011D01*
X140956443Y-78553533D01*
X140956443Y-78553534D01*
X141007963Y-78723373D01*
X141025359Y-78900000D01*
X141007963Y-79076627D01*
X140973616Y-79189853D01*
X140956443Y-79246467D01*
X140882348Y-79385087D01*
X140872778Y-79402991D01*
X140843448Y-79438729D01*
X140760186Y-79540186D01*
X140658729Y-79623448D01*
X140622991Y-79652778D01*
X140622989Y-79652779D01*
X140466467Y-79736443D01*
X140409853Y-79753616D01*
X140296627Y-79787963D01*
X140230442Y-79794482D01*
X140164260Y-79801000D01*
X140075740Y-79801000D01*
X140009558Y-79794482D01*
X139943373Y-79787963D01*
X139830147Y-79753616D01*
X139773533Y-79736443D01*
X139617011Y-79652779D01*
X139617009Y-79652778D01*
X139581271Y-79623448D01*
X139479814Y-79540186D01*
X139396552Y-79438729D01*
X139367222Y-79402991D01*
X139357652Y-79385087D01*
X139283557Y-79246467D01*
X139266384Y-79189853D01*
X139232037Y-79076627D01*
X139214641Y-78900000D01*
X139232037Y-78723373D01*
X139283557Y-78553534D01*
X139283557Y-78553533D01*
X139367221Y-78397011D01*
X139367222Y-78397009D01*
X139396552Y-78361271D01*
X139479814Y-78259814D01*
X139581271Y-78176552D01*
X139617009Y-78147222D01*
X139634913Y-78137652D01*
X139773533Y-78063557D01*
X139830147Y-78046384D01*
X139943373Y-78012037D01*
X140009558Y-78005518D01*
X140075740Y-77999000D01*
X140164260Y-77999000D01*
X140230442Y-78005518D01*
X140230442Y-78005518D01*
G37*
G36*
X138481000Y-79801000D02*
X136679000Y-79801000D01*
X136679000Y-77999000D01*
X138481000Y-77999000D01*
X138481000Y-79801000D01*
X138481000Y-79801000D01*
G37*
G36*
X127530442Y-78005518D02*
X127596627Y-78012037D01*
X127709853Y-78046384D01*
X127766467Y-78063557D01*
X127905087Y-78137652D01*
X127922991Y-78147222D01*
X127958729Y-78176552D01*
X128060186Y-78259814D01*
X128143448Y-78361271D01*
X128172778Y-78397009D01*
X128172779Y-78397011D01*
X128256443Y-78553533D01*
X128256443Y-78553534D01*
X128307963Y-78723373D01*
X128325359Y-78900000D01*
X128307963Y-79076627D01*
X128273616Y-79189853D01*
X128256443Y-79246467D01*
X128182348Y-79385087D01*
X128172778Y-79402991D01*
X128143448Y-79438729D01*
X128060186Y-79540186D01*
X127958729Y-79623448D01*
X127922991Y-79652778D01*
X127922989Y-79652779D01*
X127766467Y-79736443D01*
X127709853Y-79753616D01*
X127596627Y-79787963D01*
X127530442Y-79794482D01*
X127464260Y-79801000D01*
X127375740Y-79801000D01*
X127309558Y-79794482D01*
X127243373Y-79787963D01*
X127130147Y-79753616D01*
X127073533Y-79736443D01*
X126917011Y-79652779D01*
X126917009Y-79652778D01*
X126881271Y-79623448D01*
X126779814Y-79540186D01*
X126696552Y-79438729D01*
X126667222Y-79402991D01*
X126657652Y-79385087D01*
X126583557Y-79246467D01*
X126566384Y-79189853D01*
X126532037Y-79076627D01*
X126514641Y-78900000D01*
X126532037Y-78723373D01*
X126583557Y-78553534D01*
X126583557Y-78553533D01*
X126667221Y-78397011D01*
X126667222Y-78397009D01*
X126696552Y-78361271D01*
X126779814Y-78259814D01*
X126881271Y-78176552D01*
X126917009Y-78147222D01*
X126934913Y-78137652D01*
X127073533Y-78063557D01*
X127130147Y-78046384D01*
X127243373Y-78012037D01*
X127309558Y-78005518D01*
X127375740Y-77999000D01*
X127464260Y-77999000D01*
X127530442Y-78005518D01*
X127530442Y-78005518D01*
G37*
G36*
X124990442Y-78005518D02*
X125056627Y-78012037D01*
X125169853Y-78046384D01*
X125226467Y-78063557D01*
X125365087Y-78137652D01*
X125382991Y-78147222D01*
X125418729Y-78176552D01*
X125520186Y-78259814D01*
X125603448Y-78361271D01*
X125632778Y-78397009D01*
X125632779Y-78397011D01*
X125716443Y-78553533D01*
X125716443Y-78553534D01*
X125767963Y-78723373D01*
X125785359Y-78900000D01*
X125767963Y-79076627D01*
X125733616Y-79189853D01*
X125716443Y-79246467D01*
X125642348Y-79385087D01*
X125632778Y-79402991D01*
X125603448Y-79438729D01*
X125520186Y-79540186D01*
X125418729Y-79623448D01*
X125382991Y-79652778D01*
X125382989Y-79652779D01*
X125226467Y-79736443D01*
X125169853Y-79753616D01*
X125056627Y-79787963D01*
X124990442Y-79794482D01*
X124924260Y-79801000D01*
X124835740Y-79801000D01*
X124769558Y-79794482D01*
X124703373Y-79787963D01*
X124590147Y-79753616D01*
X124533533Y-79736443D01*
X124377011Y-79652779D01*
X124377009Y-79652778D01*
X124341271Y-79623448D01*
X124239814Y-79540186D01*
X124156552Y-79438729D01*
X124127222Y-79402991D01*
X124117652Y-79385087D01*
X124043557Y-79246467D01*
X124026384Y-79189853D01*
X123992037Y-79076627D01*
X123974641Y-78900000D01*
X123992037Y-78723373D01*
X124043557Y-78553534D01*
X124043557Y-78553533D01*
X124127221Y-78397011D01*
X124127222Y-78397009D01*
X124156552Y-78361271D01*
X124239814Y-78259814D01*
X124341271Y-78176552D01*
X124377009Y-78147222D01*
X124394913Y-78137652D01*
X124533533Y-78063557D01*
X124590147Y-78046384D01*
X124703373Y-78012037D01*
X124769558Y-78005518D01*
X124835740Y-77999000D01*
X124924260Y-77999000D01*
X124990442Y-78005518D01*
X124990442Y-78005518D01*
G37*
G36*
X123241000Y-79801000D02*
X121439000Y-79801000D01*
X121439000Y-77999000D01*
X123241000Y-77999000D01*
X123241000Y-79801000D01*
X123241000Y-79801000D01*
G37*
G36*
X135150442Y-78005518D02*
X135216627Y-78012037D01*
X135329853Y-78046384D01*
X135386467Y-78063557D01*
X135525087Y-78137652D01*
X135542991Y-78147222D01*
X135578729Y-78176552D01*
X135680186Y-78259814D01*
X135763448Y-78361271D01*
X135792778Y-78397009D01*
X135792779Y-78397011D01*
X135876443Y-78553533D01*
X135876443Y-78553534D01*
X135927963Y-78723373D01*
X135945359Y-78900000D01*
X135927963Y-79076627D01*
X135893616Y-79189853D01*
X135876443Y-79246467D01*
X135802348Y-79385087D01*
X135792778Y-79402991D01*
X135763448Y-79438729D01*
X135680186Y-79540186D01*
X135578729Y-79623448D01*
X135542991Y-79652778D01*
X135542989Y-79652779D01*
X135386467Y-79736443D01*
X135329853Y-79753616D01*
X135216627Y-79787963D01*
X135150442Y-79794482D01*
X135084260Y-79801000D01*
X134995740Y-79801000D01*
X134929558Y-79794482D01*
X134863373Y-79787963D01*
X134750147Y-79753616D01*
X134693533Y-79736443D01*
X134537011Y-79652779D01*
X134537009Y-79652778D01*
X134501271Y-79623448D01*
X134399814Y-79540186D01*
X134316552Y-79438729D01*
X134287222Y-79402991D01*
X134277652Y-79385087D01*
X134203557Y-79246467D01*
X134186384Y-79189853D01*
X134152037Y-79076627D01*
X134134641Y-78900000D01*
X134152037Y-78723373D01*
X134203557Y-78553534D01*
X134203557Y-78553533D01*
X134287221Y-78397011D01*
X134287222Y-78397009D01*
X134316552Y-78361271D01*
X134399814Y-78259814D01*
X134501271Y-78176552D01*
X134537009Y-78147222D01*
X134554913Y-78137652D01*
X134693533Y-78063557D01*
X134750147Y-78046384D01*
X134863373Y-78012037D01*
X134929558Y-78005518D01*
X134995740Y-77999000D01*
X135084260Y-77999000D01*
X135150442Y-78005518D01*
X135150442Y-78005518D01*
G37*
G36*
X130861000Y-79801000D02*
X129059000Y-79801000D01*
X129059000Y-77999000D01*
X130861000Y-77999000D01*
X130861000Y-79801000D01*
X130861000Y-79801000D01*
G37*
G36*
X132610442Y-78005518D02*
X132676627Y-78012037D01*
X132789853Y-78046384D01*
X132846467Y-78063557D01*
X132985087Y-78137652D01*
X133002991Y-78147222D01*
X133038729Y-78176552D01*
X133140186Y-78259814D01*
X133223448Y-78361271D01*
X133252778Y-78397009D01*
X133252779Y-78397011D01*
X133336443Y-78553533D01*
X133336443Y-78553534D01*
X133387963Y-78723373D01*
X133405359Y-78900000D01*
X133387963Y-79076627D01*
X133353616Y-79189853D01*
X133336443Y-79246467D01*
X133262348Y-79385087D01*
X133252778Y-79402991D01*
X133223448Y-79438729D01*
X133140186Y-79540186D01*
X133038729Y-79623448D01*
X133002991Y-79652778D01*
X133002989Y-79652779D01*
X132846467Y-79736443D01*
X132789853Y-79753616D01*
X132676627Y-79787963D01*
X132610442Y-79794482D01*
X132544260Y-79801000D01*
X132455740Y-79801000D01*
X132389558Y-79794482D01*
X132323373Y-79787963D01*
X132210147Y-79753616D01*
X132153533Y-79736443D01*
X131997011Y-79652779D01*
X131997009Y-79652778D01*
X131961271Y-79623448D01*
X131859814Y-79540186D01*
X131776552Y-79438729D01*
X131747222Y-79402991D01*
X131737652Y-79385087D01*
X131663557Y-79246467D01*
X131646384Y-79189853D01*
X131612037Y-79076627D01*
X131594641Y-78900000D01*
X131612037Y-78723373D01*
X131663557Y-78553534D01*
X131663557Y-78553533D01*
X131747221Y-78397011D01*
X131747222Y-78397009D01*
X131776552Y-78361271D01*
X131859814Y-78259814D01*
X131961271Y-78176552D01*
X131997009Y-78147222D01*
X132014913Y-78137652D01*
X132153533Y-78063557D01*
X132210147Y-78046384D01*
X132323373Y-78012037D01*
X132389558Y-78005518D01*
X132455740Y-77999000D01*
X132544260Y-77999000D01*
X132610442Y-78005518D01*
X132610442Y-78005518D01*
G37*
G36*
X155637396Y-75445546D02*
X155810466Y-75517234D01*
X155966230Y-75621312D01*
X156098688Y-75753770D01*
X156202766Y-75909534D01*
X156274454Y-76082604D01*
X156311000Y-76266333D01*
X156311000Y-76453667D01*
X156274454Y-76637396D01*
X156202766Y-76810466D01*
X156098688Y-76966230D01*
X155966230Y-77098688D01*
X155810466Y-77202766D01*
X155637396Y-77274454D01*
X155453667Y-77311000D01*
X155266333Y-77311000D01*
X155082604Y-77274454D01*
X154909534Y-77202766D01*
X154753770Y-77098688D01*
X154621312Y-76966230D01*
X154517234Y-76810466D01*
X154445546Y-76637396D01*
X154409000Y-76453667D01*
X154409000Y-76266333D01*
X154445546Y-76082604D01*
X154517234Y-75909534D01*
X154621312Y-75753770D01*
X154753770Y-75621312D01*
X154909534Y-75517234D01*
X155082604Y-75445546D01*
X155266333Y-75409000D01*
X155453667Y-75409000D01*
X155637396Y-75445546D01*
X155637396Y-75445546D01*
G37*
G36*
X153771000Y-77311000D02*
X151869000Y-77311000D01*
X151869000Y-75409000D01*
X153771000Y-75409000D01*
X153771000Y-77311000D01*
X153771000Y-77311000D01*
G37*
G36*
X109750443Y-72925519D02*
X109816627Y-72932037D01*
X109929853Y-72966384D01*
X109986467Y-72983557D01*
X110125087Y-73057652D01*
X110142991Y-73067222D01*
X110178729Y-73096552D01*
X110280186Y-73179814D01*
X110363448Y-73281271D01*
X110392778Y-73317009D01*
X110392779Y-73317011D01*
X110476443Y-73473533D01*
X110476443Y-73473534D01*
X110527963Y-73643373D01*
X110545359Y-73820000D01*
X110527963Y-73996627D01*
X110493616Y-74109853D01*
X110476443Y-74166467D01*
X110402348Y-74305087D01*
X110392778Y-74322991D01*
X110363448Y-74358729D01*
X110280186Y-74460186D01*
X110178729Y-74543448D01*
X110142991Y-74572778D01*
X110142989Y-74572779D01*
X109986467Y-74656443D01*
X109929853Y-74673616D01*
X109816627Y-74707963D01*
X109750442Y-74714482D01*
X109684260Y-74721000D01*
X109595740Y-74721000D01*
X109529558Y-74714482D01*
X109463373Y-74707963D01*
X109350147Y-74673616D01*
X109293533Y-74656443D01*
X109137011Y-74572779D01*
X109137009Y-74572778D01*
X109101271Y-74543448D01*
X108999814Y-74460186D01*
X108916552Y-74358729D01*
X108887222Y-74322991D01*
X108877652Y-74305087D01*
X108803557Y-74166467D01*
X108786384Y-74109853D01*
X108752037Y-73996627D01*
X108734641Y-73820000D01*
X108752037Y-73643373D01*
X108803557Y-73473534D01*
X108803557Y-73473533D01*
X108887221Y-73317011D01*
X108887222Y-73317009D01*
X108916552Y-73281271D01*
X108999814Y-73179814D01*
X109101271Y-73096552D01*
X109137009Y-73067222D01*
X109154913Y-73057652D01*
X109293533Y-72983557D01*
X109350147Y-72966384D01*
X109463373Y-72932037D01*
X109529557Y-72925519D01*
X109595740Y-72919000D01*
X109684260Y-72919000D01*
X109750443Y-72925519D01*
X109750443Y-72925519D01*
G37*
G36*
X146250490Y-73600490D02*
X144149510Y-73600490D01*
X144149510Y-71499510D01*
X146250490Y-71499510D01*
X146250490Y-73600490D01*
X146250490Y-73600490D01*
G37*
G36*
X151330490Y-73521750D02*
X149229510Y-73521750D01*
X149229510Y-71420770D01*
X151330490Y-71420770D01*
X151330490Y-73521750D01*
X151330490Y-73521750D01*
G37*
G36*
X136090490Y-73394750D02*
X133989510Y-73394750D01*
X133989510Y-71293770D01*
X136090490Y-71293770D01*
X136090490Y-73394750D01*
X136090490Y-73394750D01*
G37*
G36*
X131010490Y-73394750D02*
X128909510Y-73394750D01*
X128909510Y-71293770D01*
X131010490Y-71293770D01*
X131010490Y-73394750D01*
X131010490Y-73394750D01*
G37*
G36*
X141170490Y-73394750D02*
X139069510Y-73394750D01*
X139069510Y-71293770D01*
X141170490Y-71293770D01*
X141170490Y-73394750D01*
X141170490Y-73394750D01*
G37*
G36*
X102921000Y-72181000D02*
X101119000Y-72181000D01*
X101119000Y-70379000D01*
X102921000Y-70379000D01*
X102921000Y-72181000D01*
X102921000Y-72181000D01*
G37*
G36*
X163881000Y-72181000D02*
X162079000Y-72181000D01*
X162079000Y-70379000D01*
X163881000Y-70379000D01*
X163881000Y-72181000D01*
X163881000Y-72181000D01*
G37*
G36*
X109750442Y-70385518D02*
X109816627Y-70392037D01*
X109929853Y-70426384D01*
X109986467Y-70443557D01*
X110125087Y-70517652D01*
X110142991Y-70527222D01*
X110178729Y-70556552D01*
X110280186Y-70639814D01*
X110363448Y-70741271D01*
X110392778Y-70777009D01*
X110392779Y-70777011D01*
X110476443Y-70933533D01*
X110476443Y-70933534D01*
X110527963Y-71103373D01*
X110545359Y-71280000D01*
X110527963Y-71456627D01*
X110493616Y-71569853D01*
X110476443Y-71626467D01*
X110402348Y-71765087D01*
X110392778Y-71782991D01*
X110363448Y-71818729D01*
X110280186Y-71920186D01*
X110178729Y-72003448D01*
X110142991Y-72032778D01*
X110142989Y-72032779D01*
X109986467Y-72116443D01*
X109929853Y-72133616D01*
X109816627Y-72167963D01*
X109750443Y-72174481D01*
X109684260Y-72181000D01*
X109595740Y-72181000D01*
X109529557Y-72174481D01*
X109463373Y-72167963D01*
X109350147Y-72133616D01*
X109293533Y-72116443D01*
X109137011Y-72032779D01*
X109137009Y-72032778D01*
X109101271Y-72003448D01*
X108999814Y-71920186D01*
X108916552Y-71818729D01*
X108887222Y-71782991D01*
X108877652Y-71765087D01*
X108803557Y-71626467D01*
X108786384Y-71569853D01*
X108752037Y-71456627D01*
X108734641Y-71280000D01*
X108752037Y-71103373D01*
X108803557Y-70933534D01*
X108803557Y-70933533D01*
X108887221Y-70777011D01*
X108887222Y-70777009D01*
X108916552Y-70741271D01*
X108999814Y-70639814D01*
X109101271Y-70556552D01*
X109137009Y-70527222D01*
X109154913Y-70517652D01*
X109293533Y-70443557D01*
X109350147Y-70426384D01*
X109463373Y-70392037D01*
X109529558Y-70385518D01*
X109595740Y-70379000D01*
X109684260Y-70379000D01*
X109750442Y-70385518D01*
X109750442Y-70385518D01*
G37*
G36*
X102130442Y-67845518D02*
X102196627Y-67852037D01*
X102309853Y-67886384D01*
X102366467Y-67903557D01*
X102505087Y-67977652D01*
X102522991Y-67987222D01*
X102558729Y-68016552D01*
X102660186Y-68099814D01*
X102743448Y-68201271D01*
X102772778Y-68237009D01*
X102772779Y-68237011D01*
X102856443Y-68393533D01*
X102856443Y-68393534D01*
X102907963Y-68563373D01*
X102925359Y-68740000D01*
X102907963Y-68916627D01*
X102873616Y-69029853D01*
X102856443Y-69086467D01*
X102782348Y-69225087D01*
X102772778Y-69242991D01*
X102743448Y-69278729D01*
X102660186Y-69380186D01*
X102558729Y-69463448D01*
X102522991Y-69492778D01*
X102522989Y-69492779D01*
X102366467Y-69576443D01*
X102309853Y-69593616D01*
X102196627Y-69627963D01*
X102130442Y-69634482D01*
X102064260Y-69641000D01*
X101975740Y-69641000D01*
X101909558Y-69634482D01*
X101843373Y-69627963D01*
X101730147Y-69593616D01*
X101673533Y-69576443D01*
X101517011Y-69492779D01*
X101517009Y-69492778D01*
X101481271Y-69463448D01*
X101379814Y-69380186D01*
X101296552Y-69278729D01*
X101267222Y-69242991D01*
X101257652Y-69225087D01*
X101183557Y-69086467D01*
X101166384Y-69029853D01*
X101132037Y-68916627D01*
X101114641Y-68740000D01*
X101132037Y-68563373D01*
X101183557Y-68393534D01*
X101183557Y-68393533D01*
X101267221Y-68237011D01*
X101267222Y-68237009D01*
X101296552Y-68201271D01*
X101379814Y-68099814D01*
X101481271Y-68016552D01*
X101517009Y-67987222D01*
X101534913Y-67977652D01*
X101673533Y-67903557D01*
X101730147Y-67886384D01*
X101843373Y-67852037D01*
X101909558Y-67845518D01*
X101975740Y-67839000D01*
X102064260Y-67839000D01*
X102130442Y-67845518D01*
X102130442Y-67845518D01*
G37*
G36*
X110541000Y-69641000D02*
X108739000Y-69641000D01*
X108739000Y-67839000D01*
X110541000Y-67839000D01*
X110541000Y-69641000D01*
X110541000Y-69641000D01*
G37*
G36*
X163090442Y-67845518D02*
X163156627Y-67852037D01*
X163269853Y-67886384D01*
X163326467Y-67903557D01*
X163465087Y-67977652D01*
X163482991Y-67987222D01*
X163518729Y-68016552D01*
X163620186Y-68099814D01*
X163703448Y-68201271D01*
X163732778Y-68237009D01*
X163732779Y-68237011D01*
X163816443Y-68393533D01*
X163816443Y-68393534D01*
X163867963Y-68563373D01*
X163885359Y-68740000D01*
X163867963Y-68916627D01*
X163833616Y-69029853D01*
X163816443Y-69086467D01*
X163742348Y-69225087D01*
X163732778Y-69242991D01*
X163703448Y-69278729D01*
X163620186Y-69380186D01*
X163518729Y-69463448D01*
X163482991Y-69492778D01*
X163482989Y-69492779D01*
X163326467Y-69576443D01*
X163269853Y-69593616D01*
X163156627Y-69627963D01*
X163090442Y-69634482D01*
X163024260Y-69641000D01*
X162935740Y-69641000D01*
X162869558Y-69634482D01*
X162803373Y-69627963D01*
X162690147Y-69593616D01*
X162633533Y-69576443D01*
X162477011Y-69492779D01*
X162477009Y-69492778D01*
X162441271Y-69463448D01*
X162339814Y-69380186D01*
X162256552Y-69278729D01*
X162227222Y-69242991D01*
X162217652Y-69225087D01*
X162143557Y-69086467D01*
X162126384Y-69029853D01*
X162092037Y-68916627D01*
X162074641Y-68740000D01*
X162092037Y-68563373D01*
X162143557Y-68393534D01*
X162143557Y-68393533D01*
X162227221Y-68237011D01*
X162227222Y-68237009D01*
X162256552Y-68201271D01*
X162339814Y-68099814D01*
X162441271Y-68016552D01*
X162477009Y-67987222D01*
X162494913Y-67977652D01*
X162633533Y-67903557D01*
X162690147Y-67886384D01*
X162803373Y-67852037D01*
X162869558Y-67845518D01*
X162935740Y-67839000D01*
X163024260Y-67839000D01*
X163090442Y-67845518D01*
X163090442Y-67845518D01*
G37*
G36*
X163090442Y-65305518D02*
X163156627Y-65312037D01*
X163269853Y-65346384D01*
X163326467Y-65363557D01*
X163465087Y-65437652D01*
X163482991Y-65447222D01*
X163518729Y-65476552D01*
X163620186Y-65559814D01*
X163703448Y-65661271D01*
X163732778Y-65697009D01*
X163732779Y-65697011D01*
X163816443Y-65853533D01*
X163816443Y-65853534D01*
X163867963Y-66023373D01*
X163885359Y-66200000D01*
X163867963Y-66376627D01*
X163833616Y-66489853D01*
X163816443Y-66546467D01*
X163742348Y-66685087D01*
X163732778Y-66702991D01*
X163703448Y-66738729D01*
X163620186Y-66840186D01*
X163518729Y-66923448D01*
X163482991Y-66952778D01*
X163482989Y-66952779D01*
X163326467Y-67036443D01*
X163269853Y-67053616D01*
X163156627Y-67087963D01*
X163090443Y-67094481D01*
X163024260Y-67101000D01*
X162935740Y-67101000D01*
X162869557Y-67094481D01*
X162803373Y-67087963D01*
X162690147Y-67053616D01*
X162633533Y-67036443D01*
X162477011Y-66952779D01*
X162477009Y-66952778D01*
X162441271Y-66923448D01*
X162339814Y-66840186D01*
X162256552Y-66738729D01*
X162227222Y-66702991D01*
X162217652Y-66685087D01*
X162143557Y-66546467D01*
X162126384Y-66489853D01*
X162092037Y-66376627D01*
X162074641Y-66200000D01*
X162092037Y-66023373D01*
X162143557Y-65853534D01*
X162143557Y-65853533D01*
X162227221Y-65697011D01*
X162227222Y-65697009D01*
X162256552Y-65661271D01*
X162339814Y-65559814D01*
X162441271Y-65476552D01*
X162477009Y-65447222D01*
X162494913Y-65437652D01*
X162633533Y-65363557D01*
X162690147Y-65346384D01*
X162803373Y-65312037D01*
X162869558Y-65305518D01*
X162935740Y-65299000D01*
X163024260Y-65299000D01*
X163090442Y-65305518D01*
X163090442Y-65305518D01*
G37*
G36*
X146250490Y-63597970D02*
X144149510Y-63597970D01*
X144149510Y-61496990D01*
X146250490Y-61496990D01*
X146250490Y-63597970D01*
X146250490Y-63597970D01*
G37*
G36*
X151330490Y-63519230D02*
X149229510Y-63519230D01*
X149229510Y-61418250D01*
X151330490Y-61418250D01*
X151330490Y-63519230D01*
X151330490Y-63519230D01*
G37*
G36*
X141170490Y-63392230D02*
X139069510Y-63392230D01*
X139069510Y-61291250D01*
X141170490Y-61291250D01*
X141170490Y-63392230D01*
X141170490Y-63392230D01*
G37*
G36*
X131010490Y-63392230D02*
X128909510Y-63392230D01*
X128909510Y-61291250D01*
X131010490Y-61291250D01*
X131010490Y-63392230D01*
X131010490Y-63392230D01*
G37*
G36*
X136090490Y-63392230D02*
X133989510Y-63392230D01*
X133989510Y-61291250D01*
X136090490Y-61291250D01*
X136090490Y-63392230D01*
X136090490Y-63392230D01*
G37*
G36*
X142770443Y-57050519D02*
X142836627Y-57057037D01*
X142949853Y-57091384D01*
X143006467Y-57108557D01*
X143145087Y-57182652D01*
X143162991Y-57192222D01*
X143198729Y-57221552D01*
X143300186Y-57304814D01*
X143383448Y-57406271D01*
X143412778Y-57442009D01*
X143412779Y-57442011D01*
X143496443Y-57598533D01*
X143496443Y-57598534D01*
X143547963Y-57768373D01*
X143565359Y-57945000D01*
X143547963Y-58121627D01*
X143513616Y-58234853D01*
X143496443Y-58291467D01*
X143422348Y-58430087D01*
X143412778Y-58447991D01*
X143383448Y-58483729D01*
X143300186Y-58585186D01*
X143198729Y-58668448D01*
X143162991Y-58697778D01*
X143162989Y-58697779D01*
X143006467Y-58781443D01*
X142949853Y-58798616D01*
X142836627Y-58832963D01*
X142770442Y-58839482D01*
X142704260Y-58846000D01*
X142615740Y-58846000D01*
X142549558Y-58839482D01*
X142483373Y-58832963D01*
X142370147Y-58798616D01*
X142313533Y-58781443D01*
X142157011Y-58697779D01*
X142157009Y-58697778D01*
X142121271Y-58668448D01*
X142019814Y-58585186D01*
X141936552Y-58483729D01*
X141907222Y-58447991D01*
X141897652Y-58430087D01*
X141823557Y-58291467D01*
X141806384Y-58234853D01*
X141772037Y-58121627D01*
X141754641Y-57945000D01*
X141772037Y-57768373D01*
X141823557Y-57598534D01*
X141823557Y-57598533D01*
X141907221Y-57442011D01*
X141907222Y-57442009D01*
X141936552Y-57406271D01*
X142019814Y-57304814D01*
X142121271Y-57221552D01*
X142157009Y-57192222D01*
X142174913Y-57182652D01*
X142313533Y-57108557D01*
X142370147Y-57091384D01*
X142483373Y-57057037D01*
X142549557Y-57050519D01*
X142615740Y-57044000D01*
X142704260Y-57044000D01*
X142770443Y-57050519D01*
X142770443Y-57050519D01*
G37*
G36*
X140230443Y-57050519D02*
X140296627Y-57057037D01*
X140409853Y-57091384D01*
X140466467Y-57108557D01*
X140605087Y-57182652D01*
X140622991Y-57192222D01*
X140658729Y-57221552D01*
X140760186Y-57304814D01*
X140843448Y-57406271D01*
X140872778Y-57442009D01*
X140872779Y-57442011D01*
X140956443Y-57598533D01*
X140956443Y-57598534D01*
X141007963Y-57768373D01*
X141025359Y-57945000D01*
X141007963Y-58121627D01*
X140973616Y-58234853D01*
X140956443Y-58291467D01*
X140882348Y-58430087D01*
X140872778Y-58447991D01*
X140843448Y-58483729D01*
X140760186Y-58585186D01*
X140658729Y-58668448D01*
X140622991Y-58697778D01*
X140622989Y-58697779D01*
X140466467Y-58781443D01*
X140409853Y-58798616D01*
X140296627Y-58832963D01*
X140230442Y-58839482D01*
X140164260Y-58846000D01*
X140075740Y-58846000D01*
X140009558Y-58839482D01*
X139943373Y-58832963D01*
X139830147Y-58798616D01*
X139773533Y-58781443D01*
X139617011Y-58697779D01*
X139617009Y-58697778D01*
X139581271Y-58668448D01*
X139479814Y-58585186D01*
X139396552Y-58483729D01*
X139367222Y-58447991D01*
X139357652Y-58430087D01*
X139283557Y-58291467D01*
X139266384Y-58234853D01*
X139232037Y-58121627D01*
X139214641Y-57945000D01*
X139232037Y-57768373D01*
X139283557Y-57598534D01*
X139283557Y-57598533D01*
X139367221Y-57442011D01*
X139367222Y-57442009D01*
X139396552Y-57406271D01*
X139479814Y-57304814D01*
X139581271Y-57221552D01*
X139617009Y-57192222D01*
X139634913Y-57182652D01*
X139773533Y-57108557D01*
X139830147Y-57091384D01*
X139943373Y-57057037D01*
X140009557Y-57050519D01*
X140075740Y-57044000D01*
X140164260Y-57044000D01*
X140230443Y-57050519D01*
X140230443Y-57050519D01*
G37*
G36*
X138481000Y-58846000D02*
X136679000Y-58846000D01*
X136679000Y-57044000D01*
X138481000Y-57044000D01*
X138481000Y-58846000D01*
X138481000Y-58846000D01*
G37*
G36*
X153721000Y-58846000D02*
X151919000Y-58846000D01*
X151919000Y-57044000D01*
X153721000Y-57044000D01*
X153721000Y-58846000D01*
X153721000Y-58846000D01*
G37*
G36*
X155470443Y-57050519D02*
X155536627Y-57057037D01*
X155649853Y-57091384D01*
X155706467Y-57108557D01*
X155845087Y-57182652D01*
X155862991Y-57192222D01*
X155898729Y-57221552D01*
X156000186Y-57304814D01*
X156083448Y-57406271D01*
X156112778Y-57442009D01*
X156112779Y-57442011D01*
X156196443Y-57598533D01*
X156196443Y-57598534D01*
X156247963Y-57768373D01*
X156265359Y-57945000D01*
X156247963Y-58121627D01*
X156213616Y-58234853D01*
X156196443Y-58291467D01*
X156122348Y-58430087D01*
X156112778Y-58447991D01*
X156083448Y-58483729D01*
X156000186Y-58585186D01*
X155898729Y-58668448D01*
X155862991Y-58697778D01*
X155862989Y-58697779D01*
X155706467Y-58781443D01*
X155649853Y-58798616D01*
X155536627Y-58832963D01*
X155470442Y-58839482D01*
X155404260Y-58846000D01*
X155315740Y-58846000D01*
X155249558Y-58839482D01*
X155183373Y-58832963D01*
X155070147Y-58798616D01*
X155013533Y-58781443D01*
X154857011Y-58697779D01*
X154857009Y-58697778D01*
X154821271Y-58668448D01*
X154719814Y-58585186D01*
X154636552Y-58483729D01*
X154607222Y-58447991D01*
X154597652Y-58430087D01*
X154523557Y-58291467D01*
X154506384Y-58234853D01*
X154472037Y-58121627D01*
X154454641Y-57945000D01*
X154472037Y-57768373D01*
X154523557Y-57598534D01*
X154523557Y-57598533D01*
X154607221Y-57442011D01*
X154607222Y-57442009D01*
X154636552Y-57406271D01*
X154719814Y-57304814D01*
X154821271Y-57221552D01*
X154857009Y-57192222D01*
X154874913Y-57182652D01*
X155013533Y-57108557D01*
X155070147Y-57091384D01*
X155183373Y-57057037D01*
X155249557Y-57050519D01*
X155315740Y-57044000D01*
X155404260Y-57044000D01*
X155470443Y-57050519D01*
X155470443Y-57050519D01*
G37*
G36*
X158010443Y-57050519D02*
X158076627Y-57057037D01*
X158189853Y-57091384D01*
X158246467Y-57108557D01*
X158385087Y-57182652D01*
X158402991Y-57192222D01*
X158438729Y-57221552D01*
X158540186Y-57304814D01*
X158623448Y-57406271D01*
X158652778Y-57442009D01*
X158652779Y-57442011D01*
X158736443Y-57598533D01*
X158736443Y-57598534D01*
X158787963Y-57768373D01*
X158805359Y-57945000D01*
X158787963Y-58121627D01*
X158753616Y-58234853D01*
X158736443Y-58291467D01*
X158662348Y-58430087D01*
X158652778Y-58447991D01*
X158623448Y-58483729D01*
X158540186Y-58585186D01*
X158438729Y-58668448D01*
X158402991Y-58697778D01*
X158402989Y-58697779D01*
X158246467Y-58781443D01*
X158189853Y-58798616D01*
X158076627Y-58832963D01*
X158010442Y-58839482D01*
X157944260Y-58846000D01*
X157855740Y-58846000D01*
X157789558Y-58839482D01*
X157723373Y-58832963D01*
X157610147Y-58798616D01*
X157553533Y-58781443D01*
X157397011Y-58697779D01*
X157397009Y-58697778D01*
X157361271Y-58668448D01*
X157259814Y-58585186D01*
X157176552Y-58483729D01*
X157147222Y-58447991D01*
X157137652Y-58430087D01*
X157063557Y-58291467D01*
X157046384Y-58234853D01*
X157012037Y-58121627D01*
X156994641Y-57945000D01*
X157012037Y-57768373D01*
X157063557Y-57598534D01*
X157063557Y-57598533D01*
X157147221Y-57442011D01*
X157147222Y-57442009D01*
X157176552Y-57406271D01*
X157259814Y-57304814D01*
X157361271Y-57221552D01*
X157397009Y-57192222D01*
X157414913Y-57182652D01*
X157553533Y-57108557D01*
X157610147Y-57091384D01*
X157723373Y-57057037D01*
X157789557Y-57050519D01*
X157855740Y-57044000D01*
X157944260Y-57044000D01*
X158010443Y-57050519D01*
X158010443Y-57050519D01*
G37*
G36*
X108001000Y-58846000D02*
X106199000Y-58846000D01*
X106199000Y-57044000D01*
X108001000Y-57044000D01*
X108001000Y-58846000D01*
X108001000Y-58846000D01*
G37*
G36*
X123241000Y-58846000D02*
X121439000Y-58846000D01*
X121439000Y-57044000D01*
X123241000Y-57044000D01*
X123241000Y-58846000D01*
X123241000Y-58846000D01*
G37*
G36*
X124990443Y-57050519D02*
X125056627Y-57057037D01*
X125169853Y-57091384D01*
X125226467Y-57108557D01*
X125365087Y-57182652D01*
X125382991Y-57192222D01*
X125418729Y-57221552D01*
X125520186Y-57304814D01*
X125603448Y-57406271D01*
X125632778Y-57442009D01*
X125632779Y-57442011D01*
X125716443Y-57598533D01*
X125716443Y-57598534D01*
X125767963Y-57768373D01*
X125785359Y-57945000D01*
X125767963Y-58121627D01*
X125733616Y-58234853D01*
X125716443Y-58291467D01*
X125642348Y-58430087D01*
X125632778Y-58447991D01*
X125603448Y-58483729D01*
X125520186Y-58585186D01*
X125418729Y-58668448D01*
X125382991Y-58697778D01*
X125382989Y-58697779D01*
X125226467Y-58781443D01*
X125169853Y-58798616D01*
X125056627Y-58832963D01*
X124990442Y-58839482D01*
X124924260Y-58846000D01*
X124835740Y-58846000D01*
X124769558Y-58839482D01*
X124703373Y-58832963D01*
X124590147Y-58798616D01*
X124533533Y-58781443D01*
X124377011Y-58697779D01*
X124377009Y-58697778D01*
X124341271Y-58668448D01*
X124239814Y-58585186D01*
X124156552Y-58483729D01*
X124127222Y-58447991D01*
X124117652Y-58430087D01*
X124043557Y-58291467D01*
X124026384Y-58234853D01*
X123992037Y-58121627D01*
X123974641Y-57945000D01*
X123992037Y-57768373D01*
X124043557Y-57598534D01*
X124043557Y-57598533D01*
X124127221Y-57442011D01*
X124127222Y-57442009D01*
X124156552Y-57406271D01*
X124239814Y-57304814D01*
X124341271Y-57221552D01*
X124377009Y-57192222D01*
X124394913Y-57182652D01*
X124533533Y-57108557D01*
X124590147Y-57091384D01*
X124703373Y-57057037D01*
X124769557Y-57050519D01*
X124835740Y-57044000D01*
X124924260Y-57044000D01*
X124990443Y-57050519D01*
X124990443Y-57050519D01*
G37*
G36*
X127530443Y-57050519D02*
X127596627Y-57057037D01*
X127709853Y-57091384D01*
X127766467Y-57108557D01*
X127905087Y-57182652D01*
X127922991Y-57192222D01*
X127958729Y-57221552D01*
X128060186Y-57304814D01*
X128143448Y-57406271D01*
X128172778Y-57442009D01*
X128172779Y-57442011D01*
X128256443Y-57598533D01*
X128256443Y-57598534D01*
X128307963Y-57768373D01*
X128325359Y-57945000D01*
X128307963Y-58121627D01*
X128273616Y-58234853D01*
X128256443Y-58291467D01*
X128182348Y-58430087D01*
X128172778Y-58447991D01*
X128143448Y-58483729D01*
X128060186Y-58585186D01*
X127958729Y-58668448D01*
X127922991Y-58697778D01*
X127922989Y-58697779D01*
X127766467Y-58781443D01*
X127709853Y-58798616D01*
X127596627Y-58832963D01*
X127530442Y-58839482D01*
X127464260Y-58846000D01*
X127375740Y-58846000D01*
X127309558Y-58839482D01*
X127243373Y-58832963D01*
X127130147Y-58798616D01*
X127073533Y-58781443D01*
X126917011Y-58697779D01*
X126917009Y-58697778D01*
X126881271Y-58668448D01*
X126779814Y-58585186D01*
X126696552Y-58483729D01*
X126667222Y-58447991D01*
X126657652Y-58430087D01*
X126583557Y-58291467D01*
X126566384Y-58234853D01*
X126532037Y-58121627D01*
X126514641Y-57945000D01*
X126532037Y-57768373D01*
X126583557Y-57598534D01*
X126583557Y-57598533D01*
X126667221Y-57442011D01*
X126667222Y-57442009D01*
X126696552Y-57406271D01*
X126779814Y-57304814D01*
X126881271Y-57221552D01*
X126917009Y-57192222D01*
X126934913Y-57182652D01*
X127073533Y-57108557D01*
X127130147Y-57091384D01*
X127243373Y-57057037D01*
X127309557Y-57050519D01*
X127375740Y-57044000D01*
X127464260Y-57044000D01*
X127530443Y-57050519D01*
X127530443Y-57050519D01*
G37*
G36*
X112290443Y-57050519D02*
X112356627Y-57057037D01*
X112469853Y-57091384D01*
X112526467Y-57108557D01*
X112665087Y-57182652D01*
X112682991Y-57192222D01*
X112718729Y-57221552D01*
X112820186Y-57304814D01*
X112903448Y-57406271D01*
X112932778Y-57442009D01*
X112932779Y-57442011D01*
X113016443Y-57598533D01*
X113016443Y-57598534D01*
X113067963Y-57768373D01*
X113085359Y-57945000D01*
X113067963Y-58121627D01*
X113033616Y-58234853D01*
X113016443Y-58291467D01*
X112942348Y-58430087D01*
X112932778Y-58447991D01*
X112903448Y-58483729D01*
X112820186Y-58585186D01*
X112718729Y-58668448D01*
X112682991Y-58697778D01*
X112682989Y-58697779D01*
X112526467Y-58781443D01*
X112469853Y-58798616D01*
X112356627Y-58832963D01*
X112290442Y-58839482D01*
X112224260Y-58846000D01*
X112135740Y-58846000D01*
X112069558Y-58839482D01*
X112003373Y-58832963D01*
X111890147Y-58798616D01*
X111833533Y-58781443D01*
X111677011Y-58697779D01*
X111677009Y-58697778D01*
X111641271Y-58668448D01*
X111539814Y-58585186D01*
X111456552Y-58483729D01*
X111427222Y-58447991D01*
X111417652Y-58430087D01*
X111343557Y-58291467D01*
X111326384Y-58234853D01*
X111292037Y-58121627D01*
X111274641Y-57945000D01*
X111292037Y-57768373D01*
X111343557Y-57598534D01*
X111343557Y-57598533D01*
X111427221Y-57442011D01*
X111427222Y-57442009D01*
X111456552Y-57406271D01*
X111539814Y-57304814D01*
X111641271Y-57221552D01*
X111677009Y-57192222D01*
X111694913Y-57182652D01*
X111833533Y-57108557D01*
X111890147Y-57091384D01*
X112003373Y-57057037D01*
X112069557Y-57050519D01*
X112135740Y-57044000D01*
X112224260Y-57044000D01*
X112290443Y-57050519D01*
X112290443Y-57050519D01*
G37*
G36*
X109750443Y-57050519D02*
X109816627Y-57057037D01*
X109929853Y-57091384D01*
X109986467Y-57108557D01*
X110125087Y-57182652D01*
X110142991Y-57192222D01*
X110178729Y-57221552D01*
X110280186Y-57304814D01*
X110363448Y-57406271D01*
X110392778Y-57442009D01*
X110392779Y-57442011D01*
X110476443Y-57598533D01*
X110476443Y-57598534D01*
X110527963Y-57768373D01*
X110545359Y-57945000D01*
X110527963Y-58121627D01*
X110493616Y-58234853D01*
X110476443Y-58291467D01*
X110402348Y-58430087D01*
X110392778Y-58447991D01*
X110363448Y-58483729D01*
X110280186Y-58585186D01*
X110178729Y-58668448D01*
X110142991Y-58697778D01*
X110142989Y-58697779D01*
X109986467Y-58781443D01*
X109929853Y-58798616D01*
X109816627Y-58832963D01*
X109750442Y-58839482D01*
X109684260Y-58846000D01*
X109595740Y-58846000D01*
X109529558Y-58839482D01*
X109463373Y-58832963D01*
X109350147Y-58798616D01*
X109293533Y-58781443D01*
X109137011Y-58697779D01*
X109137009Y-58697778D01*
X109101271Y-58668448D01*
X108999814Y-58585186D01*
X108916552Y-58483729D01*
X108887222Y-58447991D01*
X108877652Y-58430087D01*
X108803557Y-58291467D01*
X108786384Y-58234853D01*
X108752037Y-58121627D01*
X108734641Y-57945000D01*
X108752037Y-57768373D01*
X108803557Y-57598534D01*
X108803557Y-57598533D01*
X108887221Y-57442011D01*
X108887222Y-57442009D01*
X108916552Y-57406271D01*
X108999814Y-57304814D01*
X109101271Y-57221552D01*
X109137009Y-57192222D01*
X109154913Y-57182652D01*
X109293533Y-57108557D01*
X109350147Y-57091384D01*
X109463373Y-57057037D01*
X109529557Y-57050519D01*
X109595740Y-57044000D01*
X109684260Y-57044000D01*
X109750443Y-57050519D01*
X109750443Y-57050519D01*
G37*
G36*
X131340442Y-53875518D02*
X131406627Y-53882037D01*
X131519853Y-53916384D01*
X131576467Y-53933557D01*
X131715087Y-54007652D01*
X131732991Y-54017222D01*
X131768729Y-54046552D01*
X131870186Y-54129814D01*
X131953448Y-54231271D01*
X131982778Y-54267009D01*
X131982779Y-54267011D01*
X132066443Y-54423533D01*
X132066443Y-54423534D01*
X132117963Y-54593373D01*
X132135359Y-54770000D01*
X132117963Y-54946627D01*
X132083616Y-55059853D01*
X132066443Y-55116467D01*
X131992348Y-55255087D01*
X131982778Y-55272991D01*
X131953448Y-55308729D01*
X131870186Y-55410186D01*
X131768729Y-55493448D01*
X131732991Y-55522778D01*
X131732989Y-55522779D01*
X131576467Y-55606443D01*
X131519853Y-55623616D01*
X131406627Y-55657963D01*
X131340443Y-55664481D01*
X131274260Y-55671000D01*
X131185740Y-55671000D01*
X131119557Y-55664481D01*
X131053373Y-55657963D01*
X130940147Y-55623616D01*
X130883533Y-55606443D01*
X130727011Y-55522779D01*
X130727009Y-55522778D01*
X130691271Y-55493448D01*
X130589814Y-55410186D01*
X130506552Y-55308729D01*
X130477222Y-55272991D01*
X130467652Y-55255087D01*
X130393557Y-55116467D01*
X130376384Y-55059853D01*
X130342037Y-54946627D01*
X130324641Y-54770000D01*
X130342037Y-54593373D01*
X130393557Y-54423534D01*
X130393557Y-54423533D01*
X130477221Y-54267011D01*
X130477222Y-54267009D01*
X130506552Y-54231271D01*
X130589814Y-54129814D01*
X130691271Y-54046552D01*
X130727009Y-54017222D01*
X130744913Y-54007652D01*
X130883533Y-53933557D01*
X130940147Y-53916384D01*
X131053373Y-53882037D01*
X131119558Y-53875518D01*
X131185740Y-53869000D01*
X131274260Y-53869000D01*
X131340442Y-53875518D01*
X131340442Y-53875518D01*
G37*
G36*
X136420442Y-53875518D02*
X136486627Y-53882037D01*
X136599853Y-53916384D01*
X136656467Y-53933557D01*
X136795087Y-54007652D01*
X136812991Y-54017222D01*
X136848729Y-54046552D01*
X136950186Y-54129814D01*
X137033448Y-54231271D01*
X137062778Y-54267009D01*
X137062779Y-54267011D01*
X137146443Y-54423533D01*
X137146443Y-54423534D01*
X137197963Y-54593373D01*
X137215359Y-54770000D01*
X137197963Y-54946627D01*
X137163616Y-55059853D01*
X137146443Y-55116467D01*
X137072348Y-55255087D01*
X137062778Y-55272991D01*
X137033448Y-55308729D01*
X136950186Y-55410186D01*
X136848729Y-55493448D01*
X136812991Y-55522778D01*
X136812989Y-55522779D01*
X136656467Y-55606443D01*
X136599853Y-55623616D01*
X136486627Y-55657963D01*
X136420443Y-55664481D01*
X136354260Y-55671000D01*
X136265740Y-55671000D01*
X136199557Y-55664481D01*
X136133373Y-55657963D01*
X136020147Y-55623616D01*
X135963533Y-55606443D01*
X135807011Y-55522779D01*
X135807009Y-55522778D01*
X135771271Y-55493448D01*
X135669814Y-55410186D01*
X135586552Y-55308729D01*
X135557222Y-55272991D01*
X135547652Y-55255087D01*
X135473557Y-55116467D01*
X135456384Y-55059853D01*
X135422037Y-54946627D01*
X135404641Y-54770000D01*
X135422037Y-54593373D01*
X135473557Y-54423534D01*
X135473557Y-54423533D01*
X135557221Y-54267011D01*
X135557222Y-54267009D01*
X135586552Y-54231271D01*
X135669814Y-54129814D01*
X135771271Y-54046552D01*
X135807009Y-54017222D01*
X135824913Y-54007652D01*
X135963533Y-53933557D01*
X136020147Y-53916384D01*
X136133373Y-53882037D01*
X136199558Y-53875518D01*
X136265740Y-53869000D01*
X136354260Y-53869000D01*
X136420442Y-53875518D01*
X136420442Y-53875518D01*
G37*
G36*
X133880442Y-53875518D02*
X133946627Y-53882037D01*
X134059853Y-53916384D01*
X134116467Y-53933557D01*
X134255087Y-54007652D01*
X134272991Y-54017222D01*
X134308729Y-54046552D01*
X134410186Y-54129814D01*
X134493448Y-54231271D01*
X134522778Y-54267009D01*
X134522779Y-54267011D01*
X134606443Y-54423533D01*
X134606443Y-54423534D01*
X134657963Y-54593373D01*
X134675359Y-54770000D01*
X134657963Y-54946627D01*
X134623616Y-55059853D01*
X134606443Y-55116467D01*
X134532348Y-55255087D01*
X134522778Y-55272991D01*
X134493448Y-55308729D01*
X134410186Y-55410186D01*
X134308729Y-55493448D01*
X134272991Y-55522778D01*
X134272989Y-55522779D01*
X134116467Y-55606443D01*
X134059853Y-55623616D01*
X133946627Y-55657963D01*
X133880443Y-55664481D01*
X133814260Y-55671000D01*
X133725740Y-55671000D01*
X133659557Y-55664481D01*
X133593373Y-55657963D01*
X133480147Y-55623616D01*
X133423533Y-55606443D01*
X133267011Y-55522779D01*
X133267009Y-55522778D01*
X133231271Y-55493448D01*
X133129814Y-55410186D01*
X133046552Y-55308729D01*
X133017222Y-55272991D01*
X133007652Y-55255087D01*
X132933557Y-55116467D01*
X132916384Y-55059853D01*
X132882037Y-54946627D01*
X132864641Y-54770000D01*
X132882037Y-54593373D01*
X132933557Y-54423534D01*
X132933557Y-54423533D01*
X133017221Y-54267011D01*
X133017222Y-54267009D01*
X133046552Y-54231271D01*
X133129814Y-54129814D01*
X133231271Y-54046552D01*
X133267009Y-54017222D01*
X133284913Y-54007652D01*
X133423533Y-53933557D01*
X133480147Y-53916384D01*
X133593373Y-53882037D01*
X133659558Y-53875518D01*
X133725740Y-53869000D01*
X133814260Y-53869000D01*
X133880442Y-53875518D01*
X133880442Y-53875518D01*
G37*
G36*
X128800442Y-53875518D02*
X128866627Y-53882037D01*
X128979853Y-53916384D01*
X129036467Y-53933557D01*
X129175087Y-54007652D01*
X129192991Y-54017222D01*
X129228729Y-54046552D01*
X129330186Y-54129814D01*
X129413448Y-54231271D01*
X129442778Y-54267009D01*
X129442779Y-54267011D01*
X129526443Y-54423533D01*
X129526443Y-54423534D01*
X129577963Y-54593373D01*
X129595359Y-54770000D01*
X129577963Y-54946627D01*
X129543616Y-55059853D01*
X129526443Y-55116467D01*
X129452348Y-55255087D01*
X129442778Y-55272991D01*
X129413448Y-55308729D01*
X129330186Y-55410186D01*
X129228729Y-55493448D01*
X129192991Y-55522778D01*
X129192989Y-55522779D01*
X129036467Y-55606443D01*
X128979853Y-55623616D01*
X128866627Y-55657963D01*
X128800443Y-55664481D01*
X128734260Y-55671000D01*
X128645740Y-55671000D01*
X128579557Y-55664481D01*
X128513373Y-55657963D01*
X128400147Y-55623616D01*
X128343533Y-55606443D01*
X128187011Y-55522779D01*
X128187009Y-55522778D01*
X128151271Y-55493448D01*
X128049814Y-55410186D01*
X127966552Y-55308729D01*
X127937222Y-55272991D01*
X127927652Y-55255087D01*
X127853557Y-55116467D01*
X127836384Y-55059853D01*
X127802037Y-54946627D01*
X127784641Y-54770000D01*
X127802037Y-54593373D01*
X127853557Y-54423534D01*
X127853557Y-54423533D01*
X127937221Y-54267011D01*
X127937222Y-54267009D01*
X127966552Y-54231271D01*
X128049814Y-54129814D01*
X128151271Y-54046552D01*
X128187009Y-54017222D01*
X128204913Y-54007652D01*
X128343533Y-53933557D01*
X128400147Y-53916384D01*
X128513373Y-53882037D01*
X128579558Y-53875518D01*
X128645740Y-53869000D01*
X128734260Y-53869000D01*
X128800442Y-53875518D01*
X128800442Y-53875518D01*
G37*
G36*
X126260442Y-53875518D02*
X126326627Y-53882037D01*
X126439853Y-53916384D01*
X126496467Y-53933557D01*
X126635087Y-54007652D01*
X126652991Y-54017222D01*
X126688729Y-54046552D01*
X126790186Y-54129814D01*
X126873448Y-54231271D01*
X126902778Y-54267009D01*
X126902779Y-54267011D01*
X126986443Y-54423533D01*
X126986443Y-54423534D01*
X127037963Y-54593373D01*
X127055359Y-54770000D01*
X127037963Y-54946627D01*
X127003616Y-55059853D01*
X126986443Y-55116467D01*
X126912348Y-55255087D01*
X126902778Y-55272991D01*
X126873448Y-55308729D01*
X126790186Y-55410186D01*
X126688729Y-55493448D01*
X126652991Y-55522778D01*
X126652989Y-55522779D01*
X126496467Y-55606443D01*
X126439853Y-55623616D01*
X126326627Y-55657963D01*
X126260443Y-55664481D01*
X126194260Y-55671000D01*
X126105740Y-55671000D01*
X126039557Y-55664481D01*
X125973373Y-55657963D01*
X125860147Y-55623616D01*
X125803533Y-55606443D01*
X125647011Y-55522779D01*
X125647009Y-55522778D01*
X125611271Y-55493448D01*
X125509814Y-55410186D01*
X125426552Y-55308729D01*
X125397222Y-55272991D01*
X125387652Y-55255087D01*
X125313557Y-55116467D01*
X125296384Y-55059853D01*
X125262037Y-54946627D01*
X125244641Y-54770000D01*
X125262037Y-54593373D01*
X125313557Y-54423534D01*
X125313557Y-54423533D01*
X125397221Y-54267011D01*
X125397222Y-54267009D01*
X125426552Y-54231271D01*
X125509814Y-54129814D01*
X125611271Y-54046552D01*
X125647009Y-54017222D01*
X125664913Y-54007652D01*
X125803533Y-53933557D01*
X125860147Y-53916384D01*
X125973373Y-53882037D01*
X126039558Y-53875518D01*
X126105740Y-53869000D01*
X126194260Y-53869000D01*
X126260442Y-53875518D01*
X126260442Y-53875518D01*
G37*
G36*
X123720442Y-53875518D02*
X123786627Y-53882037D01*
X123899853Y-53916384D01*
X123956467Y-53933557D01*
X124095087Y-54007652D01*
X124112991Y-54017222D01*
X124148729Y-54046552D01*
X124250186Y-54129814D01*
X124333448Y-54231271D01*
X124362778Y-54267009D01*
X124362779Y-54267011D01*
X124446443Y-54423533D01*
X124446443Y-54423534D01*
X124497963Y-54593373D01*
X124515359Y-54770000D01*
X124497963Y-54946627D01*
X124463616Y-55059853D01*
X124446443Y-55116467D01*
X124372348Y-55255087D01*
X124362778Y-55272991D01*
X124333448Y-55308729D01*
X124250186Y-55410186D01*
X124148729Y-55493448D01*
X124112991Y-55522778D01*
X124112989Y-55522779D01*
X123956467Y-55606443D01*
X123899853Y-55623616D01*
X123786627Y-55657963D01*
X123720443Y-55664481D01*
X123654260Y-55671000D01*
X123565740Y-55671000D01*
X123499557Y-55664481D01*
X123433373Y-55657963D01*
X123320147Y-55623616D01*
X123263533Y-55606443D01*
X123107011Y-55522779D01*
X123107009Y-55522778D01*
X123071271Y-55493448D01*
X122969814Y-55410186D01*
X122886552Y-55308729D01*
X122857222Y-55272991D01*
X122847652Y-55255087D01*
X122773557Y-55116467D01*
X122756384Y-55059853D01*
X122722037Y-54946627D01*
X122704641Y-54770000D01*
X122722037Y-54593373D01*
X122773557Y-54423534D01*
X122773557Y-54423533D01*
X122857221Y-54267011D01*
X122857222Y-54267009D01*
X122886552Y-54231271D01*
X122969814Y-54129814D01*
X123071271Y-54046552D01*
X123107009Y-54017222D01*
X123124913Y-54007652D01*
X123263533Y-53933557D01*
X123320147Y-53916384D01*
X123433373Y-53882037D01*
X123499558Y-53875518D01*
X123565740Y-53869000D01*
X123654260Y-53869000D01*
X123720442Y-53875518D01*
X123720442Y-53875518D01*
G37*
G36*
X144040442Y-53875518D02*
X144106627Y-53882037D01*
X144219853Y-53916384D01*
X144276467Y-53933557D01*
X144415087Y-54007652D01*
X144432991Y-54017222D01*
X144468729Y-54046552D01*
X144570186Y-54129814D01*
X144653448Y-54231271D01*
X144682778Y-54267009D01*
X144682779Y-54267011D01*
X144766443Y-54423533D01*
X144766443Y-54423534D01*
X144817963Y-54593373D01*
X144835359Y-54770000D01*
X144817963Y-54946627D01*
X144783616Y-55059853D01*
X144766443Y-55116467D01*
X144692348Y-55255087D01*
X144682778Y-55272991D01*
X144653448Y-55308729D01*
X144570186Y-55410186D01*
X144468729Y-55493448D01*
X144432991Y-55522778D01*
X144432989Y-55522779D01*
X144276467Y-55606443D01*
X144219853Y-55623616D01*
X144106627Y-55657963D01*
X144040443Y-55664481D01*
X143974260Y-55671000D01*
X143885740Y-55671000D01*
X143819557Y-55664481D01*
X143753373Y-55657963D01*
X143640147Y-55623616D01*
X143583533Y-55606443D01*
X143427011Y-55522779D01*
X143427009Y-55522778D01*
X143391271Y-55493448D01*
X143289814Y-55410186D01*
X143206552Y-55308729D01*
X143177222Y-55272991D01*
X143167652Y-55255087D01*
X143093557Y-55116467D01*
X143076384Y-55059853D01*
X143042037Y-54946627D01*
X143024641Y-54770000D01*
X143042037Y-54593373D01*
X143093557Y-54423534D01*
X143093557Y-54423533D01*
X143177221Y-54267011D01*
X143177222Y-54267009D01*
X143206552Y-54231271D01*
X143289814Y-54129814D01*
X143391271Y-54046552D01*
X143427009Y-54017222D01*
X143444913Y-54007652D01*
X143583533Y-53933557D01*
X143640147Y-53916384D01*
X143753373Y-53882037D01*
X143819558Y-53875518D01*
X143885740Y-53869000D01*
X143974260Y-53869000D01*
X144040442Y-53875518D01*
X144040442Y-53875518D01*
G37*
G36*
X141500442Y-53875518D02*
X141566627Y-53882037D01*
X141679853Y-53916384D01*
X141736467Y-53933557D01*
X141875087Y-54007652D01*
X141892991Y-54017222D01*
X141928729Y-54046552D01*
X142030186Y-54129814D01*
X142113448Y-54231271D01*
X142142778Y-54267009D01*
X142142779Y-54267011D01*
X142226443Y-54423533D01*
X142226443Y-54423534D01*
X142277963Y-54593373D01*
X142295359Y-54770000D01*
X142277963Y-54946627D01*
X142243616Y-55059853D01*
X142226443Y-55116467D01*
X142152348Y-55255087D01*
X142142778Y-55272991D01*
X142113448Y-55308729D01*
X142030186Y-55410186D01*
X141928729Y-55493448D01*
X141892991Y-55522778D01*
X141892989Y-55522779D01*
X141736467Y-55606443D01*
X141679853Y-55623616D01*
X141566627Y-55657963D01*
X141500443Y-55664481D01*
X141434260Y-55671000D01*
X141345740Y-55671000D01*
X141279557Y-55664481D01*
X141213373Y-55657963D01*
X141100147Y-55623616D01*
X141043533Y-55606443D01*
X140887011Y-55522779D01*
X140887009Y-55522778D01*
X140851271Y-55493448D01*
X140749814Y-55410186D01*
X140666552Y-55308729D01*
X140637222Y-55272991D01*
X140627652Y-55255087D01*
X140553557Y-55116467D01*
X140536384Y-55059853D01*
X140502037Y-54946627D01*
X140484641Y-54770000D01*
X140502037Y-54593373D01*
X140553557Y-54423534D01*
X140553557Y-54423533D01*
X140637221Y-54267011D01*
X140637222Y-54267009D01*
X140666552Y-54231271D01*
X140749814Y-54129814D01*
X140851271Y-54046552D01*
X140887009Y-54017222D01*
X140904913Y-54007652D01*
X141043533Y-53933557D01*
X141100147Y-53916384D01*
X141213373Y-53882037D01*
X141279558Y-53875518D01*
X141345740Y-53869000D01*
X141434260Y-53869000D01*
X141500442Y-53875518D01*
X141500442Y-53875518D01*
G37*
G36*
X146580442Y-53875518D02*
X146646627Y-53882037D01*
X146759853Y-53916384D01*
X146816467Y-53933557D01*
X146955087Y-54007652D01*
X146972991Y-54017222D01*
X147008729Y-54046552D01*
X147110186Y-54129814D01*
X147193448Y-54231271D01*
X147222778Y-54267009D01*
X147222779Y-54267011D01*
X147306443Y-54423533D01*
X147306443Y-54423534D01*
X147357963Y-54593373D01*
X147375359Y-54770000D01*
X147357963Y-54946627D01*
X147323616Y-55059853D01*
X147306443Y-55116467D01*
X147232348Y-55255087D01*
X147222778Y-55272991D01*
X147193448Y-55308729D01*
X147110186Y-55410186D01*
X147008729Y-55493448D01*
X146972991Y-55522778D01*
X146972989Y-55522779D01*
X146816467Y-55606443D01*
X146759853Y-55623616D01*
X146646627Y-55657963D01*
X146580443Y-55664481D01*
X146514260Y-55671000D01*
X146425740Y-55671000D01*
X146359557Y-55664481D01*
X146293373Y-55657963D01*
X146180147Y-55623616D01*
X146123533Y-55606443D01*
X145967011Y-55522779D01*
X145967009Y-55522778D01*
X145931271Y-55493448D01*
X145829814Y-55410186D01*
X145746552Y-55308729D01*
X145717222Y-55272991D01*
X145707652Y-55255087D01*
X145633557Y-55116467D01*
X145616384Y-55059853D01*
X145582037Y-54946627D01*
X145564641Y-54770000D01*
X145582037Y-54593373D01*
X145633557Y-54423534D01*
X145633557Y-54423533D01*
X145717221Y-54267011D01*
X145717222Y-54267009D01*
X145746552Y-54231271D01*
X145829814Y-54129814D01*
X145931271Y-54046552D01*
X145967009Y-54017222D01*
X145984913Y-54007652D01*
X146123533Y-53933557D01*
X146180147Y-53916384D01*
X146293373Y-53882037D01*
X146359558Y-53875518D01*
X146425740Y-53869000D01*
X146514260Y-53869000D01*
X146580442Y-53875518D01*
X146580442Y-53875518D01*
G37*
G36*
X149120442Y-53875518D02*
X149186627Y-53882037D01*
X149299853Y-53916384D01*
X149356467Y-53933557D01*
X149495087Y-54007652D01*
X149512991Y-54017222D01*
X149548729Y-54046552D01*
X149650186Y-54129814D01*
X149733448Y-54231271D01*
X149762778Y-54267009D01*
X149762779Y-54267011D01*
X149846443Y-54423533D01*
X149846443Y-54423534D01*
X149897963Y-54593373D01*
X149915359Y-54770000D01*
X149897963Y-54946627D01*
X149863616Y-55059853D01*
X149846443Y-55116467D01*
X149772348Y-55255087D01*
X149762778Y-55272991D01*
X149733448Y-55308729D01*
X149650186Y-55410186D01*
X149548729Y-55493448D01*
X149512991Y-55522778D01*
X149512989Y-55522779D01*
X149356467Y-55606443D01*
X149299853Y-55623616D01*
X149186627Y-55657963D01*
X149120443Y-55664481D01*
X149054260Y-55671000D01*
X148965740Y-55671000D01*
X148899557Y-55664481D01*
X148833373Y-55657963D01*
X148720147Y-55623616D01*
X148663533Y-55606443D01*
X148507011Y-55522779D01*
X148507009Y-55522778D01*
X148471271Y-55493448D01*
X148369814Y-55410186D01*
X148286552Y-55308729D01*
X148257222Y-55272991D01*
X148247652Y-55255087D01*
X148173557Y-55116467D01*
X148156384Y-55059853D01*
X148122037Y-54946627D01*
X148104641Y-54770000D01*
X148122037Y-54593373D01*
X148173557Y-54423534D01*
X148173557Y-54423533D01*
X148257221Y-54267011D01*
X148257222Y-54267009D01*
X148286552Y-54231271D01*
X148369814Y-54129814D01*
X148471271Y-54046552D01*
X148507009Y-54017222D01*
X148524913Y-54007652D01*
X148663533Y-53933557D01*
X148720147Y-53916384D01*
X148833373Y-53882037D01*
X148899558Y-53875518D01*
X148965740Y-53869000D01*
X149054260Y-53869000D01*
X149120442Y-53875518D01*
X149120442Y-53875518D01*
G37*
G36*
X154200442Y-53875518D02*
X154266627Y-53882037D01*
X154379853Y-53916384D01*
X154436467Y-53933557D01*
X154575087Y-54007652D01*
X154592991Y-54017222D01*
X154628729Y-54046552D01*
X154730186Y-54129814D01*
X154813448Y-54231271D01*
X154842778Y-54267009D01*
X154842779Y-54267011D01*
X154926443Y-54423533D01*
X154926443Y-54423534D01*
X154977963Y-54593373D01*
X154995359Y-54770000D01*
X154977963Y-54946627D01*
X154943616Y-55059853D01*
X154926443Y-55116467D01*
X154852348Y-55255087D01*
X154842778Y-55272991D01*
X154813448Y-55308729D01*
X154730186Y-55410186D01*
X154628729Y-55493448D01*
X154592991Y-55522778D01*
X154592989Y-55522779D01*
X154436467Y-55606443D01*
X154379853Y-55623616D01*
X154266627Y-55657963D01*
X154200443Y-55664481D01*
X154134260Y-55671000D01*
X154045740Y-55671000D01*
X153979557Y-55664481D01*
X153913373Y-55657963D01*
X153800147Y-55623616D01*
X153743533Y-55606443D01*
X153587011Y-55522779D01*
X153587009Y-55522778D01*
X153551271Y-55493448D01*
X153449814Y-55410186D01*
X153366552Y-55308729D01*
X153337222Y-55272991D01*
X153327652Y-55255087D01*
X153253557Y-55116467D01*
X153236384Y-55059853D01*
X153202037Y-54946627D01*
X153184641Y-54770000D01*
X153202037Y-54593373D01*
X153253557Y-54423534D01*
X153253557Y-54423533D01*
X153337221Y-54267011D01*
X153337222Y-54267009D01*
X153366552Y-54231271D01*
X153449814Y-54129814D01*
X153551271Y-54046552D01*
X153587009Y-54017222D01*
X153604913Y-54007652D01*
X153743533Y-53933557D01*
X153800147Y-53916384D01*
X153913373Y-53882037D01*
X153979558Y-53875518D01*
X154045740Y-53869000D01*
X154134260Y-53869000D01*
X154200442Y-53875518D01*
X154200442Y-53875518D01*
G37*
G36*
X151660442Y-53875518D02*
X151726627Y-53882037D01*
X151839853Y-53916384D01*
X151896467Y-53933557D01*
X152035087Y-54007652D01*
X152052991Y-54017222D01*
X152088729Y-54046552D01*
X152190186Y-54129814D01*
X152273448Y-54231271D01*
X152302778Y-54267009D01*
X152302779Y-54267011D01*
X152386443Y-54423533D01*
X152386443Y-54423534D01*
X152437963Y-54593373D01*
X152455359Y-54770000D01*
X152437963Y-54946627D01*
X152403616Y-55059853D01*
X152386443Y-55116467D01*
X152312348Y-55255087D01*
X152302778Y-55272991D01*
X152273448Y-55308729D01*
X152190186Y-55410186D01*
X152088729Y-55493448D01*
X152052991Y-55522778D01*
X152052989Y-55522779D01*
X151896467Y-55606443D01*
X151839853Y-55623616D01*
X151726627Y-55657963D01*
X151660443Y-55664481D01*
X151594260Y-55671000D01*
X151505740Y-55671000D01*
X151439557Y-55664481D01*
X151373373Y-55657963D01*
X151260147Y-55623616D01*
X151203533Y-55606443D01*
X151047011Y-55522779D01*
X151047009Y-55522778D01*
X151011271Y-55493448D01*
X150909814Y-55410186D01*
X150826552Y-55308729D01*
X150797222Y-55272991D01*
X150787652Y-55255087D01*
X150713557Y-55116467D01*
X150696384Y-55059853D01*
X150662037Y-54946627D01*
X150644641Y-54770000D01*
X150662037Y-54593373D01*
X150713557Y-54423534D01*
X150713557Y-54423533D01*
X150797221Y-54267011D01*
X150797222Y-54267009D01*
X150826552Y-54231271D01*
X150909814Y-54129814D01*
X151011271Y-54046552D01*
X151047009Y-54017222D01*
X151064913Y-54007652D01*
X151203533Y-53933557D01*
X151260147Y-53916384D01*
X151373373Y-53882037D01*
X151439558Y-53875518D01*
X151505740Y-53869000D01*
X151594260Y-53869000D01*
X151660442Y-53875518D01*
X151660442Y-53875518D01*
G37*
G36*
X121180442Y-53875518D02*
X121246627Y-53882037D01*
X121359853Y-53916384D01*
X121416467Y-53933557D01*
X121555087Y-54007652D01*
X121572991Y-54017222D01*
X121608729Y-54046552D01*
X121710186Y-54129814D01*
X121793448Y-54231271D01*
X121822778Y-54267009D01*
X121822779Y-54267011D01*
X121906443Y-54423533D01*
X121906443Y-54423534D01*
X121957963Y-54593373D01*
X121975359Y-54770000D01*
X121957963Y-54946627D01*
X121923616Y-55059853D01*
X121906443Y-55116467D01*
X121832348Y-55255087D01*
X121822778Y-55272991D01*
X121793448Y-55308729D01*
X121710186Y-55410186D01*
X121608729Y-55493448D01*
X121572991Y-55522778D01*
X121572989Y-55522779D01*
X121416467Y-55606443D01*
X121359853Y-55623616D01*
X121246627Y-55657963D01*
X121180443Y-55664481D01*
X121114260Y-55671000D01*
X121025740Y-55671000D01*
X120959557Y-55664481D01*
X120893373Y-55657963D01*
X120780147Y-55623616D01*
X120723533Y-55606443D01*
X120567011Y-55522779D01*
X120567009Y-55522778D01*
X120531271Y-55493448D01*
X120429814Y-55410186D01*
X120346552Y-55308729D01*
X120317222Y-55272991D01*
X120307652Y-55255087D01*
X120233557Y-55116467D01*
X120216384Y-55059853D01*
X120182037Y-54946627D01*
X120164641Y-54770000D01*
X120182037Y-54593373D01*
X120233557Y-54423534D01*
X120233557Y-54423533D01*
X120317221Y-54267011D01*
X120317222Y-54267009D01*
X120346552Y-54231271D01*
X120429814Y-54129814D01*
X120531271Y-54046552D01*
X120567009Y-54017222D01*
X120584913Y-54007652D01*
X120723533Y-53933557D01*
X120780147Y-53916384D01*
X120893373Y-53882037D01*
X120959558Y-53875518D01*
X121025740Y-53869000D01*
X121114260Y-53869000D01*
X121180442Y-53875518D01*
X121180442Y-53875518D01*
G37*
G36*
X138960442Y-53875518D02*
X139026627Y-53882037D01*
X139139853Y-53916384D01*
X139196467Y-53933557D01*
X139335087Y-54007652D01*
X139352991Y-54017222D01*
X139388729Y-54046552D01*
X139490186Y-54129814D01*
X139573448Y-54231271D01*
X139602778Y-54267009D01*
X139602779Y-54267011D01*
X139686443Y-54423533D01*
X139686443Y-54423534D01*
X139737963Y-54593373D01*
X139755359Y-54770000D01*
X139737963Y-54946627D01*
X139703616Y-55059853D01*
X139686443Y-55116467D01*
X139612348Y-55255087D01*
X139602778Y-55272991D01*
X139573448Y-55308729D01*
X139490186Y-55410186D01*
X139388729Y-55493448D01*
X139352991Y-55522778D01*
X139352989Y-55522779D01*
X139196467Y-55606443D01*
X139139853Y-55623616D01*
X139026627Y-55657963D01*
X138960443Y-55664481D01*
X138894260Y-55671000D01*
X138805740Y-55671000D01*
X138739557Y-55664481D01*
X138673373Y-55657963D01*
X138560147Y-55623616D01*
X138503533Y-55606443D01*
X138347011Y-55522779D01*
X138347009Y-55522778D01*
X138311271Y-55493448D01*
X138209814Y-55410186D01*
X138126552Y-55308729D01*
X138097222Y-55272991D01*
X138087652Y-55255087D01*
X138013557Y-55116467D01*
X137996384Y-55059853D01*
X137962037Y-54946627D01*
X137944641Y-54770000D01*
X137962037Y-54593373D01*
X138013557Y-54423534D01*
X138013557Y-54423533D01*
X138097221Y-54267011D01*
X138097222Y-54267009D01*
X138126552Y-54231271D01*
X138209814Y-54129814D01*
X138311271Y-54046552D01*
X138347009Y-54017222D01*
X138364913Y-54007652D01*
X138503533Y-53933557D01*
X138560147Y-53916384D01*
X138673373Y-53882037D01*
X138739558Y-53875518D01*
X138805740Y-53869000D01*
X138894260Y-53869000D01*
X138960442Y-53875518D01*
X138960442Y-53875518D01*
G37*
G36*
X118640442Y-53875518D02*
X118706627Y-53882037D01*
X118819853Y-53916384D01*
X118876467Y-53933557D01*
X119015087Y-54007652D01*
X119032991Y-54017222D01*
X119068729Y-54046552D01*
X119170186Y-54129814D01*
X119253448Y-54231271D01*
X119282778Y-54267009D01*
X119282779Y-54267011D01*
X119366443Y-54423533D01*
X119366443Y-54423534D01*
X119417963Y-54593373D01*
X119435359Y-54770000D01*
X119417963Y-54946627D01*
X119383616Y-55059853D01*
X119366443Y-55116467D01*
X119292348Y-55255087D01*
X119282778Y-55272991D01*
X119253448Y-55308729D01*
X119170186Y-55410186D01*
X119068729Y-55493448D01*
X119032991Y-55522778D01*
X119032989Y-55522779D01*
X118876467Y-55606443D01*
X118819853Y-55623616D01*
X118706627Y-55657963D01*
X118640443Y-55664481D01*
X118574260Y-55671000D01*
X118485740Y-55671000D01*
X118419557Y-55664481D01*
X118353373Y-55657963D01*
X118240147Y-55623616D01*
X118183533Y-55606443D01*
X118027011Y-55522779D01*
X118027009Y-55522778D01*
X117991271Y-55493448D01*
X117889814Y-55410186D01*
X117806552Y-55308729D01*
X117777222Y-55272991D01*
X117767652Y-55255087D01*
X117693557Y-55116467D01*
X117676384Y-55059853D01*
X117642037Y-54946627D01*
X117624641Y-54770000D01*
X117642037Y-54593373D01*
X117693557Y-54423534D01*
X117693557Y-54423533D01*
X117777221Y-54267011D01*
X117777222Y-54267009D01*
X117806552Y-54231271D01*
X117889814Y-54129814D01*
X117991271Y-54046552D01*
X118027009Y-54017222D01*
X118044913Y-54007652D01*
X118183533Y-53933557D01*
X118240147Y-53916384D01*
X118353373Y-53882037D01*
X118419558Y-53875518D01*
X118485740Y-53869000D01*
X118574260Y-53869000D01*
X118640442Y-53875518D01*
X118640442Y-53875518D01*
G37*
G36*
X116100442Y-53875518D02*
X116166627Y-53882037D01*
X116279853Y-53916384D01*
X116336467Y-53933557D01*
X116475087Y-54007652D01*
X116492991Y-54017222D01*
X116528729Y-54046552D01*
X116630186Y-54129814D01*
X116713448Y-54231271D01*
X116742778Y-54267009D01*
X116742779Y-54267011D01*
X116826443Y-54423533D01*
X116826443Y-54423534D01*
X116877963Y-54593373D01*
X116895359Y-54770000D01*
X116877963Y-54946627D01*
X116843616Y-55059853D01*
X116826443Y-55116467D01*
X116752348Y-55255087D01*
X116742778Y-55272991D01*
X116713448Y-55308729D01*
X116630186Y-55410186D01*
X116528729Y-55493448D01*
X116492991Y-55522778D01*
X116492989Y-55522779D01*
X116336467Y-55606443D01*
X116279853Y-55623616D01*
X116166627Y-55657963D01*
X116100443Y-55664481D01*
X116034260Y-55671000D01*
X115945740Y-55671000D01*
X115879557Y-55664481D01*
X115813373Y-55657963D01*
X115700147Y-55623616D01*
X115643533Y-55606443D01*
X115487011Y-55522779D01*
X115487009Y-55522778D01*
X115451271Y-55493448D01*
X115349814Y-55410186D01*
X115266552Y-55308729D01*
X115237222Y-55272991D01*
X115227652Y-55255087D01*
X115153557Y-55116467D01*
X115136384Y-55059853D01*
X115102037Y-54946627D01*
X115084641Y-54770000D01*
X115102037Y-54593373D01*
X115153557Y-54423534D01*
X115153557Y-54423533D01*
X115237221Y-54267011D01*
X115237222Y-54267009D01*
X115266552Y-54231271D01*
X115349814Y-54129814D01*
X115451271Y-54046552D01*
X115487009Y-54017222D01*
X115504913Y-54007652D01*
X115643533Y-53933557D01*
X115700147Y-53916384D01*
X115813373Y-53882037D01*
X115879558Y-53875518D01*
X115945740Y-53869000D01*
X116034260Y-53869000D01*
X116100442Y-53875518D01*
X116100442Y-53875518D01*
G37*
G36*
X113560442Y-53875518D02*
X113626627Y-53882037D01*
X113739853Y-53916384D01*
X113796467Y-53933557D01*
X113935087Y-54007652D01*
X113952991Y-54017222D01*
X113988729Y-54046552D01*
X114090186Y-54129814D01*
X114173448Y-54231271D01*
X114202778Y-54267009D01*
X114202779Y-54267011D01*
X114286443Y-54423533D01*
X114286443Y-54423534D01*
X114337963Y-54593373D01*
X114355359Y-54770000D01*
X114337963Y-54946627D01*
X114303616Y-55059853D01*
X114286443Y-55116467D01*
X114212348Y-55255087D01*
X114202778Y-55272991D01*
X114173448Y-55308729D01*
X114090186Y-55410186D01*
X113988729Y-55493448D01*
X113952991Y-55522778D01*
X113952989Y-55522779D01*
X113796467Y-55606443D01*
X113739853Y-55623616D01*
X113626627Y-55657963D01*
X113560443Y-55664481D01*
X113494260Y-55671000D01*
X113405740Y-55671000D01*
X113339557Y-55664481D01*
X113273373Y-55657963D01*
X113160147Y-55623616D01*
X113103533Y-55606443D01*
X112947011Y-55522779D01*
X112947009Y-55522778D01*
X112911271Y-55493448D01*
X112809814Y-55410186D01*
X112726552Y-55308729D01*
X112697222Y-55272991D01*
X112687652Y-55255087D01*
X112613557Y-55116467D01*
X112596384Y-55059853D01*
X112562037Y-54946627D01*
X112544641Y-54770000D01*
X112562037Y-54593373D01*
X112613557Y-54423534D01*
X112613557Y-54423533D01*
X112697221Y-54267011D01*
X112697222Y-54267009D01*
X112726552Y-54231271D01*
X112809814Y-54129814D01*
X112911271Y-54046552D01*
X112947009Y-54017222D01*
X112964913Y-54007652D01*
X113103533Y-53933557D01*
X113160147Y-53916384D01*
X113273373Y-53882037D01*
X113339558Y-53875518D01*
X113405740Y-53869000D01*
X113494260Y-53869000D01*
X113560442Y-53875518D01*
X113560442Y-53875518D01*
G37*
G36*
X111020442Y-53875518D02*
X111086627Y-53882037D01*
X111199853Y-53916384D01*
X111256467Y-53933557D01*
X111395087Y-54007652D01*
X111412991Y-54017222D01*
X111448729Y-54046552D01*
X111550186Y-54129814D01*
X111633448Y-54231271D01*
X111662778Y-54267009D01*
X111662779Y-54267011D01*
X111746443Y-54423533D01*
X111746443Y-54423534D01*
X111797963Y-54593373D01*
X111815359Y-54770000D01*
X111797963Y-54946627D01*
X111763616Y-55059853D01*
X111746443Y-55116467D01*
X111672348Y-55255087D01*
X111662778Y-55272991D01*
X111633448Y-55308729D01*
X111550186Y-55410186D01*
X111448729Y-55493448D01*
X111412991Y-55522778D01*
X111412989Y-55522779D01*
X111256467Y-55606443D01*
X111199853Y-55623616D01*
X111086627Y-55657963D01*
X111020443Y-55664481D01*
X110954260Y-55671000D01*
X110865740Y-55671000D01*
X110799557Y-55664481D01*
X110733373Y-55657963D01*
X110620147Y-55623616D01*
X110563533Y-55606443D01*
X110407011Y-55522779D01*
X110407009Y-55522778D01*
X110371271Y-55493448D01*
X110269814Y-55410186D01*
X110186552Y-55308729D01*
X110157222Y-55272991D01*
X110147652Y-55255087D01*
X110073557Y-55116467D01*
X110056384Y-55059853D01*
X110022037Y-54946627D01*
X110004641Y-54770000D01*
X110022037Y-54593373D01*
X110073557Y-54423534D01*
X110073557Y-54423533D01*
X110157221Y-54267011D01*
X110157222Y-54267009D01*
X110186552Y-54231271D01*
X110269814Y-54129814D01*
X110371271Y-54046552D01*
X110407009Y-54017222D01*
X110424913Y-54007652D01*
X110563533Y-53933557D01*
X110620147Y-53916384D01*
X110733373Y-53882037D01*
X110799558Y-53875518D01*
X110865740Y-53869000D01*
X110954260Y-53869000D01*
X111020442Y-53875518D01*
X111020442Y-53875518D01*
G37*
G36*
X109271000Y-55671000D02*
X107469000Y-55671000D01*
X107469000Y-53869000D01*
X109271000Y-53869000D01*
X109271000Y-55671000D01*
X109271000Y-55671000D01*
G37*
G36*
X156740442Y-53875518D02*
X156806627Y-53882037D01*
X156919853Y-53916384D01*
X156976467Y-53933557D01*
X157115087Y-54007652D01*
X157132991Y-54017222D01*
X157168729Y-54046552D01*
X157270186Y-54129814D01*
X157353448Y-54231271D01*
X157382778Y-54267009D01*
X157382779Y-54267011D01*
X157466443Y-54423533D01*
X157466443Y-54423534D01*
X157517963Y-54593373D01*
X157535359Y-54770000D01*
X157517963Y-54946627D01*
X157483616Y-55059853D01*
X157466443Y-55116467D01*
X157392348Y-55255087D01*
X157382778Y-55272991D01*
X157353448Y-55308729D01*
X157270186Y-55410186D01*
X157168729Y-55493448D01*
X157132991Y-55522778D01*
X157132989Y-55522779D01*
X156976467Y-55606443D01*
X156919853Y-55623616D01*
X156806627Y-55657963D01*
X156740443Y-55664481D01*
X156674260Y-55671000D01*
X156585740Y-55671000D01*
X156519557Y-55664481D01*
X156453373Y-55657963D01*
X156340147Y-55623616D01*
X156283533Y-55606443D01*
X156127011Y-55522779D01*
X156127009Y-55522778D01*
X156091271Y-55493448D01*
X155989814Y-55410186D01*
X155906552Y-55308729D01*
X155877222Y-55272991D01*
X155867652Y-55255087D01*
X155793557Y-55116467D01*
X155776384Y-55059853D01*
X155742037Y-54946627D01*
X155724641Y-54770000D01*
X155742037Y-54593373D01*
X155793557Y-54423534D01*
X155793557Y-54423533D01*
X155877221Y-54267011D01*
X155877222Y-54267009D01*
X155906552Y-54231271D01*
X155989814Y-54129814D01*
X156091271Y-54046552D01*
X156127009Y-54017222D01*
X156144913Y-54007652D01*
X156283533Y-53933557D01*
X156340147Y-53916384D01*
X156453373Y-53882037D01*
X156519558Y-53875518D01*
X156585740Y-53869000D01*
X156674260Y-53869000D01*
X156740442Y-53875518D01*
X156740442Y-53875518D01*
G37*
G36*
X156740442Y-51335518D02*
X156806627Y-51342037D01*
X156919853Y-51376384D01*
X156976467Y-51393557D01*
X157115087Y-51467652D01*
X157132991Y-51477222D01*
X157168729Y-51506552D01*
X157270186Y-51589814D01*
X157353448Y-51691271D01*
X157382778Y-51727009D01*
X157382779Y-51727011D01*
X157466443Y-51883533D01*
X157466443Y-51883534D01*
X157517963Y-52053373D01*
X157535359Y-52230000D01*
X157517963Y-52406627D01*
X157483616Y-52519853D01*
X157466443Y-52576467D01*
X157392348Y-52715087D01*
X157382778Y-52732991D01*
X157353448Y-52768729D01*
X157270186Y-52870186D01*
X157168729Y-52953448D01*
X157132991Y-52982778D01*
X157132989Y-52982779D01*
X156976467Y-53066443D01*
X156919853Y-53083616D01*
X156806627Y-53117963D01*
X156740442Y-53124482D01*
X156674260Y-53131000D01*
X156585740Y-53131000D01*
X156519558Y-53124482D01*
X156453373Y-53117963D01*
X156340147Y-53083616D01*
X156283533Y-53066443D01*
X156127011Y-52982779D01*
X156127009Y-52982778D01*
X156091271Y-52953448D01*
X155989814Y-52870186D01*
X155906552Y-52768729D01*
X155877222Y-52732991D01*
X155867652Y-52715087D01*
X155793557Y-52576467D01*
X155776384Y-52519853D01*
X155742037Y-52406627D01*
X155724641Y-52230000D01*
X155742037Y-52053373D01*
X155793557Y-51883534D01*
X155793557Y-51883533D01*
X155877221Y-51727011D01*
X155877222Y-51727009D01*
X155906552Y-51691271D01*
X155989814Y-51589814D01*
X156091271Y-51506552D01*
X156127009Y-51477222D01*
X156144913Y-51467652D01*
X156283533Y-51393557D01*
X156340147Y-51376384D01*
X156453373Y-51342037D01*
X156519557Y-51335519D01*
X156585740Y-51329000D01*
X156674260Y-51329000D01*
X156740442Y-51335518D01*
X156740442Y-51335518D01*
G37*
G36*
X154200442Y-51335518D02*
X154266627Y-51342037D01*
X154379853Y-51376384D01*
X154436467Y-51393557D01*
X154575087Y-51467652D01*
X154592991Y-51477222D01*
X154628729Y-51506552D01*
X154730186Y-51589814D01*
X154813448Y-51691271D01*
X154842778Y-51727009D01*
X154842779Y-51727011D01*
X154926443Y-51883533D01*
X154926443Y-51883534D01*
X154977963Y-52053373D01*
X154995359Y-52230000D01*
X154977963Y-52406627D01*
X154943616Y-52519853D01*
X154926443Y-52576467D01*
X154852348Y-52715087D01*
X154842778Y-52732991D01*
X154813448Y-52768729D01*
X154730186Y-52870186D01*
X154628729Y-52953448D01*
X154592991Y-52982778D01*
X154592989Y-52982779D01*
X154436467Y-53066443D01*
X154379853Y-53083616D01*
X154266627Y-53117963D01*
X154200442Y-53124482D01*
X154134260Y-53131000D01*
X154045740Y-53131000D01*
X153979558Y-53124482D01*
X153913373Y-53117963D01*
X153800147Y-53083616D01*
X153743533Y-53066443D01*
X153587011Y-52982779D01*
X153587009Y-52982778D01*
X153551271Y-52953448D01*
X153449814Y-52870186D01*
X153366552Y-52768729D01*
X153337222Y-52732991D01*
X153327652Y-52715087D01*
X153253557Y-52576467D01*
X153236384Y-52519853D01*
X153202037Y-52406627D01*
X153184641Y-52230000D01*
X153202037Y-52053373D01*
X153253557Y-51883534D01*
X153253557Y-51883533D01*
X153337221Y-51727011D01*
X153337222Y-51727009D01*
X153366552Y-51691271D01*
X153449814Y-51589814D01*
X153551271Y-51506552D01*
X153587009Y-51477222D01*
X153604913Y-51467652D01*
X153743533Y-51393557D01*
X153800147Y-51376384D01*
X153913373Y-51342037D01*
X153979557Y-51335519D01*
X154045740Y-51329000D01*
X154134260Y-51329000D01*
X154200442Y-51335518D01*
X154200442Y-51335518D01*
G37*
G36*
X131340442Y-51335518D02*
X131406627Y-51342037D01*
X131519853Y-51376384D01*
X131576467Y-51393557D01*
X131715087Y-51467652D01*
X131732991Y-51477222D01*
X131768729Y-51506552D01*
X131870186Y-51589814D01*
X131953448Y-51691271D01*
X131982778Y-51727009D01*
X131982779Y-51727011D01*
X132066443Y-51883533D01*
X132066443Y-51883534D01*
X132117963Y-52053373D01*
X132135359Y-52230000D01*
X132117963Y-52406627D01*
X132083616Y-52519853D01*
X132066443Y-52576467D01*
X131992348Y-52715087D01*
X131982778Y-52732991D01*
X131953448Y-52768729D01*
X131870186Y-52870186D01*
X131768729Y-52953448D01*
X131732991Y-52982778D01*
X131732989Y-52982779D01*
X131576467Y-53066443D01*
X131519853Y-53083616D01*
X131406627Y-53117963D01*
X131340442Y-53124482D01*
X131274260Y-53131000D01*
X131185740Y-53131000D01*
X131119558Y-53124482D01*
X131053373Y-53117963D01*
X130940147Y-53083616D01*
X130883533Y-53066443D01*
X130727011Y-52982779D01*
X130727009Y-52982778D01*
X130691271Y-52953448D01*
X130589814Y-52870186D01*
X130506552Y-52768729D01*
X130477222Y-52732991D01*
X130467652Y-52715087D01*
X130393557Y-52576467D01*
X130376384Y-52519853D01*
X130342037Y-52406627D01*
X130324641Y-52230000D01*
X130342037Y-52053373D01*
X130393557Y-51883534D01*
X130393557Y-51883533D01*
X130477221Y-51727011D01*
X130477222Y-51727009D01*
X130506552Y-51691271D01*
X130589814Y-51589814D01*
X130691271Y-51506552D01*
X130727009Y-51477222D01*
X130744913Y-51467652D01*
X130883533Y-51393557D01*
X130940147Y-51376384D01*
X131053373Y-51342037D01*
X131119557Y-51335519D01*
X131185740Y-51329000D01*
X131274260Y-51329000D01*
X131340442Y-51335518D01*
X131340442Y-51335518D01*
G37*
G36*
X133880442Y-51335518D02*
X133946627Y-51342037D01*
X134059853Y-51376384D01*
X134116467Y-51393557D01*
X134255087Y-51467652D01*
X134272991Y-51477222D01*
X134308729Y-51506552D01*
X134410186Y-51589814D01*
X134493448Y-51691271D01*
X134522778Y-51727009D01*
X134522779Y-51727011D01*
X134606443Y-51883533D01*
X134606443Y-51883534D01*
X134657963Y-52053373D01*
X134675359Y-52230000D01*
X134657963Y-52406627D01*
X134623616Y-52519853D01*
X134606443Y-52576467D01*
X134532348Y-52715087D01*
X134522778Y-52732991D01*
X134493448Y-52768729D01*
X134410186Y-52870186D01*
X134308729Y-52953448D01*
X134272991Y-52982778D01*
X134272989Y-52982779D01*
X134116467Y-53066443D01*
X134059853Y-53083616D01*
X133946627Y-53117963D01*
X133880442Y-53124482D01*
X133814260Y-53131000D01*
X133725740Y-53131000D01*
X133659558Y-53124482D01*
X133593373Y-53117963D01*
X133480147Y-53083616D01*
X133423533Y-53066443D01*
X133267011Y-52982779D01*
X133267009Y-52982778D01*
X133231271Y-52953448D01*
X133129814Y-52870186D01*
X133046552Y-52768729D01*
X133017222Y-52732991D01*
X133007652Y-52715087D01*
X132933557Y-52576467D01*
X132916384Y-52519853D01*
X132882037Y-52406627D01*
X132864641Y-52230000D01*
X132882037Y-52053373D01*
X132933557Y-51883534D01*
X132933557Y-51883533D01*
X133017221Y-51727011D01*
X133017222Y-51727009D01*
X133046552Y-51691271D01*
X133129814Y-51589814D01*
X133231271Y-51506552D01*
X133267009Y-51477222D01*
X133284913Y-51467652D01*
X133423533Y-51393557D01*
X133480147Y-51376384D01*
X133593373Y-51342037D01*
X133659557Y-51335519D01*
X133725740Y-51329000D01*
X133814260Y-51329000D01*
X133880442Y-51335518D01*
X133880442Y-51335518D01*
G37*
G36*
X136420442Y-51335518D02*
X136486627Y-51342037D01*
X136599853Y-51376384D01*
X136656467Y-51393557D01*
X136795087Y-51467652D01*
X136812991Y-51477222D01*
X136848729Y-51506552D01*
X136950186Y-51589814D01*
X137033448Y-51691271D01*
X137062778Y-51727009D01*
X137062779Y-51727011D01*
X137146443Y-51883533D01*
X137146443Y-51883534D01*
X137197963Y-52053373D01*
X137215359Y-52230000D01*
X137197963Y-52406627D01*
X137163616Y-52519853D01*
X137146443Y-52576467D01*
X137072348Y-52715087D01*
X137062778Y-52732991D01*
X137033448Y-52768729D01*
X136950186Y-52870186D01*
X136848729Y-52953448D01*
X136812991Y-52982778D01*
X136812989Y-52982779D01*
X136656467Y-53066443D01*
X136599853Y-53083616D01*
X136486627Y-53117963D01*
X136420442Y-53124482D01*
X136354260Y-53131000D01*
X136265740Y-53131000D01*
X136199558Y-53124482D01*
X136133373Y-53117963D01*
X136020147Y-53083616D01*
X135963533Y-53066443D01*
X135807011Y-52982779D01*
X135807009Y-52982778D01*
X135771271Y-52953448D01*
X135669814Y-52870186D01*
X135586552Y-52768729D01*
X135557222Y-52732991D01*
X135547652Y-52715087D01*
X135473557Y-52576467D01*
X135456384Y-52519853D01*
X135422037Y-52406627D01*
X135404641Y-52230000D01*
X135422037Y-52053373D01*
X135473557Y-51883534D01*
X135473557Y-51883533D01*
X135557221Y-51727011D01*
X135557222Y-51727009D01*
X135586552Y-51691271D01*
X135669814Y-51589814D01*
X135771271Y-51506552D01*
X135807009Y-51477222D01*
X135824913Y-51467652D01*
X135963533Y-51393557D01*
X136020147Y-51376384D01*
X136133373Y-51342037D01*
X136199557Y-51335519D01*
X136265740Y-51329000D01*
X136354260Y-51329000D01*
X136420442Y-51335518D01*
X136420442Y-51335518D01*
G37*
G36*
X138960442Y-51335518D02*
X139026627Y-51342037D01*
X139139853Y-51376384D01*
X139196467Y-51393557D01*
X139335087Y-51467652D01*
X139352991Y-51477222D01*
X139388729Y-51506552D01*
X139490186Y-51589814D01*
X139573448Y-51691271D01*
X139602778Y-51727009D01*
X139602779Y-51727011D01*
X139686443Y-51883533D01*
X139686443Y-51883534D01*
X139737963Y-52053373D01*
X139755359Y-52230000D01*
X139737963Y-52406627D01*
X139703616Y-52519853D01*
X139686443Y-52576467D01*
X139612348Y-52715087D01*
X139602778Y-52732991D01*
X139573448Y-52768729D01*
X139490186Y-52870186D01*
X139388729Y-52953448D01*
X139352991Y-52982778D01*
X139352989Y-52982779D01*
X139196467Y-53066443D01*
X139139853Y-53083616D01*
X139026627Y-53117963D01*
X138960442Y-53124482D01*
X138894260Y-53131000D01*
X138805740Y-53131000D01*
X138739558Y-53124482D01*
X138673373Y-53117963D01*
X138560147Y-53083616D01*
X138503533Y-53066443D01*
X138347011Y-52982779D01*
X138347009Y-52982778D01*
X138311271Y-52953448D01*
X138209814Y-52870186D01*
X138126552Y-52768729D01*
X138097222Y-52732991D01*
X138087652Y-52715087D01*
X138013557Y-52576467D01*
X137996384Y-52519853D01*
X137962037Y-52406627D01*
X137944641Y-52230000D01*
X137962037Y-52053373D01*
X138013557Y-51883534D01*
X138013557Y-51883533D01*
X138097221Y-51727011D01*
X138097222Y-51727009D01*
X138126552Y-51691271D01*
X138209814Y-51589814D01*
X138311271Y-51506552D01*
X138347009Y-51477222D01*
X138364913Y-51467652D01*
X138503533Y-51393557D01*
X138560147Y-51376384D01*
X138673373Y-51342037D01*
X138739557Y-51335519D01*
X138805740Y-51329000D01*
X138894260Y-51329000D01*
X138960442Y-51335518D01*
X138960442Y-51335518D01*
G37*
G36*
X141500442Y-51335518D02*
X141566627Y-51342037D01*
X141679853Y-51376384D01*
X141736467Y-51393557D01*
X141875087Y-51467652D01*
X141892991Y-51477222D01*
X141928729Y-51506552D01*
X142030186Y-51589814D01*
X142113448Y-51691271D01*
X142142778Y-51727009D01*
X142142779Y-51727011D01*
X142226443Y-51883533D01*
X142226443Y-51883534D01*
X142277963Y-52053373D01*
X142295359Y-52230000D01*
X142277963Y-52406627D01*
X142243616Y-52519853D01*
X142226443Y-52576467D01*
X142152348Y-52715087D01*
X142142778Y-52732991D01*
X142113448Y-52768729D01*
X142030186Y-52870186D01*
X141928729Y-52953448D01*
X141892991Y-52982778D01*
X141892989Y-52982779D01*
X141736467Y-53066443D01*
X141679853Y-53083616D01*
X141566627Y-53117963D01*
X141500442Y-53124482D01*
X141434260Y-53131000D01*
X141345740Y-53131000D01*
X141279558Y-53124482D01*
X141213373Y-53117963D01*
X141100147Y-53083616D01*
X141043533Y-53066443D01*
X140887011Y-52982779D01*
X140887009Y-52982778D01*
X140851271Y-52953448D01*
X140749814Y-52870186D01*
X140666552Y-52768729D01*
X140637222Y-52732991D01*
X140627652Y-52715087D01*
X140553557Y-52576467D01*
X140536384Y-52519853D01*
X140502037Y-52406627D01*
X140484641Y-52230000D01*
X140502037Y-52053373D01*
X140553557Y-51883534D01*
X140553557Y-51883533D01*
X140637221Y-51727011D01*
X140637222Y-51727009D01*
X140666552Y-51691271D01*
X140749814Y-51589814D01*
X140851271Y-51506552D01*
X140887009Y-51477222D01*
X140904913Y-51467652D01*
X141043533Y-51393557D01*
X141100147Y-51376384D01*
X141213373Y-51342037D01*
X141279557Y-51335519D01*
X141345740Y-51329000D01*
X141434260Y-51329000D01*
X141500442Y-51335518D01*
X141500442Y-51335518D01*
G37*
G36*
X144040442Y-51335518D02*
X144106627Y-51342037D01*
X144219853Y-51376384D01*
X144276467Y-51393557D01*
X144415087Y-51467652D01*
X144432991Y-51477222D01*
X144468729Y-51506552D01*
X144570186Y-51589814D01*
X144653448Y-51691271D01*
X144682778Y-51727009D01*
X144682779Y-51727011D01*
X144766443Y-51883533D01*
X144766443Y-51883534D01*
X144817963Y-52053373D01*
X144835359Y-52230000D01*
X144817963Y-52406627D01*
X144783616Y-52519853D01*
X144766443Y-52576467D01*
X144692348Y-52715087D01*
X144682778Y-52732991D01*
X144653448Y-52768729D01*
X144570186Y-52870186D01*
X144468729Y-52953448D01*
X144432991Y-52982778D01*
X144432989Y-52982779D01*
X144276467Y-53066443D01*
X144219853Y-53083616D01*
X144106627Y-53117963D01*
X144040442Y-53124482D01*
X143974260Y-53131000D01*
X143885740Y-53131000D01*
X143819558Y-53124482D01*
X143753373Y-53117963D01*
X143640147Y-53083616D01*
X143583533Y-53066443D01*
X143427011Y-52982779D01*
X143427009Y-52982778D01*
X143391271Y-52953448D01*
X143289814Y-52870186D01*
X143206552Y-52768729D01*
X143177222Y-52732991D01*
X143167652Y-52715087D01*
X143093557Y-52576467D01*
X143076384Y-52519853D01*
X143042037Y-52406627D01*
X143024641Y-52230000D01*
X143042037Y-52053373D01*
X143093557Y-51883534D01*
X143093557Y-51883533D01*
X143177221Y-51727011D01*
X143177222Y-51727009D01*
X143206552Y-51691271D01*
X143289814Y-51589814D01*
X143391271Y-51506552D01*
X143427009Y-51477222D01*
X143444913Y-51467652D01*
X143583533Y-51393557D01*
X143640147Y-51376384D01*
X143753373Y-51342037D01*
X143819557Y-51335519D01*
X143885740Y-51329000D01*
X143974260Y-51329000D01*
X144040442Y-51335518D01*
X144040442Y-51335518D01*
G37*
G36*
X146580442Y-51335518D02*
X146646627Y-51342037D01*
X146759853Y-51376384D01*
X146816467Y-51393557D01*
X146955087Y-51467652D01*
X146972991Y-51477222D01*
X147008729Y-51506552D01*
X147110186Y-51589814D01*
X147193448Y-51691271D01*
X147222778Y-51727009D01*
X147222779Y-51727011D01*
X147306443Y-51883533D01*
X147306443Y-51883534D01*
X147357963Y-52053373D01*
X147375359Y-52230000D01*
X147357963Y-52406627D01*
X147323616Y-52519853D01*
X147306443Y-52576467D01*
X147232348Y-52715087D01*
X147222778Y-52732991D01*
X147193448Y-52768729D01*
X147110186Y-52870186D01*
X147008729Y-52953448D01*
X146972991Y-52982778D01*
X146972989Y-52982779D01*
X146816467Y-53066443D01*
X146759853Y-53083616D01*
X146646627Y-53117963D01*
X146580442Y-53124482D01*
X146514260Y-53131000D01*
X146425740Y-53131000D01*
X146359558Y-53124482D01*
X146293373Y-53117963D01*
X146180147Y-53083616D01*
X146123533Y-53066443D01*
X145967011Y-52982779D01*
X145967009Y-52982778D01*
X145931271Y-52953448D01*
X145829814Y-52870186D01*
X145746552Y-52768729D01*
X145717222Y-52732991D01*
X145707652Y-52715087D01*
X145633557Y-52576467D01*
X145616384Y-52519853D01*
X145582037Y-52406627D01*
X145564641Y-52230000D01*
X145582037Y-52053373D01*
X145633557Y-51883534D01*
X145633557Y-51883533D01*
X145717221Y-51727011D01*
X145717222Y-51727009D01*
X145746552Y-51691271D01*
X145829814Y-51589814D01*
X145931271Y-51506552D01*
X145967009Y-51477222D01*
X145984913Y-51467652D01*
X146123533Y-51393557D01*
X146180147Y-51376384D01*
X146293373Y-51342037D01*
X146359557Y-51335519D01*
X146425740Y-51329000D01*
X146514260Y-51329000D01*
X146580442Y-51335518D01*
X146580442Y-51335518D01*
G37*
G36*
X149120442Y-51335518D02*
X149186627Y-51342037D01*
X149299853Y-51376384D01*
X149356467Y-51393557D01*
X149495087Y-51467652D01*
X149512991Y-51477222D01*
X149548729Y-51506552D01*
X149650186Y-51589814D01*
X149733448Y-51691271D01*
X149762778Y-51727009D01*
X149762779Y-51727011D01*
X149846443Y-51883533D01*
X149846443Y-51883534D01*
X149897963Y-52053373D01*
X149915359Y-52230000D01*
X149897963Y-52406627D01*
X149863616Y-52519853D01*
X149846443Y-52576467D01*
X149772348Y-52715087D01*
X149762778Y-52732991D01*
X149733448Y-52768729D01*
X149650186Y-52870186D01*
X149548729Y-52953448D01*
X149512991Y-52982778D01*
X149512989Y-52982779D01*
X149356467Y-53066443D01*
X149299853Y-53083616D01*
X149186627Y-53117963D01*
X149120442Y-53124482D01*
X149054260Y-53131000D01*
X148965740Y-53131000D01*
X148899558Y-53124482D01*
X148833373Y-53117963D01*
X148720147Y-53083616D01*
X148663533Y-53066443D01*
X148507011Y-52982779D01*
X148507009Y-52982778D01*
X148471271Y-52953448D01*
X148369814Y-52870186D01*
X148286552Y-52768729D01*
X148257222Y-52732991D01*
X148247652Y-52715087D01*
X148173557Y-52576467D01*
X148156384Y-52519853D01*
X148122037Y-52406627D01*
X148104641Y-52230000D01*
X148122037Y-52053373D01*
X148173557Y-51883534D01*
X148173557Y-51883533D01*
X148257221Y-51727011D01*
X148257222Y-51727009D01*
X148286552Y-51691271D01*
X148369814Y-51589814D01*
X148471271Y-51506552D01*
X148507009Y-51477222D01*
X148524913Y-51467652D01*
X148663533Y-51393557D01*
X148720147Y-51376384D01*
X148833373Y-51342037D01*
X148899557Y-51335519D01*
X148965740Y-51329000D01*
X149054260Y-51329000D01*
X149120442Y-51335518D01*
X149120442Y-51335518D01*
G37*
G36*
X151660442Y-51335518D02*
X151726627Y-51342037D01*
X151839853Y-51376384D01*
X151896467Y-51393557D01*
X152035087Y-51467652D01*
X152052991Y-51477222D01*
X152088729Y-51506552D01*
X152190186Y-51589814D01*
X152273448Y-51691271D01*
X152302778Y-51727009D01*
X152302779Y-51727011D01*
X152386443Y-51883533D01*
X152386443Y-51883534D01*
X152437963Y-52053373D01*
X152455359Y-52230000D01*
X152437963Y-52406627D01*
X152403616Y-52519853D01*
X152386443Y-52576467D01*
X152312348Y-52715087D01*
X152302778Y-52732991D01*
X152273448Y-52768729D01*
X152190186Y-52870186D01*
X152088729Y-52953448D01*
X152052991Y-52982778D01*
X152052989Y-52982779D01*
X151896467Y-53066443D01*
X151839853Y-53083616D01*
X151726627Y-53117963D01*
X151660442Y-53124482D01*
X151594260Y-53131000D01*
X151505740Y-53131000D01*
X151439558Y-53124482D01*
X151373373Y-53117963D01*
X151260147Y-53083616D01*
X151203533Y-53066443D01*
X151047011Y-52982779D01*
X151047009Y-52982778D01*
X151011271Y-52953448D01*
X150909814Y-52870186D01*
X150826552Y-52768729D01*
X150797222Y-52732991D01*
X150787652Y-52715087D01*
X150713557Y-52576467D01*
X150696384Y-52519853D01*
X150662037Y-52406627D01*
X150644641Y-52230000D01*
X150662037Y-52053373D01*
X150713557Y-51883534D01*
X150713557Y-51883533D01*
X150797221Y-51727011D01*
X150797222Y-51727009D01*
X150826552Y-51691271D01*
X150909814Y-51589814D01*
X151011271Y-51506552D01*
X151047009Y-51477222D01*
X151064913Y-51467652D01*
X151203533Y-51393557D01*
X151260147Y-51376384D01*
X151373373Y-51342037D01*
X151439557Y-51335519D01*
X151505740Y-51329000D01*
X151594260Y-51329000D01*
X151660442Y-51335518D01*
X151660442Y-51335518D01*
G37*
G36*
X116100442Y-51335518D02*
X116166627Y-51342037D01*
X116279853Y-51376384D01*
X116336467Y-51393557D01*
X116475087Y-51467652D01*
X116492991Y-51477222D01*
X116528729Y-51506552D01*
X116630186Y-51589814D01*
X116713448Y-51691271D01*
X116742778Y-51727009D01*
X116742779Y-51727011D01*
X116826443Y-51883533D01*
X116826443Y-51883534D01*
X116877963Y-52053373D01*
X116895359Y-52230000D01*
X116877963Y-52406627D01*
X116843616Y-52519853D01*
X116826443Y-52576467D01*
X116752348Y-52715087D01*
X116742778Y-52732991D01*
X116713448Y-52768729D01*
X116630186Y-52870186D01*
X116528729Y-52953448D01*
X116492991Y-52982778D01*
X116492989Y-52982779D01*
X116336467Y-53066443D01*
X116279853Y-53083616D01*
X116166627Y-53117963D01*
X116100442Y-53124482D01*
X116034260Y-53131000D01*
X115945740Y-53131000D01*
X115879558Y-53124482D01*
X115813373Y-53117963D01*
X115700147Y-53083616D01*
X115643533Y-53066443D01*
X115487011Y-52982779D01*
X115487009Y-52982778D01*
X115451271Y-52953448D01*
X115349814Y-52870186D01*
X115266552Y-52768729D01*
X115237222Y-52732991D01*
X115227652Y-52715087D01*
X115153557Y-52576467D01*
X115136384Y-52519853D01*
X115102037Y-52406627D01*
X115084641Y-52230000D01*
X115102037Y-52053373D01*
X115153557Y-51883534D01*
X115153557Y-51883533D01*
X115237221Y-51727011D01*
X115237222Y-51727009D01*
X115266552Y-51691271D01*
X115349814Y-51589814D01*
X115451271Y-51506552D01*
X115487009Y-51477222D01*
X115504913Y-51467652D01*
X115643533Y-51393557D01*
X115700147Y-51376384D01*
X115813373Y-51342037D01*
X115879557Y-51335519D01*
X115945740Y-51329000D01*
X116034260Y-51329000D01*
X116100442Y-51335518D01*
X116100442Y-51335518D01*
G37*
G36*
X118640442Y-51335518D02*
X118706627Y-51342037D01*
X118819853Y-51376384D01*
X118876467Y-51393557D01*
X119015087Y-51467652D01*
X119032991Y-51477222D01*
X119068729Y-51506552D01*
X119170186Y-51589814D01*
X119253448Y-51691271D01*
X119282778Y-51727009D01*
X119282779Y-51727011D01*
X119366443Y-51883533D01*
X119366443Y-51883534D01*
X119417963Y-52053373D01*
X119435359Y-52230000D01*
X119417963Y-52406627D01*
X119383616Y-52519853D01*
X119366443Y-52576467D01*
X119292348Y-52715087D01*
X119282778Y-52732991D01*
X119253448Y-52768729D01*
X119170186Y-52870186D01*
X119068729Y-52953448D01*
X119032991Y-52982778D01*
X119032989Y-52982779D01*
X118876467Y-53066443D01*
X118819853Y-53083616D01*
X118706627Y-53117963D01*
X118640442Y-53124482D01*
X118574260Y-53131000D01*
X118485740Y-53131000D01*
X118419558Y-53124482D01*
X118353373Y-53117963D01*
X118240147Y-53083616D01*
X118183533Y-53066443D01*
X118027011Y-52982779D01*
X118027009Y-52982778D01*
X117991271Y-52953448D01*
X117889814Y-52870186D01*
X117806552Y-52768729D01*
X117777222Y-52732991D01*
X117767652Y-52715087D01*
X117693557Y-52576467D01*
X117676384Y-52519853D01*
X117642037Y-52406627D01*
X117624641Y-52230000D01*
X117642037Y-52053373D01*
X117693557Y-51883534D01*
X117693557Y-51883533D01*
X117777221Y-51727011D01*
X117777222Y-51727009D01*
X117806552Y-51691271D01*
X117889814Y-51589814D01*
X117991271Y-51506552D01*
X118027009Y-51477222D01*
X118044913Y-51467652D01*
X118183533Y-51393557D01*
X118240147Y-51376384D01*
X118353373Y-51342037D01*
X118419557Y-51335519D01*
X118485740Y-51329000D01*
X118574260Y-51329000D01*
X118640442Y-51335518D01*
X118640442Y-51335518D01*
G37*
G36*
X121180442Y-51335518D02*
X121246627Y-51342037D01*
X121359853Y-51376384D01*
X121416467Y-51393557D01*
X121555087Y-51467652D01*
X121572991Y-51477222D01*
X121608729Y-51506552D01*
X121710186Y-51589814D01*
X121793448Y-51691271D01*
X121822778Y-51727009D01*
X121822779Y-51727011D01*
X121906443Y-51883533D01*
X121906443Y-51883534D01*
X121957963Y-52053373D01*
X121975359Y-52230000D01*
X121957963Y-52406627D01*
X121923616Y-52519853D01*
X121906443Y-52576467D01*
X121832348Y-52715087D01*
X121822778Y-52732991D01*
X121793448Y-52768729D01*
X121710186Y-52870186D01*
X121608729Y-52953448D01*
X121572991Y-52982778D01*
X121572989Y-52982779D01*
X121416467Y-53066443D01*
X121359853Y-53083616D01*
X121246627Y-53117963D01*
X121180442Y-53124482D01*
X121114260Y-53131000D01*
X121025740Y-53131000D01*
X120959558Y-53124482D01*
X120893373Y-53117963D01*
X120780147Y-53083616D01*
X120723533Y-53066443D01*
X120567011Y-52982779D01*
X120567009Y-52982778D01*
X120531271Y-52953448D01*
X120429814Y-52870186D01*
X120346552Y-52768729D01*
X120317222Y-52732991D01*
X120307652Y-52715087D01*
X120233557Y-52576467D01*
X120216384Y-52519853D01*
X120182037Y-52406627D01*
X120164641Y-52230000D01*
X120182037Y-52053373D01*
X120233557Y-51883534D01*
X120233557Y-51883533D01*
X120317221Y-51727011D01*
X120317222Y-51727009D01*
X120346552Y-51691271D01*
X120429814Y-51589814D01*
X120531271Y-51506552D01*
X120567009Y-51477222D01*
X120584913Y-51467652D01*
X120723533Y-51393557D01*
X120780147Y-51376384D01*
X120893373Y-51342037D01*
X120959557Y-51335519D01*
X121025740Y-51329000D01*
X121114260Y-51329000D01*
X121180442Y-51335518D01*
X121180442Y-51335518D01*
G37*
G36*
X108480442Y-51335518D02*
X108546627Y-51342037D01*
X108659853Y-51376384D01*
X108716467Y-51393557D01*
X108855087Y-51467652D01*
X108872991Y-51477222D01*
X108908729Y-51506552D01*
X109010186Y-51589814D01*
X109093448Y-51691271D01*
X109122778Y-51727009D01*
X109122779Y-51727011D01*
X109206443Y-51883533D01*
X109206443Y-51883534D01*
X109257963Y-52053373D01*
X109275359Y-52230000D01*
X109257963Y-52406627D01*
X109223616Y-52519853D01*
X109206443Y-52576467D01*
X109132348Y-52715087D01*
X109122778Y-52732991D01*
X109093448Y-52768729D01*
X109010186Y-52870186D01*
X108908729Y-52953448D01*
X108872991Y-52982778D01*
X108872989Y-52982779D01*
X108716467Y-53066443D01*
X108659853Y-53083616D01*
X108546627Y-53117963D01*
X108480442Y-53124482D01*
X108414260Y-53131000D01*
X108325740Y-53131000D01*
X108259558Y-53124482D01*
X108193373Y-53117963D01*
X108080147Y-53083616D01*
X108023533Y-53066443D01*
X107867011Y-52982779D01*
X107867009Y-52982778D01*
X107831271Y-52953448D01*
X107729814Y-52870186D01*
X107646552Y-52768729D01*
X107617222Y-52732991D01*
X107607652Y-52715087D01*
X107533557Y-52576467D01*
X107516384Y-52519853D01*
X107482037Y-52406627D01*
X107464641Y-52230000D01*
X107482037Y-52053373D01*
X107533557Y-51883534D01*
X107533557Y-51883533D01*
X107617221Y-51727011D01*
X107617222Y-51727009D01*
X107646552Y-51691271D01*
X107729814Y-51589814D01*
X107831271Y-51506552D01*
X107867009Y-51477222D01*
X107884913Y-51467652D01*
X108023533Y-51393557D01*
X108080147Y-51376384D01*
X108193373Y-51342037D01*
X108259557Y-51335519D01*
X108325740Y-51329000D01*
X108414260Y-51329000D01*
X108480442Y-51335518D01*
X108480442Y-51335518D01*
G37*
G36*
X123720442Y-51335518D02*
X123786627Y-51342037D01*
X123899853Y-51376384D01*
X123956467Y-51393557D01*
X124095087Y-51467652D01*
X124112991Y-51477222D01*
X124148729Y-51506552D01*
X124250186Y-51589814D01*
X124333448Y-51691271D01*
X124362778Y-51727009D01*
X124362779Y-51727011D01*
X124446443Y-51883533D01*
X124446443Y-51883534D01*
X124497963Y-52053373D01*
X124515359Y-52230000D01*
X124497963Y-52406627D01*
X124463616Y-52519853D01*
X124446443Y-52576467D01*
X124372348Y-52715087D01*
X124362778Y-52732991D01*
X124333448Y-52768729D01*
X124250186Y-52870186D01*
X124148729Y-52953448D01*
X124112991Y-52982778D01*
X124112989Y-52982779D01*
X123956467Y-53066443D01*
X123899853Y-53083616D01*
X123786627Y-53117963D01*
X123720442Y-53124482D01*
X123654260Y-53131000D01*
X123565740Y-53131000D01*
X123499558Y-53124482D01*
X123433373Y-53117963D01*
X123320147Y-53083616D01*
X123263533Y-53066443D01*
X123107011Y-52982779D01*
X123107009Y-52982778D01*
X123071271Y-52953448D01*
X122969814Y-52870186D01*
X122886552Y-52768729D01*
X122857222Y-52732991D01*
X122847652Y-52715087D01*
X122773557Y-52576467D01*
X122756384Y-52519853D01*
X122722037Y-52406627D01*
X122704641Y-52230000D01*
X122722037Y-52053373D01*
X122773557Y-51883534D01*
X122773557Y-51883533D01*
X122857221Y-51727011D01*
X122857222Y-51727009D01*
X122886552Y-51691271D01*
X122969814Y-51589814D01*
X123071271Y-51506552D01*
X123107009Y-51477222D01*
X123124913Y-51467652D01*
X123263533Y-51393557D01*
X123320147Y-51376384D01*
X123433373Y-51342037D01*
X123499557Y-51335519D01*
X123565740Y-51329000D01*
X123654260Y-51329000D01*
X123720442Y-51335518D01*
X123720442Y-51335518D01*
G37*
G36*
X126260442Y-51335518D02*
X126326627Y-51342037D01*
X126439853Y-51376384D01*
X126496467Y-51393557D01*
X126635087Y-51467652D01*
X126652991Y-51477222D01*
X126688729Y-51506552D01*
X126790186Y-51589814D01*
X126873448Y-51691271D01*
X126902778Y-51727009D01*
X126902779Y-51727011D01*
X126986443Y-51883533D01*
X126986443Y-51883534D01*
X127037963Y-52053373D01*
X127055359Y-52230000D01*
X127037963Y-52406627D01*
X127003616Y-52519853D01*
X126986443Y-52576467D01*
X126912348Y-52715087D01*
X126902778Y-52732991D01*
X126873448Y-52768729D01*
X126790186Y-52870186D01*
X126688729Y-52953448D01*
X126652991Y-52982778D01*
X126652989Y-52982779D01*
X126496467Y-53066443D01*
X126439853Y-53083616D01*
X126326627Y-53117963D01*
X126260442Y-53124482D01*
X126194260Y-53131000D01*
X126105740Y-53131000D01*
X126039558Y-53124482D01*
X125973373Y-53117963D01*
X125860147Y-53083616D01*
X125803533Y-53066443D01*
X125647011Y-52982779D01*
X125647009Y-52982778D01*
X125611271Y-52953448D01*
X125509814Y-52870186D01*
X125426552Y-52768729D01*
X125397222Y-52732991D01*
X125387652Y-52715087D01*
X125313557Y-52576467D01*
X125296384Y-52519853D01*
X125262037Y-52406627D01*
X125244641Y-52230000D01*
X125262037Y-52053373D01*
X125313557Y-51883534D01*
X125313557Y-51883533D01*
X125397221Y-51727011D01*
X125397222Y-51727009D01*
X125426552Y-51691271D01*
X125509814Y-51589814D01*
X125611271Y-51506552D01*
X125647009Y-51477222D01*
X125664913Y-51467652D01*
X125803533Y-51393557D01*
X125860147Y-51376384D01*
X125973373Y-51342037D01*
X126039557Y-51335519D01*
X126105740Y-51329000D01*
X126194260Y-51329000D01*
X126260442Y-51335518D01*
X126260442Y-51335518D01*
G37*
G36*
X111020442Y-51335518D02*
X111086627Y-51342037D01*
X111199853Y-51376384D01*
X111256467Y-51393557D01*
X111395087Y-51467652D01*
X111412991Y-51477222D01*
X111448729Y-51506552D01*
X111550186Y-51589814D01*
X111633448Y-51691271D01*
X111662778Y-51727009D01*
X111662779Y-51727011D01*
X111746443Y-51883533D01*
X111746443Y-51883534D01*
X111797963Y-52053373D01*
X111815359Y-52230000D01*
X111797963Y-52406627D01*
X111763616Y-52519853D01*
X111746443Y-52576467D01*
X111672348Y-52715087D01*
X111662778Y-52732991D01*
X111633448Y-52768729D01*
X111550186Y-52870186D01*
X111448729Y-52953448D01*
X111412991Y-52982778D01*
X111412989Y-52982779D01*
X111256467Y-53066443D01*
X111199853Y-53083616D01*
X111086627Y-53117963D01*
X111020442Y-53124482D01*
X110954260Y-53131000D01*
X110865740Y-53131000D01*
X110799558Y-53124482D01*
X110733373Y-53117963D01*
X110620147Y-53083616D01*
X110563533Y-53066443D01*
X110407011Y-52982779D01*
X110407009Y-52982778D01*
X110371271Y-52953448D01*
X110269814Y-52870186D01*
X110186552Y-52768729D01*
X110157222Y-52732991D01*
X110147652Y-52715087D01*
X110073557Y-52576467D01*
X110056384Y-52519853D01*
X110022037Y-52406627D01*
X110004641Y-52230000D01*
X110022037Y-52053373D01*
X110073557Y-51883534D01*
X110073557Y-51883533D01*
X110157221Y-51727011D01*
X110157222Y-51727009D01*
X110186552Y-51691271D01*
X110269814Y-51589814D01*
X110371271Y-51506552D01*
X110407009Y-51477222D01*
X110424913Y-51467652D01*
X110563533Y-51393557D01*
X110620147Y-51376384D01*
X110733373Y-51342037D01*
X110799557Y-51335519D01*
X110865740Y-51329000D01*
X110954260Y-51329000D01*
X111020442Y-51335518D01*
X111020442Y-51335518D01*
G37*
G36*
X128800442Y-51335518D02*
X128866627Y-51342037D01*
X128979853Y-51376384D01*
X129036467Y-51393557D01*
X129175087Y-51467652D01*
X129192991Y-51477222D01*
X129228729Y-51506552D01*
X129330186Y-51589814D01*
X129413448Y-51691271D01*
X129442778Y-51727009D01*
X129442779Y-51727011D01*
X129526443Y-51883533D01*
X129526443Y-51883534D01*
X129577963Y-52053373D01*
X129595359Y-52230000D01*
X129577963Y-52406627D01*
X129543616Y-52519853D01*
X129526443Y-52576467D01*
X129452348Y-52715087D01*
X129442778Y-52732991D01*
X129413448Y-52768729D01*
X129330186Y-52870186D01*
X129228729Y-52953448D01*
X129192991Y-52982778D01*
X129192989Y-52982779D01*
X129036467Y-53066443D01*
X128979853Y-53083616D01*
X128866627Y-53117963D01*
X128800442Y-53124482D01*
X128734260Y-53131000D01*
X128645740Y-53131000D01*
X128579558Y-53124482D01*
X128513373Y-53117963D01*
X128400147Y-53083616D01*
X128343533Y-53066443D01*
X128187011Y-52982779D01*
X128187009Y-52982778D01*
X128151271Y-52953448D01*
X128049814Y-52870186D01*
X127966552Y-52768729D01*
X127937222Y-52732991D01*
X127927652Y-52715087D01*
X127853557Y-52576467D01*
X127836384Y-52519853D01*
X127802037Y-52406627D01*
X127784641Y-52230000D01*
X127802037Y-52053373D01*
X127853557Y-51883534D01*
X127853557Y-51883533D01*
X127937221Y-51727011D01*
X127937222Y-51727009D01*
X127966552Y-51691271D01*
X128049814Y-51589814D01*
X128151271Y-51506552D01*
X128187009Y-51477222D01*
X128204913Y-51467652D01*
X128343533Y-51393557D01*
X128400147Y-51376384D01*
X128513373Y-51342037D01*
X128579557Y-51335519D01*
X128645740Y-51329000D01*
X128734260Y-51329000D01*
X128800442Y-51335518D01*
X128800442Y-51335518D01*
G37*
G36*
X113560442Y-51335518D02*
X113626627Y-51342037D01*
X113739853Y-51376384D01*
X113796467Y-51393557D01*
X113935087Y-51467652D01*
X113952991Y-51477222D01*
X113988729Y-51506552D01*
X114090186Y-51589814D01*
X114173448Y-51691271D01*
X114202778Y-51727009D01*
X114202779Y-51727011D01*
X114286443Y-51883533D01*
X114286443Y-51883534D01*
X114337963Y-52053373D01*
X114355359Y-52230000D01*
X114337963Y-52406627D01*
X114303616Y-52519853D01*
X114286443Y-52576467D01*
X114212348Y-52715087D01*
X114202778Y-52732991D01*
X114173448Y-52768729D01*
X114090186Y-52870186D01*
X113988729Y-52953448D01*
X113952991Y-52982778D01*
X113952989Y-52982779D01*
X113796467Y-53066443D01*
X113739853Y-53083616D01*
X113626627Y-53117963D01*
X113560442Y-53124482D01*
X113494260Y-53131000D01*
X113405740Y-53131000D01*
X113339558Y-53124482D01*
X113273373Y-53117963D01*
X113160147Y-53083616D01*
X113103533Y-53066443D01*
X112947011Y-52982779D01*
X112947009Y-52982778D01*
X112911271Y-52953448D01*
X112809814Y-52870186D01*
X112726552Y-52768729D01*
X112697222Y-52732991D01*
X112687652Y-52715087D01*
X112613557Y-52576467D01*
X112596384Y-52519853D01*
X112562037Y-52406627D01*
X112544641Y-52230000D01*
X112562037Y-52053373D01*
X112613557Y-51883534D01*
X112613557Y-51883533D01*
X112697221Y-51727011D01*
X112697222Y-51727009D01*
X112726552Y-51691271D01*
X112809814Y-51589814D01*
X112911271Y-51506552D01*
X112947009Y-51477222D01*
X112964913Y-51467652D01*
X113103533Y-51393557D01*
X113160147Y-51376384D01*
X113273373Y-51342037D01*
X113339557Y-51335519D01*
X113405740Y-51329000D01*
X113494260Y-51329000D01*
X113560442Y-51335518D01*
X113560442Y-51335518D01*
G37*
M02*
