G04 #@! TF.GenerationSoftware,KiCad,Pcbnew,(5.0.2)*
G04 #@! TF.CreationDate,2020-11-06T15:24:57+00:00*
G04 #@! TF.ProjectId,alto,616c746f-2e6b-4696-9361-645f70636258,rev?*
G04 #@! TF.SameCoordinates,Original*
G04 #@! TF.FileFunction,Copper,L1,Top*
G04 #@! TF.FilePolarity,Positive*
%FSLAX46Y46*%
G04 Gerber Fmt 4.6, Leading zero omitted, Abs format (unit mm)*
G04 Created by KiCad (PCBNEW (5.0.2)) date Fri 06 Nov 2020 15:24:57 GMT*
%MOMM*%
%LPD*%
G01*
G04 APERTURE LIST*
G04 #@! TA.AperFunction,NonConductor*
%ADD10C,0.150000*%
G04 #@! TD*
G04 #@! TA.AperFunction,ComponentPad*
%ADD11C,1.800000*%
G04 #@! TD*
G04 #@! TA.AperFunction,ComponentPad*
%ADD12R,1.800000X1.800000*%
G04 #@! TD*
G04 #@! TA.AperFunction,ComponentPad*
%ADD13O,1.700000X1.700000*%
G04 #@! TD*
G04 #@! TA.AperFunction,ComponentPad*
%ADD14R,1.700000X1.700000*%
G04 #@! TD*
G04 #@! TA.AperFunction,ComponentPad*
%ADD15R,1.998980X1.998980*%
G04 #@! TD*
G04 #@! TA.AperFunction,SMDPad,CuDef*
%ADD16C,1.986130*%
G04 #@! TD*
G04 #@! TA.AperFunction,Conductor*
%ADD17C,0.100000*%
G04 #@! TD*
G04 #@! TA.AperFunction,Conductor*
%ADD18C,0.200000*%
G04 #@! TD*
G04 APERTURE END LIST*
D10*
X157000000Y-80000000D02*
X161500000Y-80000000D01*
X103500000Y-80000000D02*
X157000000Y-80000000D01*
X104875000Y-76500000D02*
G75*
G03X104875000Y-76500000I-1375000J0D01*
G01*
X162875000Y-76500000D02*
G75*
G03X162875000Y-76500000I-1375000J0D01*
G01*
X100000000Y-76500000D02*
X100000000Y-53500000D01*
X165000000Y-53500000D02*
X165000000Y-76500000D01*
X103500000Y-50000000D02*
X161500000Y-50000000D01*
X103500000Y-80000000D02*
G75*
G02X100000000Y-76500000I0J3500000D01*
G01*
X165000000Y-76500000D02*
G75*
G02X161500000Y-80000000I-3500000J0D01*
G01*
X100000000Y-53500000D02*
G75*
G02X103500000Y-50000000I3500000J0D01*
G01*
X161500000Y-50000000D02*
G75*
G02X165000000Y-53500000I0J-3500000D01*
G01*
X162875000Y-53500000D02*
G75*
G03X162875000Y-53500000I-1375000J0D01*
G01*
X104875000Y-53500000D02*
G75*
G03X104875000Y-53500000I-1375000J0D01*
G01*
D11*
G04 #@! TO.P,J5,2*
G04 #@! TO.N,Net-(J5-Pad2)*
X155360000Y-76360000D03*
D12*
G04 #@! TO.P,J5,1*
G04 #@! TO.N,GND*
X152820000Y-76360000D03*
G04 #@! TD*
D13*
G04 #@! TO.P,J4,2*
G04 #@! TO.N,Net-(J4-Pad2)*
X145200000Y-78900000D03*
D14*
G04 #@! TO.P,J4,1*
G04 #@! TO.N,GND*
X142660000Y-78900000D03*
G04 #@! TD*
D13*
G04 #@! TO.P,J3,2*
G04 #@! TO.N,Net-(J3-Pad2)*
X140120000Y-78900000D03*
D14*
G04 #@! TO.P,J3,1*
G04 #@! TO.N,GND*
X137580000Y-78900000D03*
G04 #@! TD*
D13*
G04 #@! TO.P,J6,2*
G04 #@! TO.N,/VBUS*
X102020000Y-68740000D03*
D14*
G04 #@! TO.P,J6,1*
G04 #@! TO.N,GND*
X102020000Y-71280000D03*
G04 #@! TD*
G04 #@! TO.P,PI1,1*
G04 #@! TO.N,Net-(PI1-Pad1)*
X108370000Y-54770000D03*
D13*
G04 #@! TO.P,PI1,2*
G04 #@! TO.N,/5V*
X108370000Y-52230000D03*
G04 #@! TO.P,PI1,3*
G04 #@! TO.N,/SDA*
X110910000Y-54770000D03*
G04 #@! TO.P,PI1,4*
G04 #@! TO.N,/5V*
X110910000Y-52230000D03*
G04 #@! TO.P,PI1,5*
G04 #@! TO.N,/SCL*
X113450000Y-54770000D03*
G04 #@! TO.P,PI1,6*
G04 #@! TO.N,GND*
X113450000Y-52230000D03*
G04 #@! TO.P,PI1,7*
G04 #@! TO.N,Net-(PI1-Pad7)*
X115990000Y-54770000D03*
G04 #@! TO.P,PI1,8*
G04 #@! TO.N,/TX*
X115990000Y-52230000D03*
G04 #@! TO.P,PI1,9*
G04 #@! TO.N,GND*
X118530000Y-54770000D03*
G04 #@! TO.P,PI1,10*
G04 #@! TO.N,/RX*
X118530000Y-52230000D03*
G04 #@! TO.P,PI1,11*
G04 #@! TO.N,Net-(PI1-Pad11)*
X121070000Y-54770000D03*
G04 #@! TO.P,PI1,12*
G04 #@! TO.N,Net-(PI1-Pad12)*
X121070000Y-52230000D03*
G04 #@! TO.P,PI1,13*
G04 #@! TO.N,Net-(PI1-Pad13)*
X123610000Y-54770000D03*
G04 #@! TO.P,PI1,14*
G04 #@! TO.N,GND*
X123610000Y-52230000D03*
G04 #@! TO.P,PI1,15*
G04 #@! TO.N,Net-(PI1-Pad15)*
X126150000Y-54770000D03*
G04 #@! TO.P,PI1,16*
G04 #@! TO.N,Net-(PI1-Pad16)*
X126150000Y-52230000D03*
G04 #@! TO.P,PI1,17*
G04 #@! TO.N,/3.3V*
X128690000Y-54770000D03*
G04 #@! TO.P,PI1,18*
G04 #@! TO.N,Net-(PI1-Pad18)*
X128690000Y-52230000D03*
G04 #@! TO.P,PI1,19*
G04 #@! TO.N,/MOSI*
X131230000Y-54770000D03*
G04 #@! TO.P,PI1,20*
G04 #@! TO.N,GND*
X131230000Y-52230000D03*
G04 #@! TO.P,PI1,21*
G04 #@! TO.N,/MISO*
X133770000Y-54770000D03*
G04 #@! TO.P,PI1,22*
G04 #@! TO.N,Net-(PI1-Pad22)*
X133770000Y-52230000D03*
G04 #@! TO.P,PI1,23*
G04 #@! TO.N,/CLK*
X136310000Y-54770000D03*
G04 #@! TO.P,PI1,24*
G04 #@! TO.N,Net-(PI1-Pad24)*
X136310000Y-52230000D03*
G04 #@! TO.P,PI1,25*
G04 #@! TO.N,GND*
X138850000Y-54770000D03*
G04 #@! TO.P,PI1,26*
G04 #@! TO.N,Net-(PI1-Pad26)*
X138850000Y-52230000D03*
G04 #@! TO.P,PI1,27*
G04 #@! TO.N,Net-(PI1-Pad27)*
X141390000Y-54770000D03*
G04 #@! TO.P,PI1,28*
G04 #@! TO.N,Net-(PI1-Pad28)*
X141390000Y-52230000D03*
G04 #@! TO.P,PI1,29*
G04 #@! TO.N,Net-(PI1-Pad29)*
X143930000Y-54770000D03*
G04 #@! TO.P,PI1,30*
G04 #@! TO.N,GND*
X143930000Y-52230000D03*
G04 #@! TO.P,PI1,31*
G04 #@! TO.N,Net-(PI1-Pad31)*
X146470000Y-54770000D03*
G04 #@! TO.P,PI1,32*
G04 #@! TO.N,Net-(PI1-Pad32)*
X146470000Y-52230000D03*
G04 #@! TO.P,PI1,33*
G04 #@! TO.N,/GPIO13*
X149010000Y-54770000D03*
G04 #@! TO.P,PI1,34*
G04 #@! TO.N,GND*
X149010000Y-52230000D03*
G04 #@! TO.P,PI1,35*
G04 #@! TO.N,/GPIO19*
X151550000Y-54770000D03*
G04 #@! TO.P,PI1,36*
G04 #@! TO.N,Net-(PI1-Pad36)*
X151550000Y-52230000D03*
G04 #@! TO.P,PI1,37*
G04 #@! TO.N,/GPIO26*
X154090000Y-54770000D03*
G04 #@! TO.P,PI1,38*
G04 #@! TO.N,Net-(PI1-Pad38)*
X154090000Y-52230000D03*
G04 #@! TO.P,PI1,39*
G04 #@! TO.N,GND*
X156630000Y-54770000D03*
G04 #@! TO.P,PI1,40*
G04 #@! TO.N,Net-(PI1-Pad40)*
X156630000Y-52230000D03*
G04 #@! TD*
G04 #@! TO.P,J1,3*
G04 #@! TO.N,Net-(J1-Pad3)*
X127420000Y-78900000D03*
G04 #@! TO.P,J1,2*
G04 #@! TO.N,/VBUS*
X124880000Y-78900000D03*
D14*
G04 #@! TO.P,J1,1*
G04 #@! TO.N,GND*
X122340000Y-78900000D03*
G04 #@! TD*
D13*
G04 #@! TO.P,J2,3*
G04 #@! TO.N,Net-(J2-Pad3)*
X135040000Y-78900000D03*
G04 #@! TO.P,J2,2*
G04 #@! TO.N,/VBUS*
X132500000Y-78900000D03*
D14*
G04 #@! TO.P,J2,1*
G04 #@! TO.N,GND*
X129960000Y-78900000D03*
G04 #@! TD*
D13*
G04 #@! TO.P,J7,3*
G04 #@! TO.N,/VBUS*
X109640000Y-73820000D03*
G04 #@! TO.P,J7,2*
G04 #@! TO.N,GND*
X109640000Y-71280000D03*
D14*
G04 #@! TO.P,J7,1*
G04 #@! TO.N,/5V*
X109640000Y-68740000D03*
G04 #@! TD*
D15*
G04 #@! TO.P,R3,2*
G04 #@! TO.N,Net-(PI1-Pad29)*
X140120000Y-62341740D03*
G04 #@! TO.P,R3,1*
G04 #@! TO.N,Net-(J3-Pad2)*
X140120000Y-72344260D03*
D16*
G04 #@! TO.P,R3,2*
G04 #@! TO.N,Net-(PI1-Pad29)*
X140120000Y-64930000D03*
D17*
G04 #@! TD*
G04 #@! TO.N,Net-(PI1-Pad29)*
G04 #@! TO.C,R3*
G36*
X138921120Y-63179940D02*
X141318880Y-63179940D01*
X140920100Y-66680060D01*
X139319900Y-66680060D01*
X138921120Y-63179940D01*
X138921120Y-63179940D01*
G37*
D16*
G04 #@! TO.P,R3,1*
G04 #@! TO.N,Net-(J3-Pad2)*
X140120000Y-69756000D03*
D17*
G04 #@! TD*
G04 #@! TO.N,Net-(J3-Pad2)*
G04 #@! TO.C,R3*
G36*
X141318880Y-71506060D02*
X138921120Y-71506060D01*
X139319900Y-68005940D01*
X140920100Y-68005940D01*
X141318880Y-71506060D01*
X141318880Y-71506060D01*
G37*
D16*
G04 #@! TO.P,R5,1*
G04 #@! TO.N,Net-(J5-Pad2)*
X150280000Y-69883000D03*
D17*
G04 #@! TD*
G04 #@! TO.N,Net-(J5-Pad2)*
G04 #@! TO.C,R5*
G36*
X151478880Y-71633060D02*
X149081120Y-71633060D01*
X149479900Y-68132940D01*
X151080100Y-68132940D01*
X151478880Y-71633060D01*
X151478880Y-71633060D01*
G37*
D16*
G04 #@! TO.P,R5,2*
G04 #@! TO.N,Net-(PI1-Pad36)*
X150280000Y-65057000D03*
D17*
G04 #@! TD*
G04 #@! TO.N,Net-(PI1-Pad36)*
G04 #@! TO.C,R5*
G36*
X149081120Y-63306940D02*
X151478880Y-63306940D01*
X151080100Y-66807060D01*
X149479900Y-66807060D01*
X149081120Y-63306940D01*
X149081120Y-63306940D01*
G37*
D15*
G04 #@! TO.P,R5,1*
G04 #@! TO.N,Net-(J5-Pad2)*
X150280000Y-72471260D03*
G04 #@! TO.P,R5,2*
G04 #@! TO.N,Net-(PI1-Pad36)*
X150280000Y-62468740D03*
G04 #@! TD*
D16*
G04 #@! TO.P,R4,1*
G04 #@! TO.N,Net-(J4-Pad2)*
X145200000Y-69961740D03*
D17*
G04 #@! TD*
G04 #@! TO.N,Net-(J4-Pad2)*
G04 #@! TO.C,R4*
G36*
X146398880Y-71711800D02*
X144001120Y-71711800D01*
X144399900Y-68211680D01*
X146000100Y-68211680D01*
X146398880Y-71711800D01*
X146398880Y-71711800D01*
G37*
D16*
G04 #@! TO.P,R4,2*
G04 #@! TO.N,Net-(PI1-Pad31)*
X145200000Y-65135740D03*
D17*
G04 #@! TD*
G04 #@! TO.N,Net-(PI1-Pad31)*
G04 #@! TO.C,R4*
G36*
X144001120Y-63385680D02*
X146398880Y-63385680D01*
X146000100Y-66885800D01*
X144399900Y-66885800D01*
X144001120Y-63385680D01*
X144001120Y-63385680D01*
G37*
D15*
G04 #@! TO.P,R4,1*
G04 #@! TO.N,Net-(J4-Pad2)*
X145200000Y-72550000D03*
G04 #@! TO.P,R4,2*
G04 #@! TO.N,Net-(PI1-Pad31)*
X145200000Y-62547480D03*
G04 #@! TD*
G04 #@! TO.P,R1,2*
G04 #@! TO.N,Net-(PI1-Pad18)*
X129960000Y-62341740D03*
G04 #@! TO.P,R1,1*
G04 #@! TO.N,Net-(J1-Pad3)*
X129960000Y-72344260D03*
D16*
G04 #@! TO.P,R1,2*
G04 #@! TO.N,Net-(PI1-Pad18)*
X129960000Y-64930000D03*
D17*
G04 #@! TD*
G04 #@! TO.N,Net-(PI1-Pad18)*
G04 #@! TO.C,R1*
G36*
X128761120Y-63179940D02*
X131158880Y-63179940D01*
X130760100Y-66680060D01*
X129159900Y-66680060D01*
X128761120Y-63179940D01*
X128761120Y-63179940D01*
G37*
D16*
G04 #@! TO.P,R1,1*
G04 #@! TO.N,Net-(J1-Pad3)*
X129960000Y-69756000D03*
D17*
G04 #@! TD*
G04 #@! TO.N,Net-(J1-Pad3)*
G04 #@! TO.C,R1*
G36*
X131158880Y-71506060D02*
X128761120Y-71506060D01*
X129159900Y-68005940D01*
X130760100Y-68005940D01*
X131158880Y-71506060D01*
X131158880Y-71506060D01*
G37*
D16*
G04 #@! TO.P,R2,1*
G04 #@! TO.N,Net-(J2-Pad3)*
X135040000Y-69756000D03*
D17*
G04 #@! TD*
G04 #@! TO.N,Net-(J2-Pad3)*
G04 #@! TO.C,R2*
G36*
X136238880Y-71506060D02*
X133841120Y-71506060D01*
X134239900Y-68005940D01*
X135840100Y-68005940D01*
X136238880Y-71506060D01*
X136238880Y-71506060D01*
G37*
D16*
G04 #@! TO.P,R2,2*
G04 #@! TO.N,Net-(PI1-Pad22)*
X135040000Y-64930000D03*
D17*
G04 #@! TD*
G04 #@! TO.N,Net-(PI1-Pad22)*
G04 #@! TO.C,R2*
G36*
X133841120Y-63179940D02*
X136238880Y-63179940D01*
X135840100Y-66680060D01*
X134239900Y-66680060D01*
X133841120Y-63179940D01*
X133841120Y-63179940D01*
G37*
D15*
G04 #@! TO.P,R2,1*
G04 #@! TO.N,Net-(J2-Pad3)*
X135040000Y-72344260D03*
G04 #@! TO.P,R2,2*
G04 #@! TO.N,Net-(PI1-Pad22)*
X135040000Y-62341740D03*
G04 #@! TD*
D13*
G04 #@! TO.P,J10,3*
G04 #@! TO.N,/CLK*
X142660000Y-57945000D03*
G04 #@! TO.P,J10,2*
G04 #@! TO.N,/MISO*
X140120000Y-57945000D03*
D14*
G04 #@! TO.P,J10,1*
G04 #@! TO.N,/MOSI*
X137580000Y-57945000D03*
G04 #@! TD*
G04 #@! TO.P,J11,1*
G04 #@! TO.N,/GPIO13*
X152820000Y-57945000D03*
D13*
G04 #@! TO.P,J11,2*
G04 #@! TO.N,/GPIO19*
X155360000Y-57945000D03*
G04 #@! TO.P,J11,3*
G04 #@! TO.N,/GPIO26*
X157900000Y-57945000D03*
G04 #@! TD*
D14*
G04 #@! TO.P,J12,1*
G04 #@! TO.N,GND*
X162980000Y-71280000D03*
D13*
G04 #@! TO.P,J12,2*
G04 #@! TO.N,/3.3V*
X162980000Y-68740000D03*
G04 #@! TO.P,J12,3*
G04 #@! TO.N,/5V*
X162980000Y-66200000D03*
G04 #@! TD*
G04 #@! TO.P,J8,3*
G04 #@! TO.N,GND*
X112180000Y-57945000D03*
G04 #@! TO.P,J8,2*
G04 #@! TO.N,/RX*
X109640000Y-57945000D03*
D14*
G04 #@! TO.P,J8,1*
G04 #@! TO.N,/TX*
X107100000Y-57945000D03*
G04 #@! TD*
G04 #@! TO.P,J9,1*
G04 #@! TO.N,/SDA*
X122340000Y-57945000D03*
D13*
G04 #@! TO.P,J9,2*
G04 #@! TO.N,/SCL*
X124880000Y-57945000D03*
G04 #@! TO.P,J9,3*
G04 #@! TO.N,GND*
X127420000Y-57945000D03*
G04 #@! TD*
D18*
G04 #@! TO.N,GND*
X143080001Y-53079999D02*
X143930000Y-52230000D01*
X142729999Y-53430001D02*
X143080001Y-53079999D01*
X140189999Y-53430001D02*
X142729999Y-53430001D01*
X138850000Y-54770000D02*
X140189999Y-53430001D01*
X117329999Y-53569999D02*
X117680001Y-53920001D01*
X117680001Y-53920001D02*
X118530000Y-54770000D01*
X114789999Y-53569999D02*
X117329999Y-53569999D01*
X113450000Y-52230000D02*
X114789999Y-53569999D01*
G04 #@! TO.N,Net-(J3-Pad2)*
X140120000Y-78900000D02*
X140120000Y-71201260D01*
X140120000Y-68613000D02*
X140120000Y-71201260D01*
G04 #@! TO.N,Net-(J4-Pad2)*
X145200000Y-78900000D02*
X145200000Y-71328260D01*
X145200000Y-68740000D02*
X145200000Y-71328260D01*
G04 #@! TO.N,/TX*
X107100000Y-56895000D02*
X107100000Y-57945000D01*
X105830000Y-55625000D02*
X107100000Y-56895000D01*
X115990000Y-52230000D02*
X114720000Y-50960000D01*
X114720000Y-50960000D02*
X107100000Y-50960000D01*
X107100000Y-50960000D02*
X105830000Y-52230000D01*
X105830000Y-52230000D02*
X105830000Y-55625000D01*
G04 #@! TO.N,Net-(PI1-Pad29)*
X143930000Y-59731230D02*
X143176230Y-60485000D01*
X143930000Y-54770000D02*
X143930000Y-59731230D01*
X143176230Y-60485000D02*
X140755000Y-60485000D01*
X140120000Y-61120000D02*
X140120000Y-62341740D01*
X140755000Y-60485000D02*
X140120000Y-61120000D01*
X140120000Y-62341740D02*
X140120000Y-64930000D01*
G04 #@! TO.N,Net-(PI1-Pad31)*
X145200000Y-63914000D02*
X145200000Y-61325740D01*
X145200000Y-56040000D02*
X146470000Y-54770000D01*
X145200000Y-63914000D02*
X145200000Y-56040000D01*
G04 #@! TO.N,Net-(J1-Pad3)*
X129960000Y-73543750D02*
X127420000Y-76083750D01*
X129960000Y-72344260D02*
X129960000Y-73543750D01*
X127420000Y-76083750D02*
X127420000Y-78900000D01*
X129960000Y-72344260D02*
X129960000Y-69756000D01*
G04 #@! TO.N,Net-(J2-Pad3)*
X135040000Y-78900000D02*
X135040000Y-71328260D01*
X135040000Y-68740000D02*
X135040000Y-71328260D01*
G04 #@! TO.N,Net-(J5-Pad2)*
X150280000Y-72471260D02*
X150280000Y-69883000D01*
X151479490Y-72471260D02*
X155360000Y-76351770D01*
X155360000Y-76351770D02*
X155360000Y-76360000D01*
X150280000Y-72471260D02*
X151479490Y-72471260D01*
G04 #@! TO.N,Net-(PI1-Pad18)*
X129960000Y-64930000D02*
X129960000Y-62341740D01*
X129960000Y-59801740D02*
X129960000Y-62341740D01*
X129325000Y-59166740D02*
X129960000Y-59801740D01*
X128690000Y-52230000D02*
X127420000Y-53500000D01*
X127420000Y-53500000D02*
X127420000Y-56168998D01*
X127420000Y-56168998D02*
X129325000Y-58073998D01*
X129325000Y-58073998D02*
X129325000Y-59166740D01*
G04 #@! TO.N,Net-(PI1-Pad22)*
X135040000Y-64930000D02*
X135040000Y-62341740D01*
X134405000Y-60485000D02*
X135040000Y-61120000D01*
X135040000Y-61120000D02*
X135040000Y-62341740D01*
X129960000Y-54263998D02*
X129960000Y-58461230D01*
X133770000Y-52230000D02*
X133006002Y-52230000D01*
X131736002Y-53500000D02*
X130723998Y-53500000D01*
X129960000Y-58461230D02*
X131983770Y-60485000D01*
X133006002Y-52230000D02*
X131736002Y-53500000D01*
X131983770Y-60485000D02*
X134405000Y-60485000D01*
X130723998Y-53500000D02*
X129960000Y-54263998D01*
G04 #@! TO.N,Net-(PI1-Pad36)*
X150280000Y-61269250D02*
X150280000Y-62468740D01*
X147740000Y-58729250D02*
X150280000Y-61269250D01*
X150280000Y-53500000D02*
X148503998Y-53500000D01*
X148503998Y-53500000D02*
X147740000Y-54263998D01*
X151550000Y-52230000D02*
X150280000Y-53500000D01*
X147740000Y-54263998D02*
X147740000Y-58729250D01*
X150280000Y-62468740D02*
X150280000Y-65057000D01*
G04 #@! TO.N,/SDA*
X112180000Y-56040000D02*
X110910000Y-54770000D01*
X114083590Y-56040000D02*
X112180000Y-56040000D01*
X115238598Y-57195008D02*
X114083590Y-56040000D01*
X115240008Y-57195008D02*
X115238598Y-57195008D01*
X121290000Y-57945000D02*
X120655000Y-57310000D01*
X122340000Y-57945000D02*
X121290000Y-57945000D01*
X120655000Y-57310000D02*
X115355000Y-57310000D01*
X115355000Y-57310000D02*
X115240008Y-57195008D01*
G04 #@! TO.N,/SCL*
X113450000Y-54770000D02*
X115424999Y-56744999D01*
X123679999Y-56744999D02*
X124880000Y-57945000D01*
X115424999Y-56744999D02*
X123679999Y-56744999D01*
G04 #@! TO.N,/CLK*
X136310000Y-54770000D02*
X137580000Y-56040000D01*
X140755000Y-56040000D02*
X142660000Y-57945000D01*
X137580000Y-56040000D02*
X140755000Y-56040000D01*
G04 #@! TO.N,/MISO*
X138850000Y-56675000D02*
X140120000Y-57945000D01*
X135675000Y-56675000D02*
X138850000Y-56675000D01*
X133770000Y-54770000D02*
X135675000Y-56675000D01*
G04 #@! TO.N,/MOSI*
X132500000Y-56040000D02*
X131230000Y-54770000D01*
X133770000Y-56040000D02*
X132500000Y-56040000D01*
X135675000Y-57945000D02*
X133770000Y-56040000D01*
X137580000Y-57945000D02*
X135675000Y-57945000D01*
G04 #@! TO.N,/GPIO13*
X150915000Y-56040000D02*
X150280000Y-56040000D01*
X150280000Y-56040000D02*
X149010000Y-54770000D01*
X152820000Y-57945000D02*
X150915000Y-56040000D01*
G04 #@! TO.N,/GPIO19*
X154510001Y-57095001D02*
X155360000Y-57945000D01*
X153455000Y-56040000D02*
X154510001Y-57095001D01*
X152820000Y-56040000D02*
X153455000Y-56040000D01*
X151550000Y-54770000D02*
X152820000Y-56040000D01*
G04 #@! TO.N,/GPIO26*
X155995000Y-56040000D02*
X157900000Y-57945000D01*
X155360000Y-56040000D02*
X155995000Y-56040000D01*
X154090000Y-54770000D02*
X155360000Y-56040000D01*
G04 #@! TD*
G04 #@! TO.N,GND*
G36*
X162170577Y-50450055D02*
X162809861Y-50665198D01*
X163388040Y-51012602D01*
X163878127Y-51476055D01*
X164257263Y-52033937D01*
X164507757Y-52660217D01*
X164620403Y-53340652D01*
X164625000Y-53505243D01*
X164625001Y-76479678D01*
X164549945Y-77170577D01*
X164334802Y-77809861D01*
X163987400Y-78388037D01*
X163523947Y-78878126D01*
X162966063Y-79257263D01*
X162339780Y-79507759D01*
X161659348Y-79620403D01*
X161494757Y-79625000D01*
X146158798Y-79625000D01*
X146330375Y-79368217D01*
X146423509Y-78900000D01*
X146330375Y-78431783D01*
X146065152Y-78034848D01*
X145668217Y-77769625D01*
X145650000Y-77766001D01*
X145650000Y-76639000D01*
X151420000Y-76639000D01*
X151420000Y-77359456D01*
X151496121Y-77543227D01*
X151636773Y-77683880D01*
X151820544Y-77760000D01*
X152541000Y-77760000D01*
X152666000Y-77635000D01*
X152666000Y-76514000D01*
X151545000Y-76514000D01*
X151420000Y-76639000D01*
X145650000Y-76639000D01*
X145650000Y-75360544D01*
X151420000Y-75360544D01*
X151420000Y-76081000D01*
X151545000Y-76206000D01*
X152666000Y-76206000D01*
X152666000Y-75085000D01*
X152541000Y-74960000D01*
X151820544Y-74960000D01*
X151636773Y-75036120D01*
X151496121Y-75176773D01*
X151420000Y-75360544D01*
X145650000Y-75360544D01*
X145650000Y-73906346D01*
X146199490Y-73906346D01*
X146336053Y-73879182D01*
X146451825Y-73801825D01*
X146529182Y-73686053D01*
X146556346Y-73549490D01*
X146556346Y-72027933D01*
X146571886Y-72023914D01*
X146678158Y-71933949D01*
X146741912Y-71810164D01*
X146753442Y-71671404D01*
X146744471Y-71592664D01*
X148726558Y-71592664D01*
X148751428Y-71769623D01*
X148828785Y-71885395D01*
X148923654Y-71948785D01*
X148923654Y-73470750D01*
X148950818Y-73607313D01*
X149028175Y-73723085D01*
X149143947Y-73800442D01*
X149280510Y-73827606D01*
X151279490Y-73827606D01*
X151416053Y-73800442D01*
X151531825Y-73723085D01*
X151609182Y-73607313D01*
X151636346Y-73470750D01*
X151636346Y-73264511D01*
X153331834Y-74960000D01*
X153099000Y-74960000D01*
X152974000Y-75085000D01*
X152974000Y-76206000D01*
X152994000Y-76206000D01*
X152994000Y-76514000D01*
X152974000Y-76514000D01*
X152974000Y-77635000D01*
X153099000Y-77760000D01*
X153819456Y-77760000D01*
X154003227Y-77683880D01*
X154143879Y-77543227D01*
X154220000Y-77359456D01*
X154220000Y-76874204D01*
X154300301Y-77068068D01*
X154651932Y-77419699D01*
X155111360Y-77610000D01*
X155608640Y-77610000D01*
X156068068Y-77419699D01*
X156419699Y-77068068D01*
X156610000Y-76608640D01*
X156610000Y-76500000D01*
X159730000Y-76500000D01*
X159836744Y-77105376D01*
X160144101Y-77637734D01*
X160615000Y-78032865D01*
X161192643Y-78243110D01*
X161807357Y-78243110D01*
X162385000Y-78032865D01*
X162855899Y-77637734D01*
X163163256Y-77105376D01*
X163270000Y-76500000D01*
X163163256Y-75894624D01*
X162855899Y-75362266D01*
X162385000Y-74967135D01*
X161807357Y-74756890D01*
X161192643Y-74756890D01*
X160615000Y-74967135D01*
X160144101Y-75362266D01*
X159836744Y-75894624D01*
X159730000Y-76500000D01*
X156610000Y-76500000D01*
X156610000Y-76111360D01*
X156419699Y-75651932D01*
X156068068Y-75300301D01*
X155608640Y-75110000D01*
X155111360Y-75110000D01*
X154859111Y-75214485D01*
X151829030Y-72184405D01*
X151803922Y-72146828D01*
X151655071Y-72047369D01*
X151636346Y-72043644D01*
X151636346Y-71949193D01*
X151651886Y-71945174D01*
X151758158Y-71855209D01*
X151821912Y-71731424D01*
X151833442Y-71592664D01*
X151829607Y-71559000D01*
X161630000Y-71559000D01*
X161630000Y-72229456D01*
X161706121Y-72413227D01*
X161846773Y-72553880D01*
X162030544Y-72630000D01*
X162701000Y-72630000D01*
X162826000Y-72505000D01*
X162826000Y-71434000D01*
X163134000Y-71434000D01*
X163134000Y-72505000D01*
X163259000Y-72630000D01*
X163929456Y-72630000D01*
X164113227Y-72553880D01*
X164253879Y-72413227D01*
X164330000Y-72229456D01*
X164330000Y-71559000D01*
X164205000Y-71434000D01*
X163134000Y-71434000D01*
X162826000Y-71434000D01*
X161755000Y-71434000D01*
X161630000Y-71559000D01*
X151829607Y-71559000D01*
X151689645Y-70330544D01*
X161630000Y-70330544D01*
X161630000Y-71001000D01*
X161755000Y-71126000D01*
X162826000Y-71126000D01*
X162826000Y-71106000D01*
X163134000Y-71106000D01*
X163134000Y-71126000D01*
X164205000Y-71126000D01*
X164330000Y-71001000D01*
X164330000Y-70330544D01*
X164253879Y-70146773D01*
X164113227Y-70006120D01*
X163929456Y-69930000D01*
X163259000Y-69930000D01*
X163134002Y-70054998D01*
X163134002Y-69932876D01*
X163448217Y-69870375D01*
X163845152Y-69605152D01*
X164110375Y-69208217D01*
X164203509Y-68740000D01*
X164110375Y-68271783D01*
X163845152Y-67874848D01*
X163448217Y-67609625D01*
X163098188Y-67540000D01*
X162861812Y-67540000D01*
X162511783Y-67609625D01*
X162114848Y-67874848D01*
X161849625Y-68271783D01*
X161756491Y-68740000D01*
X161849625Y-69208217D01*
X162114848Y-69605152D01*
X162511783Y-69870375D01*
X162825998Y-69932876D01*
X162825998Y-70054998D01*
X162701000Y-69930000D01*
X162030544Y-69930000D01*
X161846773Y-70006120D01*
X161706121Y-70146773D01*
X161630000Y-70330544D01*
X151689645Y-70330544D01*
X151434662Y-68092544D01*
X151409792Y-67996377D01*
X151332435Y-67880605D01*
X151216663Y-67803248D01*
X151080100Y-67776084D01*
X149479900Y-67776084D01*
X149381536Y-67789908D01*
X149257751Y-67853662D01*
X149167786Y-67959934D01*
X149125338Y-68092544D01*
X148726558Y-71592664D01*
X146744471Y-71592664D01*
X146354662Y-68171284D01*
X146329792Y-68075117D01*
X146252435Y-67959345D01*
X146136663Y-67881988D01*
X146000100Y-67854824D01*
X144399900Y-67854824D01*
X144301536Y-67868648D01*
X144177751Y-67932402D01*
X144087786Y-68038674D01*
X144045338Y-68171284D01*
X143646558Y-71671404D01*
X143671428Y-71848363D01*
X143748785Y-71964135D01*
X143843654Y-72027525D01*
X143843654Y-73549490D01*
X143870818Y-73686053D01*
X143948175Y-73801825D01*
X144063947Y-73879182D01*
X144200510Y-73906346D01*
X144750001Y-73906346D01*
X144750000Y-77766001D01*
X144731783Y-77769625D01*
X144334848Y-78034848D01*
X144069625Y-78431783D01*
X144007124Y-78745998D01*
X143885002Y-78745998D01*
X144010000Y-78621000D01*
X144010000Y-77950544D01*
X143933880Y-77766773D01*
X143793227Y-77626121D01*
X143609456Y-77550000D01*
X142939000Y-77550000D01*
X142814000Y-77675000D01*
X142814000Y-78746000D01*
X142834000Y-78746000D01*
X142834000Y-79054000D01*
X142814000Y-79054000D01*
X142814000Y-79074000D01*
X142506000Y-79074000D01*
X142506000Y-79054000D01*
X142486000Y-79054000D01*
X142486000Y-78746000D01*
X142506000Y-78746000D01*
X142506000Y-77675000D01*
X142381000Y-77550000D01*
X141710544Y-77550000D01*
X141526773Y-77626121D01*
X141386120Y-77766773D01*
X141310000Y-77950544D01*
X141310000Y-78621000D01*
X141434998Y-78745998D01*
X141312876Y-78745998D01*
X141250375Y-78431783D01*
X140985152Y-78034848D01*
X140588217Y-77769625D01*
X140570000Y-77766001D01*
X140570000Y-73700606D01*
X141119490Y-73700606D01*
X141256053Y-73673442D01*
X141371825Y-73596085D01*
X141449182Y-73480313D01*
X141476346Y-73343750D01*
X141476346Y-71822193D01*
X141491886Y-71818174D01*
X141598158Y-71728209D01*
X141661912Y-71604424D01*
X141673442Y-71465664D01*
X141274662Y-67965544D01*
X141249792Y-67869377D01*
X141172435Y-67753605D01*
X141056663Y-67676248D01*
X140920100Y-67649084D01*
X139319900Y-67649084D01*
X139221536Y-67662908D01*
X139097751Y-67726662D01*
X139007786Y-67832934D01*
X138965338Y-67965544D01*
X138566558Y-71465664D01*
X138591428Y-71642623D01*
X138668785Y-71758395D01*
X138763654Y-71821785D01*
X138763654Y-73343750D01*
X138790818Y-73480313D01*
X138868175Y-73596085D01*
X138983947Y-73673442D01*
X139120510Y-73700606D01*
X139670001Y-73700606D01*
X139670000Y-77766001D01*
X139651783Y-77769625D01*
X139254848Y-78034848D01*
X138989625Y-78431783D01*
X138927124Y-78745998D01*
X138805002Y-78745998D01*
X138930000Y-78621000D01*
X138930000Y-77950544D01*
X138853880Y-77766773D01*
X138713227Y-77626121D01*
X138529456Y-77550000D01*
X137859000Y-77550000D01*
X137734000Y-77675000D01*
X137734000Y-78746000D01*
X137754000Y-78746000D01*
X137754000Y-79054000D01*
X137734000Y-79054000D01*
X137734000Y-79074000D01*
X137426000Y-79074000D01*
X137426000Y-79054000D01*
X137406000Y-79054000D01*
X137406000Y-78746000D01*
X137426000Y-78746000D01*
X137426000Y-77675000D01*
X137301000Y-77550000D01*
X136630544Y-77550000D01*
X136446773Y-77626121D01*
X136306120Y-77766773D01*
X136230000Y-77950544D01*
X136230000Y-78621000D01*
X136354998Y-78745998D01*
X136232876Y-78745998D01*
X136170375Y-78431783D01*
X135905152Y-78034848D01*
X135508217Y-77769625D01*
X135490000Y-77766001D01*
X135490000Y-73700606D01*
X136039490Y-73700606D01*
X136176053Y-73673442D01*
X136291825Y-73596085D01*
X136369182Y-73480313D01*
X136396346Y-73343750D01*
X136396346Y-71822193D01*
X136411886Y-71818174D01*
X136518158Y-71728209D01*
X136581912Y-71604424D01*
X136593442Y-71465664D01*
X136194662Y-67965544D01*
X136169792Y-67869377D01*
X136092435Y-67753605D01*
X135976663Y-67676248D01*
X135840100Y-67649084D01*
X134239900Y-67649084D01*
X134141536Y-67662908D01*
X134017751Y-67726662D01*
X133927786Y-67832934D01*
X133885338Y-67965544D01*
X133486558Y-71465664D01*
X133511428Y-71642623D01*
X133588785Y-71758395D01*
X133683654Y-71821785D01*
X133683654Y-73343750D01*
X133710818Y-73480313D01*
X133788175Y-73596085D01*
X133903947Y-73673442D01*
X134040510Y-73700606D01*
X134590001Y-73700606D01*
X134590000Y-77766001D01*
X134571783Y-77769625D01*
X134174848Y-78034848D01*
X133909625Y-78431783D01*
X133816491Y-78900000D01*
X133909625Y-79368217D01*
X134081202Y-79625000D01*
X133458798Y-79625000D01*
X133630375Y-79368217D01*
X133723509Y-78900000D01*
X133630375Y-78431783D01*
X133365152Y-78034848D01*
X132968217Y-77769625D01*
X132618188Y-77700000D01*
X132381812Y-77700000D01*
X132031783Y-77769625D01*
X131634848Y-78034848D01*
X131369625Y-78431783D01*
X131307124Y-78745998D01*
X131185002Y-78745998D01*
X131310000Y-78621000D01*
X131310000Y-77950544D01*
X131233880Y-77766773D01*
X131093227Y-77626121D01*
X130909456Y-77550000D01*
X130239000Y-77550000D01*
X130114000Y-77675000D01*
X130114000Y-78746000D01*
X130134000Y-78746000D01*
X130134000Y-79054000D01*
X130114000Y-79054000D01*
X130114000Y-79074000D01*
X129806000Y-79074000D01*
X129806000Y-79054000D01*
X129786000Y-79054000D01*
X129786000Y-78746000D01*
X129806000Y-78746000D01*
X129806000Y-77675000D01*
X129681000Y-77550000D01*
X129010544Y-77550000D01*
X128826773Y-77626121D01*
X128686120Y-77766773D01*
X128610000Y-77950544D01*
X128610000Y-78621000D01*
X128734998Y-78745998D01*
X128612876Y-78745998D01*
X128550375Y-78431783D01*
X128285152Y-78034848D01*
X127888217Y-77769625D01*
X127870000Y-77766001D01*
X127870000Y-76270145D01*
X130246858Y-73893288D01*
X130284432Y-73868182D01*
X130383891Y-73719331D01*
X130387616Y-73700606D01*
X130959490Y-73700606D01*
X131096053Y-73673442D01*
X131211825Y-73596085D01*
X131289182Y-73480313D01*
X131316346Y-73343750D01*
X131316346Y-71822193D01*
X131331886Y-71818174D01*
X131438158Y-71728209D01*
X131501912Y-71604424D01*
X131513442Y-71465664D01*
X131114662Y-67965544D01*
X131089792Y-67869377D01*
X131012435Y-67753605D01*
X130896663Y-67676248D01*
X130760100Y-67649084D01*
X129159900Y-67649084D01*
X129061536Y-67662908D01*
X128937751Y-67726662D01*
X128847786Y-67832934D01*
X128805338Y-67965544D01*
X128406558Y-71465664D01*
X128431428Y-71642623D01*
X128508785Y-71758395D01*
X128603654Y-71821785D01*
X128603654Y-73343750D01*
X128630818Y-73480313D01*
X128708175Y-73596085D01*
X128823947Y-73673442D01*
X128960510Y-73700606D01*
X129166748Y-73700606D01*
X127133145Y-75734210D01*
X127095568Y-75759318D01*
X126996109Y-75908170D01*
X126992189Y-75927879D01*
X126961184Y-76083750D01*
X126970000Y-76128070D01*
X126970001Y-77766001D01*
X126951783Y-77769625D01*
X126554848Y-78034848D01*
X126289625Y-78431783D01*
X126196491Y-78900000D01*
X126289625Y-79368217D01*
X126461202Y-79625000D01*
X125838798Y-79625000D01*
X126010375Y-79368217D01*
X126103509Y-78900000D01*
X126010375Y-78431783D01*
X125745152Y-78034848D01*
X125348217Y-77769625D01*
X124998188Y-77700000D01*
X124761812Y-77700000D01*
X124411783Y-77769625D01*
X124014848Y-78034848D01*
X123749625Y-78431783D01*
X123687124Y-78745998D01*
X123565002Y-78745998D01*
X123690000Y-78621000D01*
X123690000Y-77950544D01*
X123613880Y-77766773D01*
X123473227Y-77626121D01*
X123289456Y-77550000D01*
X122619000Y-77550000D01*
X122494000Y-77675000D01*
X122494000Y-78746000D01*
X122514000Y-78746000D01*
X122514000Y-79054000D01*
X122494000Y-79054000D01*
X122494000Y-79074000D01*
X122186000Y-79074000D01*
X122186000Y-79054000D01*
X121115000Y-79054000D01*
X120990000Y-79179000D01*
X120990000Y-79625000D01*
X103520313Y-79625000D01*
X102829423Y-79549945D01*
X102190139Y-79334802D01*
X101611963Y-78987400D01*
X101121874Y-78523947D01*
X100742737Y-77966063D01*
X100492241Y-77339780D01*
X100379597Y-76659348D01*
X100375147Y-76500000D01*
X101730000Y-76500000D01*
X101836744Y-77105376D01*
X102144101Y-77637734D01*
X102615000Y-78032865D01*
X103192643Y-78243110D01*
X103807357Y-78243110D01*
X104385000Y-78032865D01*
X104483106Y-77950544D01*
X120990000Y-77950544D01*
X120990000Y-78621000D01*
X121115000Y-78746000D01*
X122186000Y-78746000D01*
X122186000Y-77675000D01*
X122061000Y-77550000D01*
X121390544Y-77550000D01*
X121206773Y-77626121D01*
X121066120Y-77766773D01*
X120990000Y-77950544D01*
X104483106Y-77950544D01*
X104855899Y-77637734D01*
X105163256Y-77105376D01*
X105270000Y-76500000D01*
X105163256Y-75894624D01*
X104855899Y-75362266D01*
X104385000Y-74967135D01*
X103807357Y-74756890D01*
X103192643Y-74756890D01*
X102615000Y-74967135D01*
X102144101Y-75362266D01*
X101836744Y-75894624D01*
X101730000Y-76500000D01*
X100375147Y-76500000D01*
X100375000Y-76494757D01*
X100375000Y-71559000D01*
X100670000Y-71559000D01*
X100670000Y-72229456D01*
X100746121Y-72413227D01*
X100886773Y-72553880D01*
X101070544Y-72630000D01*
X101741000Y-72630000D01*
X101866000Y-72505000D01*
X101866000Y-71434000D01*
X102174000Y-71434000D01*
X102174000Y-72505000D01*
X102299000Y-72630000D01*
X102969456Y-72630000D01*
X103153227Y-72553880D01*
X103293879Y-72413227D01*
X103370000Y-72229456D01*
X103370000Y-71641912D01*
X108339415Y-71641912D01*
X108464427Y-71943749D01*
X108807918Y-72343096D01*
X109278086Y-72580597D01*
X109485998Y-72496201D01*
X109485998Y-72627124D01*
X109171783Y-72689625D01*
X108774848Y-72954848D01*
X108509625Y-73351783D01*
X108416491Y-73820000D01*
X108509625Y-74288217D01*
X108774848Y-74685152D01*
X109171783Y-74950375D01*
X109521812Y-75020000D01*
X109758188Y-75020000D01*
X110108217Y-74950375D01*
X110505152Y-74685152D01*
X110770375Y-74288217D01*
X110863509Y-73820000D01*
X110770375Y-73351783D01*
X110505152Y-72954848D01*
X110108217Y-72689625D01*
X109794002Y-72627124D01*
X109794002Y-72496201D01*
X110001914Y-72580597D01*
X110472082Y-72343096D01*
X110815573Y-71943749D01*
X110940585Y-71641912D01*
X110855281Y-71434000D01*
X109794000Y-71434000D01*
X109794000Y-71454000D01*
X109486000Y-71454000D01*
X109486000Y-71434000D01*
X108424719Y-71434000D01*
X108339415Y-71641912D01*
X103370000Y-71641912D01*
X103370000Y-71559000D01*
X103245000Y-71434000D01*
X102174000Y-71434000D01*
X101866000Y-71434000D01*
X100795000Y-71434000D01*
X100670000Y-71559000D01*
X100375000Y-71559000D01*
X100375000Y-70330544D01*
X100670000Y-70330544D01*
X100670000Y-71001000D01*
X100795000Y-71126000D01*
X101866000Y-71126000D01*
X101866000Y-71106000D01*
X102174000Y-71106000D01*
X102174000Y-71126000D01*
X103245000Y-71126000D01*
X103370000Y-71001000D01*
X103370000Y-70918088D01*
X108339415Y-70918088D01*
X108424719Y-71126000D01*
X109486000Y-71126000D01*
X109486000Y-71106000D01*
X109794000Y-71106000D01*
X109794000Y-71126000D01*
X110855281Y-71126000D01*
X110940585Y-70918088D01*
X110815573Y-70616251D01*
X110472082Y-70216904D01*
X110001914Y-69979403D01*
X109794002Y-70063799D01*
X109794002Y-69946856D01*
X110490000Y-69946856D01*
X110626563Y-69919692D01*
X110742335Y-69842335D01*
X110819692Y-69726563D01*
X110846856Y-69590000D01*
X110846856Y-67890000D01*
X110819692Y-67753437D01*
X110742335Y-67637665D01*
X110626563Y-67560308D01*
X110490000Y-67533144D01*
X108790000Y-67533144D01*
X108653437Y-67560308D01*
X108537665Y-67637665D01*
X108460308Y-67753437D01*
X108433144Y-67890000D01*
X108433144Y-69590000D01*
X108460308Y-69726563D01*
X108537665Y-69842335D01*
X108653437Y-69919692D01*
X108790000Y-69946856D01*
X109485998Y-69946856D01*
X109485998Y-70063799D01*
X109278086Y-69979403D01*
X108807918Y-70216904D01*
X108464427Y-70616251D01*
X108339415Y-70918088D01*
X103370000Y-70918088D01*
X103370000Y-70330544D01*
X103293879Y-70146773D01*
X103153227Y-70006120D01*
X102969456Y-69930000D01*
X102299000Y-69930000D01*
X102174002Y-70054998D01*
X102174002Y-69932876D01*
X102488217Y-69870375D01*
X102885152Y-69605152D01*
X103150375Y-69208217D01*
X103243509Y-68740000D01*
X103150375Y-68271783D01*
X102885152Y-67874848D01*
X102488217Y-67609625D01*
X102138188Y-67540000D01*
X101901812Y-67540000D01*
X101551783Y-67609625D01*
X101154848Y-67874848D01*
X100889625Y-68271783D01*
X100796491Y-68740000D01*
X100889625Y-69208217D01*
X101154848Y-69605152D01*
X101551783Y-69870375D01*
X101865998Y-69932876D01*
X101865998Y-70054998D01*
X101741000Y-69930000D01*
X101070544Y-69930000D01*
X100886773Y-70006120D01*
X100746121Y-70146773D01*
X100670000Y-70330544D01*
X100375000Y-70330544D01*
X100375000Y-53520313D01*
X100377206Y-53500000D01*
X101730000Y-53500000D01*
X101836744Y-54105376D01*
X102144101Y-54637734D01*
X102615000Y-55032865D01*
X103192643Y-55243110D01*
X103807357Y-55243110D01*
X104385000Y-55032865D01*
X104855899Y-54637734D01*
X105163256Y-54105376D01*
X105270000Y-53500000D01*
X105163256Y-52894624D01*
X104855899Y-52362266D01*
X104698271Y-52230000D01*
X105371184Y-52230000D01*
X105380000Y-52274320D01*
X105380001Y-55580675D01*
X105371184Y-55625000D01*
X105396674Y-55753142D01*
X105406110Y-55800581D01*
X105505569Y-55949432D01*
X105543143Y-55974538D01*
X106306748Y-56738144D01*
X106250000Y-56738144D01*
X106113437Y-56765308D01*
X105997665Y-56842665D01*
X105920308Y-56958437D01*
X105893144Y-57095000D01*
X105893144Y-58795000D01*
X105920308Y-58931563D01*
X105997665Y-59047335D01*
X106113437Y-59124692D01*
X106250000Y-59151856D01*
X107950000Y-59151856D01*
X108086563Y-59124692D01*
X108202335Y-59047335D01*
X108279692Y-58931563D01*
X108306856Y-58795000D01*
X108306856Y-57945000D01*
X108416491Y-57945000D01*
X108509625Y-58413217D01*
X108774848Y-58810152D01*
X109171783Y-59075375D01*
X109521812Y-59145000D01*
X109758188Y-59145000D01*
X110108217Y-59075375D01*
X110505152Y-58810152D01*
X110770375Y-58413217D01*
X110832876Y-58099002D01*
X110963799Y-58099002D01*
X110879403Y-58306914D01*
X111116904Y-58777082D01*
X111516251Y-59120573D01*
X111818088Y-59245585D01*
X112026000Y-59160281D01*
X112026000Y-58099000D01*
X112334000Y-58099000D01*
X112334000Y-59160281D01*
X112541912Y-59245585D01*
X112843749Y-59120573D01*
X113243096Y-58777082D01*
X113480597Y-58306914D01*
X113396200Y-58099000D01*
X112334000Y-58099000D01*
X112026000Y-58099000D01*
X112006000Y-58099000D01*
X112006000Y-57791000D01*
X112026000Y-57791000D01*
X112026000Y-56729719D01*
X112334000Y-56729719D01*
X112334000Y-57791000D01*
X113396200Y-57791000D01*
X113480597Y-57583086D01*
X113243096Y-57112918D01*
X112843749Y-56769427D01*
X112541912Y-56644415D01*
X112334000Y-56729719D01*
X112026000Y-56729719D01*
X111818088Y-56644415D01*
X111516251Y-56769427D01*
X111116904Y-57112918D01*
X110879403Y-57583086D01*
X110963799Y-57790998D01*
X110832876Y-57790998D01*
X110770375Y-57476783D01*
X110505152Y-57079848D01*
X110108217Y-56814625D01*
X109758188Y-56745000D01*
X109521812Y-56745000D01*
X109171783Y-56814625D01*
X108774848Y-57079848D01*
X108509625Y-57476783D01*
X108416491Y-57945000D01*
X108306856Y-57945000D01*
X108306856Y-57095000D01*
X108279692Y-56958437D01*
X108202335Y-56842665D01*
X108086563Y-56765308D01*
X107950000Y-56738144D01*
X107527616Y-56738144D01*
X107523891Y-56719419D01*
X107424432Y-56570568D01*
X107386858Y-56545462D01*
X106280000Y-55438605D01*
X106280000Y-53920000D01*
X107163144Y-53920000D01*
X107163144Y-55620000D01*
X107190308Y-55756563D01*
X107267665Y-55872335D01*
X107383437Y-55949692D01*
X107520000Y-55976856D01*
X109220000Y-55976856D01*
X109356563Y-55949692D01*
X109472335Y-55872335D01*
X109549692Y-55756563D01*
X109576856Y-55620000D01*
X109576856Y-53920000D01*
X109549692Y-53783437D01*
X109472335Y-53667665D01*
X109356563Y-53590308D01*
X109220000Y-53563144D01*
X107520000Y-53563144D01*
X107383437Y-53590308D01*
X107267665Y-53667665D01*
X107190308Y-53783437D01*
X107163144Y-53920000D01*
X106280000Y-53920000D01*
X106280000Y-52416395D01*
X107286396Y-51410000D01*
X107474678Y-51410000D01*
X107239625Y-51761783D01*
X107146491Y-52230000D01*
X107239625Y-52698217D01*
X107504848Y-53095152D01*
X107901783Y-53360375D01*
X108251812Y-53430000D01*
X108488188Y-53430000D01*
X108838217Y-53360375D01*
X109235152Y-53095152D01*
X109500375Y-52698217D01*
X109593509Y-52230000D01*
X109500375Y-51761783D01*
X109265322Y-51410000D01*
X110014678Y-51410000D01*
X109779625Y-51761783D01*
X109686491Y-52230000D01*
X109779625Y-52698217D01*
X110044848Y-53095152D01*
X110441783Y-53360375D01*
X110791812Y-53430000D01*
X111028188Y-53430000D01*
X111378217Y-53360375D01*
X111775152Y-53095152D01*
X112040375Y-52698217D01*
X112102876Y-52384002D01*
X112233799Y-52384002D01*
X112149403Y-52591914D01*
X112386904Y-53062082D01*
X112786251Y-53405573D01*
X113088088Y-53530585D01*
X113295998Y-53445282D01*
X113295998Y-53577124D01*
X112981783Y-53639625D01*
X112584848Y-53904848D01*
X112319625Y-54301783D01*
X112226491Y-54770000D01*
X112319625Y-55238217D01*
X112554678Y-55590000D01*
X112366396Y-55590000D01*
X112030056Y-55253660D01*
X112040375Y-55238217D01*
X112133509Y-54770000D01*
X112040375Y-54301783D01*
X111775152Y-53904848D01*
X111378217Y-53639625D01*
X111028188Y-53570000D01*
X110791812Y-53570000D01*
X110441783Y-53639625D01*
X110044848Y-53904848D01*
X109779625Y-54301783D01*
X109686491Y-54770000D01*
X109779625Y-55238217D01*
X110044848Y-55635152D01*
X110441783Y-55900375D01*
X110791812Y-55970000D01*
X111028188Y-55970000D01*
X111378217Y-55900375D01*
X111393660Y-55890056D01*
X111830462Y-56326857D01*
X111855568Y-56364432D01*
X112004419Y-56463891D01*
X112135679Y-56490000D01*
X112135683Y-56490000D01*
X112179999Y-56498815D01*
X112224316Y-56490000D01*
X113897195Y-56490000D01*
X114889060Y-57481865D01*
X114914166Y-57519440D01*
X114955993Y-57547388D01*
X115005460Y-57596855D01*
X115030568Y-57634432D01*
X115179419Y-57733891D01*
X115310679Y-57760000D01*
X115310683Y-57760000D01*
X115354999Y-57768815D01*
X115399316Y-57760000D01*
X120468605Y-57760000D01*
X120940463Y-58231860D01*
X120965568Y-58269432D01*
X121003139Y-58294536D01*
X121003141Y-58294538D01*
X121072006Y-58340552D01*
X121114419Y-58368891D01*
X121133144Y-58372616D01*
X121133144Y-58795000D01*
X121160308Y-58931563D01*
X121237665Y-59047335D01*
X121353437Y-59124692D01*
X121490000Y-59151856D01*
X123190000Y-59151856D01*
X123326563Y-59124692D01*
X123442335Y-59047335D01*
X123519692Y-58931563D01*
X123546856Y-58795000D01*
X123546856Y-57248251D01*
X123759944Y-57461339D01*
X123749625Y-57476783D01*
X123656491Y-57945000D01*
X123749625Y-58413217D01*
X124014848Y-58810152D01*
X124411783Y-59075375D01*
X124761812Y-59145000D01*
X124998188Y-59145000D01*
X125348217Y-59075375D01*
X125745152Y-58810152D01*
X126010375Y-58413217D01*
X126072876Y-58099002D01*
X126203799Y-58099002D01*
X126119403Y-58306914D01*
X126356904Y-58777082D01*
X126756251Y-59120573D01*
X127058088Y-59245585D01*
X127266000Y-59160281D01*
X127266000Y-58099000D01*
X127246000Y-58099000D01*
X127246000Y-57791000D01*
X127266000Y-57791000D01*
X127266000Y-57771000D01*
X127574000Y-57771000D01*
X127574000Y-57791000D01*
X127594000Y-57791000D01*
X127594000Y-58099000D01*
X127574000Y-58099000D01*
X127574000Y-59160281D01*
X127781912Y-59245585D01*
X128083749Y-59120573D01*
X128483096Y-58777082D01*
X128720597Y-58306914D01*
X128636201Y-58099002D01*
X128713608Y-58099002D01*
X128875000Y-58260394D01*
X128875001Y-59122415D01*
X128866184Y-59166740D01*
X128894152Y-59307340D01*
X128901110Y-59342321D01*
X129000569Y-59491172D01*
X129038143Y-59516278D01*
X129510000Y-59988137D01*
X129510000Y-60985394D01*
X128960510Y-60985394D01*
X128823947Y-61012558D01*
X128708175Y-61089915D01*
X128630818Y-61205687D01*
X128603654Y-61342250D01*
X128603654Y-62863807D01*
X128588114Y-62867826D01*
X128481842Y-62957791D01*
X128418088Y-63081576D01*
X128406558Y-63220336D01*
X128805338Y-66720456D01*
X128830208Y-66816623D01*
X128907565Y-66932395D01*
X129023337Y-67009752D01*
X129159900Y-67036916D01*
X130760100Y-67036916D01*
X130858464Y-67023092D01*
X130982249Y-66959338D01*
X131072214Y-66853066D01*
X131114662Y-66720456D01*
X131513442Y-63220336D01*
X131488572Y-63043377D01*
X131411215Y-62927605D01*
X131316346Y-62864215D01*
X131316346Y-61342250D01*
X131289182Y-61205687D01*
X131211825Y-61089915D01*
X131096053Y-61012558D01*
X130959490Y-60985394D01*
X130410000Y-60985394D01*
X130410000Y-59846060D01*
X130418816Y-59801740D01*
X130410000Y-59757419D01*
X130383891Y-59626159D01*
X130336778Y-59555649D01*
X130309538Y-59514881D01*
X130309536Y-59514879D01*
X130284432Y-59477308D01*
X130246861Y-59452204D01*
X129775000Y-58980345D01*
X129775000Y-58912625D01*
X131634232Y-60771858D01*
X131659338Y-60809432D01*
X131808189Y-60908891D01*
X131939449Y-60935000D01*
X131939450Y-60935000D01*
X131983770Y-60943816D01*
X132028090Y-60935000D01*
X134218605Y-60935000D01*
X134268998Y-60985394D01*
X134040510Y-60985394D01*
X133903947Y-61012558D01*
X133788175Y-61089915D01*
X133710818Y-61205687D01*
X133683654Y-61342250D01*
X133683654Y-62863807D01*
X133668114Y-62867826D01*
X133561842Y-62957791D01*
X133498088Y-63081576D01*
X133486558Y-63220336D01*
X133885338Y-66720456D01*
X133910208Y-66816623D01*
X133987565Y-66932395D01*
X134103337Y-67009752D01*
X134239900Y-67036916D01*
X135840100Y-67036916D01*
X135938464Y-67023092D01*
X136062249Y-66959338D01*
X136152214Y-66853066D01*
X136194662Y-66720456D01*
X136593442Y-63220336D01*
X136568572Y-63043377D01*
X136491215Y-62927605D01*
X136396346Y-62864215D01*
X136396346Y-61342250D01*
X136369182Y-61205687D01*
X136291825Y-61089915D01*
X136176053Y-61012558D01*
X136039490Y-60985394D01*
X135472041Y-60985394D01*
X135463891Y-60944419D01*
X135412111Y-60866924D01*
X135389538Y-60833141D01*
X135389536Y-60833139D01*
X135364432Y-60795568D01*
X135326861Y-60770464D01*
X134754540Y-60198145D01*
X134729432Y-60160568D01*
X134580581Y-60061109D01*
X134449321Y-60035000D01*
X134449320Y-60035000D01*
X134405000Y-60026184D01*
X134360680Y-60035000D01*
X132170166Y-60035000D01*
X130410000Y-58274835D01*
X130410000Y-55665322D01*
X130761783Y-55900375D01*
X131111812Y-55970000D01*
X131348188Y-55970000D01*
X131698217Y-55900375D01*
X131713660Y-55890056D01*
X132150462Y-56326857D01*
X132175568Y-56364432D01*
X132324419Y-56463891D01*
X132455679Y-56490000D01*
X132455683Y-56490000D01*
X132499999Y-56498815D01*
X132544316Y-56490000D01*
X133583605Y-56490000D01*
X135325462Y-58231858D01*
X135350568Y-58269432D01*
X135499419Y-58368891D01*
X135630679Y-58395000D01*
X135630680Y-58395000D01*
X135675000Y-58403816D01*
X135719320Y-58395000D01*
X136373144Y-58395000D01*
X136373144Y-58795000D01*
X136400308Y-58931563D01*
X136477665Y-59047335D01*
X136593437Y-59124692D01*
X136730000Y-59151856D01*
X138430000Y-59151856D01*
X138566563Y-59124692D01*
X138682335Y-59047335D01*
X138759692Y-58931563D01*
X138786856Y-58795000D01*
X138786856Y-57248251D01*
X138999944Y-57461339D01*
X138989625Y-57476783D01*
X138896491Y-57945000D01*
X138989625Y-58413217D01*
X139254848Y-58810152D01*
X139651783Y-59075375D01*
X140001812Y-59145000D01*
X140238188Y-59145000D01*
X140588217Y-59075375D01*
X140985152Y-58810152D01*
X141250375Y-58413217D01*
X141343509Y-57945000D01*
X141250375Y-57476783D01*
X140985152Y-57079848D01*
X140588217Y-56814625D01*
X140238188Y-56745000D01*
X140001812Y-56745000D01*
X139651783Y-56814625D01*
X139636339Y-56824944D01*
X139301395Y-56490000D01*
X140568605Y-56490000D01*
X141539944Y-57461340D01*
X141529625Y-57476783D01*
X141436491Y-57945000D01*
X141529625Y-58413217D01*
X141794848Y-58810152D01*
X142191783Y-59075375D01*
X142541812Y-59145000D01*
X142778188Y-59145000D01*
X143128217Y-59075375D01*
X143480001Y-58840321D01*
X143480001Y-59544833D01*
X142989835Y-60035000D01*
X140799320Y-60035000D01*
X140755000Y-60026184D01*
X140710680Y-60035000D01*
X140710679Y-60035000D01*
X140579419Y-60061109D01*
X140579417Y-60061110D01*
X140579418Y-60061110D01*
X140468141Y-60135462D01*
X140468140Y-60135463D01*
X140430568Y-60160568D01*
X140405463Y-60198140D01*
X139833145Y-60770460D01*
X139795568Y-60795568D01*
X139696109Y-60944420D01*
X139687959Y-60985394D01*
X139120510Y-60985394D01*
X138983947Y-61012558D01*
X138868175Y-61089915D01*
X138790818Y-61205687D01*
X138763654Y-61342250D01*
X138763654Y-62863807D01*
X138748114Y-62867826D01*
X138641842Y-62957791D01*
X138578088Y-63081576D01*
X138566558Y-63220336D01*
X138965338Y-66720456D01*
X138990208Y-66816623D01*
X139067565Y-66932395D01*
X139183337Y-67009752D01*
X139319900Y-67036916D01*
X140920100Y-67036916D01*
X141018464Y-67023092D01*
X141142249Y-66959338D01*
X141232214Y-66853066D01*
X141274662Y-66720456D01*
X141673442Y-63220336D01*
X141648572Y-63043377D01*
X141571215Y-62927605D01*
X141476346Y-62864215D01*
X141476346Y-61342250D01*
X141449182Y-61205687D01*
X141371825Y-61089915D01*
X141256053Y-61012558D01*
X141119490Y-60985394D01*
X140891002Y-60985394D01*
X140941397Y-60935000D01*
X143131910Y-60935000D01*
X143176230Y-60943816D01*
X143220550Y-60935000D01*
X143220551Y-60935000D01*
X143351811Y-60908891D01*
X143500662Y-60809432D01*
X143525770Y-60771855D01*
X144216857Y-60080769D01*
X144254432Y-60055662D01*
X144353891Y-59906811D01*
X144380000Y-59775551D01*
X144380000Y-59775550D01*
X144388816Y-59731230D01*
X144380000Y-59686910D01*
X144380000Y-55903999D01*
X144398217Y-55900375D01*
X144795152Y-55635152D01*
X145060375Y-55238217D01*
X145153509Y-54770000D01*
X145060375Y-54301783D01*
X144795152Y-53904848D01*
X144398217Y-53639625D01*
X144084002Y-53577124D01*
X144084002Y-53445282D01*
X144291912Y-53530585D01*
X144593749Y-53405573D01*
X144993096Y-53062082D01*
X145230597Y-52591914D01*
X145146201Y-52384002D01*
X145277124Y-52384002D01*
X145339625Y-52698217D01*
X145604848Y-53095152D01*
X146001783Y-53360375D01*
X146351812Y-53430000D01*
X146588188Y-53430000D01*
X146938217Y-53360375D01*
X147335152Y-53095152D01*
X147600375Y-52698217D01*
X147662876Y-52384002D01*
X147793799Y-52384002D01*
X147709403Y-52591914D01*
X147946904Y-53062082D01*
X148139695Y-53227907D01*
X147453145Y-53914458D01*
X147415568Y-53939566D01*
X147386959Y-53982383D01*
X147335152Y-53904848D01*
X146938217Y-53639625D01*
X146588188Y-53570000D01*
X146351812Y-53570000D01*
X146001783Y-53639625D01*
X145604848Y-53904848D01*
X145339625Y-54301783D01*
X145246491Y-54770000D01*
X145339625Y-55238217D01*
X145349944Y-55253661D01*
X144913143Y-55690462D01*
X144875569Y-55715568D01*
X144850464Y-55753141D01*
X144850463Y-55753142D01*
X144776110Y-55864419D01*
X144741184Y-56040000D01*
X144750001Y-56084325D01*
X144750000Y-61191134D01*
X144200510Y-61191134D01*
X144063947Y-61218298D01*
X143948175Y-61295655D01*
X143870818Y-61411427D01*
X143843654Y-61547990D01*
X143843654Y-63069547D01*
X143828114Y-63073566D01*
X143721842Y-63163531D01*
X143658088Y-63287316D01*
X143646558Y-63426076D01*
X144045338Y-66926196D01*
X144070208Y-67022363D01*
X144147565Y-67138135D01*
X144263337Y-67215492D01*
X144399900Y-67242656D01*
X146000100Y-67242656D01*
X146098464Y-67228832D01*
X146222249Y-67165078D01*
X146312214Y-67058806D01*
X146354662Y-66926196D01*
X146753442Y-63426076D01*
X146728572Y-63249117D01*
X146651215Y-63133345D01*
X146556346Y-63069955D01*
X146556346Y-61547990D01*
X146529182Y-61411427D01*
X146451825Y-61295655D01*
X146336053Y-61218298D01*
X146199490Y-61191134D01*
X145650000Y-61191134D01*
X145650000Y-56226395D01*
X145986339Y-55890056D01*
X146001783Y-55900375D01*
X146351812Y-55970000D01*
X146588188Y-55970000D01*
X146938217Y-55900375D01*
X147290000Y-55665321D01*
X147290001Y-58684925D01*
X147281184Y-58729250D01*
X147312189Y-58885121D01*
X147316110Y-58904831D01*
X147415569Y-59053682D01*
X147453143Y-59078788D01*
X149486748Y-61112394D01*
X149280510Y-61112394D01*
X149143947Y-61139558D01*
X149028175Y-61216915D01*
X148950818Y-61332687D01*
X148923654Y-61469250D01*
X148923654Y-62990807D01*
X148908114Y-62994826D01*
X148801842Y-63084791D01*
X148738088Y-63208576D01*
X148726558Y-63347336D01*
X149125338Y-66847456D01*
X149150208Y-66943623D01*
X149227565Y-67059395D01*
X149343337Y-67136752D01*
X149479900Y-67163916D01*
X151080100Y-67163916D01*
X151178464Y-67150092D01*
X151302249Y-67086338D01*
X151392214Y-66980066D01*
X151434662Y-66847456D01*
X151508428Y-66200000D01*
X161756491Y-66200000D01*
X161849625Y-66668217D01*
X162114848Y-67065152D01*
X162511783Y-67330375D01*
X162861812Y-67400000D01*
X163098188Y-67400000D01*
X163448217Y-67330375D01*
X163845152Y-67065152D01*
X164110375Y-66668217D01*
X164203509Y-66200000D01*
X164110375Y-65731783D01*
X163845152Y-65334848D01*
X163448217Y-65069625D01*
X163098188Y-65000000D01*
X162861812Y-65000000D01*
X162511783Y-65069625D01*
X162114848Y-65334848D01*
X161849625Y-65731783D01*
X161756491Y-66200000D01*
X151508428Y-66200000D01*
X151833442Y-63347336D01*
X151808572Y-63170377D01*
X151731215Y-63054605D01*
X151636346Y-62991215D01*
X151636346Y-61469250D01*
X151609182Y-61332687D01*
X151531825Y-61216915D01*
X151416053Y-61139558D01*
X151279490Y-61112394D01*
X150707616Y-61112394D01*
X150703891Y-61093669D01*
X150691871Y-61075679D01*
X150629537Y-60982391D01*
X150604432Y-60944818D01*
X150566858Y-60919712D01*
X148190000Y-58542855D01*
X148190000Y-55665322D01*
X148541783Y-55900375D01*
X148891812Y-55970000D01*
X149128188Y-55970000D01*
X149478217Y-55900375D01*
X149493660Y-55890056D01*
X149930462Y-56326857D01*
X149955568Y-56364432D01*
X150104419Y-56463891D01*
X150235679Y-56490000D01*
X150235683Y-56490000D01*
X150279999Y-56498815D01*
X150324316Y-56490000D01*
X150728605Y-56490000D01*
X151613144Y-57374540D01*
X151613144Y-58795000D01*
X151640308Y-58931563D01*
X151717665Y-59047335D01*
X151833437Y-59124692D01*
X151970000Y-59151856D01*
X153670000Y-59151856D01*
X153806563Y-59124692D01*
X153922335Y-59047335D01*
X153999692Y-58931563D01*
X154026856Y-58795000D01*
X154026856Y-57248252D01*
X154223142Y-57444538D01*
X154223145Y-57444540D01*
X154239944Y-57461339D01*
X154229625Y-57476783D01*
X154136491Y-57945000D01*
X154229625Y-58413217D01*
X154494848Y-58810152D01*
X154891783Y-59075375D01*
X155241812Y-59145000D01*
X155478188Y-59145000D01*
X155828217Y-59075375D01*
X156225152Y-58810152D01*
X156490375Y-58413217D01*
X156583509Y-57945000D01*
X156490375Y-57476783D01*
X156225152Y-57079848D01*
X155828217Y-56814625D01*
X155478188Y-56745000D01*
X155241812Y-56745000D01*
X154891783Y-56814625D01*
X154876339Y-56824944D01*
X154859540Y-56808145D01*
X154859538Y-56808142D01*
X154021395Y-55970000D01*
X154208188Y-55970000D01*
X154558217Y-55900375D01*
X154573660Y-55890056D01*
X155010462Y-56326857D01*
X155035568Y-56364432D01*
X155184419Y-56463891D01*
X155315679Y-56490000D01*
X155315683Y-56490000D01*
X155359999Y-56498815D01*
X155404316Y-56490000D01*
X155808605Y-56490000D01*
X156779944Y-57461340D01*
X156769625Y-57476783D01*
X156676491Y-57945000D01*
X156769625Y-58413217D01*
X157034848Y-58810152D01*
X157431783Y-59075375D01*
X157781812Y-59145000D01*
X158018188Y-59145000D01*
X158368217Y-59075375D01*
X158765152Y-58810152D01*
X159030375Y-58413217D01*
X159123509Y-57945000D01*
X159030375Y-57476783D01*
X158765152Y-57079848D01*
X158368217Y-56814625D01*
X158018188Y-56745000D01*
X157781812Y-56745000D01*
X157431783Y-56814625D01*
X157416340Y-56824944D01*
X156711395Y-56120000D01*
X156784002Y-56120000D01*
X156784002Y-55985282D01*
X156991912Y-56070585D01*
X157293749Y-55945573D01*
X157693096Y-55602082D01*
X157930597Y-55131914D01*
X157846200Y-54924000D01*
X156784000Y-54924000D01*
X156784000Y-54944000D01*
X156476000Y-54944000D01*
X156476000Y-54924000D01*
X156456000Y-54924000D01*
X156456000Y-54616000D01*
X156476000Y-54616000D01*
X156476000Y-54596000D01*
X156784000Y-54596000D01*
X156784000Y-54616000D01*
X157846200Y-54616000D01*
X157930597Y-54408086D01*
X157693096Y-53937918D01*
X157293749Y-53594427D01*
X157065759Y-53500000D01*
X159730000Y-53500000D01*
X159836744Y-54105376D01*
X160144101Y-54637734D01*
X160615000Y-55032865D01*
X161192643Y-55243110D01*
X161807357Y-55243110D01*
X162385000Y-55032865D01*
X162855899Y-54637734D01*
X163163256Y-54105376D01*
X163270000Y-53500000D01*
X163163256Y-52894624D01*
X162855899Y-52362266D01*
X162385000Y-51967135D01*
X161807357Y-51756890D01*
X161192643Y-51756890D01*
X160615000Y-51967135D01*
X160144101Y-52362266D01*
X159836744Y-52894624D01*
X159730000Y-53500000D01*
X157065759Y-53500000D01*
X156991912Y-53469415D01*
X156784002Y-53554718D01*
X156784002Y-53422876D01*
X157098217Y-53360375D01*
X157495152Y-53095152D01*
X157760375Y-52698217D01*
X157853509Y-52230000D01*
X157760375Y-51761783D01*
X157495152Y-51364848D01*
X157098217Y-51099625D01*
X156748188Y-51030000D01*
X156511812Y-51030000D01*
X156161783Y-51099625D01*
X155764848Y-51364848D01*
X155499625Y-51761783D01*
X155406491Y-52230000D01*
X155499625Y-52698217D01*
X155764848Y-53095152D01*
X156161783Y-53360375D01*
X156475998Y-53422876D01*
X156475998Y-53554718D01*
X156268088Y-53469415D01*
X155966251Y-53594427D01*
X155566904Y-53937918D01*
X155329403Y-54408086D01*
X155413799Y-54615998D01*
X155282876Y-54615998D01*
X155220375Y-54301783D01*
X154955152Y-53904848D01*
X154558217Y-53639625D01*
X154208188Y-53570000D01*
X153971812Y-53570000D01*
X153621783Y-53639625D01*
X153224848Y-53904848D01*
X152959625Y-54301783D01*
X152866491Y-54770000D01*
X152959625Y-55238217D01*
X153194678Y-55590000D01*
X153006396Y-55590000D01*
X152670056Y-55253660D01*
X152680375Y-55238217D01*
X152773509Y-54770000D01*
X152680375Y-54301783D01*
X152415152Y-53904848D01*
X152018217Y-53639625D01*
X151668188Y-53570000D01*
X151431812Y-53570000D01*
X151081783Y-53639625D01*
X150684848Y-53904848D01*
X150419625Y-54301783D01*
X150326491Y-54770000D01*
X150419625Y-55238217D01*
X150654678Y-55590000D01*
X150466396Y-55590000D01*
X150130056Y-55253660D01*
X150140375Y-55238217D01*
X150233509Y-54770000D01*
X150140375Y-54301783D01*
X149905322Y-53950000D01*
X150235680Y-53950000D01*
X150280000Y-53958816D01*
X150324320Y-53950000D01*
X150324321Y-53950000D01*
X150455581Y-53923891D01*
X150604432Y-53824432D01*
X150629540Y-53786855D01*
X151066339Y-53350056D01*
X151081783Y-53360375D01*
X151431812Y-53430000D01*
X151668188Y-53430000D01*
X152018217Y-53360375D01*
X152415152Y-53095152D01*
X152680375Y-52698217D01*
X152773509Y-52230000D01*
X152866491Y-52230000D01*
X152959625Y-52698217D01*
X153224848Y-53095152D01*
X153621783Y-53360375D01*
X153971812Y-53430000D01*
X154208188Y-53430000D01*
X154558217Y-53360375D01*
X154955152Y-53095152D01*
X155220375Y-52698217D01*
X155313509Y-52230000D01*
X155220375Y-51761783D01*
X154955152Y-51364848D01*
X154558217Y-51099625D01*
X154208188Y-51030000D01*
X153971812Y-51030000D01*
X153621783Y-51099625D01*
X153224848Y-51364848D01*
X152959625Y-51761783D01*
X152866491Y-52230000D01*
X152773509Y-52230000D01*
X152680375Y-51761783D01*
X152415152Y-51364848D01*
X152018217Y-51099625D01*
X151668188Y-51030000D01*
X151431812Y-51030000D01*
X151081783Y-51099625D01*
X150684848Y-51364848D01*
X150419625Y-51761783D01*
X150357124Y-52075998D01*
X150226201Y-52075998D01*
X150310597Y-51868086D01*
X150073096Y-51397918D01*
X149673749Y-51054427D01*
X149371912Y-50929415D01*
X149164000Y-51014719D01*
X149164000Y-52076000D01*
X149184000Y-52076000D01*
X149184000Y-52384000D01*
X149164000Y-52384000D01*
X149164000Y-52404000D01*
X148856000Y-52404000D01*
X148856000Y-52384000D01*
X148836000Y-52384000D01*
X148836000Y-52076000D01*
X148856000Y-52076000D01*
X148856000Y-51014719D01*
X148648088Y-50929415D01*
X148346251Y-51054427D01*
X147946904Y-51397918D01*
X147709403Y-51868086D01*
X147793799Y-52075998D01*
X147662876Y-52075998D01*
X147600375Y-51761783D01*
X147335152Y-51364848D01*
X146938217Y-51099625D01*
X146588188Y-51030000D01*
X146351812Y-51030000D01*
X146001783Y-51099625D01*
X145604848Y-51364848D01*
X145339625Y-51761783D01*
X145277124Y-52075998D01*
X145146201Y-52075998D01*
X145230597Y-51868086D01*
X144993096Y-51397918D01*
X144593749Y-51054427D01*
X144291912Y-50929415D01*
X144084000Y-51014719D01*
X144084000Y-52076000D01*
X144104000Y-52076000D01*
X144104000Y-52384000D01*
X144084000Y-52384000D01*
X144084000Y-52404000D01*
X143776000Y-52404000D01*
X143776000Y-52384000D01*
X143756000Y-52384000D01*
X143756000Y-52076000D01*
X143776000Y-52076000D01*
X143776000Y-51014719D01*
X143568088Y-50929415D01*
X143266251Y-51054427D01*
X142866904Y-51397918D01*
X142629403Y-51868086D01*
X142713799Y-52075998D01*
X142582876Y-52075998D01*
X142520375Y-51761783D01*
X142255152Y-51364848D01*
X141858217Y-51099625D01*
X141508188Y-51030000D01*
X141271812Y-51030000D01*
X140921783Y-51099625D01*
X140524848Y-51364848D01*
X140259625Y-51761783D01*
X140166491Y-52230000D01*
X140259625Y-52698217D01*
X140524848Y-53095152D01*
X140921783Y-53360375D01*
X141271812Y-53430000D01*
X141508188Y-53430000D01*
X141858217Y-53360375D01*
X142255152Y-53095152D01*
X142520375Y-52698217D01*
X142582876Y-52384002D01*
X142713799Y-52384002D01*
X142629403Y-52591914D01*
X142866904Y-53062082D01*
X143266251Y-53405573D01*
X143568088Y-53530585D01*
X143775998Y-53445282D01*
X143775998Y-53577124D01*
X143461783Y-53639625D01*
X143064848Y-53904848D01*
X142799625Y-54301783D01*
X142706491Y-54770000D01*
X142799625Y-55238217D01*
X143064848Y-55635152D01*
X143461783Y-55900375D01*
X143480000Y-55903999D01*
X143480000Y-57049679D01*
X143128217Y-56814625D01*
X142778188Y-56745000D01*
X142541812Y-56745000D01*
X142191783Y-56814625D01*
X142176340Y-56824944D01*
X141321395Y-55970000D01*
X141508188Y-55970000D01*
X141858217Y-55900375D01*
X142255152Y-55635152D01*
X142520375Y-55238217D01*
X142613509Y-54770000D01*
X142520375Y-54301783D01*
X142255152Y-53904848D01*
X141858217Y-53639625D01*
X141508188Y-53570000D01*
X141271812Y-53570000D01*
X140921783Y-53639625D01*
X140524848Y-53904848D01*
X140259625Y-54301783D01*
X140197124Y-54615998D01*
X140066201Y-54615998D01*
X140150597Y-54408086D01*
X139913096Y-53937918D01*
X139513749Y-53594427D01*
X139211912Y-53469415D01*
X139004002Y-53554718D01*
X139004002Y-53422876D01*
X139318217Y-53360375D01*
X139715152Y-53095152D01*
X139980375Y-52698217D01*
X140073509Y-52230000D01*
X139980375Y-51761783D01*
X139715152Y-51364848D01*
X139318217Y-51099625D01*
X138968188Y-51030000D01*
X138731812Y-51030000D01*
X138381783Y-51099625D01*
X137984848Y-51364848D01*
X137719625Y-51761783D01*
X137626491Y-52230000D01*
X137719625Y-52698217D01*
X137984848Y-53095152D01*
X138381783Y-53360375D01*
X138695998Y-53422876D01*
X138695998Y-53554718D01*
X138488088Y-53469415D01*
X138186251Y-53594427D01*
X137786904Y-53937918D01*
X137549403Y-54408086D01*
X137633799Y-54615998D01*
X137502876Y-54615998D01*
X137440375Y-54301783D01*
X137175152Y-53904848D01*
X136778217Y-53639625D01*
X136428188Y-53570000D01*
X136191812Y-53570000D01*
X135841783Y-53639625D01*
X135444848Y-53904848D01*
X135179625Y-54301783D01*
X135086491Y-54770000D01*
X135179625Y-55238217D01*
X135444848Y-55635152D01*
X135841783Y-55900375D01*
X136191812Y-55970000D01*
X136428188Y-55970000D01*
X136778217Y-55900375D01*
X136793660Y-55890056D01*
X137128604Y-56225000D01*
X135861396Y-56225000D01*
X134890056Y-55253661D01*
X134900375Y-55238217D01*
X134993509Y-54770000D01*
X134900375Y-54301783D01*
X134635152Y-53904848D01*
X134238217Y-53639625D01*
X133888188Y-53570000D01*
X133651812Y-53570000D01*
X133301783Y-53639625D01*
X132904848Y-53904848D01*
X132639625Y-54301783D01*
X132546491Y-54770000D01*
X132639625Y-55238217D01*
X132874678Y-55590000D01*
X132686396Y-55590000D01*
X132350056Y-55253660D01*
X132360375Y-55238217D01*
X132453509Y-54770000D01*
X132360375Y-54301783D01*
X132095152Y-53904848D01*
X132017617Y-53853041D01*
X132060434Y-53824432D01*
X132085542Y-53786855D01*
X132853738Y-53018660D01*
X132904848Y-53095152D01*
X133301783Y-53360375D01*
X133651812Y-53430000D01*
X133888188Y-53430000D01*
X134238217Y-53360375D01*
X134635152Y-53095152D01*
X134900375Y-52698217D01*
X134993509Y-52230000D01*
X135086491Y-52230000D01*
X135179625Y-52698217D01*
X135444848Y-53095152D01*
X135841783Y-53360375D01*
X136191812Y-53430000D01*
X136428188Y-53430000D01*
X136778217Y-53360375D01*
X137175152Y-53095152D01*
X137440375Y-52698217D01*
X137533509Y-52230000D01*
X137440375Y-51761783D01*
X137175152Y-51364848D01*
X136778217Y-51099625D01*
X136428188Y-51030000D01*
X136191812Y-51030000D01*
X135841783Y-51099625D01*
X135444848Y-51364848D01*
X135179625Y-51761783D01*
X135086491Y-52230000D01*
X134993509Y-52230000D01*
X134900375Y-51761783D01*
X134635152Y-51364848D01*
X134238217Y-51099625D01*
X133888188Y-51030000D01*
X133651812Y-51030000D01*
X133301783Y-51099625D01*
X132904848Y-51364848D01*
X132639625Y-51761783D01*
X132590412Y-52009194D01*
X132523608Y-52075998D01*
X132446201Y-52075998D01*
X132530597Y-51868086D01*
X132293096Y-51397918D01*
X131893749Y-51054427D01*
X131591912Y-50929415D01*
X131384000Y-51014719D01*
X131384000Y-52076000D01*
X131404000Y-52076000D01*
X131404000Y-52384000D01*
X131384000Y-52384000D01*
X131384000Y-52404000D01*
X131076000Y-52404000D01*
X131076000Y-52384000D01*
X131056000Y-52384000D01*
X131056000Y-52076000D01*
X131076000Y-52076000D01*
X131076000Y-51014719D01*
X130868088Y-50929415D01*
X130566251Y-51054427D01*
X130166904Y-51397918D01*
X129929403Y-51868086D01*
X130013799Y-52075998D01*
X129882876Y-52075998D01*
X129820375Y-51761783D01*
X129555152Y-51364848D01*
X129158217Y-51099625D01*
X128808188Y-51030000D01*
X128571812Y-51030000D01*
X128221783Y-51099625D01*
X127824848Y-51364848D01*
X127559625Y-51761783D01*
X127466491Y-52230000D01*
X127559625Y-52698217D01*
X127569944Y-52713661D01*
X127133145Y-53150460D01*
X127095568Y-53175568D01*
X126996109Y-53324420D01*
X126970326Y-53454043D01*
X126961184Y-53500000D01*
X126970000Y-53544320D01*
X126970000Y-53874679D01*
X126618217Y-53639625D01*
X126268188Y-53570000D01*
X126031812Y-53570000D01*
X125681783Y-53639625D01*
X125284848Y-53904848D01*
X125019625Y-54301783D01*
X124926491Y-54770000D01*
X125019625Y-55238217D01*
X125284848Y-55635152D01*
X125681783Y-55900375D01*
X126031812Y-55970000D01*
X126268188Y-55970000D01*
X126618217Y-55900375D01*
X126970001Y-55665321D01*
X126970001Y-56124673D01*
X126961184Y-56168998D01*
X126992308Y-56325463D01*
X126996110Y-56344579D01*
X127095569Y-56493430D01*
X127133143Y-56518536D01*
X127265998Y-56651391D01*
X127265998Y-56729718D01*
X127058088Y-56644415D01*
X126756251Y-56769427D01*
X126356904Y-57112918D01*
X126119403Y-57583086D01*
X126203799Y-57790998D01*
X126072876Y-57790998D01*
X126010375Y-57476783D01*
X125745152Y-57079848D01*
X125348217Y-56814625D01*
X124998188Y-56745000D01*
X124761812Y-56745000D01*
X124411783Y-56814625D01*
X124396339Y-56824944D01*
X124029539Y-56458144D01*
X124004431Y-56420567D01*
X123855580Y-56321108D01*
X123724320Y-56294999D01*
X123724319Y-56294999D01*
X123679999Y-56286183D01*
X123635679Y-56294999D01*
X115611395Y-56294999D01*
X114570056Y-55253661D01*
X114580375Y-55238217D01*
X114673509Y-54770000D01*
X114766491Y-54770000D01*
X114859625Y-55238217D01*
X115124848Y-55635152D01*
X115521783Y-55900375D01*
X115871812Y-55970000D01*
X116108188Y-55970000D01*
X116458217Y-55900375D01*
X116855152Y-55635152D01*
X117120375Y-55238217D01*
X117182876Y-54924002D01*
X117313799Y-54924002D01*
X117229403Y-55131914D01*
X117466904Y-55602082D01*
X117866251Y-55945573D01*
X118168088Y-56070585D01*
X118376000Y-55985281D01*
X118376000Y-54924000D01*
X118356000Y-54924000D01*
X118356000Y-54616000D01*
X118376000Y-54616000D01*
X118376000Y-54596000D01*
X118684000Y-54596000D01*
X118684000Y-54616000D01*
X118704000Y-54616000D01*
X118704000Y-54924000D01*
X118684000Y-54924000D01*
X118684000Y-55985281D01*
X118891912Y-56070585D01*
X119193749Y-55945573D01*
X119593096Y-55602082D01*
X119830597Y-55131914D01*
X119746201Y-54924002D01*
X119877124Y-54924002D01*
X119939625Y-55238217D01*
X120204848Y-55635152D01*
X120601783Y-55900375D01*
X120951812Y-55970000D01*
X121188188Y-55970000D01*
X121538217Y-55900375D01*
X121935152Y-55635152D01*
X122200375Y-55238217D01*
X122293509Y-54770000D01*
X122200375Y-54301783D01*
X121935152Y-53904848D01*
X121538217Y-53639625D01*
X121188188Y-53570000D01*
X120951812Y-53570000D01*
X120601783Y-53639625D01*
X120204848Y-53904848D01*
X119939625Y-54301783D01*
X119877124Y-54615998D01*
X119746201Y-54615998D01*
X119830597Y-54408086D01*
X119593096Y-53937918D01*
X119193749Y-53594427D01*
X118891912Y-53469415D01*
X118684002Y-53554718D01*
X118684002Y-53422876D01*
X118998217Y-53360375D01*
X119395152Y-53095152D01*
X119660375Y-52698217D01*
X119753509Y-52230000D01*
X119846491Y-52230000D01*
X119939625Y-52698217D01*
X120204848Y-53095152D01*
X120601783Y-53360375D01*
X120951812Y-53430000D01*
X121188188Y-53430000D01*
X121538217Y-53360375D01*
X121935152Y-53095152D01*
X122200375Y-52698217D01*
X122262876Y-52384002D01*
X122393799Y-52384002D01*
X122309403Y-52591914D01*
X122546904Y-53062082D01*
X122946251Y-53405573D01*
X123248088Y-53530585D01*
X123455998Y-53445282D01*
X123455998Y-53577124D01*
X123141783Y-53639625D01*
X122744848Y-53904848D01*
X122479625Y-54301783D01*
X122386491Y-54770000D01*
X122479625Y-55238217D01*
X122744848Y-55635152D01*
X123141783Y-55900375D01*
X123491812Y-55970000D01*
X123728188Y-55970000D01*
X124078217Y-55900375D01*
X124475152Y-55635152D01*
X124740375Y-55238217D01*
X124833509Y-54770000D01*
X124740375Y-54301783D01*
X124475152Y-53904848D01*
X124078217Y-53639625D01*
X123764002Y-53577124D01*
X123764002Y-53445282D01*
X123971912Y-53530585D01*
X124273749Y-53405573D01*
X124673096Y-53062082D01*
X124910597Y-52591914D01*
X124826201Y-52384002D01*
X124957124Y-52384002D01*
X125019625Y-52698217D01*
X125284848Y-53095152D01*
X125681783Y-53360375D01*
X126031812Y-53430000D01*
X126268188Y-53430000D01*
X126618217Y-53360375D01*
X127015152Y-53095152D01*
X127280375Y-52698217D01*
X127373509Y-52230000D01*
X127280375Y-51761783D01*
X127015152Y-51364848D01*
X126618217Y-51099625D01*
X126268188Y-51030000D01*
X126031812Y-51030000D01*
X125681783Y-51099625D01*
X125284848Y-51364848D01*
X125019625Y-51761783D01*
X124957124Y-52075998D01*
X124826201Y-52075998D01*
X124910597Y-51868086D01*
X124673096Y-51397918D01*
X124273749Y-51054427D01*
X123971912Y-50929415D01*
X123764000Y-51014719D01*
X123764000Y-52076000D01*
X123784000Y-52076000D01*
X123784000Y-52384000D01*
X123764000Y-52384000D01*
X123764000Y-52404000D01*
X123456000Y-52404000D01*
X123456000Y-52384000D01*
X123436000Y-52384000D01*
X123436000Y-52076000D01*
X123456000Y-52076000D01*
X123456000Y-51014719D01*
X123248088Y-50929415D01*
X122946251Y-51054427D01*
X122546904Y-51397918D01*
X122309403Y-51868086D01*
X122393799Y-52075998D01*
X122262876Y-52075998D01*
X122200375Y-51761783D01*
X121935152Y-51364848D01*
X121538217Y-51099625D01*
X121188188Y-51030000D01*
X120951812Y-51030000D01*
X120601783Y-51099625D01*
X120204848Y-51364848D01*
X119939625Y-51761783D01*
X119846491Y-52230000D01*
X119753509Y-52230000D01*
X119660375Y-51761783D01*
X119395152Y-51364848D01*
X118998217Y-51099625D01*
X118648188Y-51030000D01*
X118411812Y-51030000D01*
X118061783Y-51099625D01*
X117664848Y-51364848D01*
X117399625Y-51761783D01*
X117306491Y-52230000D01*
X117399625Y-52698217D01*
X117664848Y-53095152D01*
X118061783Y-53360375D01*
X118375998Y-53422876D01*
X118375998Y-53554718D01*
X118168088Y-53469415D01*
X117866251Y-53594427D01*
X117466904Y-53937918D01*
X117229403Y-54408086D01*
X117313799Y-54615998D01*
X117182876Y-54615998D01*
X117120375Y-54301783D01*
X116855152Y-53904848D01*
X116458217Y-53639625D01*
X116108188Y-53570000D01*
X115871812Y-53570000D01*
X115521783Y-53639625D01*
X115124848Y-53904848D01*
X114859625Y-54301783D01*
X114766491Y-54770000D01*
X114673509Y-54770000D01*
X114580375Y-54301783D01*
X114315152Y-53904848D01*
X113918217Y-53639625D01*
X113604002Y-53577124D01*
X113604002Y-53445282D01*
X113811912Y-53530585D01*
X114113749Y-53405573D01*
X114513096Y-53062082D01*
X114750597Y-52591914D01*
X114666201Y-52384002D01*
X114797124Y-52384002D01*
X114859625Y-52698217D01*
X115124848Y-53095152D01*
X115521783Y-53360375D01*
X115871812Y-53430000D01*
X116108188Y-53430000D01*
X116458217Y-53360375D01*
X116855152Y-53095152D01*
X117120375Y-52698217D01*
X117213509Y-52230000D01*
X117120375Y-51761783D01*
X116855152Y-51364848D01*
X116458217Y-51099625D01*
X116108188Y-51030000D01*
X115871812Y-51030000D01*
X115521783Y-51099625D01*
X115506339Y-51109944D01*
X115069540Y-50673145D01*
X115044432Y-50635568D01*
X114895581Y-50536109D01*
X114764321Y-50510000D01*
X114764320Y-50510000D01*
X114720000Y-50501184D01*
X114675680Y-50510000D01*
X107144316Y-50510000D01*
X107099999Y-50501185D01*
X107055683Y-50510000D01*
X107055679Y-50510000D01*
X106924419Y-50536109D01*
X106775568Y-50635568D01*
X106750462Y-50673143D01*
X105543145Y-51880460D01*
X105505568Y-51905568D01*
X105406109Y-52054420D01*
X105401817Y-52076000D01*
X105371184Y-52230000D01*
X104698271Y-52230000D01*
X104385000Y-51967135D01*
X103807357Y-51756890D01*
X103192643Y-51756890D01*
X102615000Y-51967135D01*
X102144101Y-52362266D01*
X101836744Y-52894624D01*
X101730000Y-53500000D01*
X100377206Y-53500000D01*
X100450055Y-52829423D01*
X100665198Y-52190139D01*
X101012602Y-51611960D01*
X101476055Y-51121873D01*
X102033937Y-50742737D01*
X102660217Y-50492243D01*
X103340652Y-50379597D01*
X103505243Y-50375000D01*
X161479687Y-50375000D01*
X162170577Y-50450055D01*
X162170577Y-50450055D01*
G37*
X162170577Y-50450055D02*
X162809861Y-50665198D01*
X163388040Y-51012602D01*
X163878127Y-51476055D01*
X164257263Y-52033937D01*
X164507757Y-52660217D01*
X164620403Y-53340652D01*
X164625000Y-53505243D01*
X164625001Y-76479678D01*
X164549945Y-77170577D01*
X164334802Y-77809861D01*
X163987400Y-78388037D01*
X163523947Y-78878126D01*
X162966063Y-79257263D01*
X162339780Y-79507759D01*
X161659348Y-79620403D01*
X161494757Y-79625000D01*
X146158798Y-79625000D01*
X146330375Y-79368217D01*
X146423509Y-78900000D01*
X146330375Y-78431783D01*
X146065152Y-78034848D01*
X145668217Y-77769625D01*
X145650000Y-77766001D01*
X145650000Y-76639000D01*
X151420000Y-76639000D01*
X151420000Y-77359456D01*
X151496121Y-77543227D01*
X151636773Y-77683880D01*
X151820544Y-77760000D01*
X152541000Y-77760000D01*
X152666000Y-77635000D01*
X152666000Y-76514000D01*
X151545000Y-76514000D01*
X151420000Y-76639000D01*
X145650000Y-76639000D01*
X145650000Y-75360544D01*
X151420000Y-75360544D01*
X151420000Y-76081000D01*
X151545000Y-76206000D01*
X152666000Y-76206000D01*
X152666000Y-75085000D01*
X152541000Y-74960000D01*
X151820544Y-74960000D01*
X151636773Y-75036120D01*
X151496121Y-75176773D01*
X151420000Y-75360544D01*
X145650000Y-75360544D01*
X145650000Y-73906346D01*
X146199490Y-73906346D01*
X146336053Y-73879182D01*
X146451825Y-73801825D01*
X146529182Y-73686053D01*
X146556346Y-73549490D01*
X146556346Y-72027933D01*
X146571886Y-72023914D01*
X146678158Y-71933949D01*
X146741912Y-71810164D01*
X146753442Y-71671404D01*
X146744471Y-71592664D01*
X148726558Y-71592664D01*
X148751428Y-71769623D01*
X148828785Y-71885395D01*
X148923654Y-71948785D01*
X148923654Y-73470750D01*
X148950818Y-73607313D01*
X149028175Y-73723085D01*
X149143947Y-73800442D01*
X149280510Y-73827606D01*
X151279490Y-73827606D01*
X151416053Y-73800442D01*
X151531825Y-73723085D01*
X151609182Y-73607313D01*
X151636346Y-73470750D01*
X151636346Y-73264511D01*
X153331834Y-74960000D01*
X153099000Y-74960000D01*
X152974000Y-75085000D01*
X152974000Y-76206000D01*
X152994000Y-76206000D01*
X152994000Y-76514000D01*
X152974000Y-76514000D01*
X152974000Y-77635000D01*
X153099000Y-77760000D01*
X153819456Y-77760000D01*
X154003227Y-77683880D01*
X154143879Y-77543227D01*
X154220000Y-77359456D01*
X154220000Y-76874204D01*
X154300301Y-77068068D01*
X154651932Y-77419699D01*
X155111360Y-77610000D01*
X155608640Y-77610000D01*
X156068068Y-77419699D01*
X156419699Y-77068068D01*
X156610000Y-76608640D01*
X156610000Y-76500000D01*
X159730000Y-76500000D01*
X159836744Y-77105376D01*
X160144101Y-77637734D01*
X160615000Y-78032865D01*
X161192643Y-78243110D01*
X161807357Y-78243110D01*
X162385000Y-78032865D01*
X162855899Y-77637734D01*
X163163256Y-77105376D01*
X163270000Y-76500000D01*
X163163256Y-75894624D01*
X162855899Y-75362266D01*
X162385000Y-74967135D01*
X161807357Y-74756890D01*
X161192643Y-74756890D01*
X160615000Y-74967135D01*
X160144101Y-75362266D01*
X159836744Y-75894624D01*
X159730000Y-76500000D01*
X156610000Y-76500000D01*
X156610000Y-76111360D01*
X156419699Y-75651932D01*
X156068068Y-75300301D01*
X155608640Y-75110000D01*
X155111360Y-75110000D01*
X154859111Y-75214485D01*
X151829030Y-72184405D01*
X151803922Y-72146828D01*
X151655071Y-72047369D01*
X151636346Y-72043644D01*
X151636346Y-71949193D01*
X151651886Y-71945174D01*
X151758158Y-71855209D01*
X151821912Y-71731424D01*
X151833442Y-71592664D01*
X151829607Y-71559000D01*
X161630000Y-71559000D01*
X161630000Y-72229456D01*
X161706121Y-72413227D01*
X161846773Y-72553880D01*
X162030544Y-72630000D01*
X162701000Y-72630000D01*
X162826000Y-72505000D01*
X162826000Y-71434000D01*
X163134000Y-71434000D01*
X163134000Y-72505000D01*
X163259000Y-72630000D01*
X163929456Y-72630000D01*
X164113227Y-72553880D01*
X164253879Y-72413227D01*
X164330000Y-72229456D01*
X164330000Y-71559000D01*
X164205000Y-71434000D01*
X163134000Y-71434000D01*
X162826000Y-71434000D01*
X161755000Y-71434000D01*
X161630000Y-71559000D01*
X151829607Y-71559000D01*
X151689645Y-70330544D01*
X161630000Y-70330544D01*
X161630000Y-71001000D01*
X161755000Y-71126000D01*
X162826000Y-71126000D01*
X162826000Y-71106000D01*
X163134000Y-71106000D01*
X163134000Y-71126000D01*
X164205000Y-71126000D01*
X164330000Y-71001000D01*
X164330000Y-70330544D01*
X164253879Y-70146773D01*
X164113227Y-70006120D01*
X163929456Y-69930000D01*
X163259000Y-69930000D01*
X163134002Y-70054998D01*
X163134002Y-69932876D01*
X163448217Y-69870375D01*
X163845152Y-69605152D01*
X164110375Y-69208217D01*
X164203509Y-68740000D01*
X164110375Y-68271783D01*
X163845152Y-67874848D01*
X163448217Y-67609625D01*
X163098188Y-67540000D01*
X162861812Y-67540000D01*
X162511783Y-67609625D01*
X162114848Y-67874848D01*
X161849625Y-68271783D01*
X161756491Y-68740000D01*
X161849625Y-69208217D01*
X162114848Y-69605152D01*
X162511783Y-69870375D01*
X162825998Y-69932876D01*
X162825998Y-70054998D01*
X162701000Y-69930000D01*
X162030544Y-69930000D01*
X161846773Y-70006120D01*
X161706121Y-70146773D01*
X161630000Y-70330544D01*
X151689645Y-70330544D01*
X151434662Y-68092544D01*
X151409792Y-67996377D01*
X151332435Y-67880605D01*
X151216663Y-67803248D01*
X151080100Y-67776084D01*
X149479900Y-67776084D01*
X149381536Y-67789908D01*
X149257751Y-67853662D01*
X149167786Y-67959934D01*
X149125338Y-68092544D01*
X148726558Y-71592664D01*
X146744471Y-71592664D01*
X146354662Y-68171284D01*
X146329792Y-68075117D01*
X146252435Y-67959345D01*
X146136663Y-67881988D01*
X146000100Y-67854824D01*
X144399900Y-67854824D01*
X144301536Y-67868648D01*
X144177751Y-67932402D01*
X144087786Y-68038674D01*
X144045338Y-68171284D01*
X143646558Y-71671404D01*
X143671428Y-71848363D01*
X143748785Y-71964135D01*
X143843654Y-72027525D01*
X143843654Y-73549490D01*
X143870818Y-73686053D01*
X143948175Y-73801825D01*
X144063947Y-73879182D01*
X144200510Y-73906346D01*
X144750001Y-73906346D01*
X144750000Y-77766001D01*
X144731783Y-77769625D01*
X144334848Y-78034848D01*
X144069625Y-78431783D01*
X144007124Y-78745998D01*
X143885002Y-78745998D01*
X144010000Y-78621000D01*
X144010000Y-77950544D01*
X143933880Y-77766773D01*
X143793227Y-77626121D01*
X143609456Y-77550000D01*
X142939000Y-77550000D01*
X142814000Y-77675000D01*
X142814000Y-78746000D01*
X142834000Y-78746000D01*
X142834000Y-79054000D01*
X142814000Y-79054000D01*
X142814000Y-79074000D01*
X142506000Y-79074000D01*
X142506000Y-79054000D01*
X142486000Y-79054000D01*
X142486000Y-78746000D01*
X142506000Y-78746000D01*
X142506000Y-77675000D01*
X142381000Y-77550000D01*
X141710544Y-77550000D01*
X141526773Y-77626121D01*
X141386120Y-77766773D01*
X141310000Y-77950544D01*
X141310000Y-78621000D01*
X141434998Y-78745998D01*
X141312876Y-78745998D01*
X141250375Y-78431783D01*
X140985152Y-78034848D01*
X140588217Y-77769625D01*
X140570000Y-77766001D01*
X140570000Y-73700606D01*
X141119490Y-73700606D01*
X141256053Y-73673442D01*
X141371825Y-73596085D01*
X141449182Y-73480313D01*
X141476346Y-73343750D01*
X141476346Y-71822193D01*
X141491886Y-71818174D01*
X141598158Y-71728209D01*
X141661912Y-71604424D01*
X141673442Y-71465664D01*
X141274662Y-67965544D01*
X141249792Y-67869377D01*
X141172435Y-67753605D01*
X141056663Y-67676248D01*
X140920100Y-67649084D01*
X139319900Y-67649084D01*
X139221536Y-67662908D01*
X139097751Y-67726662D01*
X139007786Y-67832934D01*
X138965338Y-67965544D01*
X138566558Y-71465664D01*
X138591428Y-71642623D01*
X138668785Y-71758395D01*
X138763654Y-71821785D01*
X138763654Y-73343750D01*
X138790818Y-73480313D01*
X138868175Y-73596085D01*
X138983947Y-73673442D01*
X139120510Y-73700606D01*
X139670001Y-73700606D01*
X139670000Y-77766001D01*
X139651783Y-77769625D01*
X139254848Y-78034848D01*
X138989625Y-78431783D01*
X138927124Y-78745998D01*
X138805002Y-78745998D01*
X138930000Y-78621000D01*
X138930000Y-77950544D01*
X138853880Y-77766773D01*
X138713227Y-77626121D01*
X138529456Y-77550000D01*
X137859000Y-77550000D01*
X137734000Y-77675000D01*
X137734000Y-78746000D01*
X137754000Y-78746000D01*
X137754000Y-79054000D01*
X137734000Y-79054000D01*
X137734000Y-79074000D01*
X137426000Y-79074000D01*
X137426000Y-79054000D01*
X137406000Y-79054000D01*
X137406000Y-78746000D01*
X137426000Y-78746000D01*
X137426000Y-77675000D01*
X137301000Y-77550000D01*
X136630544Y-77550000D01*
X136446773Y-77626121D01*
X136306120Y-77766773D01*
X136230000Y-77950544D01*
X136230000Y-78621000D01*
X136354998Y-78745998D01*
X136232876Y-78745998D01*
X136170375Y-78431783D01*
X135905152Y-78034848D01*
X135508217Y-77769625D01*
X135490000Y-77766001D01*
X135490000Y-73700606D01*
X136039490Y-73700606D01*
X136176053Y-73673442D01*
X136291825Y-73596085D01*
X136369182Y-73480313D01*
X136396346Y-73343750D01*
X136396346Y-71822193D01*
X136411886Y-71818174D01*
X136518158Y-71728209D01*
X136581912Y-71604424D01*
X136593442Y-71465664D01*
X136194662Y-67965544D01*
X136169792Y-67869377D01*
X136092435Y-67753605D01*
X135976663Y-67676248D01*
X135840100Y-67649084D01*
X134239900Y-67649084D01*
X134141536Y-67662908D01*
X134017751Y-67726662D01*
X133927786Y-67832934D01*
X133885338Y-67965544D01*
X133486558Y-71465664D01*
X133511428Y-71642623D01*
X133588785Y-71758395D01*
X133683654Y-71821785D01*
X133683654Y-73343750D01*
X133710818Y-73480313D01*
X133788175Y-73596085D01*
X133903947Y-73673442D01*
X134040510Y-73700606D01*
X134590001Y-73700606D01*
X134590000Y-77766001D01*
X134571783Y-77769625D01*
X134174848Y-78034848D01*
X133909625Y-78431783D01*
X133816491Y-78900000D01*
X133909625Y-79368217D01*
X134081202Y-79625000D01*
X133458798Y-79625000D01*
X133630375Y-79368217D01*
X133723509Y-78900000D01*
X133630375Y-78431783D01*
X133365152Y-78034848D01*
X132968217Y-77769625D01*
X132618188Y-77700000D01*
X132381812Y-77700000D01*
X132031783Y-77769625D01*
X131634848Y-78034848D01*
X131369625Y-78431783D01*
X131307124Y-78745998D01*
X131185002Y-78745998D01*
X131310000Y-78621000D01*
X131310000Y-77950544D01*
X131233880Y-77766773D01*
X131093227Y-77626121D01*
X130909456Y-77550000D01*
X130239000Y-77550000D01*
X130114000Y-77675000D01*
X130114000Y-78746000D01*
X130134000Y-78746000D01*
X130134000Y-79054000D01*
X130114000Y-79054000D01*
X130114000Y-79074000D01*
X129806000Y-79074000D01*
X129806000Y-79054000D01*
X129786000Y-79054000D01*
X129786000Y-78746000D01*
X129806000Y-78746000D01*
X129806000Y-77675000D01*
X129681000Y-77550000D01*
X129010544Y-77550000D01*
X128826773Y-77626121D01*
X128686120Y-77766773D01*
X128610000Y-77950544D01*
X128610000Y-78621000D01*
X128734998Y-78745998D01*
X128612876Y-78745998D01*
X128550375Y-78431783D01*
X128285152Y-78034848D01*
X127888217Y-77769625D01*
X127870000Y-77766001D01*
X127870000Y-76270145D01*
X130246858Y-73893288D01*
X130284432Y-73868182D01*
X130383891Y-73719331D01*
X130387616Y-73700606D01*
X130959490Y-73700606D01*
X131096053Y-73673442D01*
X131211825Y-73596085D01*
X131289182Y-73480313D01*
X131316346Y-73343750D01*
X131316346Y-71822193D01*
X131331886Y-71818174D01*
X131438158Y-71728209D01*
X131501912Y-71604424D01*
X131513442Y-71465664D01*
X131114662Y-67965544D01*
X131089792Y-67869377D01*
X131012435Y-67753605D01*
X130896663Y-67676248D01*
X130760100Y-67649084D01*
X129159900Y-67649084D01*
X129061536Y-67662908D01*
X128937751Y-67726662D01*
X128847786Y-67832934D01*
X128805338Y-67965544D01*
X128406558Y-71465664D01*
X128431428Y-71642623D01*
X128508785Y-71758395D01*
X128603654Y-71821785D01*
X128603654Y-73343750D01*
X128630818Y-73480313D01*
X128708175Y-73596085D01*
X128823947Y-73673442D01*
X128960510Y-73700606D01*
X129166748Y-73700606D01*
X127133145Y-75734210D01*
X127095568Y-75759318D01*
X126996109Y-75908170D01*
X126992189Y-75927879D01*
X126961184Y-76083750D01*
X126970000Y-76128070D01*
X126970001Y-77766001D01*
X126951783Y-77769625D01*
X126554848Y-78034848D01*
X126289625Y-78431783D01*
X126196491Y-78900000D01*
X126289625Y-79368217D01*
X126461202Y-79625000D01*
X125838798Y-79625000D01*
X126010375Y-79368217D01*
X126103509Y-78900000D01*
X126010375Y-78431783D01*
X125745152Y-78034848D01*
X125348217Y-77769625D01*
X124998188Y-77700000D01*
X124761812Y-77700000D01*
X124411783Y-77769625D01*
X124014848Y-78034848D01*
X123749625Y-78431783D01*
X123687124Y-78745998D01*
X123565002Y-78745998D01*
X123690000Y-78621000D01*
X123690000Y-77950544D01*
X123613880Y-77766773D01*
X123473227Y-77626121D01*
X123289456Y-77550000D01*
X122619000Y-77550000D01*
X122494000Y-77675000D01*
X122494000Y-78746000D01*
X122514000Y-78746000D01*
X122514000Y-79054000D01*
X122494000Y-79054000D01*
X122494000Y-79074000D01*
X122186000Y-79074000D01*
X122186000Y-79054000D01*
X121115000Y-79054000D01*
X120990000Y-79179000D01*
X120990000Y-79625000D01*
X103520313Y-79625000D01*
X102829423Y-79549945D01*
X102190139Y-79334802D01*
X101611963Y-78987400D01*
X101121874Y-78523947D01*
X100742737Y-77966063D01*
X100492241Y-77339780D01*
X100379597Y-76659348D01*
X100375147Y-76500000D01*
X101730000Y-76500000D01*
X101836744Y-77105376D01*
X102144101Y-77637734D01*
X102615000Y-78032865D01*
X103192643Y-78243110D01*
X103807357Y-78243110D01*
X104385000Y-78032865D01*
X104483106Y-77950544D01*
X120990000Y-77950544D01*
X120990000Y-78621000D01*
X121115000Y-78746000D01*
X122186000Y-78746000D01*
X122186000Y-77675000D01*
X122061000Y-77550000D01*
X121390544Y-77550000D01*
X121206773Y-77626121D01*
X121066120Y-77766773D01*
X120990000Y-77950544D01*
X104483106Y-77950544D01*
X104855899Y-77637734D01*
X105163256Y-77105376D01*
X105270000Y-76500000D01*
X105163256Y-75894624D01*
X104855899Y-75362266D01*
X104385000Y-74967135D01*
X103807357Y-74756890D01*
X103192643Y-74756890D01*
X102615000Y-74967135D01*
X102144101Y-75362266D01*
X101836744Y-75894624D01*
X101730000Y-76500000D01*
X100375147Y-76500000D01*
X100375000Y-76494757D01*
X100375000Y-71559000D01*
X100670000Y-71559000D01*
X100670000Y-72229456D01*
X100746121Y-72413227D01*
X100886773Y-72553880D01*
X101070544Y-72630000D01*
X101741000Y-72630000D01*
X101866000Y-72505000D01*
X101866000Y-71434000D01*
X102174000Y-71434000D01*
X102174000Y-72505000D01*
X102299000Y-72630000D01*
X102969456Y-72630000D01*
X103153227Y-72553880D01*
X103293879Y-72413227D01*
X103370000Y-72229456D01*
X103370000Y-71641912D01*
X108339415Y-71641912D01*
X108464427Y-71943749D01*
X108807918Y-72343096D01*
X109278086Y-72580597D01*
X109485998Y-72496201D01*
X109485998Y-72627124D01*
X109171783Y-72689625D01*
X108774848Y-72954848D01*
X108509625Y-73351783D01*
X108416491Y-73820000D01*
X108509625Y-74288217D01*
X108774848Y-74685152D01*
X109171783Y-74950375D01*
X109521812Y-75020000D01*
X109758188Y-75020000D01*
X110108217Y-74950375D01*
X110505152Y-74685152D01*
X110770375Y-74288217D01*
X110863509Y-73820000D01*
X110770375Y-73351783D01*
X110505152Y-72954848D01*
X110108217Y-72689625D01*
X109794002Y-72627124D01*
X109794002Y-72496201D01*
X110001914Y-72580597D01*
X110472082Y-72343096D01*
X110815573Y-71943749D01*
X110940585Y-71641912D01*
X110855281Y-71434000D01*
X109794000Y-71434000D01*
X109794000Y-71454000D01*
X109486000Y-71454000D01*
X109486000Y-71434000D01*
X108424719Y-71434000D01*
X108339415Y-71641912D01*
X103370000Y-71641912D01*
X103370000Y-71559000D01*
X103245000Y-71434000D01*
X102174000Y-71434000D01*
X101866000Y-71434000D01*
X100795000Y-71434000D01*
X100670000Y-71559000D01*
X100375000Y-71559000D01*
X100375000Y-70330544D01*
X100670000Y-70330544D01*
X100670000Y-71001000D01*
X100795000Y-71126000D01*
X101866000Y-71126000D01*
X101866000Y-71106000D01*
X102174000Y-71106000D01*
X102174000Y-71126000D01*
X103245000Y-71126000D01*
X103370000Y-71001000D01*
X103370000Y-70918088D01*
X108339415Y-70918088D01*
X108424719Y-71126000D01*
X109486000Y-71126000D01*
X109486000Y-71106000D01*
X109794000Y-71106000D01*
X109794000Y-71126000D01*
X110855281Y-71126000D01*
X110940585Y-70918088D01*
X110815573Y-70616251D01*
X110472082Y-70216904D01*
X110001914Y-69979403D01*
X109794002Y-70063799D01*
X109794002Y-69946856D01*
X110490000Y-69946856D01*
X110626563Y-69919692D01*
X110742335Y-69842335D01*
X110819692Y-69726563D01*
X110846856Y-69590000D01*
X110846856Y-67890000D01*
X110819692Y-67753437D01*
X110742335Y-67637665D01*
X110626563Y-67560308D01*
X110490000Y-67533144D01*
X108790000Y-67533144D01*
X108653437Y-67560308D01*
X108537665Y-67637665D01*
X108460308Y-67753437D01*
X108433144Y-67890000D01*
X108433144Y-69590000D01*
X108460308Y-69726563D01*
X108537665Y-69842335D01*
X108653437Y-69919692D01*
X108790000Y-69946856D01*
X109485998Y-69946856D01*
X109485998Y-70063799D01*
X109278086Y-69979403D01*
X108807918Y-70216904D01*
X108464427Y-70616251D01*
X108339415Y-70918088D01*
X103370000Y-70918088D01*
X103370000Y-70330544D01*
X103293879Y-70146773D01*
X103153227Y-70006120D01*
X102969456Y-69930000D01*
X102299000Y-69930000D01*
X102174002Y-70054998D01*
X102174002Y-69932876D01*
X102488217Y-69870375D01*
X102885152Y-69605152D01*
X103150375Y-69208217D01*
X103243509Y-68740000D01*
X103150375Y-68271783D01*
X102885152Y-67874848D01*
X102488217Y-67609625D01*
X102138188Y-67540000D01*
X101901812Y-67540000D01*
X101551783Y-67609625D01*
X101154848Y-67874848D01*
X100889625Y-68271783D01*
X100796491Y-68740000D01*
X100889625Y-69208217D01*
X101154848Y-69605152D01*
X101551783Y-69870375D01*
X101865998Y-69932876D01*
X101865998Y-70054998D01*
X101741000Y-69930000D01*
X101070544Y-69930000D01*
X100886773Y-70006120D01*
X100746121Y-70146773D01*
X100670000Y-70330544D01*
X100375000Y-70330544D01*
X100375000Y-53520313D01*
X100377206Y-53500000D01*
X101730000Y-53500000D01*
X101836744Y-54105376D01*
X102144101Y-54637734D01*
X102615000Y-55032865D01*
X103192643Y-55243110D01*
X103807357Y-55243110D01*
X104385000Y-55032865D01*
X104855899Y-54637734D01*
X105163256Y-54105376D01*
X105270000Y-53500000D01*
X105163256Y-52894624D01*
X104855899Y-52362266D01*
X104698271Y-52230000D01*
X105371184Y-52230000D01*
X105380000Y-52274320D01*
X105380001Y-55580675D01*
X105371184Y-55625000D01*
X105396674Y-55753142D01*
X105406110Y-55800581D01*
X105505569Y-55949432D01*
X105543143Y-55974538D01*
X106306748Y-56738144D01*
X106250000Y-56738144D01*
X106113437Y-56765308D01*
X105997665Y-56842665D01*
X105920308Y-56958437D01*
X105893144Y-57095000D01*
X105893144Y-58795000D01*
X105920308Y-58931563D01*
X105997665Y-59047335D01*
X106113437Y-59124692D01*
X106250000Y-59151856D01*
X107950000Y-59151856D01*
X108086563Y-59124692D01*
X108202335Y-59047335D01*
X108279692Y-58931563D01*
X108306856Y-58795000D01*
X108306856Y-57945000D01*
X108416491Y-57945000D01*
X108509625Y-58413217D01*
X108774848Y-58810152D01*
X109171783Y-59075375D01*
X109521812Y-59145000D01*
X109758188Y-59145000D01*
X110108217Y-59075375D01*
X110505152Y-58810152D01*
X110770375Y-58413217D01*
X110832876Y-58099002D01*
X110963799Y-58099002D01*
X110879403Y-58306914D01*
X111116904Y-58777082D01*
X111516251Y-59120573D01*
X111818088Y-59245585D01*
X112026000Y-59160281D01*
X112026000Y-58099000D01*
X112334000Y-58099000D01*
X112334000Y-59160281D01*
X112541912Y-59245585D01*
X112843749Y-59120573D01*
X113243096Y-58777082D01*
X113480597Y-58306914D01*
X113396200Y-58099000D01*
X112334000Y-58099000D01*
X112026000Y-58099000D01*
X112006000Y-58099000D01*
X112006000Y-57791000D01*
X112026000Y-57791000D01*
X112026000Y-56729719D01*
X112334000Y-56729719D01*
X112334000Y-57791000D01*
X113396200Y-57791000D01*
X113480597Y-57583086D01*
X113243096Y-57112918D01*
X112843749Y-56769427D01*
X112541912Y-56644415D01*
X112334000Y-56729719D01*
X112026000Y-56729719D01*
X111818088Y-56644415D01*
X111516251Y-56769427D01*
X111116904Y-57112918D01*
X110879403Y-57583086D01*
X110963799Y-57790998D01*
X110832876Y-57790998D01*
X110770375Y-57476783D01*
X110505152Y-57079848D01*
X110108217Y-56814625D01*
X109758188Y-56745000D01*
X109521812Y-56745000D01*
X109171783Y-56814625D01*
X108774848Y-57079848D01*
X108509625Y-57476783D01*
X108416491Y-57945000D01*
X108306856Y-57945000D01*
X108306856Y-57095000D01*
X108279692Y-56958437D01*
X108202335Y-56842665D01*
X108086563Y-56765308D01*
X107950000Y-56738144D01*
X107527616Y-56738144D01*
X107523891Y-56719419D01*
X107424432Y-56570568D01*
X107386858Y-56545462D01*
X106280000Y-55438605D01*
X106280000Y-53920000D01*
X107163144Y-53920000D01*
X107163144Y-55620000D01*
X107190308Y-55756563D01*
X107267665Y-55872335D01*
X107383437Y-55949692D01*
X107520000Y-55976856D01*
X109220000Y-55976856D01*
X109356563Y-55949692D01*
X109472335Y-55872335D01*
X109549692Y-55756563D01*
X109576856Y-55620000D01*
X109576856Y-53920000D01*
X109549692Y-53783437D01*
X109472335Y-53667665D01*
X109356563Y-53590308D01*
X109220000Y-53563144D01*
X107520000Y-53563144D01*
X107383437Y-53590308D01*
X107267665Y-53667665D01*
X107190308Y-53783437D01*
X107163144Y-53920000D01*
X106280000Y-53920000D01*
X106280000Y-52416395D01*
X107286396Y-51410000D01*
X107474678Y-51410000D01*
X107239625Y-51761783D01*
X107146491Y-52230000D01*
X107239625Y-52698217D01*
X107504848Y-53095152D01*
X107901783Y-53360375D01*
X108251812Y-53430000D01*
X108488188Y-53430000D01*
X108838217Y-53360375D01*
X109235152Y-53095152D01*
X109500375Y-52698217D01*
X109593509Y-52230000D01*
X109500375Y-51761783D01*
X109265322Y-51410000D01*
X110014678Y-51410000D01*
X109779625Y-51761783D01*
X109686491Y-52230000D01*
X109779625Y-52698217D01*
X110044848Y-53095152D01*
X110441783Y-53360375D01*
X110791812Y-53430000D01*
X111028188Y-53430000D01*
X111378217Y-53360375D01*
X111775152Y-53095152D01*
X112040375Y-52698217D01*
X112102876Y-52384002D01*
X112233799Y-52384002D01*
X112149403Y-52591914D01*
X112386904Y-53062082D01*
X112786251Y-53405573D01*
X113088088Y-53530585D01*
X113295998Y-53445282D01*
X113295998Y-53577124D01*
X112981783Y-53639625D01*
X112584848Y-53904848D01*
X112319625Y-54301783D01*
X112226491Y-54770000D01*
X112319625Y-55238217D01*
X112554678Y-55590000D01*
X112366396Y-55590000D01*
X112030056Y-55253660D01*
X112040375Y-55238217D01*
X112133509Y-54770000D01*
X112040375Y-54301783D01*
X111775152Y-53904848D01*
X111378217Y-53639625D01*
X111028188Y-53570000D01*
X110791812Y-53570000D01*
X110441783Y-53639625D01*
X110044848Y-53904848D01*
X109779625Y-54301783D01*
X109686491Y-54770000D01*
X109779625Y-55238217D01*
X110044848Y-55635152D01*
X110441783Y-55900375D01*
X110791812Y-55970000D01*
X111028188Y-55970000D01*
X111378217Y-55900375D01*
X111393660Y-55890056D01*
X111830462Y-56326857D01*
X111855568Y-56364432D01*
X112004419Y-56463891D01*
X112135679Y-56490000D01*
X112135683Y-56490000D01*
X112179999Y-56498815D01*
X112224316Y-56490000D01*
X113897195Y-56490000D01*
X114889060Y-57481865D01*
X114914166Y-57519440D01*
X114955993Y-57547388D01*
X115005460Y-57596855D01*
X115030568Y-57634432D01*
X115179419Y-57733891D01*
X115310679Y-57760000D01*
X115310683Y-57760000D01*
X115354999Y-57768815D01*
X115399316Y-57760000D01*
X120468605Y-57760000D01*
X120940463Y-58231860D01*
X120965568Y-58269432D01*
X121003139Y-58294536D01*
X121003141Y-58294538D01*
X121072006Y-58340552D01*
X121114419Y-58368891D01*
X121133144Y-58372616D01*
X121133144Y-58795000D01*
X121160308Y-58931563D01*
X121237665Y-59047335D01*
X121353437Y-59124692D01*
X121490000Y-59151856D01*
X123190000Y-59151856D01*
X123326563Y-59124692D01*
X123442335Y-59047335D01*
X123519692Y-58931563D01*
X123546856Y-58795000D01*
X123546856Y-57248251D01*
X123759944Y-57461339D01*
X123749625Y-57476783D01*
X123656491Y-57945000D01*
X123749625Y-58413217D01*
X124014848Y-58810152D01*
X124411783Y-59075375D01*
X124761812Y-59145000D01*
X124998188Y-59145000D01*
X125348217Y-59075375D01*
X125745152Y-58810152D01*
X126010375Y-58413217D01*
X126072876Y-58099002D01*
X126203799Y-58099002D01*
X126119403Y-58306914D01*
X126356904Y-58777082D01*
X126756251Y-59120573D01*
X127058088Y-59245585D01*
X127266000Y-59160281D01*
X127266000Y-58099000D01*
X127246000Y-58099000D01*
X127246000Y-57791000D01*
X127266000Y-57791000D01*
X127266000Y-57771000D01*
X127574000Y-57771000D01*
X127574000Y-57791000D01*
X127594000Y-57791000D01*
X127594000Y-58099000D01*
X127574000Y-58099000D01*
X127574000Y-59160281D01*
X127781912Y-59245585D01*
X128083749Y-59120573D01*
X128483096Y-58777082D01*
X128720597Y-58306914D01*
X128636201Y-58099002D01*
X128713608Y-58099002D01*
X128875000Y-58260394D01*
X128875001Y-59122415D01*
X128866184Y-59166740D01*
X128894152Y-59307340D01*
X128901110Y-59342321D01*
X129000569Y-59491172D01*
X129038143Y-59516278D01*
X129510000Y-59988137D01*
X129510000Y-60985394D01*
X128960510Y-60985394D01*
X128823947Y-61012558D01*
X128708175Y-61089915D01*
X128630818Y-61205687D01*
X128603654Y-61342250D01*
X128603654Y-62863807D01*
X128588114Y-62867826D01*
X128481842Y-62957791D01*
X128418088Y-63081576D01*
X128406558Y-63220336D01*
X128805338Y-66720456D01*
X128830208Y-66816623D01*
X128907565Y-66932395D01*
X129023337Y-67009752D01*
X129159900Y-67036916D01*
X130760100Y-67036916D01*
X130858464Y-67023092D01*
X130982249Y-66959338D01*
X131072214Y-66853066D01*
X131114662Y-66720456D01*
X131513442Y-63220336D01*
X131488572Y-63043377D01*
X131411215Y-62927605D01*
X131316346Y-62864215D01*
X131316346Y-61342250D01*
X131289182Y-61205687D01*
X131211825Y-61089915D01*
X131096053Y-61012558D01*
X130959490Y-60985394D01*
X130410000Y-60985394D01*
X130410000Y-59846060D01*
X130418816Y-59801740D01*
X130410000Y-59757419D01*
X130383891Y-59626159D01*
X130336778Y-59555649D01*
X130309538Y-59514881D01*
X130309536Y-59514879D01*
X130284432Y-59477308D01*
X130246861Y-59452204D01*
X129775000Y-58980345D01*
X129775000Y-58912625D01*
X131634232Y-60771858D01*
X131659338Y-60809432D01*
X131808189Y-60908891D01*
X131939449Y-60935000D01*
X131939450Y-60935000D01*
X131983770Y-60943816D01*
X132028090Y-60935000D01*
X134218605Y-60935000D01*
X134268998Y-60985394D01*
X134040510Y-60985394D01*
X133903947Y-61012558D01*
X133788175Y-61089915D01*
X133710818Y-61205687D01*
X133683654Y-61342250D01*
X133683654Y-62863807D01*
X133668114Y-62867826D01*
X133561842Y-62957791D01*
X133498088Y-63081576D01*
X133486558Y-63220336D01*
X133885338Y-66720456D01*
X133910208Y-66816623D01*
X133987565Y-66932395D01*
X134103337Y-67009752D01*
X134239900Y-67036916D01*
X135840100Y-67036916D01*
X135938464Y-67023092D01*
X136062249Y-66959338D01*
X136152214Y-66853066D01*
X136194662Y-66720456D01*
X136593442Y-63220336D01*
X136568572Y-63043377D01*
X136491215Y-62927605D01*
X136396346Y-62864215D01*
X136396346Y-61342250D01*
X136369182Y-61205687D01*
X136291825Y-61089915D01*
X136176053Y-61012558D01*
X136039490Y-60985394D01*
X135472041Y-60985394D01*
X135463891Y-60944419D01*
X135412111Y-60866924D01*
X135389538Y-60833141D01*
X135389536Y-60833139D01*
X135364432Y-60795568D01*
X135326861Y-60770464D01*
X134754540Y-60198145D01*
X134729432Y-60160568D01*
X134580581Y-60061109D01*
X134449321Y-60035000D01*
X134449320Y-60035000D01*
X134405000Y-60026184D01*
X134360680Y-60035000D01*
X132170166Y-60035000D01*
X130410000Y-58274835D01*
X130410000Y-55665322D01*
X130761783Y-55900375D01*
X131111812Y-55970000D01*
X131348188Y-55970000D01*
X131698217Y-55900375D01*
X131713660Y-55890056D01*
X132150462Y-56326857D01*
X132175568Y-56364432D01*
X132324419Y-56463891D01*
X132455679Y-56490000D01*
X132455683Y-56490000D01*
X132499999Y-56498815D01*
X132544316Y-56490000D01*
X133583605Y-56490000D01*
X135325462Y-58231858D01*
X135350568Y-58269432D01*
X135499419Y-58368891D01*
X135630679Y-58395000D01*
X135630680Y-58395000D01*
X135675000Y-58403816D01*
X135719320Y-58395000D01*
X136373144Y-58395000D01*
X136373144Y-58795000D01*
X136400308Y-58931563D01*
X136477665Y-59047335D01*
X136593437Y-59124692D01*
X136730000Y-59151856D01*
X138430000Y-59151856D01*
X138566563Y-59124692D01*
X138682335Y-59047335D01*
X138759692Y-58931563D01*
X138786856Y-58795000D01*
X138786856Y-57248251D01*
X138999944Y-57461339D01*
X138989625Y-57476783D01*
X138896491Y-57945000D01*
X138989625Y-58413217D01*
X139254848Y-58810152D01*
X139651783Y-59075375D01*
X140001812Y-59145000D01*
X140238188Y-59145000D01*
X140588217Y-59075375D01*
X140985152Y-58810152D01*
X141250375Y-58413217D01*
X141343509Y-57945000D01*
X141250375Y-57476783D01*
X140985152Y-57079848D01*
X140588217Y-56814625D01*
X140238188Y-56745000D01*
X140001812Y-56745000D01*
X139651783Y-56814625D01*
X139636339Y-56824944D01*
X139301395Y-56490000D01*
X140568605Y-56490000D01*
X141539944Y-57461340D01*
X141529625Y-57476783D01*
X141436491Y-57945000D01*
X141529625Y-58413217D01*
X141794848Y-58810152D01*
X142191783Y-59075375D01*
X142541812Y-59145000D01*
X142778188Y-59145000D01*
X143128217Y-59075375D01*
X143480001Y-58840321D01*
X143480001Y-59544833D01*
X142989835Y-60035000D01*
X140799320Y-60035000D01*
X140755000Y-60026184D01*
X140710680Y-60035000D01*
X140710679Y-60035000D01*
X140579419Y-60061109D01*
X140579417Y-60061110D01*
X140579418Y-60061110D01*
X140468141Y-60135462D01*
X140468140Y-60135463D01*
X140430568Y-60160568D01*
X140405463Y-60198140D01*
X139833145Y-60770460D01*
X139795568Y-60795568D01*
X139696109Y-60944420D01*
X139687959Y-60985394D01*
X139120510Y-60985394D01*
X138983947Y-61012558D01*
X138868175Y-61089915D01*
X138790818Y-61205687D01*
X138763654Y-61342250D01*
X138763654Y-62863807D01*
X138748114Y-62867826D01*
X138641842Y-62957791D01*
X138578088Y-63081576D01*
X138566558Y-63220336D01*
X138965338Y-66720456D01*
X138990208Y-66816623D01*
X139067565Y-66932395D01*
X139183337Y-67009752D01*
X139319900Y-67036916D01*
X140920100Y-67036916D01*
X141018464Y-67023092D01*
X141142249Y-66959338D01*
X141232214Y-66853066D01*
X141274662Y-66720456D01*
X141673442Y-63220336D01*
X141648572Y-63043377D01*
X141571215Y-62927605D01*
X141476346Y-62864215D01*
X141476346Y-61342250D01*
X141449182Y-61205687D01*
X141371825Y-61089915D01*
X141256053Y-61012558D01*
X141119490Y-60985394D01*
X140891002Y-60985394D01*
X140941397Y-60935000D01*
X143131910Y-60935000D01*
X143176230Y-60943816D01*
X143220550Y-60935000D01*
X143220551Y-60935000D01*
X143351811Y-60908891D01*
X143500662Y-60809432D01*
X143525770Y-60771855D01*
X144216857Y-60080769D01*
X144254432Y-60055662D01*
X144353891Y-59906811D01*
X144380000Y-59775551D01*
X144380000Y-59775550D01*
X144388816Y-59731230D01*
X144380000Y-59686910D01*
X144380000Y-55903999D01*
X144398217Y-55900375D01*
X144795152Y-55635152D01*
X145060375Y-55238217D01*
X145153509Y-54770000D01*
X145060375Y-54301783D01*
X144795152Y-53904848D01*
X144398217Y-53639625D01*
X144084002Y-53577124D01*
X144084002Y-53445282D01*
X144291912Y-53530585D01*
X144593749Y-53405573D01*
X144993096Y-53062082D01*
X145230597Y-52591914D01*
X145146201Y-52384002D01*
X145277124Y-52384002D01*
X145339625Y-52698217D01*
X145604848Y-53095152D01*
X146001783Y-53360375D01*
X146351812Y-53430000D01*
X146588188Y-53430000D01*
X146938217Y-53360375D01*
X147335152Y-53095152D01*
X147600375Y-52698217D01*
X147662876Y-52384002D01*
X147793799Y-52384002D01*
X147709403Y-52591914D01*
X147946904Y-53062082D01*
X148139695Y-53227907D01*
X147453145Y-53914458D01*
X147415568Y-53939566D01*
X147386959Y-53982383D01*
X147335152Y-53904848D01*
X146938217Y-53639625D01*
X146588188Y-53570000D01*
X146351812Y-53570000D01*
X146001783Y-53639625D01*
X145604848Y-53904848D01*
X145339625Y-54301783D01*
X145246491Y-54770000D01*
X145339625Y-55238217D01*
X145349944Y-55253661D01*
X144913143Y-55690462D01*
X144875569Y-55715568D01*
X144850464Y-55753141D01*
X144850463Y-55753142D01*
X144776110Y-55864419D01*
X144741184Y-56040000D01*
X144750001Y-56084325D01*
X144750000Y-61191134D01*
X144200510Y-61191134D01*
X144063947Y-61218298D01*
X143948175Y-61295655D01*
X143870818Y-61411427D01*
X143843654Y-61547990D01*
X143843654Y-63069547D01*
X143828114Y-63073566D01*
X143721842Y-63163531D01*
X143658088Y-63287316D01*
X143646558Y-63426076D01*
X144045338Y-66926196D01*
X144070208Y-67022363D01*
X144147565Y-67138135D01*
X144263337Y-67215492D01*
X144399900Y-67242656D01*
X146000100Y-67242656D01*
X146098464Y-67228832D01*
X146222249Y-67165078D01*
X146312214Y-67058806D01*
X146354662Y-66926196D01*
X146753442Y-63426076D01*
X146728572Y-63249117D01*
X146651215Y-63133345D01*
X146556346Y-63069955D01*
X146556346Y-61547990D01*
X146529182Y-61411427D01*
X146451825Y-61295655D01*
X146336053Y-61218298D01*
X146199490Y-61191134D01*
X145650000Y-61191134D01*
X145650000Y-56226395D01*
X145986339Y-55890056D01*
X146001783Y-55900375D01*
X146351812Y-55970000D01*
X146588188Y-55970000D01*
X146938217Y-55900375D01*
X147290000Y-55665321D01*
X147290001Y-58684925D01*
X147281184Y-58729250D01*
X147312189Y-58885121D01*
X147316110Y-58904831D01*
X147415569Y-59053682D01*
X147453143Y-59078788D01*
X149486748Y-61112394D01*
X149280510Y-61112394D01*
X149143947Y-61139558D01*
X149028175Y-61216915D01*
X148950818Y-61332687D01*
X148923654Y-61469250D01*
X148923654Y-62990807D01*
X148908114Y-62994826D01*
X148801842Y-63084791D01*
X148738088Y-63208576D01*
X148726558Y-63347336D01*
X149125338Y-66847456D01*
X149150208Y-66943623D01*
X149227565Y-67059395D01*
X149343337Y-67136752D01*
X149479900Y-67163916D01*
X151080100Y-67163916D01*
X151178464Y-67150092D01*
X151302249Y-67086338D01*
X151392214Y-66980066D01*
X151434662Y-66847456D01*
X151508428Y-66200000D01*
X161756491Y-66200000D01*
X161849625Y-66668217D01*
X162114848Y-67065152D01*
X162511783Y-67330375D01*
X162861812Y-67400000D01*
X163098188Y-67400000D01*
X163448217Y-67330375D01*
X163845152Y-67065152D01*
X164110375Y-66668217D01*
X164203509Y-66200000D01*
X164110375Y-65731783D01*
X163845152Y-65334848D01*
X163448217Y-65069625D01*
X163098188Y-65000000D01*
X162861812Y-65000000D01*
X162511783Y-65069625D01*
X162114848Y-65334848D01*
X161849625Y-65731783D01*
X161756491Y-66200000D01*
X151508428Y-66200000D01*
X151833442Y-63347336D01*
X151808572Y-63170377D01*
X151731215Y-63054605D01*
X151636346Y-62991215D01*
X151636346Y-61469250D01*
X151609182Y-61332687D01*
X151531825Y-61216915D01*
X151416053Y-61139558D01*
X151279490Y-61112394D01*
X150707616Y-61112394D01*
X150703891Y-61093669D01*
X150691871Y-61075679D01*
X150629537Y-60982391D01*
X150604432Y-60944818D01*
X150566858Y-60919712D01*
X148190000Y-58542855D01*
X148190000Y-55665322D01*
X148541783Y-55900375D01*
X148891812Y-55970000D01*
X149128188Y-55970000D01*
X149478217Y-55900375D01*
X149493660Y-55890056D01*
X149930462Y-56326857D01*
X149955568Y-56364432D01*
X150104419Y-56463891D01*
X150235679Y-56490000D01*
X150235683Y-56490000D01*
X150279999Y-56498815D01*
X150324316Y-56490000D01*
X150728605Y-56490000D01*
X151613144Y-57374540D01*
X151613144Y-58795000D01*
X151640308Y-58931563D01*
X151717665Y-59047335D01*
X151833437Y-59124692D01*
X151970000Y-59151856D01*
X153670000Y-59151856D01*
X153806563Y-59124692D01*
X153922335Y-59047335D01*
X153999692Y-58931563D01*
X154026856Y-58795000D01*
X154026856Y-57248252D01*
X154223142Y-57444538D01*
X154223145Y-57444540D01*
X154239944Y-57461339D01*
X154229625Y-57476783D01*
X154136491Y-57945000D01*
X154229625Y-58413217D01*
X154494848Y-58810152D01*
X154891783Y-59075375D01*
X155241812Y-59145000D01*
X155478188Y-59145000D01*
X155828217Y-59075375D01*
X156225152Y-58810152D01*
X156490375Y-58413217D01*
X156583509Y-57945000D01*
X156490375Y-57476783D01*
X156225152Y-57079848D01*
X155828217Y-56814625D01*
X155478188Y-56745000D01*
X155241812Y-56745000D01*
X154891783Y-56814625D01*
X154876339Y-56824944D01*
X154859540Y-56808145D01*
X154859538Y-56808142D01*
X154021395Y-55970000D01*
X154208188Y-55970000D01*
X154558217Y-55900375D01*
X154573660Y-55890056D01*
X155010462Y-56326857D01*
X155035568Y-56364432D01*
X155184419Y-56463891D01*
X155315679Y-56490000D01*
X155315683Y-56490000D01*
X155359999Y-56498815D01*
X155404316Y-56490000D01*
X155808605Y-56490000D01*
X156779944Y-57461340D01*
X156769625Y-57476783D01*
X156676491Y-57945000D01*
X156769625Y-58413217D01*
X157034848Y-58810152D01*
X157431783Y-59075375D01*
X157781812Y-59145000D01*
X158018188Y-59145000D01*
X158368217Y-59075375D01*
X158765152Y-58810152D01*
X159030375Y-58413217D01*
X159123509Y-57945000D01*
X159030375Y-57476783D01*
X158765152Y-57079848D01*
X158368217Y-56814625D01*
X158018188Y-56745000D01*
X157781812Y-56745000D01*
X157431783Y-56814625D01*
X157416340Y-56824944D01*
X156711395Y-56120000D01*
X156784002Y-56120000D01*
X156784002Y-55985282D01*
X156991912Y-56070585D01*
X157293749Y-55945573D01*
X157693096Y-55602082D01*
X157930597Y-55131914D01*
X157846200Y-54924000D01*
X156784000Y-54924000D01*
X156784000Y-54944000D01*
X156476000Y-54944000D01*
X156476000Y-54924000D01*
X156456000Y-54924000D01*
X156456000Y-54616000D01*
X156476000Y-54616000D01*
X156476000Y-54596000D01*
X156784000Y-54596000D01*
X156784000Y-54616000D01*
X157846200Y-54616000D01*
X157930597Y-54408086D01*
X157693096Y-53937918D01*
X157293749Y-53594427D01*
X157065759Y-53500000D01*
X159730000Y-53500000D01*
X159836744Y-54105376D01*
X160144101Y-54637734D01*
X160615000Y-55032865D01*
X161192643Y-55243110D01*
X161807357Y-55243110D01*
X162385000Y-55032865D01*
X162855899Y-54637734D01*
X163163256Y-54105376D01*
X163270000Y-53500000D01*
X163163256Y-52894624D01*
X162855899Y-52362266D01*
X162385000Y-51967135D01*
X161807357Y-51756890D01*
X161192643Y-51756890D01*
X160615000Y-51967135D01*
X160144101Y-52362266D01*
X159836744Y-52894624D01*
X159730000Y-53500000D01*
X157065759Y-53500000D01*
X156991912Y-53469415D01*
X156784002Y-53554718D01*
X156784002Y-53422876D01*
X157098217Y-53360375D01*
X157495152Y-53095152D01*
X157760375Y-52698217D01*
X157853509Y-52230000D01*
X157760375Y-51761783D01*
X157495152Y-51364848D01*
X157098217Y-51099625D01*
X156748188Y-51030000D01*
X156511812Y-51030000D01*
X156161783Y-51099625D01*
X155764848Y-51364848D01*
X155499625Y-51761783D01*
X155406491Y-52230000D01*
X155499625Y-52698217D01*
X155764848Y-53095152D01*
X156161783Y-53360375D01*
X156475998Y-53422876D01*
X156475998Y-53554718D01*
X156268088Y-53469415D01*
X155966251Y-53594427D01*
X155566904Y-53937918D01*
X155329403Y-54408086D01*
X155413799Y-54615998D01*
X155282876Y-54615998D01*
X155220375Y-54301783D01*
X154955152Y-53904848D01*
X154558217Y-53639625D01*
X154208188Y-53570000D01*
X153971812Y-53570000D01*
X153621783Y-53639625D01*
X153224848Y-53904848D01*
X152959625Y-54301783D01*
X152866491Y-54770000D01*
X152959625Y-55238217D01*
X153194678Y-55590000D01*
X153006396Y-55590000D01*
X152670056Y-55253660D01*
X152680375Y-55238217D01*
X152773509Y-54770000D01*
X152680375Y-54301783D01*
X152415152Y-53904848D01*
X152018217Y-53639625D01*
X151668188Y-53570000D01*
X151431812Y-53570000D01*
X151081783Y-53639625D01*
X150684848Y-53904848D01*
X150419625Y-54301783D01*
X150326491Y-54770000D01*
X150419625Y-55238217D01*
X150654678Y-55590000D01*
X150466396Y-55590000D01*
X150130056Y-55253660D01*
X150140375Y-55238217D01*
X150233509Y-54770000D01*
X150140375Y-54301783D01*
X149905322Y-53950000D01*
X150235680Y-53950000D01*
X150280000Y-53958816D01*
X150324320Y-53950000D01*
X150324321Y-53950000D01*
X150455581Y-53923891D01*
X150604432Y-53824432D01*
X150629540Y-53786855D01*
X151066339Y-53350056D01*
X151081783Y-53360375D01*
X151431812Y-53430000D01*
X151668188Y-53430000D01*
X152018217Y-53360375D01*
X152415152Y-53095152D01*
X152680375Y-52698217D01*
X152773509Y-52230000D01*
X152866491Y-52230000D01*
X152959625Y-52698217D01*
X153224848Y-53095152D01*
X153621783Y-53360375D01*
X153971812Y-53430000D01*
X154208188Y-53430000D01*
X154558217Y-53360375D01*
X154955152Y-53095152D01*
X155220375Y-52698217D01*
X155313509Y-52230000D01*
X155220375Y-51761783D01*
X154955152Y-51364848D01*
X154558217Y-51099625D01*
X154208188Y-51030000D01*
X153971812Y-51030000D01*
X153621783Y-51099625D01*
X153224848Y-51364848D01*
X152959625Y-51761783D01*
X152866491Y-52230000D01*
X152773509Y-52230000D01*
X152680375Y-51761783D01*
X152415152Y-51364848D01*
X152018217Y-51099625D01*
X151668188Y-51030000D01*
X151431812Y-51030000D01*
X151081783Y-51099625D01*
X150684848Y-51364848D01*
X150419625Y-51761783D01*
X150357124Y-52075998D01*
X150226201Y-52075998D01*
X150310597Y-51868086D01*
X150073096Y-51397918D01*
X149673749Y-51054427D01*
X149371912Y-50929415D01*
X149164000Y-51014719D01*
X149164000Y-52076000D01*
X149184000Y-52076000D01*
X149184000Y-52384000D01*
X149164000Y-52384000D01*
X149164000Y-52404000D01*
X148856000Y-52404000D01*
X148856000Y-52384000D01*
X148836000Y-52384000D01*
X148836000Y-52076000D01*
X148856000Y-52076000D01*
X148856000Y-51014719D01*
X148648088Y-50929415D01*
X148346251Y-51054427D01*
X147946904Y-51397918D01*
X147709403Y-51868086D01*
X147793799Y-52075998D01*
X147662876Y-52075998D01*
X147600375Y-51761783D01*
X147335152Y-51364848D01*
X146938217Y-51099625D01*
X146588188Y-51030000D01*
X146351812Y-51030000D01*
X146001783Y-51099625D01*
X145604848Y-51364848D01*
X145339625Y-51761783D01*
X145277124Y-52075998D01*
X145146201Y-52075998D01*
X145230597Y-51868086D01*
X144993096Y-51397918D01*
X144593749Y-51054427D01*
X144291912Y-50929415D01*
X144084000Y-51014719D01*
X144084000Y-52076000D01*
X144104000Y-52076000D01*
X144104000Y-52384000D01*
X144084000Y-52384000D01*
X144084000Y-52404000D01*
X143776000Y-52404000D01*
X143776000Y-52384000D01*
X143756000Y-52384000D01*
X143756000Y-52076000D01*
X143776000Y-52076000D01*
X143776000Y-51014719D01*
X143568088Y-50929415D01*
X143266251Y-51054427D01*
X142866904Y-51397918D01*
X142629403Y-51868086D01*
X142713799Y-52075998D01*
X142582876Y-52075998D01*
X142520375Y-51761783D01*
X142255152Y-51364848D01*
X141858217Y-51099625D01*
X141508188Y-51030000D01*
X141271812Y-51030000D01*
X140921783Y-51099625D01*
X140524848Y-51364848D01*
X140259625Y-51761783D01*
X140166491Y-52230000D01*
X140259625Y-52698217D01*
X140524848Y-53095152D01*
X140921783Y-53360375D01*
X141271812Y-53430000D01*
X141508188Y-53430000D01*
X141858217Y-53360375D01*
X142255152Y-53095152D01*
X142520375Y-52698217D01*
X142582876Y-52384002D01*
X142713799Y-52384002D01*
X142629403Y-52591914D01*
X142866904Y-53062082D01*
X143266251Y-53405573D01*
X143568088Y-53530585D01*
X143775998Y-53445282D01*
X143775998Y-53577124D01*
X143461783Y-53639625D01*
X143064848Y-53904848D01*
X142799625Y-54301783D01*
X142706491Y-54770000D01*
X142799625Y-55238217D01*
X143064848Y-55635152D01*
X143461783Y-55900375D01*
X143480000Y-55903999D01*
X143480000Y-57049679D01*
X143128217Y-56814625D01*
X142778188Y-56745000D01*
X142541812Y-56745000D01*
X142191783Y-56814625D01*
X142176340Y-56824944D01*
X141321395Y-55970000D01*
X141508188Y-55970000D01*
X141858217Y-55900375D01*
X142255152Y-55635152D01*
X142520375Y-55238217D01*
X142613509Y-54770000D01*
X142520375Y-54301783D01*
X142255152Y-53904848D01*
X141858217Y-53639625D01*
X141508188Y-53570000D01*
X141271812Y-53570000D01*
X140921783Y-53639625D01*
X140524848Y-53904848D01*
X140259625Y-54301783D01*
X140197124Y-54615998D01*
X140066201Y-54615998D01*
X140150597Y-54408086D01*
X139913096Y-53937918D01*
X139513749Y-53594427D01*
X139211912Y-53469415D01*
X139004002Y-53554718D01*
X139004002Y-53422876D01*
X139318217Y-53360375D01*
X139715152Y-53095152D01*
X139980375Y-52698217D01*
X140073509Y-52230000D01*
X139980375Y-51761783D01*
X139715152Y-51364848D01*
X139318217Y-51099625D01*
X138968188Y-51030000D01*
X138731812Y-51030000D01*
X138381783Y-51099625D01*
X137984848Y-51364848D01*
X137719625Y-51761783D01*
X137626491Y-52230000D01*
X137719625Y-52698217D01*
X137984848Y-53095152D01*
X138381783Y-53360375D01*
X138695998Y-53422876D01*
X138695998Y-53554718D01*
X138488088Y-53469415D01*
X138186251Y-53594427D01*
X137786904Y-53937918D01*
X137549403Y-54408086D01*
X137633799Y-54615998D01*
X137502876Y-54615998D01*
X137440375Y-54301783D01*
X137175152Y-53904848D01*
X136778217Y-53639625D01*
X136428188Y-53570000D01*
X136191812Y-53570000D01*
X135841783Y-53639625D01*
X135444848Y-53904848D01*
X135179625Y-54301783D01*
X135086491Y-54770000D01*
X135179625Y-55238217D01*
X135444848Y-55635152D01*
X135841783Y-55900375D01*
X136191812Y-55970000D01*
X136428188Y-55970000D01*
X136778217Y-55900375D01*
X136793660Y-55890056D01*
X137128604Y-56225000D01*
X135861396Y-56225000D01*
X134890056Y-55253661D01*
X134900375Y-55238217D01*
X134993509Y-54770000D01*
X134900375Y-54301783D01*
X134635152Y-53904848D01*
X134238217Y-53639625D01*
X133888188Y-53570000D01*
X133651812Y-53570000D01*
X133301783Y-53639625D01*
X132904848Y-53904848D01*
X132639625Y-54301783D01*
X132546491Y-54770000D01*
X132639625Y-55238217D01*
X132874678Y-55590000D01*
X132686396Y-55590000D01*
X132350056Y-55253660D01*
X132360375Y-55238217D01*
X132453509Y-54770000D01*
X132360375Y-54301783D01*
X132095152Y-53904848D01*
X132017617Y-53853041D01*
X132060434Y-53824432D01*
X132085542Y-53786855D01*
X132853738Y-53018660D01*
X132904848Y-53095152D01*
X133301783Y-53360375D01*
X133651812Y-53430000D01*
X133888188Y-53430000D01*
X134238217Y-53360375D01*
X134635152Y-53095152D01*
X134900375Y-52698217D01*
X134993509Y-52230000D01*
X135086491Y-52230000D01*
X135179625Y-52698217D01*
X135444848Y-53095152D01*
X135841783Y-53360375D01*
X136191812Y-53430000D01*
X136428188Y-53430000D01*
X136778217Y-53360375D01*
X137175152Y-53095152D01*
X137440375Y-52698217D01*
X137533509Y-52230000D01*
X137440375Y-51761783D01*
X137175152Y-51364848D01*
X136778217Y-51099625D01*
X136428188Y-51030000D01*
X136191812Y-51030000D01*
X135841783Y-51099625D01*
X135444848Y-51364848D01*
X135179625Y-51761783D01*
X135086491Y-52230000D01*
X134993509Y-52230000D01*
X134900375Y-51761783D01*
X134635152Y-51364848D01*
X134238217Y-51099625D01*
X133888188Y-51030000D01*
X133651812Y-51030000D01*
X133301783Y-51099625D01*
X132904848Y-51364848D01*
X132639625Y-51761783D01*
X132590412Y-52009194D01*
X132523608Y-52075998D01*
X132446201Y-52075998D01*
X132530597Y-51868086D01*
X132293096Y-51397918D01*
X131893749Y-51054427D01*
X131591912Y-50929415D01*
X131384000Y-51014719D01*
X131384000Y-52076000D01*
X131404000Y-52076000D01*
X131404000Y-52384000D01*
X131384000Y-52384000D01*
X131384000Y-52404000D01*
X131076000Y-52404000D01*
X131076000Y-52384000D01*
X131056000Y-52384000D01*
X131056000Y-52076000D01*
X131076000Y-52076000D01*
X131076000Y-51014719D01*
X130868088Y-50929415D01*
X130566251Y-51054427D01*
X130166904Y-51397918D01*
X129929403Y-51868086D01*
X130013799Y-52075998D01*
X129882876Y-52075998D01*
X129820375Y-51761783D01*
X129555152Y-51364848D01*
X129158217Y-51099625D01*
X128808188Y-51030000D01*
X128571812Y-51030000D01*
X128221783Y-51099625D01*
X127824848Y-51364848D01*
X127559625Y-51761783D01*
X127466491Y-52230000D01*
X127559625Y-52698217D01*
X127569944Y-52713661D01*
X127133145Y-53150460D01*
X127095568Y-53175568D01*
X126996109Y-53324420D01*
X126970326Y-53454043D01*
X126961184Y-53500000D01*
X126970000Y-53544320D01*
X126970000Y-53874679D01*
X126618217Y-53639625D01*
X126268188Y-53570000D01*
X126031812Y-53570000D01*
X125681783Y-53639625D01*
X125284848Y-53904848D01*
X125019625Y-54301783D01*
X124926491Y-54770000D01*
X125019625Y-55238217D01*
X125284848Y-55635152D01*
X125681783Y-55900375D01*
X126031812Y-55970000D01*
X126268188Y-55970000D01*
X126618217Y-55900375D01*
X126970001Y-55665321D01*
X126970001Y-56124673D01*
X126961184Y-56168998D01*
X126992308Y-56325463D01*
X126996110Y-56344579D01*
X127095569Y-56493430D01*
X127133143Y-56518536D01*
X127265998Y-56651391D01*
X127265998Y-56729718D01*
X127058088Y-56644415D01*
X126756251Y-56769427D01*
X126356904Y-57112918D01*
X126119403Y-57583086D01*
X126203799Y-57790998D01*
X126072876Y-57790998D01*
X126010375Y-57476783D01*
X125745152Y-57079848D01*
X125348217Y-56814625D01*
X124998188Y-56745000D01*
X124761812Y-56745000D01*
X124411783Y-56814625D01*
X124396339Y-56824944D01*
X124029539Y-56458144D01*
X124004431Y-56420567D01*
X123855580Y-56321108D01*
X123724320Y-56294999D01*
X123724319Y-56294999D01*
X123679999Y-56286183D01*
X123635679Y-56294999D01*
X115611395Y-56294999D01*
X114570056Y-55253661D01*
X114580375Y-55238217D01*
X114673509Y-54770000D01*
X114766491Y-54770000D01*
X114859625Y-55238217D01*
X115124848Y-55635152D01*
X115521783Y-55900375D01*
X115871812Y-55970000D01*
X116108188Y-55970000D01*
X116458217Y-55900375D01*
X116855152Y-55635152D01*
X117120375Y-55238217D01*
X117182876Y-54924002D01*
X117313799Y-54924002D01*
X117229403Y-55131914D01*
X117466904Y-55602082D01*
X117866251Y-55945573D01*
X118168088Y-56070585D01*
X118376000Y-55985281D01*
X118376000Y-54924000D01*
X118356000Y-54924000D01*
X118356000Y-54616000D01*
X118376000Y-54616000D01*
X118376000Y-54596000D01*
X118684000Y-54596000D01*
X118684000Y-54616000D01*
X118704000Y-54616000D01*
X118704000Y-54924000D01*
X118684000Y-54924000D01*
X118684000Y-55985281D01*
X118891912Y-56070585D01*
X119193749Y-55945573D01*
X119593096Y-55602082D01*
X119830597Y-55131914D01*
X119746201Y-54924002D01*
X119877124Y-54924002D01*
X119939625Y-55238217D01*
X120204848Y-55635152D01*
X120601783Y-55900375D01*
X120951812Y-55970000D01*
X121188188Y-55970000D01*
X121538217Y-55900375D01*
X121935152Y-55635152D01*
X122200375Y-55238217D01*
X122293509Y-54770000D01*
X122200375Y-54301783D01*
X121935152Y-53904848D01*
X121538217Y-53639625D01*
X121188188Y-53570000D01*
X120951812Y-53570000D01*
X120601783Y-53639625D01*
X120204848Y-53904848D01*
X119939625Y-54301783D01*
X119877124Y-54615998D01*
X119746201Y-54615998D01*
X119830597Y-54408086D01*
X119593096Y-53937918D01*
X119193749Y-53594427D01*
X118891912Y-53469415D01*
X118684002Y-53554718D01*
X118684002Y-53422876D01*
X118998217Y-53360375D01*
X119395152Y-53095152D01*
X119660375Y-52698217D01*
X119753509Y-52230000D01*
X119846491Y-52230000D01*
X119939625Y-52698217D01*
X120204848Y-53095152D01*
X120601783Y-53360375D01*
X120951812Y-53430000D01*
X121188188Y-53430000D01*
X121538217Y-53360375D01*
X121935152Y-53095152D01*
X122200375Y-52698217D01*
X122262876Y-52384002D01*
X122393799Y-52384002D01*
X122309403Y-52591914D01*
X122546904Y-53062082D01*
X122946251Y-53405573D01*
X123248088Y-53530585D01*
X123455998Y-53445282D01*
X123455998Y-53577124D01*
X123141783Y-53639625D01*
X122744848Y-53904848D01*
X122479625Y-54301783D01*
X122386491Y-54770000D01*
X122479625Y-55238217D01*
X122744848Y-55635152D01*
X123141783Y-55900375D01*
X123491812Y-55970000D01*
X123728188Y-55970000D01*
X124078217Y-55900375D01*
X124475152Y-55635152D01*
X124740375Y-55238217D01*
X124833509Y-54770000D01*
X124740375Y-54301783D01*
X124475152Y-53904848D01*
X124078217Y-53639625D01*
X123764002Y-53577124D01*
X123764002Y-53445282D01*
X123971912Y-53530585D01*
X124273749Y-53405573D01*
X124673096Y-53062082D01*
X124910597Y-52591914D01*
X124826201Y-52384002D01*
X124957124Y-52384002D01*
X125019625Y-52698217D01*
X125284848Y-53095152D01*
X125681783Y-53360375D01*
X126031812Y-53430000D01*
X126268188Y-53430000D01*
X126618217Y-53360375D01*
X127015152Y-53095152D01*
X127280375Y-52698217D01*
X127373509Y-52230000D01*
X127280375Y-51761783D01*
X127015152Y-51364848D01*
X126618217Y-51099625D01*
X126268188Y-51030000D01*
X126031812Y-51030000D01*
X125681783Y-51099625D01*
X125284848Y-51364848D01*
X125019625Y-51761783D01*
X124957124Y-52075998D01*
X124826201Y-52075998D01*
X124910597Y-51868086D01*
X124673096Y-51397918D01*
X124273749Y-51054427D01*
X123971912Y-50929415D01*
X123764000Y-51014719D01*
X123764000Y-52076000D01*
X123784000Y-52076000D01*
X123784000Y-52384000D01*
X123764000Y-52384000D01*
X123764000Y-52404000D01*
X123456000Y-52404000D01*
X123456000Y-52384000D01*
X123436000Y-52384000D01*
X123436000Y-52076000D01*
X123456000Y-52076000D01*
X123456000Y-51014719D01*
X123248088Y-50929415D01*
X122946251Y-51054427D01*
X122546904Y-51397918D01*
X122309403Y-51868086D01*
X122393799Y-52075998D01*
X122262876Y-52075998D01*
X122200375Y-51761783D01*
X121935152Y-51364848D01*
X121538217Y-51099625D01*
X121188188Y-51030000D01*
X120951812Y-51030000D01*
X120601783Y-51099625D01*
X120204848Y-51364848D01*
X119939625Y-51761783D01*
X119846491Y-52230000D01*
X119753509Y-52230000D01*
X119660375Y-51761783D01*
X119395152Y-51364848D01*
X118998217Y-51099625D01*
X118648188Y-51030000D01*
X118411812Y-51030000D01*
X118061783Y-51099625D01*
X117664848Y-51364848D01*
X117399625Y-51761783D01*
X117306491Y-52230000D01*
X117399625Y-52698217D01*
X117664848Y-53095152D01*
X118061783Y-53360375D01*
X118375998Y-53422876D01*
X118375998Y-53554718D01*
X118168088Y-53469415D01*
X117866251Y-53594427D01*
X117466904Y-53937918D01*
X117229403Y-54408086D01*
X117313799Y-54615998D01*
X117182876Y-54615998D01*
X117120375Y-54301783D01*
X116855152Y-53904848D01*
X116458217Y-53639625D01*
X116108188Y-53570000D01*
X115871812Y-53570000D01*
X115521783Y-53639625D01*
X115124848Y-53904848D01*
X114859625Y-54301783D01*
X114766491Y-54770000D01*
X114673509Y-54770000D01*
X114580375Y-54301783D01*
X114315152Y-53904848D01*
X113918217Y-53639625D01*
X113604002Y-53577124D01*
X113604002Y-53445282D01*
X113811912Y-53530585D01*
X114113749Y-53405573D01*
X114513096Y-53062082D01*
X114750597Y-52591914D01*
X114666201Y-52384002D01*
X114797124Y-52384002D01*
X114859625Y-52698217D01*
X115124848Y-53095152D01*
X115521783Y-53360375D01*
X115871812Y-53430000D01*
X116108188Y-53430000D01*
X116458217Y-53360375D01*
X116855152Y-53095152D01*
X117120375Y-52698217D01*
X117213509Y-52230000D01*
X117120375Y-51761783D01*
X116855152Y-51364848D01*
X116458217Y-51099625D01*
X116108188Y-51030000D01*
X115871812Y-51030000D01*
X115521783Y-51099625D01*
X115506339Y-51109944D01*
X115069540Y-50673145D01*
X115044432Y-50635568D01*
X114895581Y-50536109D01*
X114764321Y-50510000D01*
X114764320Y-50510000D01*
X114720000Y-50501184D01*
X114675680Y-50510000D01*
X107144316Y-50510000D01*
X107099999Y-50501185D01*
X107055683Y-50510000D01*
X107055679Y-50510000D01*
X106924419Y-50536109D01*
X106775568Y-50635568D01*
X106750462Y-50673143D01*
X105543145Y-51880460D01*
X105505568Y-51905568D01*
X105406109Y-52054420D01*
X105401817Y-52076000D01*
X105371184Y-52230000D01*
X104698271Y-52230000D01*
X104385000Y-51967135D01*
X103807357Y-51756890D01*
X103192643Y-51756890D01*
X102615000Y-51967135D01*
X102144101Y-52362266D01*
X101836744Y-52894624D01*
X101730000Y-53500000D01*
X100377206Y-53500000D01*
X100450055Y-52829423D01*
X100665198Y-52190139D01*
X101012602Y-51611960D01*
X101476055Y-51121873D01*
X102033937Y-50742737D01*
X102660217Y-50492243D01*
X103340652Y-50379597D01*
X103505243Y-50375000D01*
X161479687Y-50375000D01*
X162170577Y-50450055D01*
G36*
X139004000Y-54616000D02*
X139024000Y-54616000D01*
X139024000Y-54924000D01*
X139004000Y-54924000D01*
X139004000Y-54944000D01*
X138696000Y-54944000D01*
X138696000Y-54924000D01*
X138676000Y-54924000D01*
X138676000Y-54616000D01*
X138696000Y-54616000D01*
X138696000Y-54596000D01*
X139004000Y-54596000D01*
X139004000Y-54616000D01*
X139004000Y-54616000D01*
G37*
X139004000Y-54616000D02*
X139024000Y-54616000D01*
X139024000Y-54924000D01*
X139004000Y-54924000D01*
X139004000Y-54944000D01*
X138696000Y-54944000D01*
X138696000Y-54924000D01*
X138676000Y-54924000D01*
X138676000Y-54616000D01*
X138696000Y-54616000D01*
X138696000Y-54596000D01*
X139004000Y-54596000D01*
X139004000Y-54616000D01*
G36*
X113604000Y-52076000D02*
X113624000Y-52076000D01*
X113624000Y-52384000D01*
X113604000Y-52384000D01*
X113604000Y-52404000D01*
X113296000Y-52404000D01*
X113296000Y-52384000D01*
X113276000Y-52384000D01*
X113276000Y-52076000D01*
X113296000Y-52076000D01*
X113296000Y-52056000D01*
X113604000Y-52056000D01*
X113604000Y-52076000D01*
X113604000Y-52076000D01*
G37*
X113604000Y-52076000D02*
X113624000Y-52076000D01*
X113624000Y-52384000D01*
X113604000Y-52384000D01*
X113604000Y-52404000D01*
X113296000Y-52404000D01*
X113296000Y-52384000D01*
X113276000Y-52384000D01*
X113276000Y-52076000D01*
X113296000Y-52076000D01*
X113296000Y-52056000D01*
X113604000Y-52056000D01*
X113604000Y-52076000D01*
G04 #@! TD*
M02*
