G04 #@! TF.GenerationSoftware,KiCad,Pcbnew,(5.0.2)*
G04 #@! TF.CreationDate,2020-11-06T15:24:57+00:00*
G04 #@! TF.ProjectId,alto,616c746f-2e6b-4696-9361-645f70636258,rev?*
G04 #@! TF.SameCoordinates,Original*
G04 #@! TF.FileFunction,Copper,L2,Bot*
G04 #@! TF.FilePolarity,Positive*
%FSLAX46Y46*%
G04 Gerber Fmt 4.6, Leading zero omitted, Abs format (unit mm)*
G04 Created by KiCad (PCBNEW (5.0.2)) date Fri 06 Nov 2020 15:24:57 GMT*
%MOMM*%
%LPD*%
G01*
G04 APERTURE LIST*
G04 #@! TA.AperFunction,NonConductor*
%ADD10C,0.150000*%
G04 #@! TD*
G04 #@! TA.AperFunction,ComponentPad*
%ADD11C,1.800000*%
G04 #@! TD*
G04 #@! TA.AperFunction,ComponentPad*
%ADD12R,1.800000X1.800000*%
G04 #@! TD*
G04 #@! TA.AperFunction,ComponentPad*
%ADD13O,1.700000X1.700000*%
G04 #@! TD*
G04 #@! TA.AperFunction,ComponentPad*
%ADD14R,1.700000X1.700000*%
G04 #@! TD*
G04 #@! TA.AperFunction,ComponentPad*
%ADD15R,1.998980X1.998980*%
G04 #@! TD*
G04 #@! TA.AperFunction,Conductor*
%ADD16C,0.600000*%
G04 #@! TD*
G04 #@! TA.AperFunction,Conductor*
%ADD17C,0.200000*%
G04 #@! TD*
G04 APERTURE END LIST*
D10*
X157000000Y-80000000D02*
X161500000Y-80000000D01*
X103500000Y-80000000D02*
X157000000Y-80000000D01*
X104875000Y-76500000D02*
G75*
G03X104875000Y-76500000I-1375000J0D01*
G01*
X162875000Y-76500000D02*
G75*
G03X162875000Y-76500000I-1375000J0D01*
G01*
X100000000Y-76500000D02*
X100000000Y-53500000D01*
X165000000Y-53500000D02*
X165000000Y-76500000D01*
X103500000Y-50000000D02*
X161500000Y-50000000D01*
X103500000Y-80000000D02*
G75*
G02X100000000Y-76500000I0J3500000D01*
G01*
X165000000Y-76500000D02*
G75*
G02X161500000Y-80000000I-3500000J0D01*
G01*
X100000000Y-53500000D02*
G75*
G02X103500000Y-50000000I3500000J0D01*
G01*
X161500000Y-50000000D02*
G75*
G02X165000000Y-53500000I0J-3500000D01*
G01*
X162875000Y-53500000D02*
G75*
G03X162875000Y-53500000I-1375000J0D01*
G01*
X104875000Y-53500000D02*
G75*
G03X104875000Y-53500000I-1375000J0D01*
G01*
D11*
G04 #@! TO.P,J5,2*
G04 #@! TO.N,Net-(J5-Pad2)*
X155360000Y-76360000D03*
D12*
G04 #@! TO.P,J5,1*
G04 #@! TO.N,GND*
X152820000Y-76360000D03*
G04 #@! TD*
D13*
G04 #@! TO.P,J4,2*
G04 #@! TO.N,Net-(J4-Pad2)*
X145200000Y-78900000D03*
D14*
G04 #@! TO.P,J4,1*
G04 #@! TO.N,GND*
X142660000Y-78900000D03*
G04 #@! TD*
D13*
G04 #@! TO.P,J3,2*
G04 #@! TO.N,Net-(J3-Pad2)*
X140120000Y-78900000D03*
D14*
G04 #@! TO.P,J3,1*
G04 #@! TO.N,GND*
X137580000Y-78900000D03*
G04 #@! TD*
D13*
G04 #@! TO.P,J6,2*
G04 #@! TO.N,/VBUS*
X102020000Y-68740000D03*
D14*
G04 #@! TO.P,J6,1*
G04 #@! TO.N,GND*
X102020000Y-71280000D03*
G04 #@! TD*
G04 #@! TO.P,PI1,1*
G04 #@! TO.N,Net-(PI1-Pad1)*
X108370000Y-54770000D03*
D13*
G04 #@! TO.P,PI1,2*
G04 #@! TO.N,/5V*
X108370000Y-52230000D03*
G04 #@! TO.P,PI1,3*
G04 #@! TO.N,/SDA*
X110910000Y-54770000D03*
G04 #@! TO.P,PI1,4*
G04 #@! TO.N,/5V*
X110910000Y-52230000D03*
G04 #@! TO.P,PI1,5*
G04 #@! TO.N,/SCL*
X113450000Y-54770000D03*
G04 #@! TO.P,PI1,6*
G04 #@! TO.N,GND*
X113450000Y-52230000D03*
G04 #@! TO.P,PI1,7*
G04 #@! TO.N,Net-(PI1-Pad7)*
X115990000Y-54770000D03*
G04 #@! TO.P,PI1,8*
G04 #@! TO.N,/TX*
X115990000Y-52230000D03*
G04 #@! TO.P,PI1,9*
G04 #@! TO.N,GND*
X118530000Y-54770000D03*
G04 #@! TO.P,PI1,10*
G04 #@! TO.N,/RX*
X118530000Y-52230000D03*
G04 #@! TO.P,PI1,11*
G04 #@! TO.N,Net-(PI1-Pad11)*
X121070000Y-54770000D03*
G04 #@! TO.P,PI1,12*
G04 #@! TO.N,Net-(PI1-Pad12)*
X121070000Y-52230000D03*
G04 #@! TO.P,PI1,13*
G04 #@! TO.N,Net-(PI1-Pad13)*
X123610000Y-54770000D03*
G04 #@! TO.P,PI1,14*
G04 #@! TO.N,GND*
X123610000Y-52230000D03*
G04 #@! TO.P,PI1,15*
G04 #@! TO.N,Net-(PI1-Pad15)*
X126150000Y-54770000D03*
G04 #@! TO.P,PI1,16*
G04 #@! TO.N,Net-(PI1-Pad16)*
X126150000Y-52230000D03*
G04 #@! TO.P,PI1,17*
G04 #@! TO.N,/3.3V*
X128690000Y-54770000D03*
G04 #@! TO.P,PI1,18*
G04 #@! TO.N,Net-(PI1-Pad18)*
X128690000Y-52230000D03*
G04 #@! TO.P,PI1,19*
G04 #@! TO.N,/MOSI*
X131230000Y-54770000D03*
G04 #@! TO.P,PI1,20*
G04 #@! TO.N,GND*
X131230000Y-52230000D03*
G04 #@! TO.P,PI1,21*
G04 #@! TO.N,/MISO*
X133770000Y-54770000D03*
G04 #@! TO.P,PI1,22*
G04 #@! TO.N,Net-(PI1-Pad22)*
X133770000Y-52230000D03*
G04 #@! TO.P,PI1,23*
G04 #@! TO.N,/CLK*
X136310000Y-54770000D03*
G04 #@! TO.P,PI1,24*
G04 #@! TO.N,Net-(PI1-Pad24)*
X136310000Y-52230000D03*
G04 #@! TO.P,PI1,25*
G04 #@! TO.N,GND*
X138850000Y-54770000D03*
G04 #@! TO.P,PI1,26*
G04 #@! TO.N,Net-(PI1-Pad26)*
X138850000Y-52230000D03*
G04 #@! TO.P,PI1,27*
G04 #@! TO.N,Net-(PI1-Pad27)*
X141390000Y-54770000D03*
G04 #@! TO.P,PI1,28*
G04 #@! TO.N,Net-(PI1-Pad28)*
X141390000Y-52230000D03*
G04 #@! TO.P,PI1,29*
G04 #@! TO.N,Net-(PI1-Pad29)*
X143930000Y-54770000D03*
G04 #@! TO.P,PI1,30*
G04 #@! TO.N,GND*
X143930000Y-52230000D03*
G04 #@! TO.P,PI1,31*
G04 #@! TO.N,Net-(PI1-Pad31)*
X146470000Y-54770000D03*
G04 #@! TO.P,PI1,32*
G04 #@! TO.N,Net-(PI1-Pad32)*
X146470000Y-52230000D03*
G04 #@! TO.P,PI1,33*
G04 #@! TO.N,/GPIO13*
X149010000Y-54770000D03*
G04 #@! TO.P,PI1,34*
G04 #@! TO.N,GND*
X149010000Y-52230000D03*
G04 #@! TO.P,PI1,35*
G04 #@! TO.N,/GPIO19*
X151550000Y-54770000D03*
G04 #@! TO.P,PI1,36*
G04 #@! TO.N,Net-(PI1-Pad36)*
X151550000Y-52230000D03*
G04 #@! TO.P,PI1,37*
G04 #@! TO.N,/GPIO26*
X154090000Y-54770000D03*
G04 #@! TO.P,PI1,38*
G04 #@! TO.N,Net-(PI1-Pad38)*
X154090000Y-52230000D03*
G04 #@! TO.P,PI1,39*
G04 #@! TO.N,GND*
X156630000Y-54770000D03*
G04 #@! TO.P,PI1,40*
G04 #@! TO.N,Net-(PI1-Pad40)*
X156630000Y-52230000D03*
G04 #@! TD*
G04 #@! TO.P,J1,3*
G04 #@! TO.N,Net-(J1-Pad3)*
X127420000Y-78900000D03*
G04 #@! TO.P,J1,2*
G04 #@! TO.N,/VBUS*
X124880000Y-78900000D03*
D14*
G04 #@! TO.P,J1,1*
G04 #@! TO.N,GND*
X122340000Y-78900000D03*
G04 #@! TD*
D13*
G04 #@! TO.P,J2,3*
G04 #@! TO.N,Net-(J2-Pad3)*
X135040000Y-78900000D03*
G04 #@! TO.P,J2,2*
G04 #@! TO.N,/VBUS*
X132500000Y-78900000D03*
D14*
G04 #@! TO.P,J2,1*
G04 #@! TO.N,GND*
X129960000Y-78900000D03*
G04 #@! TD*
D13*
G04 #@! TO.P,J7,3*
G04 #@! TO.N,/VBUS*
X109640000Y-73820000D03*
G04 #@! TO.P,J7,2*
G04 #@! TO.N,GND*
X109640000Y-71280000D03*
D14*
G04 #@! TO.P,J7,1*
G04 #@! TO.N,/5V*
X109640000Y-68740000D03*
G04 #@! TD*
D15*
G04 #@! TO.P,R3,2*
G04 #@! TO.N,Net-(PI1-Pad29)*
X140120000Y-62341740D03*
G04 #@! TO.P,R3,1*
G04 #@! TO.N,Net-(J3-Pad2)*
X140120000Y-72344260D03*
G04 #@! TD*
G04 #@! TO.P,R5,1*
G04 #@! TO.N,Net-(J5-Pad2)*
X150280000Y-72471260D03*
G04 #@! TO.P,R5,2*
G04 #@! TO.N,Net-(PI1-Pad36)*
X150280000Y-62468740D03*
G04 #@! TD*
G04 #@! TO.P,R4,1*
G04 #@! TO.N,Net-(J4-Pad2)*
X145200000Y-72550000D03*
G04 #@! TO.P,R4,2*
G04 #@! TO.N,Net-(PI1-Pad31)*
X145200000Y-62547480D03*
G04 #@! TD*
G04 #@! TO.P,R1,2*
G04 #@! TO.N,Net-(PI1-Pad18)*
X129960000Y-62341740D03*
G04 #@! TO.P,R1,1*
G04 #@! TO.N,Net-(J1-Pad3)*
X129960000Y-72344260D03*
G04 #@! TD*
G04 #@! TO.P,R2,1*
G04 #@! TO.N,Net-(J2-Pad3)*
X135040000Y-72344260D03*
G04 #@! TO.P,R2,2*
G04 #@! TO.N,Net-(PI1-Pad22)*
X135040000Y-62341740D03*
G04 #@! TD*
D13*
G04 #@! TO.P,J10,3*
G04 #@! TO.N,/CLK*
X142660000Y-57945000D03*
G04 #@! TO.P,J10,2*
G04 #@! TO.N,/MISO*
X140120000Y-57945000D03*
D14*
G04 #@! TO.P,J10,1*
G04 #@! TO.N,/MOSI*
X137580000Y-57945000D03*
G04 #@! TD*
G04 #@! TO.P,J11,1*
G04 #@! TO.N,/GPIO13*
X152820000Y-57945000D03*
D13*
G04 #@! TO.P,J11,2*
G04 #@! TO.N,/GPIO19*
X155360000Y-57945000D03*
G04 #@! TO.P,J11,3*
G04 #@! TO.N,/GPIO26*
X157900000Y-57945000D03*
G04 #@! TD*
D14*
G04 #@! TO.P,J12,1*
G04 #@! TO.N,GND*
X162980000Y-71280000D03*
D13*
G04 #@! TO.P,J12,2*
G04 #@! TO.N,/3.3V*
X162980000Y-68740000D03*
G04 #@! TO.P,J12,3*
G04 #@! TO.N,/5V*
X162980000Y-66200000D03*
G04 #@! TD*
G04 #@! TO.P,J8,3*
G04 #@! TO.N,GND*
X112180000Y-57945000D03*
G04 #@! TO.P,J8,2*
G04 #@! TO.N,/RX*
X109640000Y-57945000D03*
D14*
G04 #@! TO.P,J8,1*
G04 #@! TO.N,/TX*
X107100000Y-57945000D03*
G04 #@! TD*
G04 #@! TO.P,J9,1*
G04 #@! TO.N,/SDA*
X122340000Y-57945000D03*
D13*
G04 #@! TO.P,J9,2*
G04 #@! TO.N,/SCL*
X124880000Y-57945000D03*
G04 #@! TO.P,J9,3*
G04 #@! TO.N,GND*
X127420000Y-57945000D03*
G04 #@! TD*
D16*
G04 #@! TO.N,/VBUS*
X104560000Y-68740000D02*
X109640000Y-73820000D01*
X102020000Y-68740000D02*
X104560000Y-68740000D01*
X123610000Y-77630000D02*
X123610000Y-77499999D01*
X124880000Y-78900000D02*
X123610000Y-77630000D01*
X112180000Y-76360000D02*
X110489999Y-74669999D01*
X122470001Y-76360000D02*
X112180000Y-76360000D01*
X110489999Y-74669999D02*
X109640000Y-73820000D01*
X123610000Y-77499999D02*
X122470001Y-76360000D01*
X124749999Y-76360000D02*
X122340000Y-76360000D01*
X129960000Y-76360000D02*
X124749999Y-76360000D01*
X132500000Y-78900000D02*
X129960000Y-76360000D01*
D17*
G04 #@! TO.N,/RX*
X109640000Y-56742919D02*
X109640000Y-57945000D01*
X118530000Y-52230000D02*
X117260000Y-53500000D01*
X109640000Y-54263998D02*
X109640000Y-56742919D01*
X117260000Y-53500000D02*
X110403998Y-53500000D01*
X110403998Y-53500000D02*
X109640000Y-54263998D01*
G04 #@! TO.N,/3.3V*
X163829999Y-67890001D02*
X162980000Y-68740000D01*
X164250000Y-67470000D02*
X163829999Y-67890001D01*
X164250000Y-53500000D02*
X164250000Y-67470000D01*
X161710000Y-50960000D02*
X164250000Y-53500000D01*
X128690000Y-54770000D02*
X129890001Y-53569999D01*
X129890001Y-51793997D02*
X130723998Y-50960000D01*
X129890001Y-53569999D02*
X129890001Y-51793997D01*
X130723998Y-50960000D02*
X161710000Y-50960000D01*
G04 #@! TD*
G04 #@! TO.N,/5V*
G36*
X162170577Y-50450055D02*
X162809861Y-50665198D01*
X163388040Y-51012602D01*
X163878127Y-51476055D01*
X164257263Y-52033937D01*
X164507757Y-52660217D01*
X164599213Y-53212656D01*
X164574432Y-53175568D01*
X164536858Y-53150462D01*
X162059540Y-50673145D01*
X162034432Y-50635568D01*
X161885581Y-50536109D01*
X161754321Y-50510000D01*
X161754320Y-50510000D01*
X161710000Y-50501184D01*
X161665680Y-50510000D01*
X130768318Y-50510000D01*
X130723998Y-50501184D01*
X130679678Y-50510000D01*
X130679677Y-50510000D01*
X130548417Y-50536109D01*
X130399566Y-50635568D01*
X130374459Y-50673143D01*
X129606263Y-51441340D01*
X129555152Y-51364848D01*
X129158217Y-51099625D01*
X128808188Y-51030000D01*
X128571812Y-51030000D01*
X128221783Y-51099625D01*
X127824848Y-51364848D01*
X127559625Y-51761783D01*
X127466491Y-52230000D01*
X127559625Y-52698217D01*
X127824848Y-53095152D01*
X128221783Y-53360375D01*
X128571812Y-53430000D01*
X128808188Y-53430000D01*
X129158217Y-53360375D01*
X129440001Y-53172093D01*
X129440001Y-53383603D01*
X129173660Y-53649944D01*
X129158217Y-53639625D01*
X128808188Y-53570000D01*
X128571812Y-53570000D01*
X128221783Y-53639625D01*
X127824848Y-53904848D01*
X127559625Y-54301783D01*
X127466491Y-54770000D01*
X127559625Y-55238217D01*
X127824848Y-55635152D01*
X128221783Y-55900375D01*
X128571812Y-55970000D01*
X128808188Y-55970000D01*
X129158217Y-55900375D01*
X129555152Y-55635152D01*
X129820375Y-55238217D01*
X129913509Y-54770000D01*
X130006491Y-54770000D01*
X130099625Y-55238217D01*
X130364848Y-55635152D01*
X130761783Y-55900375D01*
X131111812Y-55970000D01*
X131348188Y-55970000D01*
X131698217Y-55900375D01*
X132095152Y-55635152D01*
X132360375Y-55238217D01*
X132453509Y-54770000D01*
X132546491Y-54770000D01*
X132639625Y-55238217D01*
X132904848Y-55635152D01*
X133301783Y-55900375D01*
X133651812Y-55970000D01*
X133888188Y-55970000D01*
X134238217Y-55900375D01*
X134635152Y-55635152D01*
X134900375Y-55238217D01*
X134993509Y-54770000D01*
X135086491Y-54770000D01*
X135179625Y-55238217D01*
X135444848Y-55635152D01*
X135841783Y-55900375D01*
X136191812Y-55970000D01*
X136428188Y-55970000D01*
X136778217Y-55900375D01*
X137175152Y-55635152D01*
X137440375Y-55238217D01*
X137533509Y-54770000D01*
X137626491Y-54770000D01*
X137719625Y-55238217D01*
X137984848Y-55635152D01*
X138381783Y-55900375D01*
X138731812Y-55970000D01*
X138968188Y-55970000D01*
X139318217Y-55900375D01*
X139715152Y-55635152D01*
X139980375Y-55238217D01*
X140073509Y-54770000D01*
X140166491Y-54770000D01*
X140259625Y-55238217D01*
X140524848Y-55635152D01*
X140921783Y-55900375D01*
X141271812Y-55970000D01*
X141508188Y-55970000D01*
X141858217Y-55900375D01*
X142255152Y-55635152D01*
X142520375Y-55238217D01*
X142613509Y-54770000D01*
X142706491Y-54770000D01*
X142799625Y-55238217D01*
X143064848Y-55635152D01*
X143461783Y-55900375D01*
X143811812Y-55970000D01*
X144048188Y-55970000D01*
X144398217Y-55900375D01*
X144795152Y-55635152D01*
X145060375Y-55238217D01*
X145153509Y-54770000D01*
X145246491Y-54770000D01*
X145339625Y-55238217D01*
X145604848Y-55635152D01*
X146001783Y-55900375D01*
X146351812Y-55970000D01*
X146588188Y-55970000D01*
X146938217Y-55900375D01*
X147335152Y-55635152D01*
X147600375Y-55238217D01*
X147693509Y-54770000D01*
X147786491Y-54770000D01*
X147879625Y-55238217D01*
X148144848Y-55635152D01*
X148541783Y-55900375D01*
X148891812Y-55970000D01*
X149128188Y-55970000D01*
X149478217Y-55900375D01*
X149875152Y-55635152D01*
X150140375Y-55238217D01*
X150233509Y-54770000D01*
X150326491Y-54770000D01*
X150419625Y-55238217D01*
X150684848Y-55635152D01*
X151081783Y-55900375D01*
X151431812Y-55970000D01*
X151668188Y-55970000D01*
X152018217Y-55900375D01*
X152415152Y-55635152D01*
X152680375Y-55238217D01*
X152773509Y-54770000D01*
X152866491Y-54770000D01*
X152959625Y-55238217D01*
X153224848Y-55635152D01*
X153621783Y-55900375D01*
X153971812Y-55970000D01*
X154208188Y-55970000D01*
X154558217Y-55900375D01*
X154955152Y-55635152D01*
X155220375Y-55238217D01*
X155313509Y-54770000D01*
X155406491Y-54770000D01*
X155499625Y-55238217D01*
X155764848Y-55635152D01*
X156161783Y-55900375D01*
X156511812Y-55970000D01*
X156748188Y-55970000D01*
X157098217Y-55900375D01*
X157495152Y-55635152D01*
X157760375Y-55238217D01*
X157853509Y-54770000D01*
X157760375Y-54301783D01*
X157495152Y-53904848D01*
X157098217Y-53639625D01*
X156748188Y-53570000D01*
X156511812Y-53570000D01*
X156161783Y-53639625D01*
X155764848Y-53904848D01*
X155499625Y-54301783D01*
X155406491Y-54770000D01*
X155313509Y-54770000D01*
X155220375Y-54301783D01*
X154955152Y-53904848D01*
X154558217Y-53639625D01*
X154208188Y-53570000D01*
X153971812Y-53570000D01*
X153621783Y-53639625D01*
X153224848Y-53904848D01*
X152959625Y-54301783D01*
X152866491Y-54770000D01*
X152773509Y-54770000D01*
X152680375Y-54301783D01*
X152415152Y-53904848D01*
X152018217Y-53639625D01*
X151668188Y-53570000D01*
X151431812Y-53570000D01*
X151081783Y-53639625D01*
X150684848Y-53904848D01*
X150419625Y-54301783D01*
X150326491Y-54770000D01*
X150233509Y-54770000D01*
X150140375Y-54301783D01*
X149875152Y-53904848D01*
X149478217Y-53639625D01*
X149128188Y-53570000D01*
X148891812Y-53570000D01*
X148541783Y-53639625D01*
X148144848Y-53904848D01*
X147879625Y-54301783D01*
X147786491Y-54770000D01*
X147693509Y-54770000D01*
X147600375Y-54301783D01*
X147335152Y-53904848D01*
X146938217Y-53639625D01*
X146588188Y-53570000D01*
X146351812Y-53570000D01*
X146001783Y-53639625D01*
X145604848Y-53904848D01*
X145339625Y-54301783D01*
X145246491Y-54770000D01*
X145153509Y-54770000D01*
X145060375Y-54301783D01*
X144795152Y-53904848D01*
X144398217Y-53639625D01*
X144048188Y-53570000D01*
X143811812Y-53570000D01*
X143461783Y-53639625D01*
X143064848Y-53904848D01*
X142799625Y-54301783D01*
X142706491Y-54770000D01*
X142613509Y-54770000D01*
X142520375Y-54301783D01*
X142255152Y-53904848D01*
X141858217Y-53639625D01*
X141508188Y-53570000D01*
X141271812Y-53570000D01*
X140921783Y-53639625D01*
X140524848Y-53904848D01*
X140259625Y-54301783D01*
X140166491Y-54770000D01*
X140073509Y-54770000D01*
X139980375Y-54301783D01*
X139715152Y-53904848D01*
X139318217Y-53639625D01*
X138968188Y-53570000D01*
X138731812Y-53570000D01*
X138381783Y-53639625D01*
X137984848Y-53904848D01*
X137719625Y-54301783D01*
X137626491Y-54770000D01*
X137533509Y-54770000D01*
X137440375Y-54301783D01*
X137175152Y-53904848D01*
X136778217Y-53639625D01*
X136428188Y-53570000D01*
X136191812Y-53570000D01*
X135841783Y-53639625D01*
X135444848Y-53904848D01*
X135179625Y-54301783D01*
X135086491Y-54770000D01*
X134993509Y-54770000D01*
X134900375Y-54301783D01*
X134635152Y-53904848D01*
X134238217Y-53639625D01*
X133888188Y-53570000D01*
X133651812Y-53570000D01*
X133301783Y-53639625D01*
X132904848Y-53904848D01*
X132639625Y-54301783D01*
X132546491Y-54770000D01*
X132453509Y-54770000D01*
X132360375Y-54301783D01*
X132095152Y-53904848D01*
X131698217Y-53639625D01*
X131348188Y-53570000D01*
X131111812Y-53570000D01*
X130761783Y-53639625D01*
X130364848Y-53904848D01*
X130099625Y-54301783D01*
X130006491Y-54770000D01*
X129913509Y-54770000D01*
X129820375Y-54301783D01*
X129810056Y-54286340D01*
X130176859Y-53919537D01*
X130214433Y-53894431D01*
X130313892Y-53745580D01*
X130340001Y-53614320D01*
X130340001Y-53614319D01*
X130348817Y-53569999D01*
X130340001Y-53525679D01*
X130340001Y-53057966D01*
X130364848Y-53095152D01*
X130761783Y-53360375D01*
X131111812Y-53430000D01*
X131348188Y-53430000D01*
X131698217Y-53360375D01*
X132095152Y-53095152D01*
X132360375Y-52698217D01*
X132453509Y-52230000D01*
X132360375Y-51761783D01*
X132125322Y-51410000D01*
X132874678Y-51410000D01*
X132639625Y-51761783D01*
X132546491Y-52230000D01*
X132639625Y-52698217D01*
X132904848Y-53095152D01*
X133301783Y-53360375D01*
X133651812Y-53430000D01*
X133888188Y-53430000D01*
X134238217Y-53360375D01*
X134635152Y-53095152D01*
X134900375Y-52698217D01*
X134993509Y-52230000D01*
X134900375Y-51761783D01*
X134665322Y-51410000D01*
X135414678Y-51410000D01*
X135179625Y-51761783D01*
X135086491Y-52230000D01*
X135179625Y-52698217D01*
X135444848Y-53095152D01*
X135841783Y-53360375D01*
X136191812Y-53430000D01*
X136428188Y-53430000D01*
X136778217Y-53360375D01*
X137175152Y-53095152D01*
X137440375Y-52698217D01*
X137533509Y-52230000D01*
X137440375Y-51761783D01*
X137205322Y-51410000D01*
X137954678Y-51410000D01*
X137719625Y-51761783D01*
X137626491Y-52230000D01*
X137719625Y-52698217D01*
X137984848Y-53095152D01*
X138381783Y-53360375D01*
X138731812Y-53430000D01*
X138968188Y-53430000D01*
X139318217Y-53360375D01*
X139715152Y-53095152D01*
X139980375Y-52698217D01*
X140073509Y-52230000D01*
X139980375Y-51761783D01*
X139745322Y-51410000D01*
X140494678Y-51410000D01*
X140259625Y-51761783D01*
X140166491Y-52230000D01*
X140259625Y-52698217D01*
X140524848Y-53095152D01*
X140921783Y-53360375D01*
X141271812Y-53430000D01*
X141508188Y-53430000D01*
X141858217Y-53360375D01*
X142255152Y-53095152D01*
X142520375Y-52698217D01*
X142613509Y-52230000D01*
X142520375Y-51761783D01*
X142285322Y-51410000D01*
X143034678Y-51410000D01*
X142799625Y-51761783D01*
X142706491Y-52230000D01*
X142799625Y-52698217D01*
X143064848Y-53095152D01*
X143461783Y-53360375D01*
X143811812Y-53430000D01*
X144048188Y-53430000D01*
X144398217Y-53360375D01*
X144795152Y-53095152D01*
X145060375Y-52698217D01*
X145153509Y-52230000D01*
X145060375Y-51761783D01*
X144825322Y-51410000D01*
X145574678Y-51410000D01*
X145339625Y-51761783D01*
X145246491Y-52230000D01*
X145339625Y-52698217D01*
X145604848Y-53095152D01*
X146001783Y-53360375D01*
X146351812Y-53430000D01*
X146588188Y-53430000D01*
X146938217Y-53360375D01*
X147335152Y-53095152D01*
X147600375Y-52698217D01*
X147693509Y-52230000D01*
X147600375Y-51761783D01*
X147365322Y-51410000D01*
X148114678Y-51410000D01*
X147879625Y-51761783D01*
X147786491Y-52230000D01*
X147879625Y-52698217D01*
X148144848Y-53095152D01*
X148541783Y-53360375D01*
X148891812Y-53430000D01*
X149128188Y-53430000D01*
X149478217Y-53360375D01*
X149875152Y-53095152D01*
X150140375Y-52698217D01*
X150233509Y-52230000D01*
X150140375Y-51761783D01*
X149905322Y-51410000D01*
X150654678Y-51410000D01*
X150419625Y-51761783D01*
X150326491Y-52230000D01*
X150419625Y-52698217D01*
X150684848Y-53095152D01*
X151081783Y-53360375D01*
X151431812Y-53430000D01*
X151668188Y-53430000D01*
X152018217Y-53360375D01*
X152415152Y-53095152D01*
X152680375Y-52698217D01*
X152773509Y-52230000D01*
X152680375Y-51761783D01*
X152445322Y-51410000D01*
X153194678Y-51410000D01*
X152959625Y-51761783D01*
X152866491Y-52230000D01*
X152959625Y-52698217D01*
X153224848Y-53095152D01*
X153621783Y-53360375D01*
X153971812Y-53430000D01*
X154208188Y-53430000D01*
X154558217Y-53360375D01*
X154955152Y-53095152D01*
X155220375Y-52698217D01*
X155313509Y-52230000D01*
X155220375Y-51761783D01*
X154985322Y-51410000D01*
X155734678Y-51410000D01*
X155499625Y-51761783D01*
X155406491Y-52230000D01*
X155499625Y-52698217D01*
X155764848Y-53095152D01*
X156161783Y-53360375D01*
X156511812Y-53430000D01*
X156748188Y-53430000D01*
X157098217Y-53360375D01*
X157495152Y-53095152D01*
X157760375Y-52698217D01*
X157853509Y-52230000D01*
X157760375Y-51761783D01*
X157525322Y-51410000D01*
X161523605Y-51410000D01*
X161906626Y-51793021D01*
X161807357Y-51756890D01*
X161192643Y-51756890D01*
X160615000Y-51967135D01*
X160144101Y-52362266D01*
X159836744Y-52894624D01*
X159730000Y-53500000D01*
X159836744Y-54105376D01*
X160144101Y-54637734D01*
X160615000Y-55032865D01*
X161192643Y-55243110D01*
X161807357Y-55243110D01*
X162385000Y-55032865D01*
X162855899Y-54637734D01*
X163163256Y-54105376D01*
X163270000Y-53500000D01*
X163196443Y-53082839D01*
X163800000Y-53686396D01*
X163800001Y-65130801D01*
X163341914Y-64899403D01*
X163134000Y-64983800D01*
X163134000Y-66046000D01*
X163154000Y-66046000D01*
X163154000Y-66354000D01*
X163134000Y-66354000D01*
X163134000Y-66374000D01*
X162826000Y-66374000D01*
X162826000Y-66354000D01*
X161764719Y-66354000D01*
X161679415Y-66561912D01*
X161804427Y-66863749D01*
X162147918Y-67263096D01*
X162618086Y-67500597D01*
X162825998Y-67416201D01*
X162825998Y-67547124D01*
X162511783Y-67609625D01*
X162114848Y-67874848D01*
X161849625Y-68271783D01*
X161756491Y-68740000D01*
X161849625Y-69208217D01*
X162114848Y-69605152D01*
X162511783Y-69870375D01*
X162861812Y-69940000D01*
X163098188Y-69940000D01*
X163448217Y-69870375D01*
X163845152Y-69605152D01*
X164110375Y-69208217D01*
X164203509Y-68740000D01*
X164110375Y-68271783D01*
X164100056Y-68256340D01*
X164179536Y-68176860D01*
X164179538Y-68176857D01*
X164536857Y-67819539D01*
X164574432Y-67794432D01*
X164625001Y-67718751D01*
X164625001Y-76479678D01*
X164549945Y-77170577D01*
X164334802Y-77809861D01*
X163987400Y-78388037D01*
X163523947Y-78878126D01*
X162966063Y-79257263D01*
X162339780Y-79507759D01*
X161659348Y-79620403D01*
X161494757Y-79625000D01*
X146158798Y-79625000D01*
X146330375Y-79368217D01*
X146423509Y-78900000D01*
X146330375Y-78431783D01*
X146065152Y-78034848D01*
X145668217Y-77769625D01*
X145318188Y-77700000D01*
X145081812Y-77700000D01*
X144731783Y-77769625D01*
X144334848Y-78034848D01*
X144069625Y-78431783D01*
X143976491Y-78900000D01*
X144069625Y-79368217D01*
X144241202Y-79625000D01*
X143866856Y-79625000D01*
X143866856Y-78050000D01*
X143839692Y-77913437D01*
X143762335Y-77797665D01*
X143646563Y-77720308D01*
X143510000Y-77693144D01*
X141810000Y-77693144D01*
X141673437Y-77720308D01*
X141557665Y-77797665D01*
X141480308Y-77913437D01*
X141453144Y-78050000D01*
X141453144Y-79625000D01*
X141078798Y-79625000D01*
X141250375Y-79368217D01*
X141343509Y-78900000D01*
X141250375Y-78431783D01*
X140985152Y-78034848D01*
X140588217Y-77769625D01*
X140238188Y-77700000D01*
X140001812Y-77700000D01*
X139651783Y-77769625D01*
X139254848Y-78034848D01*
X138989625Y-78431783D01*
X138896491Y-78900000D01*
X138989625Y-79368217D01*
X139161202Y-79625000D01*
X138786856Y-79625000D01*
X138786856Y-78050000D01*
X138759692Y-77913437D01*
X138682335Y-77797665D01*
X138566563Y-77720308D01*
X138430000Y-77693144D01*
X136730000Y-77693144D01*
X136593437Y-77720308D01*
X136477665Y-77797665D01*
X136400308Y-77913437D01*
X136373144Y-78050000D01*
X136373144Y-79625000D01*
X135998798Y-79625000D01*
X136170375Y-79368217D01*
X136263509Y-78900000D01*
X136170375Y-78431783D01*
X135905152Y-78034848D01*
X135508217Y-77769625D01*
X135158188Y-77700000D01*
X134921812Y-77700000D01*
X134571783Y-77769625D01*
X134174848Y-78034848D01*
X133909625Y-78431783D01*
X133816491Y-78900000D01*
X133909625Y-79368217D01*
X134081202Y-79625000D01*
X133458798Y-79625000D01*
X133630375Y-79368217D01*
X133723509Y-78900000D01*
X133630375Y-78431783D01*
X133365152Y-78034848D01*
X132968217Y-77769625D01*
X132618188Y-77700000D01*
X132381812Y-77700000D01*
X132246211Y-77726973D01*
X130464891Y-75945654D01*
X130428624Y-75891376D01*
X130213617Y-75747714D01*
X130024018Y-75710000D01*
X130024016Y-75710000D01*
X129960000Y-75697266D01*
X129895984Y-75710000D01*
X122534017Y-75710000D01*
X122470001Y-75697266D01*
X122405985Y-75710000D01*
X112449239Y-75710000D01*
X112199239Y-75460000D01*
X151563144Y-75460000D01*
X151563144Y-77260000D01*
X151590308Y-77396563D01*
X151667665Y-77512335D01*
X151783437Y-77589692D01*
X151920000Y-77616856D01*
X153720000Y-77616856D01*
X153856563Y-77589692D01*
X153972335Y-77512335D01*
X154049692Y-77396563D01*
X154076856Y-77260000D01*
X154076856Y-76111360D01*
X154110000Y-76111360D01*
X154110000Y-76608640D01*
X154300301Y-77068068D01*
X154651932Y-77419699D01*
X155111360Y-77610000D01*
X155608640Y-77610000D01*
X156068068Y-77419699D01*
X156419699Y-77068068D01*
X156610000Y-76608640D01*
X156610000Y-76500000D01*
X159730000Y-76500000D01*
X159836744Y-77105376D01*
X160144101Y-77637734D01*
X160615000Y-78032865D01*
X161192643Y-78243110D01*
X161807357Y-78243110D01*
X162385000Y-78032865D01*
X162855899Y-77637734D01*
X163163256Y-77105376D01*
X163270000Y-76500000D01*
X163163256Y-75894624D01*
X162855899Y-75362266D01*
X162385000Y-74967135D01*
X161807357Y-74756890D01*
X161192643Y-74756890D01*
X160615000Y-74967135D01*
X160144101Y-75362266D01*
X159836744Y-75894624D01*
X159730000Y-76500000D01*
X156610000Y-76500000D01*
X156610000Y-76111360D01*
X156419699Y-75651932D01*
X156068068Y-75300301D01*
X155608640Y-75110000D01*
X155111360Y-75110000D01*
X154651932Y-75300301D01*
X154300301Y-75651932D01*
X154110000Y-76111360D01*
X154076856Y-76111360D01*
X154076856Y-75460000D01*
X154049692Y-75323437D01*
X153972335Y-75207665D01*
X153856563Y-75130308D01*
X153720000Y-75103144D01*
X151920000Y-75103144D01*
X151783437Y-75130308D01*
X151667665Y-75207665D01*
X151590308Y-75323437D01*
X151563144Y-75460000D01*
X112199239Y-75460000D01*
X110994887Y-74255650D01*
X110994885Y-74255647D01*
X110813027Y-74073789D01*
X110863509Y-73820000D01*
X110770375Y-73351783D01*
X110505152Y-72954848D01*
X110108217Y-72689625D01*
X109758188Y-72620000D01*
X109521812Y-72620000D01*
X109386211Y-72646973D01*
X109104972Y-72365733D01*
X109171783Y-72410375D01*
X109521812Y-72480000D01*
X109758188Y-72480000D01*
X110108217Y-72410375D01*
X110505152Y-72145152D01*
X110770375Y-71748217D01*
X110850625Y-71344770D01*
X128603654Y-71344770D01*
X128603654Y-73343750D01*
X128630818Y-73480313D01*
X128708175Y-73596085D01*
X128823947Y-73673442D01*
X128960510Y-73700606D01*
X130959490Y-73700606D01*
X131096053Y-73673442D01*
X131211825Y-73596085D01*
X131289182Y-73480313D01*
X131316346Y-73343750D01*
X131316346Y-71344770D01*
X133683654Y-71344770D01*
X133683654Y-73343750D01*
X133710818Y-73480313D01*
X133788175Y-73596085D01*
X133903947Y-73673442D01*
X134040510Y-73700606D01*
X136039490Y-73700606D01*
X136176053Y-73673442D01*
X136291825Y-73596085D01*
X136369182Y-73480313D01*
X136396346Y-73343750D01*
X136396346Y-71344770D01*
X138763654Y-71344770D01*
X138763654Y-73343750D01*
X138790818Y-73480313D01*
X138868175Y-73596085D01*
X138983947Y-73673442D01*
X139120510Y-73700606D01*
X141119490Y-73700606D01*
X141256053Y-73673442D01*
X141371825Y-73596085D01*
X141449182Y-73480313D01*
X141476346Y-73343750D01*
X141476346Y-71550510D01*
X143843654Y-71550510D01*
X143843654Y-73549490D01*
X143870818Y-73686053D01*
X143948175Y-73801825D01*
X144063947Y-73879182D01*
X144200510Y-73906346D01*
X146199490Y-73906346D01*
X146336053Y-73879182D01*
X146451825Y-73801825D01*
X146529182Y-73686053D01*
X146556346Y-73549490D01*
X146556346Y-71550510D01*
X146540684Y-71471770D01*
X148923654Y-71471770D01*
X148923654Y-73470750D01*
X148950818Y-73607313D01*
X149028175Y-73723085D01*
X149143947Y-73800442D01*
X149280510Y-73827606D01*
X151279490Y-73827606D01*
X151416053Y-73800442D01*
X151531825Y-73723085D01*
X151609182Y-73607313D01*
X151636346Y-73470750D01*
X151636346Y-71471770D01*
X151609182Y-71335207D01*
X151531825Y-71219435D01*
X151416053Y-71142078D01*
X151279490Y-71114914D01*
X149280510Y-71114914D01*
X149143947Y-71142078D01*
X149028175Y-71219435D01*
X148950818Y-71335207D01*
X148923654Y-71471770D01*
X146540684Y-71471770D01*
X146529182Y-71413947D01*
X146451825Y-71298175D01*
X146336053Y-71220818D01*
X146199490Y-71193654D01*
X144200510Y-71193654D01*
X144063947Y-71220818D01*
X143948175Y-71298175D01*
X143870818Y-71413947D01*
X143843654Y-71550510D01*
X141476346Y-71550510D01*
X141476346Y-71344770D01*
X141449182Y-71208207D01*
X141371825Y-71092435D01*
X141256053Y-71015078D01*
X141119490Y-70987914D01*
X139120510Y-70987914D01*
X138983947Y-71015078D01*
X138868175Y-71092435D01*
X138790818Y-71208207D01*
X138763654Y-71344770D01*
X136396346Y-71344770D01*
X136369182Y-71208207D01*
X136291825Y-71092435D01*
X136176053Y-71015078D01*
X136039490Y-70987914D01*
X134040510Y-70987914D01*
X133903947Y-71015078D01*
X133788175Y-71092435D01*
X133710818Y-71208207D01*
X133683654Y-71344770D01*
X131316346Y-71344770D01*
X131289182Y-71208207D01*
X131211825Y-71092435D01*
X131096053Y-71015078D01*
X130959490Y-70987914D01*
X128960510Y-70987914D01*
X128823947Y-71015078D01*
X128708175Y-71092435D01*
X128630818Y-71208207D01*
X128603654Y-71344770D01*
X110850625Y-71344770D01*
X110863509Y-71280000D01*
X110770375Y-70811783D01*
X110515277Y-70430000D01*
X161773144Y-70430000D01*
X161773144Y-72130000D01*
X161800308Y-72266563D01*
X161877665Y-72382335D01*
X161993437Y-72459692D01*
X162130000Y-72486856D01*
X163830000Y-72486856D01*
X163966563Y-72459692D01*
X164082335Y-72382335D01*
X164159692Y-72266563D01*
X164186856Y-72130000D01*
X164186856Y-70430000D01*
X164159692Y-70293437D01*
X164082335Y-70177665D01*
X163966563Y-70100308D01*
X163830000Y-70073144D01*
X162130000Y-70073144D01*
X161993437Y-70100308D01*
X161877665Y-70177665D01*
X161800308Y-70293437D01*
X161773144Y-70430000D01*
X110515277Y-70430000D01*
X110505152Y-70414848D01*
X110108217Y-70149625D01*
X109794002Y-70087124D01*
X109794002Y-69965002D01*
X109919000Y-70090000D01*
X110589456Y-70090000D01*
X110773227Y-70013880D01*
X110913879Y-69873227D01*
X110990000Y-69689456D01*
X110990000Y-69019000D01*
X110865000Y-68894000D01*
X109794000Y-68894000D01*
X109794000Y-68914000D01*
X109486000Y-68914000D01*
X109486000Y-68894000D01*
X108415000Y-68894000D01*
X108290000Y-69019000D01*
X108290000Y-69689456D01*
X108366121Y-69873227D01*
X108506773Y-70013880D01*
X108690544Y-70090000D01*
X109361000Y-70090000D01*
X109485998Y-69965002D01*
X109485998Y-70087124D01*
X109171783Y-70149625D01*
X108774848Y-70414848D01*
X108509625Y-70811783D01*
X108416491Y-71280000D01*
X108509625Y-71748217D01*
X108554267Y-71815029D01*
X105064891Y-68325654D01*
X105028624Y-68271376D01*
X104813617Y-68127714D01*
X104624018Y-68090000D01*
X104624016Y-68090000D01*
X104560000Y-68077266D01*
X104495984Y-68090000D01*
X103028912Y-68090000D01*
X102885152Y-67874848D01*
X102758982Y-67790544D01*
X108290000Y-67790544D01*
X108290000Y-68461000D01*
X108415000Y-68586000D01*
X109486000Y-68586000D01*
X109486000Y-67515000D01*
X109794000Y-67515000D01*
X109794000Y-68586000D01*
X110865000Y-68586000D01*
X110990000Y-68461000D01*
X110990000Y-67790544D01*
X110913879Y-67606773D01*
X110773227Y-67466120D01*
X110589456Y-67390000D01*
X109919000Y-67390000D01*
X109794000Y-67515000D01*
X109486000Y-67515000D01*
X109361000Y-67390000D01*
X108690544Y-67390000D01*
X108506773Y-67466120D01*
X108366121Y-67606773D01*
X108290000Y-67790544D01*
X102758982Y-67790544D01*
X102488217Y-67609625D01*
X102138188Y-67540000D01*
X101901812Y-67540000D01*
X101551783Y-67609625D01*
X101154848Y-67874848D01*
X100889625Y-68271783D01*
X100796491Y-68740000D01*
X100889625Y-69208217D01*
X101154848Y-69605152D01*
X101551783Y-69870375D01*
X101901812Y-69940000D01*
X102138188Y-69940000D01*
X102488217Y-69870375D01*
X102885152Y-69605152D01*
X103028912Y-69390000D01*
X104290763Y-69390000D01*
X108466973Y-73566211D01*
X108416491Y-73820000D01*
X108509625Y-74288217D01*
X108774848Y-74685152D01*
X109171783Y-74950375D01*
X109521812Y-75020000D01*
X109758188Y-75020000D01*
X109893789Y-74993027D01*
X110075647Y-75174885D01*
X110075650Y-75174887D01*
X111675112Y-76774351D01*
X111711376Y-76828624D01*
X111926383Y-76972286D01*
X112115982Y-77010000D01*
X112115983Y-77010000D01*
X112179999Y-77022734D01*
X112244016Y-77010000D01*
X122200764Y-77010000D01*
X122883907Y-77693144D01*
X121490000Y-77693144D01*
X121353437Y-77720308D01*
X121237665Y-77797665D01*
X121160308Y-77913437D01*
X121133144Y-78050000D01*
X121133144Y-79625000D01*
X103520313Y-79625000D01*
X102829423Y-79549945D01*
X102190139Y-79334802D01*
X101611963Y-78987400D01*
X101121874Y-78523947D01*
X100742737Y-77966063D01*
X100492241Y-77339780D01*
X100379597Y-76659348D01*
X100375147Y-76500000D01*
X101730000Y-76500000D01*
X101836744Y-77105376D01*
X102144101Y-77637734D01*
X102615000Y-78032865D01*
X103192643Y-78243110D01*
X103807357Y-78243110D01*
X104385000Y-78032865D01*
X104855899Y-77637734D01*
X105163256Y-77105376D01*
X105270000Y-76500000D01*
X105163256Y-75894624D01*
X104855899Y-75362266D01*
X104385000Y-74967135D01*
X103807357Y-74756890D01*
X103192643Y-74756890D01*
X102615000Y-74967135D01*
X102144101Y-75362266D01*
X101836744Y-75894624D01*
X101730000Y-76500000D01*
X100375147Y-76500000D01*
X100375000Y-76494757D01*
X100375000Y-70430000D01*
X100813144Y-70430000D01*
X100813144Y-72130000D01*
X100840308Y-72266563D01*
X100917665Y-72382335D01*
X101033437Y-72459692D01*
X101170000Y-72486856D01*
X102870000Y-72486856D01*
X103006563Y-72459692D01*
X103122335Y-72382335D01*
X103199692Y-72266563D01*
X103226856Y-72130000D01*
X103226856Y-70430000D01*
X103199692Y-70293437D01*
X103122335Y-70177665D01*
X103006563Y-70100308D01*
X102870000Y-70073144D01*
X101170000Y-70073144D01*
X101033437Y-70100308D01*
X100917665Y-70177665D01*
X100840308Y-70293437D01*
X100813144Y-70430000D01*
X100375000Y-70430000D01*
X100375000Y-65838088D01*
X161679415Y-65838088D01*
X161764719Y-66046000D01*
X162826000Y-66046000D01*
X162826000Y-64983800D01*
X162618086Y-64899403D01*
X162147918Y-65136904D01*
X161804427Y-65536251D01*
X161679415Y-65838088D01*
X100375000Y-65838088D01*
X100375000Y-61342250D01*
X128603654Y-61342250D01*
X128603654Y-63341230D01*
X128630818Y-63477793D01*
X128708175Y-63593565D01*
X128823947Y-63670922D01*
X128960510Y-63698086D01*
X130959490Y-63698086D01*
X131096053Y-63670922D01*
X131211825Y-63593565D01*
X131289182Y-63477793D01*
X131316346Y-63341230D01*
X131316346Y-61342250D01*
X133683654Y-61342250D01*
X133683654Y-63341230D01*
X133710818Y-63477793D01*
X133788175Y-63593565D01*
X133903947Y-63670922D01*
X134040510Y-63698086D01*
X136039490Y-63698086D01*
X136176053Y-63670922D01*
X136291825Y-63593565D01*
X136369182Y-63477793D01*
X136396346Y-63341230D01*
X136396346Y-61342250D01*
X138763654Y-61342250D01*
X138763654Y-63341230D01*
X138790818Y-63477793D01*
X138868175Y-63593565D01*
X138983947Y-63670922D01*
X139120510Y-63698086D01*
X141119490Y-63698086D01*
X141256053Y-63670922D01*
X141371825Y-63593565D01*
X141449182Y-63477793D01*
X141476346Y-63341230D01*
X141476346Y-61547990D01*
X143843654Y-61547990D01*
X143843654Y-63546970D01*
X143870818Y-63683533D01*
X143948175Y-63799305D01*
X144063947Y-63876662D01*
X144200510Y-63903826D01*
X146199490Y-63903826D01*
X146336053Y-63876662D01*
X146451825Y-63799305D01*
X146529182Y-63683533D01*
X146556346Y-63546970D01*
X146556346Y-61547990D01*
X146540684Y-61469250D01*
X148923654Y-61469250D01*
X148923654Y-63468230D01*
X148950818Y-63604793D01*
X149028175Y-63720565D01*
X149143947Y-63797922D01*
X149280510Y-63825086D01*
X151279490Y-63825086D01*
X151416053Y-63797922D01*
X151531825Y-63720565D01*
X151609182Y-63604793D01*
X151636346Y-63468230D01*
X151636346Y-61469250D01*
X151609182Y-61332687D01*
X151531825Y-61216915D01*
X151416053Y-61139558D01*
X151279490Y-61112394D01*
X149280510Y-61112394D01*
X149143947Y-61139558D01*
X149028175Y-61216915D01*
X148950818Y-61332687D01*
X148923654Y-61469250D01*
X146540684Y-61469250D01*
X146529182Y-61411427D01*
X146451825Y-61295655D01*
X146336053Y-61218298D01*
X146199490Y-61191134D01*
X144200510Y-61191134D01*
X144063947Y-61218298D01*
X143948175Y-61295655D01*
X143870818Y-61411427D01*
X143843654Y-61547990D01*
X141476346Y-61547990D01*
X141476346Y-61342250D01*
X141449182Y-61205687D01*
X141371825Y-61089915D01*
X141256053Y-61012558D01*
X141119490Y-60985394D01*
X139120510Y-60985394D01*
X138983947Y-61012558D01*
X138868175Y-61089915D01*
X138790818Y-61205687D01*
X138763654Y-61342250D01*
X136396346Y-61342250D01*
X136369182Y-61205687D01*
X136291825Y-61089915D01*
X136176053Y-61012558D01*
X136039490Y-60985394D01*
X134040510Y-60985394D01*
X133903947Y-61012558D01*
X133788175Y-61089915D01*
X133710818Y-61205687D01*
X133683654Y-61342250D01*
X131316346Y-61342250D01*
X131289182Y-61205687D01*
X131211825Y-61089915D01*
X131096053Y-61012558D01*
X130959490Y-60985394D01*
X128960510Y-60985394D01*
X128823947Y-61012558D01*
X128708175Y-61089915D01*
X128630818Y-61205687D01*
X128603654Y-61342250D01*
X100375000Y-61342250D01*
X100375000Y-57095000D01*
X105893144Y-57095000D01*
X105893144Y-58795000D01*
X105920308Y-58931563D01*
X105997665Y-59047335D01*
X106113437Y-59124692D01*
X106250000Y-59151856D01*
X107950000Y-59151856D01*
X108086563Y-59124692D01*
X108202335Y-59047335D01*
X108279692Y-58931563D01*
X108306856Y-58795000D01*
X108306856Y-57095000D01*
X108279692Y-56958437D01*
X108202335Y-56842665D01*
X108086563Y-56765308D01*
X107950000Y-56738144D01*
X106250000Y-56738144D01*
X106113437Y-56765308D01*
X105997665Y-56842665D01*
X105920308Y-56958437D01*
X105893144Y-57095000D01*
X100375000Y-57095000D01*
X100375000Y-53520313D01*
X100377206Y-53500000D01*
X101730000Y-53500000D01*
X101836744Y-54105376D01*
X102144101Y-54637734D01*
X102615000Y-55032865D01*
X103192643Y-55243110D01*
X103807357Y-55243110D01*
X104385000Y-55032865D01*
X104855899Y-54637734D01*
X105163256Y-54105376D01*
X105270000Y-53500000D01*
X105163256Y-52894624D01*
X104988487Y-52591914D01*
X107069403Y-52591914D01*
X107306904Y-53062082D01*
X107706251Y-53405573D01*
X108008088Y-53530585D01*
X108215998Y-53445282D01*
X108215998Y-53563144D01*
X107520000Y-53563144D01*
X107383437Y-53590308D01*
X107267665Y-53667665D01*
X107190308Y-53783437D01*
X107163144Y-53920000D01*
X107163144Y-55620000D01*
X107190308Y-55756563D01*
X107267665Y-55872335D01*
X107383437Y-55949692D01*
X107520000Y-55976856D01*
X109190001Y-55976856D01*
X109190001Y-56698594D01*
X109190000Y-56698599D01*
X109190000Y-56811001D01*
X109171783Y-56814625D01*
X108774848Y-57079848D01*
X108509625Y-57476783D01*
X108416491Y-57945000D01*
X108509625Y-58413217D01*
X108774848Y-58810152D01*
X109171783Y-59075375D01*
X109521812Y-59145000D01*
X109758188Y-59145000D01*
X110108217Y-59075375D01*
X110505152Y-58810152D01*
X110770375Y-58413217D01*
X110863509Y-57945000D01*
X110956491Y-57945000D01*
X111049625Y-58413217D01*
X111314848Y-58810152D01*
X111711783Y-59075375D01*
X112061812Y-59145000D01*
X112298188Y-59145000D01*
X112648217Y-59075375D01*
X113045152Y-58810152D01*
X113310375Y-58413217D01*
X113403509Y-57945000D01*
X113310375Y-57476783D01*
X113055277Y-57095000D01*
X121133144Y-57095000D01*
X121133144Y-58795000D01*
X121160308Y-58931563D01*
X121237665Y-59047335D01*
X121353437Y-59124692D01*
X121490000Y-59151856D01*
X123190000Y-59151856D01*
X123326563Y-59124692D01*
X123442335Y-59047335D01*
X123519692Y-58931563D01*
X123546856Y-58795000D01*
X123546856Y-57945000D01*
X123656491Y-57945000D01*
X123749625Y-58413217D01*
X124014848Y-58810152D01*
X124411783Y-59075375D01*
X124761812Y-59145000D01*
X124998188Y-59145000D01*
X125348217Y-59075375D01*
X125745152Y-58810152D01*
X126010375Y-58413217D01*
X126103509Y-57945000D01*
X126196491Y-57945000D01*
X126289625Y-58413217D01*
X126554848Y-58810152D01*
X126951783Y-59075375D01*
X127301812Y-59145000D01*
X127538188Y-59145000D01*
X127888217Y-59075375D01*
X128285152Y-58810152D01*
X128550375Y-58413217D01*
X128643509Y-57945000D01*
X128550375Y-57476783D01*
X128295277Y-57095000D01*
X136373144Y-57095000D01*
X136373144Y-58795000D01*
X136400308Y-58931563D01*
X136477665Y-59047335D01*
X136593437Y-59124692D01*
X136730000Y-59151856D01*
X138430000Y-59151856D01*
X138566563Y-59124692D01*
X138682335Y-59047335D01*
X138759692Y-58931563D01*
X138786856Y-58795000D01*
X138786856Y-57945000D01*
X138896491Y-57945000D01*
X138989625Y-58413217D01*
X139254848Y-58810152D01*
X139651783Y-59075375D01*
X140001812Y-59145000D01*
X140238188Y-59145000D01*
X140588217Y-59075375D01*
X140985152Y-58810152D01*
X141250375Y-58413217D01*
X141343509Y-57945000D01*
X141436491Y-57945000D01*
X141529625Y-58413217D01*
X141794848Y-58810152D01*
X142191783Y-59075375D01*
X142541812Y-59145000D01*
X142778188Y-59145000D01*
X143128217Y-59075375D01*
X143525152Y-58810152D01*
X143790375Y-58413217D01*
X143883509Y-57945000D01*
X143790375Y-57476783D01*
X143535277Y-57095000D01*
X151613144Y-57095000D01*
X151613144Y-58795000D01*
X151640308Y-58931563D01*
X151717665Y-59047335D01*
X151833437Y-59124692D01*
X151970000Y-59151856D01*
X153670000Y-59151856D01*
X153806563Y-59124692D01*
X153922335Y-59047335D01*
X153999692Y-58931563D01*
X154026856Y-58795000D01*
X154026856Y-57945000D01*
X154136491Y-57945000D01*
X154229625Y-58413217D01*
X154494848Y-58810152D01*
X154891783Y-59075375D01*
X155241812Y-59145000D01*
X155478188Y-59145000D01*
X155828217Y-59075375D01*
X156225152Y-58810152D01*
X156490375Y-58413217D01*
X156583509Y-57945000D01*
X156676491Y-57945000D01*
X156769625Y-58413217D01*
X157034848Y-58810152D01*
X157431783Y-59075375D01*
X157781812Y-59145000D01*
X158018188Y-59145000D01*
X158368217Y-59075375D01*
X158765152Y-58810152D01*
X159030375Y-58413217D01*
X159123509Y-57945000D01*
X159030375Y-57476783D01*
X158765152Y-57079848D01*
X158368217Y-56814625D01*
X158018188Y-56745000D01*
X157781812Y-56745000D01*
X157431783Y-56814625D01*
X157034848Y-57079848D01*
X156769625Y-57476783D01*
X156676491Y-57945000D01*
X156583509Y-57945000D01*
X156490375Y-57476783D01*
X156225152Y-57079848D01*
X155828217Y-56814625D01*
X155478188Y-56745000D01*
X155241812Y-56745000D01*
X154891783Y-56814625D01*
X154494848Y-57079848D01*
X154229625Y-57476783D01*
X154136491Y-57945000D01*
X154026856Y-57945000D01*
X154026856Y-57095000D01*
X153999692Y-56958437D01*
X153922335Y-56842665D01*
X153806563Y-56765308D01*
X153670000Y-56738144D01*
X151970000Y-56738144D01*
X151833437Y-56765308D01*
X151717665Y-56842665D01*
X151640308Y-56958437D01*
X151613144Y-57095000D01*
X143535277Y-57095000D01*
X143525152Y-57079848D01*
X143128217Y-56814625D01*
X142778188Y-56745000D01*
X142541812Y-56745000D01*
X142191783Y-56814625D01*
X141794848Y-57079848D01*
X141529625Y-57476783D01*
X141436491Y-57945000D01*
X141343509Y-57945000D01*
X141250375Y-57476783D01*
X140985152Y-57079848D01*
X140588217Y-56814625D01*
X140238188Y-56745000D01*
X140001812Y-56745000D01*
X139651783Y-56814625D01*
X139254848Y-57079848D01*
X138989625Y-57476783D01*
X138896491Y-57945000D01*
X138786856Y-57945000D01*
X138786856Y-57095000D01*
X138759692Y-56958437D01*
X138682335Y-56842665D01*
X138566563Y-56765308D01*
X138430000Y-56738144D01*
X136730000Y-56738144D01*
X136593437Y-56765308D01*
X136477665Y-56842665D01*
X136400308Y-56958437D01*
X136373144Y-57095000D01*
X128295277Y-57095000D01*
X128285152Y-57079848D01*
X127888217Y-56814625D01*
X127538188Y-56745000D01*
X127301812Y-56745000D01*
X126951783Y-56814625D01*
X126554848Y-57079848D01*
X126289625Y-57476783D01*
X126196491Y-57945000D01*
X126103509Y-57945000D01*
X126010375Y-57476783D01*
X125745152Y-57079848D01*
X125348217Y-56814625D01*
X124998188Y-56745000D01*
X124761812Y-56745000D01*
X124411783Y-56814625D01*
X124014848Y-57079848D01*
X123749625Y-57476783D01*
X123656491Y-57945000D01*
X123546856Y-57945000D01*
X123546856Y-57095000D01*
X123519692Y-56958437D01*
X123442335Y-56842665D01*
X123326563Y-56765308D01*
X123190000Y-56738144D01*
X121490000Y-56738144D01*
X121353437Y-56765308D01*
X121237665Y-56842665D01*
X121160308Y-56958437D01*
X121133144Y-57095000D01*
X113055277Y-57095000D01*
X113045152Y-57079848D01*
X112648217Y-56814625D01*
X112298188Y-56745000D01*
X112061812Y-56745000D01*
X111711783Y-56814625D01*
X111314848Y-57079848D01*
X111049625Y-57476783D01*
X110956491Y-57945000D01*
X110863509Y-57945000D01*
X110770375Y-57476783D01*
X110505152Y-57079848D01*
X110108217Y-56814625D01*
X110090000Y-56811001D01*
X110090000Y-55665322D01*
X110441783Y-55900375D01*
X110791812Y-55970000D01*
X111028188Y-55970000D01*
X111378217Y-55900375D01*
X111775152Y-55635152D01*
X112040375Y-55238217D01*
X112133509Y-54770000D01*
X112040375Y-54301783D01*
X111805322Y-53950000D01*
X112554678Y-53950000D01*
X112319625Y-54301783D01*
X112226491Y-54770000D01*
X112319625Y-55238217D01*
X112584848Y-55635152D01*
X112981783Y-55900375D01*
X113331812Y-55970000D01*
X113568188Y-55970000D01*
X113918217Y-55900375D01*
X114315152Y-55635152D01*
X114580375Y-55238217D01*
X114673509Y-54770000D01*
X114580375Y-54301783D01*
X114345322Y-53950000D01*
X115094678Y-53950000D01*
X114859625Y-54301783D01*
X114766491Y-54770000D01*
X114859625Y-55238217D01*
X115124848Y-55635152D01*
X115521783Y-55900375D01*
X115871812Y-55970000D01*
X116108188Y-55970000D01*
X116458217Y-55900375D01*
X116855152Y-55635152D01*
X117120375Y-55238217D01*
X117213509Y-54770000D01*
X117306491Y-54770000D01*
X117399625Y-55238217D01*
X117664848Y-55635152D01*
X118061783Y-55900375D01*
X118411812Y-55970000D01*
X118648188Y-55970000D01*
X118998217Y-55900375D01*
X119395152Y-55635152D01*
X119660375Y-55238217D01*
X119753509Y-54770000D01*
X119846491Y-54770000D01*
X119939625Y-55238217D01*
X120204848Y-55635152D01*
X120601783Y-55900375D01*
X120951812Y-55970000D01*
X121188188Y-55970000D01*
X121538217Y-55900375D01*
X121935152Y-55635152D01*
X122200375Y-55238217D01*
X122293509Y-54770000D01*
X122386491Y-54770000D01*
X122479625Y-55238217D01*
X122744848Y-55635152D01*
X123141783Y-55900375D01*
X123491812Y-55970000D01*
X123728188Y-55970000D01*
X124078217Y-55900375D01*
X124475152Y-55635152D01*
X124740375Y-55238217D01*
X124833509Y-54770000D01*
X124926491Y-54770000D01*
X125019625Y-55238217D01*
X125284848Y-55635152D01*
X125681783Y-55900375D01*
X126031812Y-55970000D01*
X126268188Y-55970000D01*
X126618217Y-55900375D01*
X127015152Y-55635152D01*
X127280375Y-55238217D01*
X127373509Y-54770000D01*
X127280375Y-54301783D01*
X127015152Y-53904848D01*
X126618217Y-53639625D01*
X126268188Y-53570000D01*
X126031812Y-53570000D01*
X125681783Y-53639625D01*
X125284848Y-53904848D01*
X125019625Y-54301783D01*
X124926491Y-54770000D01*
X124833509Y-54770000D01*
X124740375Y-54301783D01*
X124475152Y-53904848D01*
X124078217Y-53639625D01*
X123728188Y-53570000D01*
X123491812Y-53570000D01*
X123141783Y-53639625D01*
X122744848Y-53904848D01*
X122479625Y-54301783D01*
X122386491Y-54770000D01*
X122293509Y-54770000D01*
X122200375Y-54301783D01*
X121935152Y-53904848D01*
X121538217Y-53639625D01*
X121188188Y-53570000D01*
X120951812Y-53570000D01*
X120601783Y-53639625D01*
X120204848Y-53904848D01*
X119939625Y-54301783D01*
X119846491Y-54770000D01*
X119753509Y-54770000D01*
X119660375Y-54301783D01*
X119395152Y-53904848D01*
X118998217Y-53639625D01*
X118648188Y-53570000D01*
X118411812Y-53570000D01*
X118061783Y-53639625D01*
X117664848Y-53904848D01*
X117399625Y-54301783D01*
X117306491Y-54770000D01*
X117213509Y-54770000D01*
X117120375Y-54301783D01*
X116885322Y-53950000D01*
X117215680Y-53950000D01*
X117260000Y-53958816D01*
X117304320Y-53950000D01*
X117304321Y-53950000D01*
X117435581Y-53923891D01*
X117584432Y-53824432D01*
X117609540Y-53786855D01*
X118046339Y-53350056D01*
X118061783Y-53360375D01*
X118411812Y-53430000D01*
X118648188Y-53430000D01*
X118998217Y-53360375D01*
X119395152Y-53095152D01*
X119660375Y-52698217D01*
X119753509Y-52230000D01*
X119846491Y-52230000D01*
X119939625Y-52698217D01*
X120204848Y-53095152D01*
X120601783Y-53360375D01*
X120951812Y-53430000D01*
X121188188Y-53430000D01*
X121538217Y-53360375D01*
X121935152Y-53095152D01*
X122200375Y-52698217D01*
X122293509Y-52230000D01*
X122386491Y-52230000D01*
X122479625Y-52698217D01*
X122744848Y-53095152D01*
X123141783Y-53360375D01*
X123491812Y-53430000D01*
X123728188Y-53430000D01*
X124078217Y-53360375D01*
X124475152Y-53095152D01*
X124740375Y-52698217D01*
X124833509Y-52230000D01*
X124926491Y-52230000D01*
X125019625Y-52698217D01*
X125284848Y-53095152D01*
X125681783Y-53360375D01*
X126031812Y-53430000D01*
X126268188Y-53430000D01*
X126618217Y-53360375D01*
X127015152Y-53095152D01*
X127280375Y-52698217D01*
X127373509Y-52230000D01*
X127280375Y-51761783D01*
X127015152Y-51364848D01*
X126618217Y-51099625D01*
X126268188Y-51030000D01*
X126031812Y-51030000D01*
X125681783Y-51099625D01*
X125284848Y-51364848D01*
X125019625Y-51761783D01*
X124926491Y-52230000D01*
X124833509Y-52230000D01*
X124740375Y-51761783D01*
X124475152Y-51364848D01*
X124078217Y-51099625D01*
X123728188Y-51030000D01*
X123491812Y-51030000D01*
X123141783Y-51099625D01*
X122744848Y-51364848D01*
X122479625Y-51761783D01*
X122386491Y-52230000D01*
X122293509Y-52230000D01*
X122200375Y-51761783D01*
X121935152Y-51364848D01*
X121538217Y-51099625D01*
X121188188Y-51030000D01*
X120951812Y-51030000D01*
X120601783Y-51099625D01*
X120204848Y-51364848D01*
X119939625Y-51761783D01*
X119846491Y-52230000D01*
X119753509Y-52230000D01*
X119660375Y-51761783D01*
X119395152Y-51364848D01*
X118998217Y-51099625D01*
X118648188Y-51030000D01*
X118411812Y-51030000D01*
X118061783Y-51099625D01*
X117664848Y-51364848D01*
X117399625Y-51761783D01*
X117306491Y-52230000D01*
X117399625Y-52698217D01*
X117409944Y-52713661D01*
X117073605Y-53050000D01*
X116885322Y-53050000D01*
X117120375Y-52698217D01*
X117213509Y-52230000D01*
X117120375Y-51761783D01*
X116855152Y-51364848D01*
X116458217Y-51099625D01*
X116108188Y-51030000D01*
X115871812Y-51030000D01*
X115521783Y-51099625D01*
X115124848Y-51364848D01*
X114859625Y-51761783D01*
X114766491Y-52230000D01*
X114859625Y-52698217D01*
X115094678Y-53050000D01*
X114345322Y-53050000D01*
X114580375Y-52698217D01*
X114673509Y-52230000D01*
X114580375Y-51761783D01*
X114315152Y-51364848D01*
X113918217Y-51099625D01*
X113568188Y-51030000D01*
X113331812Y-51030000D01*
X112981783Y-51099625D01*
X112584848Y-51364848D01*
X112319625Y-51761783D01*
X112257124Y-52075998D01*
X112126201Y-52075998D01*
X112210597Y-51868086D01*
X111973096Y-51397918D01*
X111573749Y-51054427D01*
X111271912Y-50929415D01*
X111064000Y-51014719D01*
X111064000Y-52076000D01*
X111084000Y-52076000D01*
X111084000Y-52384000D01*
X111064000Y-52384000D01*
X111064000Y-52404000D01*
X110756000Y-52404000D01*
X110756000Y-52384000D01*
X109693800Y-52384000D01*
X109640000Y-52516538D01*
X109586200Y-52384000D01*
X108524000Y-52384000D01*
X108524000Y-52404000D01*
X108216000Y-52404000D01*
X108216000Y-52384000D01*
X107153800Y-52384000D01*
X107069403Y-52591914D01*
X104988487Y-52591914D01*
X104855899Y-52362266D01*
X104385000Y-51967135D01*
X104112866Y-51868086D01*
X107069403Y-51868086D01*
X107153800Y-52076000D01*
X108216000Y-52076000D01*
X108216000Y-51014719D01*
X108524000Y-51014719D01*
X108524000Y-52076000D01*
X109586200Y-52076000D01*
X109640000Y-51943462D01*
X109693800Y-52076000D01*
X110756000Y-52076000D01*
X110756000Y-51014719D01*
X110548088Y-50929415D01*
X110246251Y-51054427D01*
X109846904Y-51397918D01*
X109640000Y-51807515D01*
X109433096Y-51397918D01*
X109033749Y-51054427D01*
X108731912Y-50929415D01*
X108524000Y-51014719D01*
X108216000Y-51014719D01*
X108008088Y-50929415D01*
X107706251Y-51054427D01*
X107306904Y-51397918D01*
X107069403Y-51868086D01*
X104112866Y-51868086D01*
X103807357Y-51756890D01*
X103192643Y-51756890D01*
X102615000Y-51967135D01*
X102144101Y-52362266D01*
X101836744Y-52894624D01*
X101730000Y-53500000D01*
X100377206Y-53500000D01*
X100450055Y-52829423D01*
X100665198Y-52190139D01*
X101012602Y-51611960D01*
X101476055Y-51121873D01*
X102033937Y-50742737D01*
X102660217Y-50492243D01*
X103340652Y-50379597D01*
X103505243Y-50375000D01*
X161479687Y-50375000D01*
X162170577Y-50450055D01*
X162170577Y-50450055D01*
G37*
X162170577Y-50450055D02*
X162809861Y-50665198D01*
X163388040Y-51012602D01*
X163878127Y-51476055D01*
X164257263Y-52033937D01*
X164507757Y-52660217D01*
X164599213Y-53212656D01*
X164574432Y-53175568D01*
X164536858Y-53150462D01*
X162059540Y-50673145D01*
X162034432Y-50635568D01*
X161885581Y-50536109D01*
X161754321Y-50510000D01*
X161754320Y-50510000D01*
X161710000Y-50501184D01*
X161665680Y-50510000D01*
X130768318Y-50510000D01*
X130723998Y-50501184D01*
X130679678Y-50510000D01*
X130679677Y-50510000D01*
X130548417Y-50536109D01*
X130399566Y-50635568D01*
X130374459Y-50673143D01*
X129606263Y-51441340D01*
X129555152Y-51364848D01*
X129158217Y-51099625D01*
X128808188Y-51030000D01*
X128571812Y-51030000D01*
X128221783Y-51099625D01*
X127824848Y-51364848D01*
X127559625Y-51761783D01*
X127466491Y-52230000D01*
X127559625Y-52698217D01*
X127824848Y-53095152D01*
X128221783Y-53360375D01*
X128571812Y-53430000D01*
X128808188Y-53430000D01*
X129158217Y-53360375D01*
X129440001Y-53172093D01*
X129440001Y-53383603D01*
X129173660Y-53649944D01*
X129158217Y-53639625D01*
X128808188Y-53570000D01*
X128571812Y-53570000D01*
X128221783Y-53639625D01*
X127824848Y-53904848D01*
X127559625Y-54301783D01*
X127466491Y-54770000D01*
X127559625Y-55238217D01*
X127824848Y-55635152D01*
X128221783Y-55900375D01*
X128571812Y-55970000D01*
X128808188Y-55970000D01*
X129158217Y-55900375D01*
X129555152Y-55635152D01*
X129820375Y-55238217D01*
X129913509Y-54770000D01*
X130006491Y-54770000D01*
X130099625Y-55238217D01*
X130364848Y-55635152D01*
X130761783Y-55900375D01*
X131111812Y-55970000D01*
X131348188Y-55970000D01*
X131698217Y-55900375D01*
X132095152Y-55635152D01*
X132360375Y-55238217D01*
X132453509Y-54770000D01*
X132546491Y-54770000D01*
X132639625Y-55238217D01*
X132904848Y-55635152D01*
X133301783Y-55900375D01*
X133651812Y-55970000D01*
X133888188Y-55970000D01*
X134238217Y-55900375D01*
X134635152Y-55635152D01*
X134900375Y-55238217D01*
X134993509Y-54770000D01*
X135086491Y-54770000D01*
X135179625Y-55238217D01*
X135444848Y-55635152D01*
X135841783Y-55900375D01*
X136191812Y-55970000D01*
X136428188Y-55970000D01*
X136778217Y-55900375D01*
X137175152Y-55635152D01*
X137440375Y-55238217D01*
X137533509Y-54770000D01*
X137626491Y-54770000D01*
X137719625Y-55238217D01*
X137984848Y-55635152D01*
X138381783Y-55900375D01*
X138731812Y-55970000D01*
X138968188Y-55970000D01*
X139318217Y-55900375D01*
X139715152Y-55635152D01*
X139980375Y-55238217D01*
X140073509Y-54770000D01*
X140166491Y-54770000D01*
X140259625Y-55238217D01*
X140524848Y-55635152D01*
X140921783Y-55900375D01*
X141271812Y-55970000D01*
X141508188Y-55970000D01*
X141858217Y-55900375D01*
X142255152Y-55635152D01*
X142520375Y-55238217D01*
X142613509Y-54770000D01*
X142706491Y-54770000D01*
X142799625Y-55238217D01*
X143064848Y-55635152D01*
X143461783Y-55900375D01*
X143811812Y-55970000D01*
X144048188Y-55970000D01*
X144398217Y-55900375D01*
X144795152Y-55635152D01*
X145060375Y-55238217D01*
X145153509Y-54770000D01*
X145246491Y-54770000D01*
X145339625Y-55238217D01*
X145604848Y-55635152D01*
X146001783Y-55900375D01*
X146351812Y-55970000D01*
X146588188Y-55970000D01*
X146938217Y-55900375D01*
X147335152Y-55635152D01*
X147600375Y-55238217D01*
X147693509Y-54770000D01*
X147786491Y-54770000D01*
X147879625Y-55238217D01*
X148144848Y-55635152D01*
X148541783Y-55900375D01*
X148891812Y-55970000D01*
X149128188Y-55970000D01*
X149478217Y-55900375D01*
X149875152Y-55635152D01*
X150140375Y-55238217D01*
X150233509Y-54770000D01*
X150326491Y-54770000D01*
X150419625Y-55238217D01*
X150684848Y-55635152D01*
X151081783Y-55900375D01*
X151431812Y-55970000D01*
X151668188Y-55970000D01*
X152018217Y-55900375D01*
X152415152Y-55635152D01*
X152680375Y-55238217D01*
X152773509Y-54770000D01*
X152866491Y-54770000D01*
X152959625Y-55238217D01*
X153224848Y-55635152D01*
X153621783Y-55900375D01*
X153971812Y-55970000D01*
X154208188Y-55970000D01*
X154558217Y-55900375D01*
X154955152Y-55635152D01*
X155220375Y-55238217D01*
X155313509Y-54770000D01*
X155406491Y-54770000D01*
X155499625Y-55238217D01*
X155764848Y-55635152D01*
X156161783Y-55900375D01*
X156511812Y-55970000D01*
X156748188Y-55970000D01*
X157098217Y-55900375D01*
X157495152Y-55635152D01*
X157760375Y-55238217D01*
X157853509Y-54770000D01*
X157760375Y-54301783D01*
X157495152Y-53904848D01*
X157098217Y-53639625D01*
X156748188Y-53570000D01*
X156511812Y-53570000D01*
X156161783Y-53639625D01*
X155764848Y-53904848D01*
X155499625Y-54301783D01*
X155406491Y-54770000D01*
X155313509Y-54770000D01*
X155220375Y-54301783D01*
X154955152Y-53904848D01*
X154558217Y-53639625D01*
X154208188Y-53570000D01*
X153971812Y-53570000D01*
X153621783Y-53639625D01*
X153224848Y-53904848D01*
X152959625Y-54301783D01*
X152866491Y-54770000D01*
X152773509Y-54770000D01*
X152680375Y-54301783D01*
X152415152Y-53904848D01*
X152018217Y-53639625D01*
X151668188Y-53570000D01*
X151431812Y-53570000D01*
X151081783Y-53639625D01*
X150684848Y-53904848D01*
X150419625Y-54301783D01*
X150326491Y-54770000D01*
X150233509Y-54770000D01*
X150140375Y-54301783D01*
X149875152Y-53904848D01*
X149478217Y-53639625D01*
X149128188Y-53570000D01*
X148891812Y-53570000D01*
X148541783Y-53639625D01*
X148144848Y-53904848D01*
X147879625Y-54301783D01*
X147786491Y-54770000D01*
X147693509Y-54770000D01*
X147600375Y-54301783D01*
X147335152Y-53904848D01*
X146938217Y-53639625D01*
X146588188Y-53570000D01*
X146351812Y-53570000D01*
X146001783Y-53639625D01*
X145604848Y-53904848D01*
X145339625Y-54301783D01*
X145246491Y-54770000D01*
X145153509Y-54770000D01*
X145060375Y-54301783D01*
X144795152Y-53904848D01*
X144398217Y-53639625D01*
X144048188Y-53570000D01*
X143811812Y-53570000D01*
X143461783Y-53639625D01*
X143064848Y-53904848D01*
X142799625Y-54301783D01*
X142706491Y-54770000D01*
X142613509Y-54770000D01*
X142520375Y-54301783D01*
X142255152Y-53904848D01*
X141858217Y-53639625D01*
X141508188Y-53570000D01*
X141271812Y-53570000D01*
X140921783Y-53639625D01*
X140524848Y-53904848D01*
X140259625Y-54301783D01*
X140166491Y-54770000D01*
X140073509Y-54770000D01*
X139980375Y-54301783D01*
X139715152Y-53904848D01*
X139318217Y-53639625D01*
X138968188Y-53570000D01*
X138731812Y-53570000D01*
X138381783Y-53639625D01*
X137984848Y-53904848D01*
X137719625Y-54301783D01*
X137626491Y-54770000D01*
X137533509Y-54770000D01*
X137440375Y-54301783D01*
X137175152Y-53904848D01*
X136778217Y-53639625D01*
X136428188Y-53570000D01*
X136191812Y-53570000D01*
X135841783Y-53639625D01*
X135444848Y-53904848D01*
X135179625Y-54301783D01*
X135086491Y-54770000D01*
X134993509Y-54770000D01*
X134900375Y-54301783D01*
X134635152Y-53904848D01*
X134238217Y-53639625D01*
X133888188Y-53570000D01*
X133651812Y-53570000D01*
X133301783Y-53639625D01*
X132904848Y-53904848D01*
X132639625Y-54301783D01*
X132546491Y-54770000D01*
X132453509Y-54770000D01*
X132360375Y-54301783D01*
X132095152Y-53904848D01*
X131698217Y-53639625D01*
X131348188Y-53570000D01*
X131111812Y-53570000D01*
X130761783Y-53639625D01*
X130364848Y-53904848D01*
X130099625Y-54301783D01*
X130006491Y-54770000D01*
X129913509Y-54770000D01*
X129820375Y-54301783D01*
X129810056Y-54286340D01*
X130176859Y-53919537D01*
X130214433Y-53894431D01*
X130313892Y-53745580D01*
X130340001Y-53614320D01*
X130340001Y-53614319D01*
X130348817Y-53569999D01*
X130340001Y-53525679D01*
X130340001Y-53057966D01*
X130364848Y-53095152D01*
X130761783Y-53360375D01*
X131111812Y-53430000D01*
X131348188Y-53430000D01*
X131698217Y-53360375D01*
X132095152Y-53095152D01*
X132360375Y-52698217D01*
X132453509Y-52230000D01*
X132360375Y-51761783D01*
X132125322Y-51410000D01*
X132874678Y-51410000D01*
X132639625Y-51761783D01*
X132546491Y-52230000D01*
X132639625Y-52698217D01*
X132904848Y-53095152D01*
X133301783Y-53360375D01*
X133651812Y-53430000D01*
X133888188Y-53430000D01*
X134238217Y-53360375D01*
X134635152Y-53095152D01*
X134900375Y-52698217D01*
X134993509Y-52230000D01*
X134900375Y-51761783D01*
X134665322Y-51410000D01*
X135414678Y-51410000D01*
X135179625Y-51761783D01*
X135086491Y-52230000D01*
X135179625Y-52698217D01*
X135444848Y-53095152D01*
X135841783Y-53360375D01*
X136191812Y-53430000D01*
X136428188Y-53430000D01*
X136778217Y-53360375D01*
X137175152Y-53095152D01*
X137440375Y-52698217D01*
X137533509Y-52230000D01*
X137440375Y-51761783D01*
X137205322Y-51410000D01*
X137954678Y-51410000D01*
X137719625Y-51761783D01*
X137626491Y-52230000D01*
X137719625Y-52698217D01*
X137984848Y-53095152D01*
X138381783Y-53360375D01*
X138731812Y-53430000D01*
X138968188Y-53430000D01*
X139318217Y-53360375D01*
X139715152Y-53095152D01*
X139980375Y-52698217D01*
X140073509Y-52230000D01*
X139980375Y-51761783D01*
X139745322Y-51410000D01*
X140494678Y-51410000D01*
X140259625Y-51761783D01*
X140166491Y-52230000D01*
X140259625Y-52698217D01*
X140524848Y-53095152D01*
X140921783Y-53360375D01*
X141271812Y-53430000D01*
X141508188Y-53430000D01*
X141858217Y-53360375D01*
X142255152Y-53095152D01*
X142520375Y-52698217D01*
X142613509Y-52230000D01*
X142520375Y-51761783D01*
X142285322Y-51410000D01*
X143034678Y-51410000D01*
X142799625Y-51761783D01*
X142706491Y-52230000D01*
X142799625Y-52698217D01*
X143064848Y-53095152D01*
X143461783Y-53360375D01*
X143811812Y-53430000D01*
X144048188Y-53430000D01*
X144398217Y-53360375D01*
X144795152Y-53095152D01*
X145060375Y-52698217D01*
X145153509Y-52230000D01*
X145060375Y-51761783D01*
X144825322Y-51410000D01*
X145574678Y-51410000D01*
X145339625Y-51761783D01*
X145246491Y-52230000D01*
X145339625Y-52698217D01*
X145604848Y-53095152D01*
X146001783Y-53360375D01*
X146351812Y-53430000D01*
X146588188Y-53430000D01*
X146938217Y-53360375D01*
X147335152Y-53095152D01*
X147600375Y-52698217D01*
X147693509Y-52230000D01*
X147600375Y-51761783D01*
X147365322Y-51410000D01*
X148114678Y-51410000D01*
X147879625Y-51761783D01*
X147786491Y-52230000D01*
X147879625Y-52698217D01*
X148144848Y-53095152D01*
X148541783Y-53360375D01*
X148891812Y-53430000D01*
X149128188Y-53430000D01*
X149478217Y-53360375D01*
X149875152Y-53095152D01*
X150140375Y-52698217D01*
X150233509Y-52230000D01*
X150140375Y-51761783D01*
X149905322Y-51410000D01*
X150654678Y-51410000D01*
X150419625Y-51761783D01*
X150326491Y-52230000D01*
X150419625Y-52698217D01*
X150684848Y-53095152D01*
X151081783Y-53360375D01*
X151431812Y-53430000D01*
X151668188Y-53430000D01*
X152018217Y-53360375D01*
X152415152Y-53095152D01*
X152680375Y-52698217D01*
X152773509Y-52230000D01*
X152680375Y-51761783D01*
X152445322Y-51410000D01*
X153194678Y-51410000D01*
X152959625Y-51761783D01*
X152866491Y-52230000D01*
X152959625Y-52698217D01*
X153224848Y-53095152D01*
X153621783Y-53360375D01*
X153971812Y-53430000D01*
X154208188Y-53430000D01*
X154558217Y-53360375D01*
X154955152Y-53095152D01*
X155220375Y-52698217D01*
X155313509Y-52230000D01*
X155220375Y-51761783D01*
X154985322Y-51410000D01*
X155734678Y-51410000D01*
X155499625Y-51761783D01*
X155406491Y-52230000D01*
X155499625Y-52698217D01*
X155764848Y-53095152D01*
X156161783Y-53360375D01*
X156511812Y-53430000D01*
X156748188Y-53430000D01*
X157098217Y-53360375D01*
X157495152Y-53095152D01*
X157760375Y-52698217D01*
X157853509Y-52230000D01*
X157760375Y-51761783D01*
X157525322Y-51410000D01*
X161523605Y-51410000D01*
X161906626Y-51793021D01*
X161807357Y-51756890D01*
X161192643Y-51756890D01*
X160615000Y-51967135D01*
X160144101Y-52362266D01*
X159836744Y-52894624D01*
X159730000Y-53500000D01*
X159836744Y-54105376D01*
X160144101Y-54637734D01*
X160615000Y-55032865D01*
X161192643Y-55243110D01*
X161807357Y-55243110D01*
X162385000Y-55032865D01*
X162855899Y-54637734D01*
X163163256Y-54105376D01*
X163270000Y-53500000D01*
X163196443Y-53082839D01*
X163800000Y-53686396D01*
X163800001Y-65130801D01*
X163341914Y-64899403D01*
X163134000Y-64983800D01*
X163134000Y-66046000D01*
X163154000Y-66046000D01*
X163154000Y-66354000D01*
X163134000Y-66354000D01*
X163134000Y-66374000D01*
X162826000Y-66374000D01*
X162826000Y-66354000D01*
X161764719Y-66354000D01*
X161679415Y-66561912D01*
X161804427Y-66863749D01*
X162147918Y-67263096D01*
X162618086Y-67500597D01*
X162825998Y-67416201D01*
X162825998Y-67547124D01*
X162511783Y-67609625D01*
X162114848Y-67874848D01*
X161849625Y-68271783D01*
X161756491Y-68740000D01*
X161849625Y-69208217D01*
X162114848Y-69605152D01*
X162511783Y-69870375D01*
X162861812Y-69940000D01*
X163098188Y-69940000D01*
X163448217Y-69870375D01*
X163845152Y-69605152D01*
X164110375Y-69208217D01*
X164203509Y-68740000D01*
X164110375Y-68271783D01*
X164100056Y-68256340D01*
X164179536Y-68176860D01*
X164179538Y-68176857D01*
X164536857Y-67819539D01*
X164574432Y-67794432D01*
X164625001Y-67718751D01*
X164625001Y-76479678D01*
X164549945Y-77170577D01*
X164334802Y-77809861D01*
X163987400Y-78388037D01*
X163523947Y-78878126D01*
X162966063Y-79257263D01*
X162339780Y-79507759D01*
X161659348Y-79620403D01*
X161494757Y-79625000D01*
X146158798Y-79625000D01*
X146330375Y-79368217D01*
X146423509Y-78900000D01*
X146330375Y-78431783D01*
X146065152Y-78034848D01*
X145668217Y-77769625D01*
X145318188Y-77700000D01*
X145081812Y-77700000D01*
X144731783Y-77769625D01*
X144334848Y-78034848D01*
X144069625Y-78431783D01*
X143976491Y-78900000D01*
X144069625Y-79368217D01*
X144241202Y-79625000D01*
X143866856Y-79625000D01*
X143866856Y-78050000D01*
X143839692Y-77913437D01*
X143762335Y-77797665D01*
X143646563Y-77720308D01*
X143510000Y-77693144D01*
X141810000Y-77693144D01*
X141673437Y-77720308D01*
X141557665Y-77797665D01*
X141480308Y-77913437D01*
X141453144Y-78050000D01*
X141453144Y-79625000D01*
X141078798Y-79625000D01*
X141250375Y-79368217D01*
X141343509Y-78900000D01*
X141250375Y-78431783D01*
X140985152Y-78034848D01*
X140588217Y-77769625D01*
X140238188Y-77700000D01*
X140001812Y-77700000D01*
X139651783Y-77769625D01*
X139254848Y-78034848D01*
X138989625Y-78431783D01*
X138896491Y-78900000D01*
X138989625Y-79368217D01*
X139161202Y-79625000D01*
X138786856Y-79625000D01*
X138786856Y-78050000D01*
X138759692Y-77913437D01*
X138682335Y-77797665D01*
X138566563Y-77720308D01*
X138430000Y-77693144D01*
X136730000Y-77693144D01*
X136593437Y-77720308D01*
X136477665Y-77797665D01*
X136400308Y-77913437D01*
X136373144Y-78050000D01*
X136373144Y-79625000D01*
X135998798Y-79625000D01*
X136170375Y-79368217D01*
X136263509Y-78900000D01*
X136170375Y-78431783D01*
X135905152Y-78034848D01*
X135508217Y-77769625D01*
X135158188Y-77700000D01*
X134921812Y-77700000D01*
X134571783Y-77769625D01*
X134174848Y-78034848D01*
X133909625Y-78431783D01*
X133816491Y-78900000D01*
X133909625Y-79368217D01*
X134081202Y-79625000D01*
X133458798Y-79625000D01*
X133630375Y-79368217D01*
X133723509Y-78900000D01*
X133630375Y-78431783D01*
X133365152Y-78034848D01*
X132968217Y-77769625D01*
X132618188Y-77700000D01*
X132381812Y-77700000D01*
X132246211Y-77726973D01*
X130464891Y-75945654D01*
X130428624Y-75891376D01*
X130213617Y-75747714D01*
X130024018Y-75710000D01*
X130024016Y-75710000D01*
X129960000Y-75697266D01*
X129895984Y-75710000D01*
X122534017Y-75710000D01*
X122470001Y-75697266D01*
X122405985Y-75710000D01*
X112449239Y-75710000D01*
X112199239Y-75460000D01*
X151563144Y-75460000D01*
X151563144Y-77260000D01*
X151590308Y-77396563D01*
X151667665Y-77512335D01*
X151783437Y-77589692D01*
X151920000Y-77616856D01*
X153720000Y-77616856D01*
X153856563Y-77589692D01*
X153972335Y-77512335D01*
X154049692Y-77396563D01*
X154076856Y-77260000D01*
X154076856Y-76111360D01*
X154110000Y-76111360D01*
X154110000Y-76608640D01*
X154300301Y-77068068D01*
X154651932Y-77419699D01*
X155111360Y-77610000D01*
X155608640Y-77610000D01*
X156068068Y-77419699D01*
X156419699Y-77068068D01*
X156610000Y-76608640D01*
X156610000Y-76500000D01*
X159730000Y-76500000D01*
X159836744Y-77105376D01*
X160144101Y-77637734D01*
X160615000Y-78032865D01*
X161192643Y-78243110D01*
X161807357Y-78243110D01*
X162385000Y-78032865D01*
X162855899Y-77637734D01*
X163163256Y-77105376D01*
X163270000Y-76500000D01*
X163163256Y-75894624D01*
X162855899Y-75362266D01*
X162385000Y-74967135D01*
X161807357Y-74756890D01*
X161192643Y-74756890D01*
X160615000Y-74967135D01*
X160144101Y-75362266D01*
X159836744Y-75894624D01*
X159730000Y-76500000D01*
X156610000Y-76500000D01*
X156610000Y-76111360D01*
X156419699Y-75651932D01*
X156068068Y-75300301D01*
X155608640Y-75110000D01*
X155111360Y-75110000D01*
X154651932Y-75300301D01*
X154300301Y-75651932D01*
X154110000Y-76111360D01*
X154076856Y-76111360D01*
X154076856Y-75460000D01*
X154049692Y-75323437D01*
X153972335Y-75207665D01*
X153856563Y-75130308D01*
X153720000Y-75103144D01*
X151920000Y-75103144D01*
X151783437Y-75130308D01*
X151667665Y-75207665D01*
X151590308Y-75323437D01*
X151563144Y-75460000D01*
X112199239Y-75460000D01*
X110994887Y-74255650D01*
X110994885Y-74255647D01*
X110813027Y-74073789D01*
X110863509Y-73820000D01*
X110770375Y-73351783D01*
X110505152Y-72954848D01*
X110108217Y-72689625D01*
X109758188Y-72620000D01*
X109521812Y-72620000D01*
X109386211Y-72646973D01*
X109104972Y-72365733D01*
X109171783Y-72410375D01*
X109521812Y-72480000D01*
X109758188Y-72480000D01*
X110108217Y-72410375D01*
X110505152Y-72145152D01*
X110770375Y-71748217D01*
X110850625Y-71344770D01*
X128603654Y-71344770D01*
X128603654Y-73343750D01*
X128630818Y-73480313D01*
X128708175Y-73596085D01*
X128823947Y-73673442D01*
X128960510Y-73700606D01*
X130959490Y-73700606D01*
X131096053Y-73673442D01*
X131211825Y-73596085D01*
X131289182Y-73480313D01*
X131316346Y-73343750D01*
X131316346Y-71344770D01*
X133683654Y-71344770D01*
X133683654Y-73343750D01*
X133710818Y-73480313D01*
X133788175Y-73596085D01*
X133903947Y-73673442D01*
X134040510Y-73700606D01*
X136039490Y-73700606D01*
X136176053Y-73673442D01*
X136291825Y-73596085D01*
X136369182Y-73480313D01*
X136396346Y-73343750D01*
X136396346Y-71344770D01*
X138763654Y-71344770D01*
X138763654Y-73343750D01*
X138790818Y-73480313D01*
X138868175Y-73596085D01*
X138983947Y-73673442D01*
X139120510Y-73700606D01*
X141119490Y-73700606D01*
X141256053Y-73673442D01*
X141371825Y-73596085D01*
X141449182Y-73480313D01*
X141476346Y-73343750D01*
X141476346Y-71550510D01*
X143843654Y-71550510D01*
X143843654Y-73549490D01*
X143870818Y-73686053D01*
X143948175Y-73801825D01*
X144063947Y-73879182D01*
X144200510Y-73906346D01*
X146199490Y-73906346D01*
X146336053Y-73879182D01*
X146451825Y-73801825D01*
X146529182Y-73686053D01*
X146556346Y-73549490D01*
X146556346Y-71550510D01*
X146540684Y-71471770D01*
X148923654Y-71471770D01*
X148923654Y-73470750D01*
X148950818Y-73607313D01*
X149028175Y-73723085D01*
X149143947Y-73800442D01*
X149280510Y-73827606D01*
X151279490Y-73827606D01*
X151416053Y-73800442D01*
X151531825Y-73723085D01*
X151609182Y-73607313D01*
X151636346Y-73470750D01*
X151636346Y-71471770D01*
X151609182Y-71335207D01*
X151531825Y-71219435D01*
X151416053Y-71142078D01*
X151279490Y-71114914D01*
X149280510Y-71114914D01*
X149143947Y-71142078D01*
X149028175Y-71219435D01*
X148950818Y-71335207D01*
X148923654Y-71471770D01*
X146540684Y-71471770D01*
X146529182Y-71413947D01*
X146451825Y-71298175D01*
X146336053Y-71220818D01*
X146199490Y-71193654D01*
X144200510Y-71193654D01*
X144063947Y-71220818D01*
X143948175Y-71298175D01*
X143870818Y-71413947D01*
X143843654Y-71550510D01*
X141476346Y-71550510D01*
X141476346Y-71344770D01*
X141449182Y-71208207D01*
X141371825Y-71092435D01*
X141256053Y-71015078D01*
X141119490Y-70987914D01*
X139120510Y-70987914D01*
X138983947Y-71015078D01*
X138868175Y-71092435D01*
X138790818Y-71208207D01*
X138763654Y-71344770D01*
X136396346Y-71344770D01*
X136369182Y-71208207D01*
X136291825Y-71092435D01*
X136176053Y-71015078D01*
X136039490Y-70987914D01*
X134040510Y-70987914D01*
X133903947Y-71015078D01*
X133788175Y-71092435D01*
X133710818Y-71208207D01*
X133683654Y-71344770D01*
X131316346Y-71344770D01*
X131289182Y-71208207D01*
X131211825Y-71092435D01*
X131096053Y-71015078D01*
X130959490Y-70987914D01*
X128960510Y-70987914D01*
X128823947Y-71015078D01*
X128708175Y-71092435D01*
X128630818Y-71208207D01*
X128603654Y-71344770D01*
X110850625Y-71344770D01*
X110863509Y-71280000D01*
X110770375Y-70811783D01*
X110515277Y-70430000D01*
X161773144Y-70430000D01*
X161773144Y-72130000D01*
X161800308Y-72266563D01*
X161877665Y-72382335D01*
X161993437Y-72459692D01*
X162130000Y-72486856D01*
X163830000Y-72486856D01*
X163966563Y-72459692D01*
X164082335Y-72382335D01*
X164159692Y-72266563D01*
X164186856Y-72130000D01*
X164186856Y-70430000D01*
X164159692Y-70293437D01*
X164082335Y-70177665D01*
X163966563Y-70100308D01*
X163830000Y-70073144D01*
X162130000Y-70073144D01*
X161993437Y-70100308D01*
X161877665Y-70177665D01*
X161800308Y-70293437D01*
X161773144Y-70430000D01*
X110515277Y-70430000D01*
X110505152Y-70414848D01*
X110108217Y-70149625D01*
X109794002Y-70087124D01*
X109794002Y-69965002D01*
X109919000Y-70090000D01*
X110589456Y-70090000D01*
X110773227Y-70013880D01*
X110913879Y-69873227D01*
X110990000Y-69689456D01*
X110990000Y-69019000D01*
X110865000Y-68894000D01*
X109794000Y-68894000D01*
X109794000Y-68914000D01*
X109486000Y-68914000D01*
X109486000Y-68894000D01*
X108415000Y-68894000D01*
X108290000Y-69019000D01*
X108290000Y-69689456D01*
X108366121Y-69873227D01*
X108506773Y-70013880D01*
X108690544Y-70090000D01*
X109361000Y-70090000D01*
X109485998Y-69965002D01*
X109485998Y-70087124D01*
X109171783Y-70149625D01*
X108774848Y-70414848D01*
X108509625Y-70811783D01*
X108416491Y-71280000D01*
X108509625Y-71748217D01*
X108554267Y-71815029D01*
X105064891Y-68325654D01*
X105028624Y-68271376D01*
X104813617Y-68127714D01*
X104624018Y-68090000D01*
X104624016Y-68090000D01*
X104560000Y-68077266D01*
X104495984Y-68090000D01*
X103028912Y-68090000D01*
X102885152Y-67874848D01*
X102758982Y-67790544D01*
X108290000Y-67790544D01*
X108290000Y-68461000D01*
X108415000Y-68586000D01*
X109486000Y-68586000D01*
X109486000Y-67515000D01*
X109794000Y-67515000D01*
X109794000Y-68586000D01*
X110865000Y-68586000D01*
X110990000Y-68461000D01*
X110990000Y-67790544D01*
X110913879Y-67606773D01*
X110773227Y-67466120D01*
X110589456Y-67390000D01*
X109919000Y-67390000D01*
X109794000Y-67515000D01*
X109486000Y-67515000D01*
X109361000Y-67390000D01*
X108690544Y-67390000D01*
X108506773Y-67466120D01*
X108366121Y-67606773D01*
X108290000Y-67790544D01*
X102758982Y-67790544D01*
X102488217Y-67609625D01*
X102138188Y-67540000D01*
X101901812Y-67540000D01*
X101551783Y-67609625D01*
X101154848Y-67874848D01*
X100889625Y-68271783D01*
X100796491Y-68740000D01*
X100889625Y-69208217D01*
X101154848Y-69605152D01*
X101551783Y-69870375D01*
X101901812Y-69940000D01*
X102138188Y-69940000D01*
X102488217Y-69870375D01*
X102885152Y-69605152D01*
X103028912Y-69390000D01*
X104290763Y-69390000D01*
X108466973Y-73566211D01*
X108416491Y-73820000D01*
X108509625Y-74288217D01*
X108774848Y-74685152D01*
X109171783Y-74950375D01*
X109521812Y-75020000D01*
X109758188Y-75020000D01*
X109893789Y-74993027D01*
X110075647Y-75174885D01*
X110075650Y-75174887D01*
X111675112Y-76774351D01*
X111711376Y-76828624D01*
X111926383Y-76972286D01*
X112115982Y-77010000D01*
X112115983Y-77010000D01*
X112179999Y-77022734D01*
X112244016Y-77010000D01*
X122200764Y-77010000D01*
X122883907Y-77693144D01*
X121490000Y-77693144D01*
X121353437Y-77720308D01*
X121237665Y-77797665D01*
X121160308Y-77913437D01*
X121133144Y-78050000D01*
X121133144Y-79625000D01*
X103520313Y-79625000D01*
X102829423Y-79549945D01*
X102190139Y-79334802D01*
X101611963Y-78987400D01*
X101121874Y-78523947D01*
X100742737Y-77966063D01*
X100492241Y-77339780D01*
X100379597Y-76659348D01*
X100375147Y-76500000D01*
X101730000Y-76500000D01*
X101836744Y-77105376D01*
X102144101Y-77637734D01*
X102615000Y-78032865D01*
X103192643Y-78243110D01*
X103807357Y-78243110D01*
X104385000Y-78032865D01*
X104855899Y-77637734D01*
X105163256Y-77105376D01*
X105270000Y-76500000D01*
X105163256Y-75894624D01*
X104855899Y-75362266D01*
X104385000Y-74967135D01*
X103807357Y-74756890D01*
X103192643Y-74756890D01*
X102615000Y-74967135D01*
X102144101Y-75362266D01*
X101836744Y-75894624D01*
X101730000Y-76500000D01*
X100375147Y-76500000D01*
X100375000Y-76494757D01*
X100375000Y-70430000D01*
X100813144Y-70430000D01*
X100813144Y-72130000D01*
X100840308Y-72266563D01*
X100917665Y-72382335D01*
X101033437Y-72459692D01*
X101170000Y-72486856D01*
X102870000Y-72486856D01*
X103006563Y-72459692D01*
X103122335Y-72382335D01*
X103199692Y-72266563D01*
X103226856Y-72130000D01*
X103226856Y-70430000D01*
X103199692Y-70293437D01*
X103122335Y-70177665D01*
X103006563Y-70100308D01*
X102870000Y-70073144D01*
X101170000Y-70073144D01*
X101033437Y-70100308D01*
X100917665Y-70177665D01*
X100840308Y-70293437D01*
X100813144Y-70430000D01*
X100375000Y-70430000D01*
X100375000Y-65838088D01*
X161679415Y-65838088D01*
X161764719Y-66046000D01*
X162826000Y-66046000D01*
X162826000Y-64983800D01*
X162618086Y-64899403D01*
X162147918Y-65136904D01*
X161804427Y-65536251D01*
X161679415Y-65838088D01*
X100375000Y-65838088D01*
X100375000Y-61342250D01*
X128603654Y-61342250D01*
X128603654Y-63341230D01*
X128630818Y-63477793D01*
X128708175Y-63593565D01*
X128823947Y-63670922D01*
X128960510Y-63698086D01*
X130959490Y-63698086D01*
X131096053Y-63670922D01*
X131211825Y-63593565D01*
X131289182Y-63477793D01*
X131316346Y-63341230D01*
X131316346Y-61342250D01*
X133683654Y-61342250D01*
X133683654Y-63341230D01*
X133710818Y-63477793D01*
X133788175Y-63593565D01*
X133903947Y-63670922D01*
X134040510Y-63698086D01*
X136039490Y-63698086D01*
X136176053Y-63670922D01*
X136291825Y-63593565D01*
X136369182Y-63477793D01*
X136396346Y-63341230D01*
X136396346Y-61342250D01*
X138763654Y-61342250D01*
X138763654Y-63341230D01*
X138790818Y-63477793D01*
X138868175Y-63593565D01*
X138983947Y-63670922D01*
X139120510Y-63698086D01*
X141119490Y-63698086D01*
X141256053Y-63670922D01*
X141371825Y-63593565D01*
X141449182Y-63477793D01*
X141476346Y-63341230D01*
X141476346Y-61547990D01*
X143843654Y-61547990D01*
X143843654Y-63546970D01*
X143870818Y-63683533D01*
X143948175Y-63799305D01*
X144063947Y-63876662D01*
X144200510Y-63903826D01*
X146199490Y-63903826D01*
X146336053Y-63876662D01*
X146451825Y-63799305D01*
X146529182Y-63683533D01*
X146556346Y-63546970D01*
X146556346Y-61547990D01*
X146540684Y-61469250D01*
X148923654Y-61469250D01*
X148923654Y-63468230D01*
X148950818Y-63604793D01*
X149028175Y-63720565D01*
X149143947Y-63797922D01*
X149280510Y-63825086D01*
X151279490Y-63825086D01*
X151416053Y-63797922D01*
X151531825Y-63720565D01*
X151609182Y-63604793D01*
X151636346Y-63468230D01*
X151636346Y-61469250D01*
X151609182Y-61332687D01*
X151531825Y-61216915D01*
X151416053Y-61139558D01*
X151279490Y-61112394D01*
X149280510Y-61112394D01*
X149143947Y-61139558D01*
X149028175Y-61216915D01*
X148950818Y-61332687D01*
X148923654Y-61469250D01*
X146540684Y-61469250D01*
X146529182Y-61411427D01*
X146451825Y-61295655D01*
X146336053Y-61218298D01*
X146199490Y-61191134D01*
X144200510Y-61191134D01*
X144063947Y-61218298D01*
X143948175Y-61295655D01*
X143870818Y-61411427D01*
X143843654Y-61547990D01*
X141476346Y-61547990D01*
X141476346Y-61342250D01*
X141449182Y-61205687D01*
X141371825Y-61089915D01*
X141256053Y-61012558D01*
X141119490Y-60985394D01*
X139120510Y-60985394D01*
X138983947Y-61012558D01*
X138868175Y-61089915D01*
X138790818Y-61205687D01*
X138763654Y-61342250D01*
X136396346Y-61342250D01*
X136369182Y-61205687D01*
X136291825Y-61089915D01*
X136176053Y-61012558D01*
X136039490Y-60985394D01*
X134040510Y-60985394D01*
X133903947Y-61012558D01*
X133788175Y-61089915D01*
X133710818Y-61205687D01*
X133683654Y-61342250D01*
X131316346Y-61342250D01*
X131289182Y-61205687D01*
X131211825Y-61089915D01*
X131096053Y-61012558D01*
X130959490Y-60985394D01*
X128960510Y-60985394D01*
X128823947Y-61012558D01*
X128708175Y-61089915D01*
X128630818Y-61205687D01*
X128603654Y-61342250D01*
X100375000Y-61342250D01*
X100375000Y-57095000D01*
X105893144Y-57095000D01*
X105893144Y-58795000D01*
X105920308Y-58931563D01*
X105997665Y-59047335D01*
X106113437Y-59124692D01*
X106250000Y-59151856D01*
X107950000Y-59151856D01*
X108086563Y-59124692D01*
X108202335Y-59047335D01*
X108279692Y-58931563D01*
X108306856Y-58795000D01*
X108306856Y-57095000D01*
X108279692Y-56958437D01*
X108202335Y-56842665D01*
X108086563Y-56765308D01*
X107950000Y-56738144D01*
X106250000Y-56738144D01*
X106113437Y-56765308D01*
X105997665Y-56842665D01*
X105920308Y-56958437D01*
X105893144Y-57095000D01*
X100375000Y-57095000D01*
X100375000Y-53520313D01*
X100377206Y-53500000D01*
X101730000Y-53500000D01*
X101836744Y-54105376D01*
X102144101Y-54637734D01*
X102615000Y-55032865D01*
X103192643Y-55243110D01*
X103807357Y-55243110D01*
X104385000Y-55032865D01*
X104855899Y-54637734D01*
X105163256Y-54105376D01*
X105270000Y-53500000D01*
X105163256Y-52894624D01*
X104988487Y-52591914D01*
X107069403Y-52591914D01*
X107306904Y-53062082D01*
X107706251Y-53405573D01*
X108008088Y-53530585D01*
X108215998Y-53445282D01*
X108215998Y-53563144D01*
X107520000Y-53563144D01*
X107383437Y-53590308D01*
X107267665Y-53667665D01*
X107190308Y-53783437D01*
X107163144Y-53920000D01*
X107163144Y-55620000D01*
X107190308Y-55756563D01*
X107267665Y-55872335D01*
X107383437Y-55949692D01*
X107520000Y-55976856D01*
X109190001Y-55976856D01*
X109190001Y-56698594D01*
X109190000Y-56698599D01*
X109190000Y-56811001D01*
X109171783Y-56814625D01*
X108774848Y-57079848D01*
X108509625Y-57476783D01*
X108416491Y-57945000D01*
X108509625Y-58413217D01*
X108774848Y-58810152D01*
X109171783Y-59075375D01*
X109521812Y-59145000D01*
X109758188Y-59145000D01*
X110108217Y-59075375D01*
X110505152Y-58810152D01*
X110770375Y-58413217D01*
X110863509Y-57945000D01*
X110956491Y-57945000D01*
X111049625Y-58413217D01*
X111314848Y-58810152D01*
X111711783Y-59075375D01*
X112061812Y-59145000D01*
X112298188Y-59145000D01*
X112648217Y-59075375D01*
X113045152Y-58810152D01*
X113310375Y-58413217D01*
X113403509Y-57945000D01*
X113310375Y-57476783D01*
X113055277Y-57095000D01*
X121133144Y-57095000D01*
X121133144Y-58795000D01*
X121160308Y-58931563D01*
X121237665Y-59047335D01*
X121353437Y-59124692D01*
X121490000Y-59151856D01*
X123190000Y-59151856D01*
X123326563Y-59124692D01*
X123442335Y-59047335D01*
X123519692Y-58931563D01*
X123546856Y-58795000D01*
X123546856Y-57945000D01*
X123656491Y-57945000D01*
X123749625Y-58413217D01*
X124014848Y-58810152D01*
X124411783Y-59075375D01*
X124761812Y-59145000D01*
X124998188Y-59145000D01*
X125348217Y-59075375D01*
X125745152Y-58810152D01*
X126010375Y-58413217D01*
X126103509Y-57945000D01*
X126196491Y-57945000D01*
X126289625Y-58413217D01*
X126554848Y-58810152D01*
X126951783Y-59075375D01*
X127301812Y-59145000D01*
X127538188Y-59145000D01*
X127888217Y-59075375D01*
X128285152Y-58810152D01*
X128550375Y-58413217D01*
X128643509Y-57945000D01*
X128550375Y-57476783D01*
X128295277Y-57095000D01*
X136373144Y-57095000D01*
X136373144Y-58795000D01*
X136400308Y-58931563D01*
X136477665Y-59047335D01*
X136593437Y-59124692D01*
X136730000Y-59151856D01*
X138430000Y-59151856D01*
X138566563Y-59124692D01*
X138682335Y-59047335D01*
X138759692Y-58931563D01*
X138786856Y-58795000D01*
X138786856Y-57945000D01*
X138896491Y-57945000D01*
X138989625Y-58413217D01*
X139254848Y-58810152D01*
X139651783Y-59075375D01*
X140001812Y-59145000D01*
X140238188Y-59145000D01*
X140588217Y-59075375D01*
X140985152Y-58810152D01*
X141250375Y-58413217D01*
X141343509Y-57945000D01*
X141436491Y-57945000D01*
X141529625Y-58413217D01*
X141794848Y-58810152D01*
X142191783Y-59075375D01*
X142541812Y-59145000D01*
X142778188Y-59145000D01*
X143128217Y-59075375D01*
X143525152Y-58810152D01*
X143790375Y-58413217D01*
X143883509Y-57945000D01*
X143790375Y-57476783D01*
X143535277Y-57095000D01*
X151613144Y-57095000D01*
X151613144Y-58795000D01*
X151640308Y-58931563D01*
X151717665Y-59047335D01*
X151833437Y-59124692D01*
X151970000Y-59151856D01*
X153670000Y-59151856D01*
X153806563Y-59124692D01*
X153922335Y-59047335D01*
X153999692Y-58931563D01*
X154026856Y-58795000D01*
X154026856Y-57945000D01*
X154136491Y-57945000D01*
X154229625Y-58413217D01*
X154494848Y-58810152D01*
X154891783Y-59075375D01*
X155241812Y-59145000D01*
X155478188Y-59145000D01*
X155828217Y-59075375D01*
X156225152Y-58810152D01*
X156490375Y-58413217D01*
X156583509Y-57945000D01*
X156676491Y-57945000D01*
X156769625Y-58413217D01*
X157034848Y-58810152D01*
X157431783Y-59075375D01*
X157781812Y-59145000D01*
X158018188Y-59145000D01*
X158368217Y-59075375D01*
X158765152Y-58810152D01*
X159030375Y-58413217D01*
X159123509Y-57945000D01*
X159030375Y-57476783D01*
X158765152Y-57079848D01*
X158368217Y-56814625D01*
X158018188Y-56745000D01*
X157781812Y-56745000D01*
X157431783Y-56814625D01*
X157034848Y-57079848D01*
X156769625Y-57476783D01*
X156676491Y-57945000D01*
X156583509Y-57945000D01*
X156490375Y-57476783D01*
X156225152Y-57079848D01*
X155828217Y-56814625D01*
X155478188Y-56745000D01*
X155241812Y-56745000D01*
X154891783Y-56814625D01*
X154494848Y-57079848D01*
X154229625Y-57476783D01*
X154136491Y-57945000D01*
X154026856Y-57945000D01*
X154026856Y-57095000D01*
X153999692Y-56958437D01*
X153922335Y-56842665D01*
X153806563Y-56765308D01*
X153670000Y-56738144D01*
X151970000Y-56738144D01*
X151833437Y-56765308D01*
X151717665Y-56842665D01*
X151640308Y-56958437D01*
X151613144Y-57095000D01*
X143535277Y-57095000D01*
X143525152Y-57079848D01*
X143128217Y-56814625D01*
X142778188Y-56745000D01*
X142541812Y-56745000D01*
X142191783Y-56814625D01*
X141794848Y-57079848D01*
X141529625Y-57476783D01*
X141436491Y-57945000D01*
X141343509Y-57945000D01*
X141250375Y-57476783D01*
X140985152Y-57079848D01*
X140588217Y-56814625D01*
X140238188Y-56745000D01*
X140001812Y-56745000D01*
X139651783Y-56814625D01*
X139254848Y-57079848D01*
X138989625Y-57476783D01*
X138896491Y-57945000D01*
X138786856Y-57945000D01*
X138786856Y-57095000D01*
X138759692Y-56958437D01*
X138682335Y-56842665D01*
X138566563Y-56765308D01*
X138430000Y-56738144D01*
X136730000Y-56738144D01*
X136593437Y-56765308D01*
X136477665Y-56842665D01*
X136400308Y-56958437D01*
X136373144Y-57095000D01*
X128295277Y-57095000D01*
X128285152Y-57079848D01*
X127888217Y-56814625D01*
X127538188Y-56745000D01*
X127301812Y-56745000D01*
X126951783Y-56814625D01*
X126554848Y-57079848D01*
X126289625Y-57476783D01*
X126196491Y-57945000D01*
X126103509Y-57945000D01*
X126010375Y-57476783D01*
X125745152Y-57079848D01*
X125348217Y-56814625D01*
X124998188Y-56745000D01*
X124761812Y-56745000D01*
X124411783Y-56814625D01*
X124014848Y-57079848D01*
X123749625Y-57476783D01*
X123656491Y-57945000D01*
X123546856Y-57945000D01*
X123546856Y-57095000D01*
X123519692Y-56958437D01*
X123442335Y-56842665D01*
X123326563Y-56765308D01*
X123190000Y-56738144D01*
X121490000Y-56738144D01*
X121353437Y-56765308D01*
X121237665Y-56842665D01*
X121160308Y-56958437D01*
X121133144Y-57095000D01*
X113055277Y-57095000D01*
X113045152Y-57079848D01*
X112648217Y-56814625D01*
X112298188Y-56745000D01*
X112061812Y-56745000D01*
X111711783Y-56814625D01*
X111314848Y-57079848D01*
X111049625Y-57476783D01*
X110956491Y-57945000D01*
X110863509Y-57945000D01*
X110770375Y-57476783D01*
X110505152Y-57079848D01*
X110108217Y-56814625D01*
X110090000Y-56811001D01*
X110090000Y-55665322D01*
X110441783Y-55900375D01*
X110791812Y-55970000D01*
X111028188Y-55970000D01*
X111378217Y-55900375D01*
X111775152Y-55635152D01*
X112040375Y-55238217D01*
X112133509Y-54770000D01*
X112040375Y-54301783D01*
X111805322Y-53950000D01*
X112554678Y-53950000D01*
X112319625Y-54301783D01*
X112226491Y-54770000D01*
X112319625Y-55238217D01*
X112584848Y-55635152D01*
X112981783Y-55900375D01*
X113331812Y-55970000D01*
X113568188Y-55970000D01*
X113918217Y-55900375D01*
X114315152Y-55635152D01*
X114580375Y-55238217D01*
X114673509Y-54770000D01*
X114580375Y-54301783D01*
X114345322Y-53950000D01*
X115094678Y-53950000D01*
X114859625Y-54301783D01*
X114766491Y-54770000D01*
X114859625Y-55238217D01*
X115124848Y-55635152D01*
X115521783Y-55900375D01*
X115871812Y-55970000D01*
X116108188Y-55970000D01*
X116458217Y-55900375D01*
X116855152Y-55635152D01*
X117120375Y-55238217D01*
X117213509Y-54770000D01*
X117306491Y-54770000D01*
X117399625Y-55238217D01*
X117664848Y-55635152D01*
X118061783Y-55900375D01*
X118411812Y-55970000D01*
X118648188Y-55970000D01*
X118998217Y-55900375D01*
X119395152Y-55635152D01*
X119660375Y-55238217D01*
X119753509Y-54770000D01*
X119846491Y-54770000D01*
X119939625Y-55238217D01*
X120204848Y-55635152D01*
X120601783Y-55900375D01*
X120951812Y-55970000D01*
X121188188Y-55970000D01*
X121538217Y-55900375D01*
X121935152Y-55635152D01*
X122200375Y-55238217D01*
X122293509Y-54770000D01*
X122386491Y-54770000D01*
X122479625Y-55238217D01*
X122744848Y-55635152D01*
X123141783Y-55900375D01*
X123491812Y-55970000D01*
X123728188Y-55970000D01*
X124078217Y-55900375D01*
X124475152Y-55635152D01*
X124740375Y-55238217D01*
X124833509Y-54770000D01*
X124926491Y-54770000D01*
X125019625Y-55238217D01*
X125284848Y-55635152D01*
X125681783Y-55900375D01*
X126031812Y-55970000D01*
X126268188Y-55970000D01*
X126618217Y-55900375D01*
X127015152Y-55635152D01*
X127280375Y-55238217D01*
X127373509Y-54770000D01*
X127280375Y-54301783D01*
X127015152Y-53904848D01*
X126618217Y-53639625D01*
X126268188Y-53570000D01*
X126031812Y-53570000D01*
X125681783Y-53639625D01*
X125284848Y-53904848D01*
X125019625Y-54301783D01*
X124926491Y-54770000D01*
X124833509Y-54770000D01*
X124740375Y-54301783D01*
X124475152Y-53904848D01*
X124078217Y-53639625D01*
X123728188Y-53570000D01*
X123491812Y-53570000D01*
X123141783Y-53639625D01*
X122744848Y-53904848D01*
X122479625Y-54301783D01*
X122386491Y-54770000D01*
X122293509Y-54770000D01*
X122200375Y-54301783D01*
X121935152Y-53904848D01*
X121538217Y-53639625D01*
X121188188Y-53570000D01*
X120951812Y-53570000D01*
X120601783Y-53639625D01*
X120204848Y-53904848D01*
X119939625Y-54301783D01*
X119846491Y-54770000D01*
X119753509Y-54770000D01*
X119660375Y-54301783D01*
X119395152Y-53904848D01*
X118998217Y-53639625D01*
X118648188Y-53570000D01*
X118411812Y-53570000D01*
X118061783Y-53639625D01*
X117664848Y-53904848D01*
X117399625Y-54301783D01*
X117306491Y-54770000D01*
X117213509Y-54770000D01*
X117120375Y-54301783D01*
X116885322Y-53950000D01*
X117215680Y-53950000D01*
X117260000Y-53958816D01*
X117304320Y-53950000D01*
X117304321Y-53950000D01*
X117435581Y-53923891D01*
X117584432Y-53824432D01*
X117609540Y-53786855D01*
X118046339Y-53350056D01*
X118061783Y-53360375D01*
X118411812Y-53430000D01*
X118648188Y-53430000D01*
X118998217Y-53360375D01*
X119395152Y-53095152D01*
X119660375Y-52698217D01*
X119753509Y-52230000D01*
X119846491Y-52230000D01*
X119939625Y-52698217D01*
X120204848Y-53095152D01*
X120601783Y-53360375D01*
X120951812Y-53430000D01*
X121188188Y-53430000D01*
X121538217Y-53360375D01*
X121935152Y-53095152D01*
X122200375Y-52698217D01*
X122293509Y-52230000D01*
X122386491Y-52230000D01*
X122479625Y-52698217D01*
X122744848Y-53095152D01*
X123141783Y-53360375D01*
X123491812Y-53430000D01*
X123728188Y-53430000D01*
X124078217Y-53360375D01*
X124475152Y-53095152D01*
X124740375Y-52698217D01*
X124833509Y-52230000D01*
X124926491Y-52230000D01*
X125019625Y-52698217D01*
X125284848Y-53095152D01*
X125681783Y-53360375D01*
X126031812Y-53430000D01*
X126268188Y-53430000D01*
X126618217Y-53360375D01*
X127015152Y-53095152D01*
X127280375Y-52698217D01*
X127373509Y-52230000D01*
X127280375Y-51761783D01*
X127015152Y-51364848D01*
X126618217Y-51099625D01*
X126268188Y-51030000D01*
X126031812Y-51030000D01*
X125681783Y-51099625D01*
X125284848Y-51364848D01*
X125019625Y-51761783D01*
X124926491Y-52230000D01*
X124833509Y-52230000D01*
X124740375Y-51761783D01*
X124475152Y-51364848D01*
X124078217Y-51099625D01*
X123728188Y-51030000D01*
X123491812Y-51030000D01*
X123141783Y-51099625D01*
X122744848Y-51364848D01*
X122479625Y-51761783D01*
X122386491Y-52230000D01*
X122293509Y-52230000D01*
X122200375Y-51761783D01*
X121935152Y-51364848D01*
X121538217Y-51099625D01*
X121188188Y-51030000D01*
X120951812Y-51030000D01*
X120601783Y-51099625D01*
X120204848Y-51364848D01*
X119939625Y-51761783D01*
X119846491Y-52230000D01*
X119753509Y-52230000D01*
X119660375Y-51761783D01*
X119395152Y-51364848D01*
X118998217Y-51099625D01*
X118648188Y-51030000D01*
X118411812Y-51030000D01*
X118061783Y-51099625D01*
X117664848Y-51364848D01*
X117399625Y-51761783D01*
X117306491Y-52230000D01*
X117399625Y-52698217D01*
X117409944Y-52713661D01*
X117073605Y-53050000D01*
X116885322Y-53050000D01*
X117120375Y-52698217D01*
X117213509Y-52230000D01*
X117120375Y-51761783D01*
X116855152Y-51364848D01*
X116458217Y-51099625D01*
X116108188Y-51030000D01*
X115871812Y-51030000D01*
X115521783Y-51099625D01*
X115124848Y-51364848D01*
X114859625Y-51761783D01*
X114766491Y-52230000D01*
X114859625Y-52698217D01*
X115094678Y-53050000D01*
X114345322Y-53050000D01*
X114580375Y-52698217D01*
X114673509Y-52230000D01*
X114580375Y-51761783D01*
X114315152Y-51364848D01*
X113918217Y-51099625D01*
X113568188Y-51030000D01*
X113331812Y-51030000D01*
X112981783Y-51099625D01*
X112584848Y-51364848D01*
X112319625Y-51761783D01*
X112257124Y-52075998D01*
X112126201Y-52075998D01*
X112210597Y-51868086D01*
X111973096Y-51397918D01*
X111573749Y-51054427D01*
X111271912Y-50929415D01*
X111064000Y-51014719D01*
X111064000Y-52076000D01*
X111084000Y-52076000D01*
X111084000Y-52384000D01*
X111064000Y-52384000D01*
X111064000Y-52404000D01*
X110756000Y-52404000D01*
X110756000Y-52384000D01*
X109693800Y-52384000D01*
X109640000Y-52516538D01*
X109586200Y-52384000D01*
X108524000Y-52384000D01*
X108524000Y-52404000D01*
X108216000Y-52404000D01*
X108216000Y-52384000D01*
X107153800Y-52384000D01*
X107069403Y-52591914D01*
X104988487Y-52591914D01*
X104855899Y-52362266D01*
X104385000Y-51967135D01*
X104112866Y-51868086D01*
X107069403Y-51868086D01*
X107153800Y-52076000D01*
X108216000Y-52076000D01*
X108216000Y-51014719D01*
X108524000Y-51014719D01*
X108524000Y-52076000D01*
X109586200Y-52076000D01*
X109640000Y-51943462D01*
X109693800Y-52076000D01*
X110756000Y-52076000D01*
X110756000Y-51014719D01*
X110548088Y-50929415D01*
X110246251Y-51054427D01*
X109846904Y-51397918D01*
X109640000Y-51807515D01*
X109433096Y-51397918D01*
X109033749Y-51054427D01*
X108731912Y-50929415D01*
X108524000Y-51014719D01*
X108216000Y-51014719D01*
X108008088Y-50929415D01*
X107706251Y-51054427D01*
X107306904Y-51397918D01*
X107069403Y-51868086D01*
X104112866Y-51868086D01*
X103807357Y-51756890D01*
X103192643Y-51756890D01*
X102615000Y-51967135D01*
X102144101Y-52362266D01*
X101836744Y-52894624D01*
X101730000Y-53500000D01*
X100377206Y-53500000D01*
X100450055Y-52829423D01*
X100665198Y-52190139D01*
X101012602Y-51611960D01*
X101476055Y-51121873D01*
X102033937Y-50742737D01*
X102660217Y-50492243D01*
X103340652Y-50379597D01*
X103505243Y-50375000D01*
X161479687Y-50375000D01*
X162170577Y-50450055D01*
G04 #@! TD*
M02*
