G04 #@! TF.GenerationSoftware,KiCad,Pcbnew,(5.0.2)*
G04 #@! TF.CreationDate,2020-11-06T15:24:57+00:00*
G04 #@! TF.ProjectId,alto,616c746f-2e6b-4696-9361-645f70636258,rev?*
G04 #@! TF.SameCoordinates,Original*
G04 #@! TF.FileFunction,Legend,Top*
G04 #@! TF.FilePolarity,Positive*
%FSLAX46Y46*%
G04 Gerber Fmt 4.6, Leading zero omitted, Abs format (unit mm)*
G04 Created by KiCad (PCBNEW (5.0.2)) date Fri 06 Nov 2020 15:24:57 GMT*
%MOMM*%
%LPD*%
G01*
G04 APERTURE LIST*
%ADD10C,0.150000*%
%ADD11C,0.200000*%
%ADD12C,0.120000*%
G04 APERTURE END LIST*
D10*
X123689523Y-60889761D02*
X123832380Y-60937380D01*
X124070476Y-60937380D01*
X124165714Y-60889761D01*
X124213333Y-60842142D01*
X124260952Y-60746904D01*
X124260952Y-60651666D01*
X124213333Y-60556428D01*
X124165714Y-60508809D01*
X124070476Y-60461190D01*
X123880000Y-60413571D01*
X123784761Y-60365952D01*
X123737142Y-60318333D01*
X123689523Y-60223095D01*
X123689523Y-60127857D01*
X123737142Y-60032619D01*
X123784761Y-59985000D01*
X123880000Y-59937380D01*
X124118095Y-59937380D01*
X124260952Y-59985000D01*
X125260952Y-60842142D02*
X125213333Y-60889761D01*
X125070476Y-60937380D01*
X124975238Y-60937380D01*
X124832380Y-60889761D01*
X124737142Y-60794523D01*
X124689523Y-60699285D01*
X124641904Y-60508809D01*
X124641904Y-60365952D01*
X124689523Y-60175476D01*
X124737142Y-60080238D01*
X124832380Y-59985000D01*
X124975238Y-59937380D01*
X125070476Y-59937380D01*
X125213333Y-59985000D01*
X125260952Y-60032619D01*
X126165714Y-60937380D02*
X125689523Y-60937380D01*
X125689523Y-59937380D01*
X127039047Y-60556428D02*
X127800952Y-60556428D01*
X111799047Y-60556428D02*
X112560952Y-60556428D01*
X156965595Y-63287380D02*
X156965595Y-62620714D01*
X156965595Y-62811190D02*
X157013214Y-62715952D01*
X157060833Y-62668333D01*
X157156071Y-62620714D01*
X157251309Y-62620714D01*
X157965595Y-63239761D02*
X157870357Y-63287380D01*
X157679880Y-63287380D01*
X157584642Y-63239761D01*
X157537023Y-63144523D01*
X157537023Y-62763571D01*
X157584642Y-62668333D01*
X157679880Y-62620714D01*
X157870357Y-62620714D01*
X157965595Y-62668333D01*
X158013214Y-62763571D01*
X158013214Y-62858809D01*
X157537023Y-62954047D01*
X158870357Y-62620714D02*
X158870357Y-63430238D01*
X158822738Y-63525476D01*
X158775119Y-63573095D01*
X158679880Y-63620714D01*
X158537023Y-63620714D01*
X158441785Y-63573095D01*
X158870357Y-63239761D02*
X158775119Y-63287380D01*
X158584642Y-63287380D01*
X158489404Y-63239761D01*
X158441785Y-63192142D01*
X158394166Y-63096904D01*
X158394166Y-62811190D01*
X158441785Y-62715952D01*
X158489404Y-62668333D01*
X158584642Y-62620714D01*
X158775119Y-62620714D01*
X158870357Y-62668333D01*
X159346547Y-63192142D02*
X159394166Y-63239761D01*
X159346547Y-63287380D01*
X159298928Y-63239761D01*
X159346547Y-63192142D01*
X159346547Y-63287380D01*
X160584642Y-62620714D02*
X160584642Y-63620714D01*
X160584642Y-62668333D02*
X160679880Y-62620714D01*
X160870357Y-62620714D01*
X160965595Y-62668333D01*
X161013214Y-62715952D01*
X161060833Y-62811190D01*
X161060833Y-63096904D01*
X161013214Y-63192142D01*
X160965595Y-63239761D01*
X160870357Y-63287380D01*
X160679880Y-63287380D01*
X160584642Y-63239761D01*
X161632261Y-63287380D02*
X161537023Y-63239761D01*
X161489404Y-63192142D01*
X161441785Y-63096904D01*
X161441785Y-62811190D01*
X161489404Y-62715952D01*
X161537023Y-62668333D01*
X161632261Y-62620714D01*
X161775119Y-62620714D01*
X161870357Y-62668333D01*
X161917976Y-62715952D01*
X161965595Y-62811190D01*
X161965595Y-63096904D01*
X161917976Y-63192142D01*
X161870357Y-63239761D01*
X161775119Y-63287380D01*
X161632261Y-63287380D01*
X162298928Y-62620714D02*
X162489404Y-63287380D01*
X162679880Y-62811190D01*
X162870357Y-63287380D01*
X163060833Y-62620714D01*
X163822738Y-63239761D02*
X163727500Y-63287380D01*
X163537023Y-63287380D01*
X163441785Y-63239761D01*
X163394166Y-63144523D01*
X163394166Y-62763571D01*
X163441785Y-62668333D01*
X163537023Y-62620714D01*
X163727500Y-62620714D01*
X163822738Y-62668333D01*
X163870357Y-62763571D01*
X163870357Y-62858809D01*
X163394166Y-62954047D01*
X164298928Y-63287380D02*
X164298928Y-62620714D01*
X164298928Y-62811190D02*
X164346547Y-62715952D01*
X164394166Y-62668333D01*
X164489404Y-62620714D01*
X164584642Y-62620714D01*
X157108452Y-64937380D02*
X157013214Y-64889761D01*
X156965595Y-64842142D01*
X156917976Y-64746904D01*
X156917976Y-64461190D01*
X156965595Y-64365952D01*
X157013214Y-64318333D01*
X157108452Y-64270714D01*
X157251309Y-64270714D01*
X157346547Y-64318333D01*
X157394166Y-64365952D01*
X157441785Y-64461190D01*
X157441785Y-64746904D01*
X157394166Y-64842142D01*
X157346547Y-64889761D01*
X157251309Y-64937380D01*
X157108452Y-64937380D01*
X158298928Y-64270714D02*
X158298928Y-64937380D01*
X157870357Y-64270714D02*
X157870357Y-64794523D01*
X157917976Y-64889761D01*
X158013214Y-64937380D01*
X158156071Y-64937380D01*
X158251309Y-64889761D01*
X158298928Y-64842142D01*
X158632261Y-64270714D02*
X159013214Y-64270714D01*
X158775119Y-63937380D02*
X158775119Y-64794523D01*
X158822738Y-64889761D01*
X158917976Y-64937380D01*
X159013214Y-64937380D01*
X159882261Y-65604120D02*
X159406071Y-65604120D01*
X159358452Y-66080311D01*
X159406071Y-66032692D01*
X159501309Y-65985073D01*
X159739404Y-65985073D01*
X159834642Y-66032692D01*
X159882261Y-66080311D01*
X159929880Y-66175549D01*
X159929880Y-66413644D01*
X159882261Y-66508882D01*
X159834642Y-66556501D01*
X159739404Y-66604120D01*
X159501309Y-66604120D01*
X159406071Y-66556501D01*
X159358452Y-66508882D01*
X160215595Y-65604120D02*
X160548928Y-66604120D01*
X160882261Y-65604120D01*
X157882261Y-68192380D02*
X158501309Y-68192380D01*
X158167976Y-68573333D01*
X158310833Y-68573333D01*
X158406071Y-68620952D01*
X158453690Y-68668571D01*
X158501309Y-68763809D01*
X158501309Y-69001904D01*
X158453690Y-69097142D01*
X158406071Y-69144761D01*
X158310833Y-69192380D01*
X158025119Y-69192380D01*
X157929880Y-69144761D01*
X157882261Y-69097142D01*
X158929880Y-69097142D02*
X158977500Y-69144761D01*
X158929880Y-69192380D01*
X158882261Y-69144761D01*
X158929880Y-69097142D01*
X158929880Y-69192380D01*
X159310833Y-68192380D02*
X159929880Y-68192380D01*
X159596547Y-68573333D01*
X159739404Y-68573333D01*
X159834642Y-68620952D01*
X159882261Y-68668571D01*
X159929880Y-68763809D01*
X159929880Y-69001904D01*
X159882261Y-69097142D01*
X159834642Y-69144761D01*
X159739404Y-69192380D01*
X159453690Y-69192380D01*
X159358452Y-69144761D01*
X159310833Y-69097142D01*
X160215595Y-68192380D02*
X160548928Y-69192380D01*
X160882261Y-68192380D01*
X159977500Y-71303168D02*
X160739404Y-71303168D01*
X152502857Y-60937380D02*
X151931428Y-60937380D01*
X152217142Y-60937380D02*
X152217142Y-59937380D01*
X152121904Y-60080238D01*
X152026666Y-60175476D01*
X151931428Y-60223095D01*
X152836190Y-59937380D02*
X153455238Y-59937380D01*
X153121904Y-60318333D01*
X153264761Y-60318333D01*
X153360000Y-60365952D01*
X153407619Y-60413571D01*
X153455238Y-60508809D01*
X153455238Y-60746904D01*
X153407619Y-60842142D01*
X153360000Y-60889761D01*
X153264761Y-60937380D01*
X152979047Y-60937380D01*
X152883809Y-60889761D01*
X152836190Y-60842142D01*
X155169523Y-60937380D02*
X154598095Y-60937380D01*
X154883809Y-60937380D02*
X154883809Y-59937380D01*
X154788571Y-60080238D01*
X154693333Y-60175476D01*
X154598095Y-60223095D01*
X155645714Y-60937380D02*
X155836190Y-60937380D01*
X155931428Y-60889761D01*
X155979047Y-60842142D01*
X156074285Y-60699285D01*
X156121904Y-60508809D01*
X156121904Y-60127857D01*
X156074285Y-60032619D01*
X156026666Y-59985000D01*
X155931428Y-59937380D01*
X155740952Y-59937380D01*
X155645714Y-59985000D01*
X155598095Y-60032619D01*
X155550476Y-60127857D01*
X155550476Y-60365952D01*
X155598095Y-60461190D01*
X155645714Y-60508809D01*
X155740952Y-60556428D01*
X155931428Y-60556428D01*
X156026666Y-60508809D01*
X156074285Y-60461190D01*
X156121904Y-60365952D01*
X157264761Y-60032619D02*
X157312380Y-59985000D01*
X157407619Y-59937380D01*
X157645714Y-59937380D01*
X157740952Y-59985000D01*
X157788571Y-60032619D01*
X157836190Y-60127857D01*
X157836190Y-60223095D01*
X157788571Y-60365952D01*
X157217142Y-60937380D01*
X157836190Y-60937380D01*
X158693333Y-59937380D02*
X158502857Y-59937380D01*
X158407619Y-59985000D01*
X158360000Y-60032619D01*
X158264761Y-60175476D01*
X158217142Y-60365952D01*
X158217142Y-60746904D01*
X158264761Y-60842142D01*
X158312380Y-60889761D01*
X158407619Y-60937380D01*
X158598095Y-60937380D01*
X158693333Y-60889761D01*
X158740952Y-60842142D01*
X158788571Y-60746904D01*
X158788571Y-60508809D01*
X158740952Y-60413571D01*
X158693333Y-60365952D01*
X158598095Y-60318333D01*
X158407619Y-60318333D01*
X158312380Y-60365952D01*
X158264761Y-60413571D01*
X158217142Y-60508809D01*
X134572380Y-60937380D02*
X134572380Y-59937380D01*
X134905714Y-60651666D01*
X135239047Y-59937380D01*
X135239047Y-60937380D01*
X135905714Y-59937380D02*
X136096190Y-59937380D01*
X136191428Y-59985000D01*
X136286666Y-60080238D01*
X136334285Y-60270714D01*
X136334285Y-60604047D01*
X136286666Y-60794523D01*
X136191428Y-60889761D01*
X136096190Y-60937380D01*
X135905714Y-60937380D01*
X135810476Y-60889761D01*
X135715238Y-60794523D01*
X135667619Y-60604047D01*
X135667619Y-60270714D01*
X135715238Y-60080238D01*
X135810476Y-59985000D01*
X135905714Y-59937380D01*
X136715238Y-60889761D02*
X136858095Y-60937380D01*
X137096190Y-60937380D01*
X137191428Y-60889761D01*
X137239047Y-60842142D01*
X137286666Y-60746904D01*
X137286666Y-60651666D01*
X137239047Y-60556428D01*
X137191428Y-60508809D01*
X137096190Y-60461190D01*
X136905714Y-60413571D01*
X136810476Y-60365952D01*
X136762857Y-60318333D01*
X136715238Y-60223095D01*
X136715238Y-60127857D01*
X136762857Y-60032619D01*
X136810476Y-59985000D01*
X136905714Y-59937380D01*
X137143809Y-59937380D01*
X137286666Y-59985000D01*
X137715238Y-60937380D02*
X137715238Y-59937380D01*
X138953333Y-60937380D02*
X138953333Y-59937380D01*
X139286666Y-60651666D01*
X139620000Y-59937380D01*
X139620000Y-60937380D01*
X140096190Y-60937380D02*
X140096190Y-59937380D01*
X140524761Y-60889761D02*
X140667619Y-60937380D01*
X140905714Y-60937380D01*
X141000952Y-60889761D01*
X141048571Y-60842142D01*
X141096190Y-60746904D01*
X141096190Y-60651666D01*
X141048571Y-60556428D01*
X141000952Y-60508809D01*
X140905714Y-60461190D01*
X140715238Y-60413571D01*
X140620000Y-60365952D01*
X140572380Y-60318333D01*
X140524761Y-60223095D01*
X140524761Y-60127857D01*
X140572380Y-60032619D01*
X140620000Y-59985000D01*
X140715238Y-59937380D01*
X140953333Y-59937380D01*
X141096190Y-59985000D01*
X141715238Y-59937380D02*
X141905714Y-59937380D01*
X142000952Y-59985000D01*
X142096190Y-60080238D01*
X142143809Y-60270714D01*
X142143809Y-60604047D01*
X142096190Y-60794523D01*
X142000952Y-60889761D01*
X141905714Y-60937380D01*
X141715238Y-60937380D01*
X141620000Y-60889761D01*
X141524761Y-60794523D01*
X141477142Y-60604047D01*
X141477142Y-60270714D01*
X141524761Y-60080238D01*
X141620000Y-59985000D01*
X141715238Y-59937380D01*
X143905714Y-60842142D02*
X143858095Y-60889761D01*
X143715238Y-60937380D01*
X143620000Y-60937380D01*
X143477142Y-60889761D01*
X143381904Y-60794523D01*
X143334285Y-60699285D01*
X143286666Y-60508809D01*
X143286666Y-60365952D01*
X143334285Y-60175476D01*
X143381904Y-60080238D01*
X143477142Y-59985000D01*
X143620000Y-59937380D01*
X143715238Y-59937380D01*
X143858095Y-59985000D01*
X143905714Y-60032619D01*
X144810476Y-60937380D02*
X144334285Y-60937380D01*
X144334285Y-59937380D01*
X145143809Y-60937380D02*
X145143809Y-59937380D01*
X145715238Y-60937380D02*
X145286666Y-60365952D01*
X145715238Y-59937380D02*
X145143809Y-60508809D01*
X120490714Y-60889761D02*
X120633571Y-60937380D01*
X120871666Y-60937380D01*
X120966904Y-60889761D01*
X121014523Y-60842142D01*
X121062142Y-60746904D01*
X121062142Y-60651666D01*
X121014523Y-60556428D01*
X120966904Y-60508809D01*
X120871666Y-60461190D01*
X120681190Y-60413571D01*
X120585952Y-60365952D01*
X120538333Y-60318333D01*
X120490714Y-60223095D01*
X120490714Y-60127857D01*
X120538333Y-60032619D01*
X120585952Y-59985000D01*
X120681190Y-59937380D01*
X120919285Y-59937380D01*
X121062142Y-59985000D01*
X121490714Y-60937380D02*
X121490714Y-59937380D01*
X121728809Y-59937380D01*
X121871666Y-59985000D01*
X121966904Y-60080238D01*
X122014523Y-60175476D01*
X122062142Y-60365952D01*
X122062142Y-60508809D01*
X122014523Y-60699285D01*
X121966904Y-60794523D01*
X121871666Y-60889761D01*
X121728809Y-60937380D01*
X121490714Y-60937380D01*
X122443095Y-60651666D02*
X122919285Y-60651666D01*
X122347857Y-60937380D02*
X122681190Y-59937380D01*
X123014523Y-60937380D01*
X141787142Y-74907380D02*
X141787142Y-73907380D01*
X141787142Y-74288333D02*
X141882380Y-74240714D01*
X142072857Y-74240714D01*
X142168095Y-74288333D01*
X142215714Y-74335952D01*
X142263333Y-74431190D01*
X142263333Y-74716904D01*
X142215714Y-74812142D01*
X142168095Y-74859761D01*
X142072857Y-74907380D01*
X141882380Y-74907380D01*
X141787142Y-74859761D01*
X143120476Y-74240714D02*
X143120476Y-74907380D01*
X142691904Y-74240714D02*
X142691904Y-74764523D01*
X142739523Y-74859761D01*
X142834761Y-74907380D01*
X142977619Y-74907380D01*
X143072857Y-74859761D01*
X143120476Y-74812142D01*
X143453809Y-74240714D02*
X143834761Y-74240714D01*
X143596666Y-73907380D02*
X143596666Y-74764523D01*
X143644285Y-74859761D01*
X143739523Y-74907380D01*
X143834761Y-74907380D01*
X144025238Y-74240714D02*
X144406190Y-74240714D01*
X144168095Y-73907380D02*
X144168095Y-74764523D01*
X144215714Y-74859761D01*
X144310952Y-74907380D01*
X144406190Y-74907380D01*
X144882380Y-74907380D02*
X144787142Y-74859761D01*
X144739523Y-74812142D01*
X144691904Y-74716904D01*
X144691904Y-74431190D01*
X144739523Y-74335952D01*
X144787142Y-74288333D01*
X144882380Y-74240714D01*
X145025238Y-74240714D01*
X145120476Y-74288333D01*
X145168095Y-74335952D01*
X145215714Y-74431190D01*
X145215714Y-74716904D01*
X145168095Y-74812142D01*
X145120476Y-74859761D01*
X145025238Y-74907380D01*
X144882380Y-74907380D01*
X145644285Y-74240714D02*
X145644285Y-74907380D01*
X145644285Y-74335952D02*
X145691904Y-74288333D01*
X145787142Y-74240714D01*
X145930000Y-74240714D01*
X146025238Y-74288333D01*
X146072857Y-74383571D01*
X146072857Y-74907380D01*
X136707142Y-74907380D02*
X136707142Y-73907380D01*
X136707142Y-74288333D02*
X136802380Y-74240714D01*
X136992857Y-74240714D01*
X137088095Y-74288333D01*
X137135714Y-74335952D01*
X137183333Y-74431190D01*
X137183333Y-74716904D01*
X137135714Y-74812142D01*
X137088095Y-74859761D01*
X136992857Y-74907380D01*
X136802380Y-74907380D01*
X136707142Y-74859761D01*
X138040476Y-74240714D02*
X138040476Y-74907380D01*
X137611904Y-74240714D02*
X137611904Y-74764523D01*
X137659523Y-74859761D01*
X137754761Y-74907380D01*
X137897619Y-74907380D01*
X137992857Y-74859761D01*
X138040476Y-74812142D01*
X138373809Y-74240714D02*
X138754761Y-74240714D01*
X138516666Y-73907380D02*
X138516666Y-74764523D01*
X138564285Y-74859761D01*
X138659523Y-74907380D01*
X138754761Y-74907380D01*
X138945238Y-74240714D02*
X139326190Y-74240714D01*
X139088095Y-73907380D02*
X139088095Y-74764523D01*
X139135714Y-74859761D01*
X139230952Y-74907380D01*
X139326190Y-74907380D01*
X139802380Y-74907380D02*
X139707142Y-74859761D01*
X139659523Y-74812142D01*
X139611904Y-74716904D01*
X139611904Y-74431190D01*
X139659523Y-74335952D01*
X139707142Y-74288333D01*
X139802380Y-74240714D01*
X139945238Y-74240714D01*
X140040476Y-74288333D01*
X140088095Y-74335952D01*
X140135714Y-74431190D01*
X140135714Y-74716904D01*
X140088095Y-74812142D01*
X140040476Y-74859761D01*
X139945238Y-74907380D01*
X139802380Y-74907380D01*
X140564285Y-74240714D02*
X140564285Y-74907380D01*
X140564285Y-74335952D02*
X140611904Y-74288333D01*
X140707142Y-74240714D01*
X140850000Y-74240714D01*
X140945238Y-74288333D01*
X140992857Y-74383571D01*
X140992857Y-74907380D01*
X130714285Y-74859761D02*
X130809523Y-74907380D01*
X131000000Y-74907380D01*
X131095238Y-74859761D01*
X131142857Y-74764523D01*
X131142857Y-74716904D01*
X131095238Y-74621666D01*
X131000000Y-74574047D01*
X130857142Y-74574047D01*
X130761904Y-74526428D01*
X130714285Y-74431190D01*
X130714285Y-74383571D01*
X130761904Y-74288333D01*
X130857142Y-74240714D01*
X131000000Y-74240714D01*
X131095238Y-74288333D01*
X131952380Y-74859761D02*
X131857142Y-74907380D01*
X131666666Y-74907380D01*
X131571428Y-74859761D01*
X131523809Y-74764523D01*
X131523809Y-74383571D01*
X131571428Y-74288333D01*
X131666666Y-74240714D01*
X131857142Y-74240714D01*
X131952380Y-74288333D01*
X132000000Y-74383571D01*
X132000000Y-74478809D01*
X131523809Y-74574047D01*
X132428571Y-74907380D02*
X132428571Y-74240714D01*
X132428571Y-74431190D02*
X132476190Y-74335952D01*
X132523809Y-74288333D01*
X132619047Y-74240714D01*
X132714285Y-74240714D01*
X132952380Y-74240714D02*
X133190476Y-74907380D01*
X133428571Y-74240714D01*
X133952380Y-74907380D02*
X133857142Y-74859761D01*
X133809523Y-74812142D01*
X133761904Y-74716904D01*
X133761904Y-74431190D01*
X133809523Y-74335952D01*
X133857142Y-74288333D01*
X133952380Y-74240714D01*
X134095238Y-74240714D01*
X134190476Y-74288333D01*
X134238095Y-74335952D01*
X134285714Y-74431190D01*
X134285714Y-74716904D01*
X134238095Y-74812142D01*
X134190476Y-74859761D01*
X134095238Y-74907380D01*
X133952380Y-74907380D01*
X123094285Y-74859761D02*
X123189523Y-74907380D01*
X123380000Y-74907380D01*
X123475238Y-74859761D01*
X123522857Y-74764523D01*
X123522857Y-74716904D01*
X123475238Y-74621666D01*
X123380000Y-74574047D01*
X123237142Y-74574047D01*
X123141904Y-74526428D01*
X123094285Y-74431190D01*
X123094285Y-74383571D01*
X123141904Y-74288333D01*
X123237142Y-74240714D01*
X123380000Y-74240714D01*
X123475238Y-74288333D01*
X124332380Y-74859761D02*
X124237142Y-74907380D01*
X124046666Y-74907380D01*
X123951428Y-74859761D01*
X123903809Y-74764523D01*
X123903809Y-74383571D01*
X123951428Y-74288333D01*
X124046666Y-74240714D01*
X124237142Y-74240714D01*
X124332380Y-74288333D01*
X124380000Y-74383571D01*
X124380000Y-74478809D01*
X123903809Y-74574047D01*
X124808571Y-74907380D02*
X124808571Y-74240714D01*
X124808571Y-74431190D02*
X124856190Y-74335952D01*
X124903809Y-74288333D01*
X124999047Y-74240714D01*
X125094285Y-74240714D01*
X125332380Y-74240714D02*
X125570476Y-74907380D01*
X125808571Y-74240714D01*
X126332380Y-74907380D02*
X126237142Y-74859761D01*
X126189523Y-74812142D01*
X126141904Y-74716904D01*
X126141904Y-74431190D01*
X126189523Y-74335952D01*
X126237142Y-74288333D01*
X126332380Y-74240714D01*
X126475238Y-74240714D01*
X126570476Y-74288333D01*
X126618095Y-74335952D01*
X126665714Y-74431190D01*
X126665714Y-74716904D01*
X126618095Y-74812142D01*
X126570476Y-74859761D01*
X126475238Y-74907380D01*
X126332380Y-74907380D01*
D11*
X108370000Y-75090000D02*
X108370000Y-67470000D01*
X119800000Y-75090000D02*
X108370000Y-75090000D01*
X119800000Y-67470000D02*
X119800000Y-75090000D01*
X108370000Y-67470000D02*
X119800000Y-67470000D01*
D10*
X109473333Y-60937380D02*
X109140000Y-60461190D01*
X108901904Y-60937380D02*
X108901904Y-59937380D01*
X109282857Y-59937380D01*
X109378095Y-59985000D01*
X109425714Y-60032619D01*
X109473333Y-60127857D01*
X109473333Y-60270714D01*
X109425714Y-60365952D01*
X109378095Y-60413571D01*
X109282857Y-60461190D01*
X108901904Y-60461190D01*
X109806666Y-59937380D02*
X110473333Y-60937380D01*
X110473333Y-59937380D02*
X109806666Y-60937380D01*
X106338095Y-59937380D02*
X106909523Y-59937380D01*
X106623809Y-60937380D02*
X106623809Y-59937380D01*
X107147619Y-59937380D02*
X107814285Y-60937380D01*
X107814285Y-59937380D02*
X107147619Y-60937380D01*
X112023452Y-69192380D02*
X111928214Y-69144761D01*
X111880595Y-69097142D01*
X111832976Y-69001904D01*
X111832976Y-68716190D01*
X111880595Y-68620952D01*
X111928214Y-68573333D01*
X112023452Y-68525714D01*
X112166309Y-68525714D01*
X112261547Y-68573333D01*
X112309166Y-68620952D01*
X112356785Y-68716190D01*
X112356785Y-69001904D01*
X112309166Y-69097142D01*
X112261547Y-69144761D01*
X112166309Y-69192380D01*
X112023452Y-69192380D01*
X113213928Y-68525714D02*
X113213928Y-69192380D01*
X112785357Y-68525714D02*
X112785357Y-69049523D01*
X112832976Y-69144761D01*
X112928214Y-69192380D01*
X113071071Y-69192380D01*
X113166309Y-69144761D01*
X113213928Y-69097142D01*
X113547261Y-68525714D02*
X113928214Y-68525714D01*
X113690119Y-68192380D02*
X113690119Y-69049523D01*
X113737738Y-69144761D01*
X113832976Y-69192380D01*
X113928214Y-69192380D01*
X111880595Y-74272380D02*
X111880595Y-73605714D01*
X111880595Y-73272380D02*
X111832976Y-73320000D01*
X111880595Y-73367619D01*
X111928214Y-73320000D01*
X111880595Y-73272380D01*
X111880595Y-73367619D01*
X112356785Y-73605714D02*
X112356785Y-74272380D01*
X112356785Y-73700952D02*
X112404404Y-73653333D01*
X112499642Y-73605714D01*
X112642500Y-73605714D01*
X112737738Y-73653333D01*
X112785357Y-73748571D01*
X112785357Y-74272380D01*
X111799047Y-71351428D02*
X112560952Y-71351428D01*
X110108809Y-65652380D02*
X109632619Y-65652380D01*
X109585000Y-66128571D01*
X109632619Y-66080952D01*
X109727857Y-66033333D01*
X109965952Y-66033333D01*
X110061190Y-66080952D01*
X110108809Y-66128571D01*
X110156428Y-66223809D01*
X110156428Y-66461904D01*
X110108809Y-66557142D01*
X110061190Y-66604761D01*
X109965952Y-66652380D01*
X109727857Y-66652380D01*
X109632619Y-66604761D01*
X109585000Y-66557142D01*
X110442142Y-65652380D02*
X110775476Y-66652380D01*
X111108809Y-65652380D01*
X112204047Y-66652380D02*
X112204047Y-65985714D01*
X112204047Y-66176190D02*
X112251666Y-66080952D01*
X112299285Y-66033333D01*
X112394523Y-65985714D01*
X112489761Y-65985714D01*
X113204047Y-66604761D02*
X113108809Y-66652380D01*
X112918333Y-66652380D01*
X112823095Y-66604761D01*
X112775476Y-66509523D01*
X112775476Y-66128571D01*
X112823095Y-66033333D01*
X112918333Y-65985714D01*
X113108809Y-65985714D01*
X113204047Y-66033333D01*
X113251666Y-66128571D01*
X113251666Y-66223809D01*
X112775476Y-66319047D01*
X114108809Y-65985714D02*
X114108809Y-66795238D01*
X114061190Y-66890476D01*
X114013571Y-66938095D01*
X113918333Y-66985714D01*
X113775476Y-66985714D01*
X113680238Y-66938095D01*
X114108809Y-66604761D02*
X114013571Y-66652380D01*
X113823095Y-66652380D01*
X113727857Y-66604761D01*
X113680238Y-66557142D01*
X113632619Y-66461904D01*
X113632619Y-66176190D01*
X113680238Y-66080952D01*
X113727857Y-66033333D01*
X113823095Y-65985714D01*
X114013571Y-65985714D01*
X114108809Y-66033333D01*
X115013571Y-65985714D02*
X115013571Y-66652380D01*
X114585000Y-65985714D02*
X114585000Y-66509523D01*
X114632619Y-66604761D01*
X114727857Y-66652380D01*
X114870714Y-66652380D01*
X114965952Y-66604761D01*
X115013571Y-66557142D01*
X115632619Y-66652380D02*
X115537380Y-66604761D01*
X115489761Y-66509523D01*
X115489761Y-65652380D01*
X116442142Y-66652380D02*
X116442142Y-66128571D01*
X116394523Y-66033333D01*
X116299285Y-65985714D01*
X116108809Y-65985714D01*
X116013571Y-66033333D01*
X116442142Y-66604761D02*
X116346904Y-66652380D01*
X116108809Y-66652380D01*
X116013571Y-66604761D01*
X115965952Y-66509523D01*
X115965952Y-66414285D01*
X116013571Y-66319047D01*
X116108809Y-66271428D01*
X116346904Y-66271428D01*
X116442142Y-66223809D01*
X116775476Y-65985714D02*
X117156428Y-65985714D01*
X116918333Y-65652380D02*
X116918333Y-66509523D01*
X116965952Y-66604761D01*
X117061190Y-66652380D01*
X117156428Y-66652380D01*
X117632619Y-66652380D02*
X117537380Y-66604761D01*
X117489761Y-66557142D01*
X117442142Y-66461904D01*
X117442142Y-66176190D01*
X117489761Y-66080952D01*
X117537380Y-66033333D01*
X117632619Y-65985714D01*
X117775476Y-65985714D01*
X117870714Y-66033333D01*
X117918333Y-66080952D01*
X117965952Y-66176190D01*
X117965952Y-66461904D01*
X117918333Y-66557142D01*
X117870714Y-66604761D01*
X117775476Y-66652380D01*
X117632619Y-66652380D01*
X118394523Y-66652380D02*
X118394523Y-65985714D01*
X118394523Y-66176190D02*
X118442142Y-66080952D01*
X118489761Y-66033333D01*
X118585000Y-65985714D01*
X118680238Y-65985714D01*
X101514166Y-63017454D02*
X101514166Y-63684120D01*
X101276071Y-62636501D02*
X101037976Y-63350787D01*
X101657023Y-63350787D01*
X102037976Y-63303168D02*
X102799880Y-63303168D01*
X103704642Y-62684120D02*
X103514166Y-62684120D01*
X103418928Y-62731740D01*
X103371309Y-62779359D01*
X103276071Y-62922216D01*
X103228452Y-63112692D01*
X103228452Y-63493644D01*
X103276071Y-63588882D01*
X103323690Y-63636501D01*
X103418928Y-63684120D01*
X103609404Y-63684120D01*
X103704642Y-63636501D01*
X103752261Y-63588882D01*
X103799880Y-63493644D01*
X103799880Y-63255549D01*
X103752261Y-63160311D01*
X103704642Y-63112692D01*
X103609404Y-63065073D01*
X103418928Y-63065073D01*
X103323690Y-63112692D01*
X103276071Y-63160311D01*
X103228452Y-63255549D01*
X104085595Y-62684120D02*
X104418928Y-63684120D01*
X104752261Y-62684120D01*
X101085595Y-64667454D02*
X101085595Y-65667454D01*
X101085595Y-64715073D02*
X101180833Y-64667454D01*
X101371309Y-64667454D01*
X101466547Y-64715073D01*
X101514166Y-64762692D01*
X101561785Y-64857930D01*
X101561785Y-65143644D01*
X101514166Y-65238882D01*
X101466547Y-65286501D01*
X101371309Y-65334120D01*
X101180833Y-65334120D01*
X101085595Y-65286501D01*
X102133214Y-65334120D02*
X102037976Y-65286501D01*
X101990357Y-65238882D01*
X101942738Y-65143644D01*
X101942738Y-64857930D01*
X101990357Y-64762692D01*
X102037976Y-64715073D01*
X102133214Y-64667454D01*
X102276071Y-64667454D01*
X102371309Y-64715073D01*
X102418928Y-64762692D01*
X102466547Y-64857930D01*
X102466547Y-65143644D01*
X102418928Y-65238882D01*
X102371309Y-65286501D01*
X102276071Y-65334120D01*
X102133214Y-65334120D01*
X102799880Y-64667454D02*
X102990357Y-65334120D01*
X103180833Y-64857930D01*
X103371309Y-65334120D01*
X103561785Y-64667454D01*
X104323690Y-65286501D02*
X104228452Y-65334120D01*
X104037976Y-65334120D01*
X103942738Y-65286501D01*
X103895119Y-65191263D01*
X103895119Y-64810311D01*
X103942738Y-64715073D01*
X104037976Y-64667454D01*
X104228452Y-64667454D01*
X104323690Y-64715073D01*
X104371309Y-64810311D01*
X104371309Y-64905549D01*
X103895119Y-65000787D01*
X104799880Y-65334120D02*
X104799880Y-64667454D01*
X104799880Y-64857930D02*
X104847500Y-64762692D01*
X104895119Y-64715073D01*
X104990357Y-64667454D01*
X105085595Y-64667454D01*
X101085595Y-66984120D02*
X101085595Y-66317454D01*
X101085595Y-65984120D02*
X101037976Y-66031740D01*
X101085595Y-66079359D01*
X101133214Y-66031740D01*
X101085595Y-65984120D01*
X101085595Y-66079359D01*
X101561785Y-66317454D02*
X101561785Y-66984120D01*
X101561785Y-66412692D02*
X101609404Y-66365073D01*
X101704642Y-66317454D01*
X101847500Y-66317454D01*
X101942738Y-66365073D01*
X101990357Y-66460311D01*
X101990357Y-66984120D01*
X104179047Y-68811428D02*
X104940952Y-68811428D01*
X104560000Y-69192380D02*
X104560000Y-68430476D01*
X104179047Y-71351428D02*
X104940952Y-71351428D01*
X150732380Y-77002857D02*
X150732380Y-77479047D01*
X149732380Y-77479047D01*
X150208571Y-76669523D02*
X150208571Y-76336190D01*
X150732380Y-76193333D02*
X150732380Y-76669523D01*
X149732380Y-76669523D01*
X149732380Y-76193333D01*
X150732380Y-75764761D02*
X149732380Y-75764761D01*
X149732380Y-75526666D01*
X149780000Y-75383809D01*
X149875238Y-75288571D01*
X149970476Y-75240952D01*
X150160952Y-75193333D01*
X150303809Y-75193333D01*
X150494285Y-75240952D01*
X150589523Y-75288571D01*
X150684761Y-75383809D01*
X150732380Y-75526666D01*
X150732380Y-75764761D01*
D11*
X141390000Y-77630000D02*
X141390000Y-73820000D01*
X136310000Y-77630000D02*
X136310000Y-73820000D01*
X128690000Y-77630000D02*
X128690000Y-73820000D01*
D10*
X139159523Y-76812380D02*
X138683333Y-76812380D01*
X138683333Y-75812380D01*
X144239523Y-76812380D02*
X143906190Y-76336190D01*
X143668095Y-76812380D02*
X143668095Y-75812380D01*
X144049047Y-75812380D01*
X144144285Y-75860000D01*
X144191904Y-75907619D01*
X144239523Y-76002857D01*
X144239523Y-76145714D01*
X144191904Y-76240952D01*
X144144285Y-76288571D01*
X144049047Y-76336190D01*
X143668095Y-76336190D01*
X135349523Y-76812380D02*
X135016190Y-76336190D01*
X134778095Y-76812380D02*
X134778095Y-75812380D01*
X135159047Y-75812380D01*
X135254285Y-75860000D01*
X135301904Y-75907619D01*
X135349523Y-76002857D01*
X135349523Y-76145714D01*
X135301904Y-76240952D01*
X135254285Y-76288571D01*
X135159047Y-76336190D01*
X134778095Y-76336190D01*
X127729523Y-76812380D02*
X127253333Y-76812380D01*
X127253333Y-75812380D01*
X154471047Y-77955428D02*
X155232952Y-77955428D01*
X154852000Y-78336380D02*
X154852000Y-77574476D01*
X152947047Y-77955428D02*
X153708952Y-77955428D01*
X132119047Y-76431428D02*
X132880952Y-76431428D01*
X132500000Y-76812380D02*
X132500000Y-76050476D01*
X124499047Y-76431428D02*
X125260952Y-76431428D01*
X124880000Y-76812380D02*
X124880000Y-76050476D01*
X129579047Y-76431428D02*
X130340952Y-76431428D01*
X121959047Y-76431428D02*
X122720952Y-76431428D01*
X157000000Y-80000000D02*
X161500000Y-80000000D01*
X103500000Y-80000000D02*
X157000000Y-80000000D01*
X104875000Y-76500000D02*
G75*
G03X104875000Y-76500000I-1375000J0D01*
G01*
X162875000Y-76500000D02*
G75*
G03X162875000Y-76500000I-1375000J0D01*
G01*
X100000000Y-76500000D02*
X100000000Y-53500000D01*
X165000000Y-53500000D02*
X165000000Y-76500000D01*
X103500000Y-50000000D02*
X161500000Y-50000000D01*
X103500000Y-80000000D02*
G75*
G02X100000000Y-76500000I0J3500000D01*
G01*
X165000000Y-76500000D02*
G75*
G02X161500000Y-80000000I-3500000J0D01*
G01*
X100000000Y-53500000D02*
G75*
G02X103500000Y-50000000I3500000J0D01*
G01*
X161500000Y-50000000D02*
G75*
G02X165000000Y-53500000I0J-3500000D01*
G01*
X162875000Y-53500000D02*
G75*
G03X162875000Y-53500000I-1375000J0D01*
G01*
X104875000Y-53500000D02*
G75*
G03X104875000Y-53500000I-1375000J0D01*
G01*
D12*
G04 #@! TO.C,J5*
X151530000Y-74815000D02*
X151530000Y-77905000D01*
X156590000Y-76360000D02*
G75*
G03X156590000Y-76360000I-2500000J0D01*
G01*
X157080000Y-76359538D02*
G75*
G02X151530000Y-77904830I-2990000J-462D01*
G01*
X157080000Y-76360462D02*
G75*
G03X151530000Y-74815170I-2990000J462D01*
G01*
G04 #@! TO.C,J4*
X141330000Y-80230000D02*
X141330000Y-78900000D01*
X142660000Y-80230000D02*
X141330000Y-80230000D01*
X143930000Y-77570000D02*
X143930000Y-80230000D01*
X146530000Y-77570000D02*
X143930000Y-77570000D01*
X146530000Y-80230000D02*
X146530000Y-77570000D01*
X143930000Y-80230000D02*
X146530000Y-80230000D01*
G04 #@! TO.C,J3*
X136250000Y-80230000D02*
X136250000Y-78900000D01*
X137580000Y-80230000D02*
X136250000Y-80230000D01*
X138850000Y-77570000D02*
X138850000Y-80230000D01*
X141450000Y-77570000D02*
X138850000Y-77570000D01*
X141450000Y-80230000D02*
X141450000Y-77570000D01*
X138850000Y-80230000D02*
X141450000Y-80230000D01*
G04 #@! TO.C,J6*
X103350000Y-72610000D02*
X102020000Y-72610000D01*
X103350000Y-71280000D02*
X103350000Y-72610000D01*
X100690000Y-70010000D02*
X103350000Y-70010000D01*
X100690000Y-67410000D02*
X100690000Y-70010000D01*
X103350000Y-67410000D02*
X100690000Y-67410000D01*
X103350000Y-70010000D02*
X103350000Y-67410000D01*
G04 #@! TO.C,J1*
X121010000Y-80230000D02*
X121010000Y-78900000D01*
X122340000Y-80230000D02*
X121010000Y-80230000D01*
X123610000Y-77570000D02*
X123610000Y-80230000D01*
X128750000Y-77570000D02*
X123610000Y-77570000D01*
X128750000Y-80230000D02*
X128750000Y-77570000D01*
X123610000Y-80230000D02*
X128750000Y-80230000D01*
G04 #@! TO.C,J2*
X128630000Y-80230000D02*
X128630000Y-78900000D01*
X129960000Y-80230000D02*
X128630000Y-80230000D01*
X131230000Y-77570000D02*
X131230000Y-80230000D01*
X136370000Y-77570000D02*
X131230000Y-77570000D01*
X136370000Y-80230000D02*
X136370000Y-77570000D01*
X131230000Y-80230000D02*
X136370000Y-80230000D01*
G04 #@! TO.C,J7*
X108310000Y-67410000D02*
X109640000Y-67410000D01*
X108310000Y-68740000D02*
X108310000Y-67410000D01*
X110970000Y-70010000D02*
X108310000Y-70010000D01*
X110970000Y-75150000D02*
X110970000Y-70010000D01*
X108310000Y-75150000D02*
X110970000Y-75150000D01*
X108310000Y-70010000D02*
X108310000Y-75150000D01*
D10*
G04 #@! TO.C,R3*
X139319900Y-67543660D02*
X139319900Y-67142340D01*
X139319900Y-67442060D02*
X139319900Y-67543660D01*
X140920100Y-67343000D02*
X140920100Y-67543660D01*
X140920100Y-67343000D02*
X140920100Y-67142340D01*
G04 #@! TO.C,R5*
X151080100Y-67470000D02*
X151080100Y-67269340D01*
X151080100Y-67470000D02*
X151080100Y-67670660D01*
X149479900Y-67569060D02*
X149479900Y-67670660D01*
X149479900Y-67670660D02*
X149479900Y-67269340D01*
G04 #@! TO.C,R4*
X146000100Y-67548740D02*
X146000100Y-67348080D01*
X146000100Y-67548740D02*
X146000100Y-67749400D01*
X144399900Y-67647800D02*
X144399900Y-67749400D01*
X144399900Y-67749400D02*
X144399900Y-67348080D01*
G04 #@! TO.C,R1*
X129159900Y-67543660D02*
X129159900Y-67142340D01*
X129159900Y-67442060D02*
X129159900Y-67543660D01*
X130760100Y-67343000D02*
X130760100Y-67543660D01*
X130760100Y-67343000D02*
X130760100Y-67142340D01*
G04 #@! TO.C,R2*
X135840100Y-67343000D02*
X135840100Y-67142340D01*
X135840100Y-67343000D02*
X135840100Y-67543660D01*
X134239900Y-67442060D02*
X134239900Y-67543660D01*
X134239900Y-67543660D02*
X134239900Y-67142340D01*
D12*
G04 #@! TO.C,J10*
X136250000Y-59275000D02*
X136250000Y-57945000D01*
X137580000Y-59275000D02*
X136250000Y-59275000D01*
X138850000Y-56615000D02*
X138850000Y-59275000D01*
X143990000Y-56615000D02*
X138850000Y-56615000D01*
X143990000Y-59275000D02*
X143990000Y-56615000D01*
X138850000Y-59275000D02*
X143990000Y-59275000D01*
G04 #@! TO.C,J11*
X154090000Y-59275000D02*
X159230000Y-59275000D01*
X159230000Y-59275000D02*
X159230000Y-56615000D01*
X159230000Y-56615000D02*
X154090000Y-56615000D01*
X154090000Y-56615000D02*
X154090000Y-59275000D01*
X152820000Y-59275000D02*
X151490000Y-59275000D01*
X151490000Y-59275000D02*
X151490000Y-57945000D01*
G04 #@! TO.C,J12*
X164310000Y-70010000D02*
X164310000Y-64870000D01*
X164310000Y-64870000D02*
X161650000Y-64870000D01*
X161650000Y-64870000D02*
X161650000Y-70010000D01*
X161650000Y-70010000D02*
X164310000Y-70010000D01*
X164310000Y-71280000D02*
X164310000Y-72610000D01*
X164310000Y-72610000D02*
X162980000Y-72610000D01*
G04 #@! TO.C,J8*
X105770000Y-59275000D02*
X105770000Y-57945000D01*
X107100000Y-59275000D02*
X105770000Y-59275000D01*
X108370000Y-56615000D02*
X108370000Y-59275000D01*
X113510000Y-56615000D02*
X108370000Y-56615000D01*
X113510000Y-59275000D02*
X113510000Y-56615000D01*
X108370000Y-59275000D02*
X113510000Y-59275000D01*
G04 #@! TO.C,J9*
X123610000Y-59275000D02*
X128750000Y-59275000D01*
X128750000Y-59275000D02*
X128750000Y-56615000D01*
X128750000Y-56615000D02*
X123610000Y-56615000D01*
X123610000Y-56615000D02*
X123610000Y-59275000D01*
X122340000Y-59275000D02*
X121010000Y-59275000D01*
X121010000Y-59275000D02*
X121010000Y-57945000D01*
G04 #@! TD*
G04 #@! TO.C,R3*
D10*
X138032380Y-70176666D02*
X137556190Y-70510000D01*
X138032380Y-70748095D02*
X137032380Y-70748095D01*
X137032380Y-70367142D01*
X137080000Y-70271904D01*
X137127619Y-70224285D01*
X137222857Y-70176666D01*
X137365714Y-70176666D01*
X137460952Y-70224285D01*
X137508571Y-70271904D01*
X137556190Y-70367142D01*
X137556190Y-70748095D01*
X137032380Y-69843333D02*
X137032380Y-69224285D01*
X137413333Y-69557619D01*
X137413333Y-69414761D01*
X137460952Y-69319523D01*
X137508571Y-69271904D01*
X137603809Y-69224285D01*
X137841904Y-69224285D01*
X137937142Y-69271904D01*
X137984761Y-69319523D01*
X138032380Y-69414761D01*
X138032380Y-69700476D01*
X137984761Y-69795714D01*
X137937142Y-69843333D01*
X137032380Y-66088714D02*
X137032380Y-65469666D01*
X137413333Y-65803000D01*
X137413333Y-65660142D01*
X137460952Y-65564904D01*
X137508571Y-65517285D01*
X137603809Y-65469666D01*
X137841904Y-65469666D01*
X137937142Y-65517285D01*
X137984761Y-65564904D01*
X138032380Y-65660142D01*
X138032380Y-65945857D01*
X137984761Y-66041095D01*
X137937142Y-66088714D01*
X137032380Y-65136333D02*
X137032380Y-64517285D01*
X137413333Y-64850619D01*
X137413333Y-64707761D01*
X137460952Y-64612523D01*
X137508571Y-64564904D01*
X137603809Y-64517285D01*
X137841904Y-64517285D01*
X137937142Y-64564904D01*
X137984761Y-64612523D01*
X138032380Y-64707761D01*
X138032380Y-64993476D01*
X137984761Y-65088714D01*
X137937142Y-65136333D01*
X137032380Y-63898238D02*
X137032380Y-63803000D01*
X137080000Y-63707761D01*
X137127619Y-63660142D01*
X137222857Y-63612523D01*
X137413333Y-63564904D01*
X137651428Y-63564904D01*
X137841904Y-63612523D01*
X137937142Y-63660142D01*
X137984761Y-63707761D01*
X138032380Y-63803000D01*
X138032380Y-63898238D01*
X137984761Y-63993476D01*
X137937142Y-64041095D01*
X137841904Y-64088714D01*
X137651428Y-64136333D01*
X137413333Y-64136333D01*
X137222857Y-64088714D01*
X137127619Y-64041095D01*
X137080000Y-63993476D01*
X137032380Y-63898238D01*
G04 #@! TO.C,R5*
X148192380Y-70176666D02*
X147716190Y-70510000D01*
X148192380Y-70748095D02*
X147192380Y-70748095D01*
X147192380Y-70367142D01*
X147240000Y-70271904D01*
X147287619Y-70224285D01*
X147382857Y-70176666D01*
X147525714Y-70176666D01*
X147620952Y-70224285D01*
X147668571Y-70271904D01*
X147716190Y-70367142D01*
X147716190Y-70748095D01*
X147192380Y-69271904D02*
X147192380Y-69748095D01*
X147668571Y-69795714D01*
X147620952Y-69748095D01*
X147573333Y-69652857D01*
X147573333Y-69414761D01*
X147620952Y-69319523D01*
X147668571Y-69271904D01*
X147763809Y-69224285D01*
X148001904Y-69224285D01*
X148097142Y-69271904D01*
X148144761Y-69319523D01*
X148192380Y-69414761D01*
X148192380Y-69652857D01*
X148144761Y-69748095D01*
X148097142Y-69795714D01*
X147192380Y-66088714D02*
X147192380Y-65469666D01*
X147573333Y-65803000D01*
X147573333Y-65660142D01*
X147620952Y-65564904D01*
X147668571Y-65517285D01*
X147763809Y-65469666D01*
X148001904Y-65469666D01*
X148097142Y-65517285D01*
X148144761Y-65564904D01*
X148192380Y-65660142D01*
X148192380Y-65945857D01*
X148144761Y-66041095D01*
X148097142Y-66088714D01*
X147192380Y-65136333D02*
X147192380Y-64517285D01*
X147573333Y-64850619D01*
X147573333Y-64707761D01*
X147620952Y-64612523D01*
X147668571Y-64564904D01*
X147763809Y-64517285D01*
X148001904Y-64517285D01*
X148097142Y-64564904D01*
X148144761Y-64612523D01*
X148192380Y-64707761D01*
X148192380Y-64993476D01*
X148144761Y-65088714D01*
X148097142Y-65136333D01*
X147192380Y-63898238D02*
X147192380Y-63803000D01*
X147240000Y-63707761D01*
X147287619Y-63660142D01*
X147382857Y-63612523D01*
X147573333Y-63564904D01*
X147811428Y-63564904D01*
X148001904Y-63612523D01*
X148097142Y-63660142D01*
X148144761Y-63707761D01*
X148192380Y-63803000D01*
X148192380Y-63898238D01*
X148144761Y-63993476D01*
X148097142Y-64041095D01*
X148001904Y-64088714D01*
X147811428Y-64136333D01*
X147573333Y-64136333D01*
X147382857Y-64088714D01*
X147287619Y-64041095D01*
X147240000Y-63993476D01*
X147192380Y-63898238D01*
G04 #@! TO.C,R4*
X143112380Y-70176666D02*
X142636190Y-70510000D01*
X143112380Y-70748095D02*
X142112380Y-70748095D01*
X142112380Y-70367142D01*
X142160000Y-70271904D01*
X142207619Y-70224285D01*
X142302857Y-70176666D01*
X142445714Y-70176666D01*
X142540952Y-70224285D01*
X142588571Y-70271904D01*
X142636190Y-70367142D01*
X142636190Y-70748095D01*
X142445714Y-69319523D02*
X143112380Y-69319523D01*
X142064761Y-69557619D02*
X142779047Y-69795714D01*
X142779047Y-69176666D01*
X142112380Y-66167454D02*
X142112380Y-65548406D01*
X142493333Y-65881740D01*
X142493333Y-65738882D01*
X142540952Y-65643644D01*
X142588571Y-65596025D01*
X142683809Y-65548406D01*
X142921904Y-65548406D01*
X143017142Y-65596025D01*
X143064761Y-65643644D01*
X143112380Y-65738882D01*
X143112380Y-66024597D01*
X143064761Y-66119835D01*
X143017142Y-66167454D01*
X142112380Y-65215073D02*
X142112380Y-64596025D01*
X142493333Y-64929359D01*
X142493333Y-64786501D01*
X142540952Y-64691263D01*
X142588571Y-64643644D01*
X142683809Y-64596025D01*
X142921904Y-64596025D01*
X143017142Y-64643644D01*
X143064761Y-64691263D01*
X143112380Y-64786501D01*
X143112380Y-65072216D01*
X143064761Y-65167454D01*
X143017142Y-65215073D01*
X142112380Y-63976978D02*
X142112380Y-63881740D01*
X142160000Y-63786501D01*
X142207619Y-63738882D01*
X142302857Y-63691263D01*
X142493333Y-63643644D01*
X142731428Y-63643644D01*
X142921904Y-63691263D01*
X143017142Y-63738882D01*
X143064761Y-63786501D01*
X143112380Y-63881740D01*
X143112380Y-63976978D01*
X143064761Y-64072216D01*
X143017142Y-64119835D01*
X142921904Y-64167454D01*
X142731428Y-64215073D01*
X142493333Y-64215073D01*
X142302857Y-64167454D01*
X142207619Y-64119835D01*
X142160000Y-64072216D01*
X142112380Y-63976978D01*
G04 #@! TO.C,R1*
X127872380Y-70176666D02*
X127396190Y-70510000D01*
X127872380Y-70748095D02*
X126872380Y-70748095D01*
X126872380Y-70367142D01*
X126920000Y-70271904D01*
X126967619Y-70224285D01*
X127062857Y-70176666D01*
X127205714Y-70176666D01*
X127300952Y-70224285D01*
X127348571Y-70271904D01*
X127396190Y-70367142D01*
X127396190Y-70748095D01*
X127872380Y-69224285D02*
X127872380Y-69795714D01*
X127872380Y-69510000D02*
X126872380Y-69510000D01*
X127015238Y-69605238D01*
X127110476Y-69700476D01*
X127158095Y-69795714D01*
X126872380Y-65961714D02*
X126872380Y-65342666D01*
X127253333Y-65676000D01*
X127253333Y-65533142D01*
X127300952Y-65437904D01*
X127348571Y-65390285D01*
X127443809Y-65342666D01*
X127681904Y-65342666D01*
X127777142Y-65390285D01*
X127824761Y-65437904D01*
X127872380Y-65533142D01*
X127872380Y-65818857D01*
X127824761Y-65914095D01*
X127777142Y-65961714D01*
X126872380Y-65009333D02*
X126872380Y-64390285D01*
X127253333Y-64723619D01*
X127253333Y-64580761D01*
X127300952Y-64485523D01*
X127348571Y-64437904D01*
X127443809Y-64390285D01*
X127681904Y-64390285D01*
X127777142Y-64437904D01*
X127824761Y-64485523D01*
X127872380Y-64580761D01*
X127872380Y-64866476D01*
X127824761Y-64961714D01*
X127777142Y-65009333D01*
X126872380Y-63771238D02*
X126872380Y-63676000D01*
X126920000Y-63580761D01*
X126967619Y-63533142D01*
X127062857Y-63485523D01*
X127253333Y-63437904D01*
X127491428Y-63437904D01*
X127681904Y-63485523D01*
X127777142Y-63533142D01*
X127824761Y-63580761D01*
X127872380Y-63676000D01*
X127872380Y-63771238D01*
X127824761Y-63866476D01*
X127777142Y-63914095D01*
X127681904Y-63961714D01*
X127491428Y-64009333D01*
X127253333Y-64009333D01*
X127062857Y-63961714D01*
X126967619Y-63914095D01*
X126920000Y-63866476D01*
X126872380Y-63771238D01*
G04 #@! TO.C,R2*
X132952380Y-70176666D02*
X132476190Y-70510000D01*
X132952380Y-70748095D02*
X131952380Y-70748095D01*
X131952380Y-70367142D01*
X132000000Y-70271904D01*
X132047619Y-70224285D01*
X132142857Y-70176666D01*
X132285714Y-70176666D01*
X132380952Y-70224285D01*
X132428571Y-70271904D01*
X132476190Y-70367142D01*
X132476190Y-70748095D01*
X132047619Y-69795714D02*
X132000000Y-69748095D01*
X131952380Y-69652857D01*
X131952380Y-69414761D01*
X132000000Y-69319523D01*
X132047619Y-69271904D01*
X132142857Y-69224285D01*
X132238095Y-69224285D01*
X132380952Y-69271904D01*
X132952380Y-69843333D01*
X132952380Y-69224285D01*
X131952380Y-65961714D02*
X131952380Y-65342666D01*
X132333333Y-65676000D01*
X132333333Y-65533142D01*
X132380952Y-65437904D01*
X132428571Y-65390285D01*
X132523809Y-65342666D01*
X132761904Y-65342666D01*
X132857142Y-65390285D01*
X132904761Y-65437904D01*
X132952380Y-65533142D01*
X132952380Y-65818857D01*
X132904761Y-65914095D01*
X132857142Y-65961714D01*
X131952380Y-65009333D02*
X131952380Y-64390285D01*
X132333333Y-64723619D01*
X132333333Y-64580761D01*
X132380952Y-64485523D01*
X132428571Y-64437904D01*
X132523809Y-64390285D01*
X132761904Y-64390285D01*
X132857142Y-64437904D01*
X132904761Y-64485523D01*
X132952380Y-64580761D01*
X132952380Y-64866476D01*
X132904761Y-64961714D01*
X132857142Y-65009333D01*
X131952380Y-63771238D02*
X131952380Y-63676000D01*
X132000000Y-63580761D01*
X132047619Y-63533142D01*
X132142857Y-63485523D01*
X132333333Y-63437904D01*
X132571428Y-63437904D01*
X132761904Y-63485523D01*
X132857142Y-63533142D01*
X132904761Y-63580761D01*
X132952380Y-63676000D01*
X132952380Y-63771238D01*
X132904761Y-63866476D01*
X132857142Y-63914095D01*
X132761904Y-63961714D01*
X132571428Y-64009333D01*
X132333333Y-64009333D01*
X132142857Y-63961714D01*
X132047619Y-63914095D01*
X132000000Y-63866476D01*
X131952380Y-63771238D01*
G04 #@! TD*
M02*
