M48
INCH,TZ
T1C0.0354
T2C0.0394
T3C0.0394
%
G90
G05
T1
X60165Y-30063
X61165Y-30063
T2
X54165Y-22813
X55165Y-22813
X56165Y-22813
X40165Y-27063
X40165Y-28063
X48165Y-31063
X49165Y-31063
X50165Y-31063
X48165Y-22813
X49165Y-22813
X50165Y-22813
X54165Y-31063
X55165Y-31063
X56165Y-31063
X57165Y-31063
X51165Y-31063
X52165Y-31063
X53165Y-31063
X43165Y-27063
X43165Y-28063
X43165Y-29063
X60165Y-22813
X61165Y-22813
X62165Y-22813
X42165Y-22813
X43165Y-22813
X44165Y-22813
X42665Y-20563
X42665Y-21563
X43665Y-20563
X43665Y-21563
X44665Y-20563
X44665Y-21563
X45665Y-20563
X45665Y-21563
X46665Y-20563
X46665Y-21563
X47665Y-20563
X47665Y-21563
X48665Y-20563
X48665Y-21563
X49665Y-20563
X49665Y-21563
X50665Y-20563
X50665Y-21563
X51665Y-20563
X51665Y-21563
X52665Y-20563
X52665Y-21563
X53665Y-20563
X53665Y-21563
X54665Y-20563
X54665Y-21563
X55665Y-20563
X55665Y-21563
X56665Y-20563
X56665Y-21563
X57665Y-20563
X57665Y-21563
X58665Y-20563
X58665Y-21563
X59665Y-20563
X59665Y-21563
X60665Y-20563
X60665Y-21563
X61665Y-20563
X61665Y-21563
X64165Y-26063
X64165Y-27063
X64165Y-28063
T3
X55165Y-24544
X55165Y-28482
X59165Y-24594
X59165Y-28532
X57165Y-28563
X53165Y-24544
X53165Y-28482
X51165Y-24544
X51165Y-28482
X57165Y-24625
T0
M30
